<svg width="49" height="49" viewBox="0 0 49 49" fill="none" xmlns="http://www.w3.org/2000/svg">
<g clip-path="url(#clip0_260_6462)">
<g clip-path="url(#clip1_260_6462)">
<path d="M29.5948 42.1133C29.6125 42.2263 29.6057 42.3418 29.5746 42.452C29.5434 42.5621 29.4889 42.6642 29.4146 42.7513C29.3403 42.8383 29.2481 42.9083 29.1442 42.9563C29.0403 43.0043 28.9273 43.0292 28.8128 43.0295H21.8224C21.0562 42.5397 20.3217 42.0105 19.6108 41.4497C19.3264 41.2286 19.0499 40.9994 18.7734 40.7704L19.3421 37.374C19.3721 37.1884 19.4674 37.0195 19.6108 36.8979C19.7541 36.7763 19.9361 36.7099 20.1241 36.7105H28.0229C28.2109 36.7099 28.393 36.7763 28.5364 36.8979C28.6797 37.0195 28.7749 37.1884 28.8049 37.374L29.4842 41.4497L29.5948 42.1133Z" fill="#EC7866"/>
<path d="M13.0155 22.4927H8.2762C7.83996 22.4927 7.48633 22.8463 7.48633 23.2826V37.5003C7.48633 37.9366 7.83996 38.2902 8.2762 38.2902H13.0155C13.4516 38.2902 13.8054 37.9366 13.8054 37.5003V23.2826C13.8054 22.8463 13.4516 22.4927 13.0155 22.4927Z" fill="#EC7866"/>
<path d="M26.4433 22.4927H21.7039C21.2677 22.4927 20.9141 22.8463 20.9141 23.2826V37.5003C20.9141 37.9366 21.2677 38.2902 21.7039 38.2902H26.4433C26.8794 38.2902 27.2331 37.9366 27.2331 37.5003V23.2826C27.2331 22.8463 26.8794 22.4927 26.4433 22.4927Z" fill="#EC7866"/>
<path d="M39.871 22.4927H35.1317C34.6955 22.4927 34.3418 22.8463 34.3418 23.2826V37.5003C34.3418 37.9366 34.6955 38.2902 35.1317 38.2902H39.871C40.3072 38.2902 40.6608 37.9366 40.6608 37.5003V23.2826C40.6608 22.8463 40.3072 22.4927 39.871 22.4927Z" fill="#EC7866"/>
<path d="M28.8114 17.7534H19.3328C19.218 17.7534 19.1048 17.7785 19.0006 17.8267C18.8965 17.875 18.8042 17.9453 18.7301 18.0328C18.6559 18.1204 18.6018 18.2231 18.5713 18.3336C18.5409 18.4442 18.5348 18.5602 18.5537 18.6733L19.3437 23.4126C19.3744 23.597 19.4696 23.7644 19.6122 23.8853C19.7548 24.0061 19.9357 24.0724 20.1227 24.0724H28.0214C28.2083 24.0725 28.3894 24.0062 28.532 23.8854C28.6746 23.7645 28.7698 23.597 28.8005 23.4126L29.5903 18.6733C29.6092 18.5602 29.6032 18.4442 29.5728 18.3336C29.5423 18.2231 29.4882 18.1204 29.414 18.0328C29.3399 17.9453 29.2475 17.875 29.1434 17.8267C29.0393 17.7785 28.9261 17.7534 28.8114 17.7534Z" fill="#EC7866"/>
<path d="M15.3855 17.7534H5.90702C5.79229 17.7534 5.67894 17.7785 5.57487 17.8267C5.47078 17.875 5.37845 17.9453 5.3043 18.0328C5.23016 18.1204 5.17597 18.2231 5.14552 18.3336C5.11507 18.4442 5.10908 18.5602 5.12796 18.6733L5.91784 23.4126C5.94861 23.597 6.04378 23.7644 6.18642 23.8853C6.32908 24.0061 6.50996 24.0724 6.69689 24.0724H14.5957C14.7826 24.0724 14.9635 24.0061 15.1062 23.8853C15.2488 23.7644 15.344 23.597 15.3747 23.4126L16.1646 18.6733C16.1835 18.5602 16.1775 18.4442 16.147 18.3336C16.1166 18.2231 16.0624 18.1204 15.9883 18.0328C15.9141 17.9453 15.8218 17.875 15.7177 17.8267C15.6136 17.7785 15.5002 17.7534 15.3855 17.7534Z" fill="#EC7866"/>
<path d="M33.5524 24.0724H41.4511C41.6381 24.0725 41.819 24.0062 41.9617 23.8854C42.1043 23.7645 42.1994 23.597 42.2301 23.4126L43.0201 18.6733C43.039 18.5602 43.0329 18.4442 43.0025 18.3336C42.972 18.2231 42.9179 18.1204 42.8437 18.0328C42.7696 17.9453 42.6773 17.875 42.5732 17.8267C42.469 17.7785 42.3557 17.7534 42.241 17.7534H32.7625C32.6477 17.7534 32.5344 17.7785 32.4303 17.8267C32.3263 17.875 32.2339 17.9453 32.1598 18.0328C32.0857 18.1204 32.0314 18.2231 32.0009 18.3336C31.9705 18.4442 31.9646 18.5602 31.9835 18.6733L32.7733 23.4126C32.804 23.597 32.8991 23.7645 33.0418 23.8854C33.1844 24.0062 33.3653 24.0725 33.5524 24.0724Z" fill="#EC7866"/>
<path d="M28.0214 36.7104H20.1227C19.9357 36.7104 19.7548 36.7768 19.6122 36.8976C19.4696 37.0185 19.3744 37.1859 19.3437 37.3703L18.5537 42.1095C18.5348 42.2227 18.5409 42.3387 18.5713 42.4493C18.6018 42.5598 18.6559 42.6625 18.7301 42.7501C18.8042 42.8376 18.8965 42.9079 19.0006 42.9562C19.1048 43.0044 19.218 43.0295 19.3328 43.0295H28.8114C28.9261 43.0295 29.0393 43.0044 29.1434 42.9562C29.2475 42.9079 29.3399 42.8376 29.414 42.7501C29.4882 42.6625 29.5423 42.5598 29.5728 42.4493C29.6032 42.3387 29.6092 42.2227 29.5903 42.1095L28.8005 37.3703C28.7698 37.1859 28.6746 37.0183 28.532 36.8975C28.3894 36.7766 28.2083 36.7103 28.0214 36.7104Z" fill="#EC7866"/>
<path d="M41.4511 36.7104H33.5524C33.3653 36.7103 33.1844 36.7766 33.0418 36.8975C32.8991 37.0183 32.804 37.1859 32.7733 37.3703L31.9835 42.1095C31.9646 42.2227 31.9705 42.3387 32.0009 42.4493C32.0314 42.5598 32.0857 42.6625 32.1598 42.7501C32.2339 42.8376 32.3263 42.9079 32.4303 42.9562C32.5344 43.0044 32.6477 43.0295 32.7625 43.0295H42.241C42.3557 43.0295 42.469 43.0044 42.5732 42.9562C42.6773 42.9079 42.7696 42.8376 42.8437 42.7501C42.9179 42.6625 42.972 42.5598 43.0025 42.4493C43.0329 42.3387 43.039 42.2227 43.0201 42.1095L42.2301 37.3703C42.1994 37.1859 42.1043 37.0183 41.9617 36.8975C41.819 36.7766 41.6381 36.7103 41.4511 36.7104Z" fill="#EC7866"/>
<path d="M14.5957 36.7104H6.69689C6.50996 36.7104 6.32908 36.7768 6.18642 36.8976C6.04378 37.0185 5.94861 37.1859 5.91784 37.3703L5.12796 42.1095C5.10908 42.2227 5.11507 42.3387 5.14552 42.4493C5.17597 42.5598 5.23016 42.6625 5.3043 42.7501C5.37845 42.8376 5.47078 42.9079 5.57487 42.9562C5.67894 43.0044 5.79229 43.0295 5.90702 43.0295H15.3855C15.5002 43.0295 15.6136 43.0044 15.7177 42.9562C15.8218 42.9079 15.9141 42.8376 15.9883 42.7501C16.0624 42.6625 16.1166 42.5598 16.147 42.4493C16.1775 42.3387 16.1835 42.2227 16.1646 42.1095L15.3747 37.3703C15.344 37.1859 15.2488 37.0185 15.1062 36.8976C14.9635 36.7768 14.7826 36.7104 14.5957 36.7104Z" fill="#EC7866"/>
<path d="M8.59264 22.4927C8.43902 21.4454 8.34146 20.3908 8.30039 19.3332C8.28459 18.9383 8.27669 18.5432 8.27669 18.1483C8.27669 18.0141 8.27669 17.8877 8.28459 17.7534H5.11719V19.3332H5.23567L5.91496 23.4089C5.94493 23.5946 6.04016 23.7633 6.18352 23.885C6.32687 24.0066 6.50893 24.073 6.69694 24.0724H8.8691C8.76642 23.5511 8.67162 23.0219 8.59264 22.4927Z" fill="#EC7866"/>
<path d="M44.6095 41.4497H3.53597C3.09973 41.4497 2.74609 41.8033 2.74609 42.2396V46.9788C2.74609 47.4151 3.09973 47.7687 3.53597 47.7687H44.6095C45.0457 47.7687 45.3994 47.4151 45.3994 46.9788V42.2396C45.3994 41.8033 45.0457 41.4497 44.6095 41.4497Z" fill="#E6ECFF"/>
<path d="M13.8054 35.3834V36.7104H7.48633V24.0724H8.86861C9.69672 28.1492 11.3792 32.0041 13.8054 35.3834Z" fill="#C40808"/>
<path d="M19.61 41.45H18.6621L18.7727 40.7706C19.0492 40.9997 19.3257 41.2287 19.61 41.45Z" fill="#EC7866"/>
<path d="M37.8956 47.7687H3.53597C3.32667 47.7681 3.12611 47.6847 2.97812 47.5367C2.83011 47.3887 2.7467 47.1881 2.74609 46.9788V42.2395C2.7467 42.0303 2.83011 41.8297 2.97812 41.6818C3.12611 41.5337 3.32667 41.4503 3.53597 41.4497H19.61C20.3208 42.0105 21.0554 42.5397 21.8216 43.0295C26.607 46.1338 32.1915 47.7804 37.8956 47.7687Z" fill="#E6ECFF"/>
<path d="M44.6095 13.8041H3.53597C3.09973 13.8041 2.74609 14.1577 2.74609 14.5939V18.5432C2.74609 18.9795 3.09973 19.3331 3.53597 19.3331H44.6095C45.0457 19.3331 45.3994 18.9795 45.3994 18.5432V14.5939C45.3994 14.1577 45.0457 13.8041 44.6095 13.8041Z" fill="#E6ECFF"/>
<path d="M8.28312 17.7534C8.27522 17.8877 8.27522 18.0141 8.27522 18.1483C8.27522 18.5432 8.28312 18.9382 8.29892 19.3331H3.53597C3.32667 19.3325 3.12611 19.2491 2.97812 19.1011C2.83011 18.9532 2.7467 18.7525 2.74609 18.5432V13.8041H8.59117C8.51218 14.3254 8.44899 14.8546 8.4016 15.3837C8.33052 16.1657 8.29103 16.9556 8.28312 17.7534Z" fill="#BECCED"/>
<path d="M47.3794 13.9126L24.4731 0.484637C24.3518 0.413798 24.214 0.376465 24.0735 0.376465C23.9331 0.376465 23.7951 0.413798 23.6739 0.484637L0.767511 13.9126C0.617842 14.0002 0.501204 14.1347 0.435607 14.2953C0.370009 14.4559 0.3591 14.6336 0.404564 14.8011C0.450027 14.9685 0.549337 15.1162 0.687156 15.2216C0.824975 15.3269 0.99364 15.384 1.16711 15.3839H46.9798C47.1534 15.384 47.322 15.3269 47.4598 15.2216C47.5977 15.1162 47.697 14.9685 47.7425 14.8011C47.788 14.6336 47.777 14.4559 47.7114 14.2953C47.6458 14.1347 47.5292 14.0002 47.3794 13.9126Z" fill="#E6ECFF"/>
<path d="M25.6526 7.48502C25.862 7.48502 26.063 7.4018 26.211 7.25367C26.3592 7.10555 26.4425 6.90464 26.4425 6.69515V6.57983C26.4408 6.10156 26.2867 5.63626 26.0027 5.25149C25.7185 4.86672 25.3193 4.58248 24.8626 4.44006V4.32552C24.8626 4.11603 24.7795 3.91512 24.6313 3.76699C24.4832 3.61886 24.2822 3.53564 24.0728 3.53564C23.8634 3.53564 23.6624 3.61886 23.5143 3.76699C23.3662 3.91512 23.283 4.11603 23.283 4.32552V4.44006C22.8545 4.57318 22.4758 4.83152 22.1955 5.18181C21.9153 5.5321 21.7463 5.95829 21.7105 6.40546C21.6745 6.85263 21.7733 7.3003 21.9942 7.69082C22.2149 8.08132 22.5476 8.39678 22.9494 8.59653L24.4895 9.36596C24.6255 9.43395 24.7344 9.54584 24.7988 9.68349C24.8634 9.82115 24.8794 9.97652 24.8445 10.1245C24.8097 10.2724 24.7259 10.4042 24.6067 10.4986C24.4876 10.593 24.3401 10.6444 24.1881 10.6445H23.9575C23.7786 10.6443 23.6073 10.5731 23.4808 10.4467C23.3544 10.3202 23.2832 10.1488 23.283 9.96997V9.85465C23.283 9.64516 23.1997 9.44425 23.0515 9.29612C22.9035 9.14799 22.7025 9.06477 22.4931 9.06477C22.2836 9.06477 22.0826 9.14799 21.9346 9.29612C21.7864 9.44425 21.7031 9.64516 21.7031 9.85465V9.96997C21.7048 10.4482 21.8589 10.9135 22.1429 11.2983C22.4271 11.6831 22.8263 11.9673 23.283 12.1098V12.2242C23.283 12.4338 23.3662 12.6347 23.5143 12.7828C23.6624 12.931 23.8634 13.0142 24.0728 13.0142C24.2822 13.0142 24.4832 12.931 24.6313 12.7828C24.7795 12.6347 24.8626 12.4338 24.8626 12.2242V12.1098C25.2911 11.9766 25.6699 11.7183 25.9502 11.368C26.2304 11.0176 26.3994 10.5914 26.4353 10.1442C26.4711 9.69702 26.3722 9.24932 26.1513 8.85883C25.9305 8.46833 25.5977 8.15294 25.1959 7.95327L23.6564 7.18384C23.5202 7.11596 23.4112 7.0041 23.3467 6.86643C23.282 6.72876 23.2659 6.57334 23.3008 6.42534C23.3357 6.27735 23.4195 6.14547 23.5386 6.05108C23.6579 5.95668 23.8055 5.90531 23.9575 5.90527H24.1881C24.367 5.90552 24.5384 5.97667 24.6649 6.10312C24.7913 6.22957 24.8624 6.40099 24.8626 6.57983V6.69515C24.8626 6.90464 24.9459 7.10555 25.0941 7.25367C25.2421 7.4018 25.4431 7.48502 25.6526 7.48502Z" fill="#EC7866"/>
<path d="M9.85524 8.58313C9.2749 10.2811 8.85185 12.0288 8.59143 13.8042C8.51245 14.3255 8.44926 14.8547 8.40187 15.3839H1.1666C0.994151 15.3827 0.82682 15.3252 0.690068 15.2201C0.553318 15.1151 0.454633 14.9682 0.409029 14.8019C0.363426 14.6355 0.373401 14.4588 0.437434 14.2988C0.501469 14.1387 0.616058 14.0038 0.763767 13.9148L9.85524 8.58313Z" fill="#E6ECFF"/>
</g>
</g>
<defs>
<clipPath id="clip0_260_6462">
<rect width="48.1448" height="48.1448" fill="white"/>
</clipPath>
<clipPath id="clip1_260_6462">
<rect width="48.1448" height="48.1448" fill="white"/>
</clipPath>
</defs>
</svg>
