<svg width="49" height="54" viewBox="0 0 49 54" fill="none" xmlns="http://www.w3.org/2000/svg">
<g clip-path="url(#clip0_260_6532)">
<g clip-path="url(#clip1_260_6532)">
<path d="M24.0716 7.43518C20.4454 7.43307 16.9175 8.61374 14.023 10.7981C11.1286 12.9824 9.02553 16.0512 8.03296 19.5389C7.04039 23.0266 7.21246 26.7429 8.52307 30.124C9.83368 33.5051 12.2113 36.3663 15.2952 38.2738V45.1737C15.2952 45.4064 15.3877 45.6297 15.5523 45.7943C15.7169 45.9589 15.9401 46.0513 16.1728 46.0513H31.9703C32.2032 46.0513 32.4264 45.9589 32.591 45.7943C32.7556 45.6297 32.848 45.4064 32.848 45.1737V38.2738C35.932 36.3663 38.3095 33.5051 39.6201 30.124C40.9307 26.7429 41.1029 23.0266 40.1103 19.5389C39.1177 16.0512 37.0147 12.9824 34.1203 10.7981C31.2258 8.61374 27.6979 7.43307 24.0716 7.43518Z" fill="#E6ECFF"/>
<path d="M24.0709 7.43518C21.7788 7.4341 19.5112 7.90676 17.4105 8.8235C15.3097 9.74025 13.421 11.0813 11.863 12.7625C11.8183 14.7061 11.9046 16.6505 12.1213 18.5826L12.1175 18.5899C12.1217 18.6258 12.1286 18.6635 12.1329 18.6995C12.91 26.7844 16.5824 34.3164 22.4736 39.9079H32.8473V38.2754C35.9313 36.3678 38.309 33.5064 39.6196 30.1252C40.9302 26.7441 41.1023 23.0277 40.1098 19.5399C39.1173 16.052 37.0143 12.9831 34.1197 10.7986C31.2253 8.6141 27.6973 7.43326 24.0709 7.43518Z" fill="#E6ECFF"/>
<path d="M11.7839 24.988C11.5511 24.988 11.3279 24.8956 11.1633 24.731C10.9987 24.5664 10.9062 24.3432 10.9062 24.1103C10.9102 20.6201 12.2985 17.2739 14.7665 14.8059C17.2344 12.338 20.5806 10.9497 24.0708 10.9458C24.3035 10.9458 24.5269 11.0383 24.6914 11.2029C24.856 11.3674 24.9484 11.5907 24.9484 11.8234C24.9484 12.0562 24.856 12.2794 24.6914 12.444C24.5269 12.6086 24.3035 12.7011 24.0708 12.7011C21.0459 12.7044 18.1458 13.9075 16.007 16.0465C13.868 18.1854 12.6649 21.0855 12.6615 24.1103C12.6615 24.3432 12.5691 24.5664 12.4045 24.731C12.2399 24.8956 12.0167 24.988 11.7839 24.988Z" fill="#EC7866"/>
<path d="M24.0709 5.6799C23.8382 5.6799 23.6149 5.58743 23.4504 5.42285C23.2858 5.25826 23.1934 5.03503 23.1934 4.80226V1.2917C23.1934 1.05894 23.2858 0.835707 23.4504 0.671117C23.6149 0.506527 23.8382 0.414062 24.0709 0.414062C24.3036 0.414062 24.527 0.506527 24.6915 0.671117C24.8561 0.835707 24.9485 1.05894 24.9485 1.2917V4.80226C24.9485 5.03503 24.8561 5.25826 24.6915 5.42285C24.527 5.58743 24.3036 5.6799 24.0709 5.6799Z" fill="#EC7866"/>
<path d="M37.4916 10.6886C37.41 10.6072 37.3452 10.5104 37.3011 10.404C37.257 10.2975 37.2342 10.1834 37.2344 10.0681C37.2342 9.95288 37.257 9.83876 37.3011 9.73229C37.3452 9.62583 37.41 9.5291 37.4916 9.44764L40.1244 6.81472C40.29 6.65485 40.5116 6.5664 40.7417 6.56839C40.9719 6.5704 41.192 6.66269 41.3546 6.82542C41.5174 6.98813 41.6097 7.20826 41.6117 7.43837C41.6137 7.66849 41.5253 7.89018 41.3653 8.05571L38.7325 10.6886C38.651 10.7701 38.5543 10.8348 38.4478 10.879C38.3413 10.9231 38.2272 10.9458 38.1119 10.9458C37.9967 10.9458 37.8826 10.9231 37.7761 10.879C37.6697 10.8348 37.573 10.7701 37.4916 10.6886Z" fill="#EC7866"/>
<path d="M46.8902 24.9881H43.3797C43.147 24.9881 42.9236 24.8957 42.7591 24.731C42.5945 24.5664 42.502 24.3432 42.502 24.1104C42.502 23.8777 42.5945 23.6545 42.7591 23.4898C42.9236 23.3252 43.147 23.2328 43.3797 23.2328H46.8902C47.1229 23.2328 47.3463 23.3252 47.5108 23.4898C47.6754 23.6545 47.7679 23.8777 47.7679 24.1104C47.7679 24.3432 47.6754 24.5664 47.5108 24.731C47.3463 24.8957 47.1229 24.9881 46.8902 24.9881Z" fill="#EC7866"/>
<path d="M9.41053 10.6886L6.77761 8.05571C6.61774 7.89018 6.52929 7.66849 6.53128 7.43837C6.53329 7.20826 6.62558 6.98813 6.78831 6.82542C6.95103 6.66269 7.17115 6.5704 7.40126 6.56839C7.63138 6.5664 7.85307 6.65485 8.0186 6.81472L10.6515 9.44764C10.8114 9.61316 10.8998 9.83486 10.8978 10.065C10.8958 10.2951 10.8035 10.5152 10.6408 10.6779C10.4781 10.8407 10.258 10.933 10.0279 10.935C9.79775 10.937 9.57605 10.8485 9.41053 10.6886Z" fill="#EC7866"/>
<path d="M4.7632 24.9881H1.25264C1.01988 24.9881 0.796644 24.8957 0.632054 24.731C0.467466 24.5664 0.375 24.3432 0.375 24.1104C0.375 23.8777 0.467466 23.6545 0.632054 23.4898C0.796644 23.3252 1.01988 23.2328 1.25264 23.2328H4.7632C4.99596 23.2328 5.21919 23.3252 5.38378 23.4898C5.54837 23.6545 5.64084 23.8777 5.64084 24.1104C5.64084 24.3432 5.54837 24.5664 5.38378 24.731C5.21919 24.8957 4.99596 24.9881 4.7632 24.9881Z" fill="#EC7866"/>
<path d="M24.9502 11.8234C24.9495 12.056 24.8568 12.2788 24.6925 12.4433C24.528 12.6077 24.3052 12.7004 24.0726 12.7011C21.3183 12.7024 18.6575 13.7001 16.5815 15.5101C14.5054 17.3199 13.1542 19.8198 12.7774 22.5482C12.479 21.1878 12.2683 19.8626 12.1191 18.59C13.1757 16.309 14.8624 14.3776 16.9802 13.0232C19.0979 11.6689 21.5588 10.9481 24.0726 10.9458C24.3052 10.9465 24.528 11.0391 24.6925 11.2036C24.8568 11.368 24.9495 11.5909 24.9502 11.8234Z" fill="#EC7866"/>
<path d="M29.0801 30.5111C28.9987 30.4295 28.902 30.3649 28.7955 30.3208C28.6891 30.2766 28.5749 30.2539 28.4596 30.2539C28.3444 30.2539 28.2302 30.2766 28.1238 30.3208C28.0173 30.3649 27.9206 30.4295 27.8392 30.5111L24.0714 34.2787L20.3037 30.5111C20.1381 30.3513 19.9165 30.2627 19.6864 30.2647C19.4562 30.2667 19.2361 30.359 19.0735 30.5218C18.9107 30.6845 18.8184 30.9047 18.8164 31.1347C18.8144 31.3648 18.9028 31.5866 19.0628 31.752L23.1937 35.8832V40.7856C23.1937 41.0184 23.2863 41.2416 23.4509 41.4062C23.6154 41.5707 23.8386 41.6633 24.0714 41.6633C24.3041 41.6633 24.5275 41.5707 24.692 41.4062C24.8566 41.2416 24.949 41.0184 24.949 40.7856V35.8832L29.0801 31.752C29.1617 31.6706 29.2263 31.5739 29.2704 31.4674C29.3145 31.361 29.3373 31.2469 29.3373 31.1316C29.3373 31.0163 29.3145 30.9023 29.2704 30.7958C29.2263 30.6892 29.1617 30.5925 29.0801 30.5111Z" fill="#EC7866"/>
<path d="M29.3371 44.2961H18.8054C18.5727 44.2961 18.3494 44.3886 18.1849 44.5532C18.0203 44.7178 17.9277 44.941 17.9277 45.1737V46.9291C17.9277 48.5584 18.575 50.121 19.7271 51.2731C20.8793 52.4253 22.442 53.0725 24.0713 53.0725C25.7006 53.0725 27.2633 52.4253 28.4154 51.2731C29.5675 50.121 30.2148 48.5584 30.2148 46.9291V45.1737C30.2148 44.941 30.1223 44.7178 29.9576 44.5532C29.7932 44.3886 29.5698 44.2961 29.3371 44.2961Z" fill="#C40808"/>
<path d="M30.215 45.4195V46.9291C30.2182 47.2231 30.1946 47.5169 30.1447 47.8067H17.9982C17.9483 47.5169 17.9249 47.2231 17.928 46.9291V45.1737H29.7673C29.9166 45.2616 30.0658 45.3405 30.215 45.4195Z" fill="#C40808"/>
<path d="M32.8497 39.9081V45.1738C32.849 45.4064 32.7563 45.6293 32.5918 45.7937C32.4275 45.9581 32.2045 46.0508 31.972 46.0515H16.1746C15.942 46.0508 15.7191 45.9581 15.5547 45.7937C15.3902 45.6293 15.2975 45.4064 15.2969 45.1738V39.9081H32.8497Z" fill="#EC7866"/>
<path d="M32.8502 39.9081V45.1738C32.8495 45.4064 32.7568 45.6293 32.5925 45.7937C32.428 45.9581 32.2052 46.0508 31.9726 46.0515H31.4284C28.1591 44.4542 25.1427 42.3842 22.4766 39.9081H32.8502Z" fill="#EC7866"/>
</g>
</g>
<defs>
<clipPath id="clip0_260_6532">
<rect width="48.1448" height="53.4866" fill="white"/>
</clipPath>
<clipPath id="clip1_260_6532">
<rect width="48.1448" height="53.4942" fill="white" transform="translate(0 -0.00390625)"/>
</clipPath>
</defs>
</svg>
