<svg width="49" height="49" viewBox="0 0 49 49" fill="none" xmlns="http://www.w3.org/2000/svg">
<g clip-path="url(#clip0_260_6426)">
<g clip-path="url(#clip1_260_6426)">
<path d="M32.8805 28.8065L29.1192 25.0451C29.0433 24.9683 28.9516 24.9091 28.8505 24.8713C28.7494 24.8335 28.6413 24.8183 28.5337 24.8265C28.4262 24.8342 28.3216 24.8648 28.2271 24.9164C28.1325 24.968 28.0501 25.0394 27.9855 25.1256C27.1729 26.2093 26.2101 27.1719 25.1263 27.9842C25.0402 28.049 24.9691 28.1314 24.9177 28.2261C24.8662 28.3207 24.8356 28.4253 24.828 28.5328C24.8205 28.6402 24.8361 28.748 24.8737 28.8489C24.9113 28.9499 24.9702 29.0415 25.0463 29.1177L28.8075 32.8791C28.8775 32.9489 28.9603 33.0044 29.0516 33.0422C29.1428 33.08 29.2406 33.0995 29.3394 33.0995C29.4382 33.0995 29.536 33.08 29.6273 33.0422C29.7185 33.0044 29.8015 32.9489 29.8713 32.8791L32.8804 29.87C32.9502 29.8002 33.0057 29.7173 33.0435 29.6261C33.0813 29.5349 33.1008 29.4371 33.1008 29.3383C33.1008 29.2394 33.0813 29.1417 33.0436 29.0504C33.0058 28.9592 32.9503 28.8763 32.8805 28.8065Z" fill="#EC7866"/>
<path d="M45.9282 38.8442L34.3862 27.3021C34.2424 27.1662 34.0521 27.0905 33.8544 27.0905C33.6566 27.0905 33.4663 27.1662 33.3225 27.3021L27.3044 33.3202C27.2345 33.39 27.1791 33.4728 27.1413 33.5641C27.1035 33.6555 27.084 33.7532 27.084 33.852C27.084 33.9507 27.1035 34.0486 27.1413 34.1399C27.1791 34.2311 27.2345 34.314 27.3044 34.3838L38.8462 45.9258C39.7866 46.8583 41.0582 47.3803 42.3826 47.3774C43.707 47.3747 44.9763 46.8472 45.9128 45.9108C46.8494 44.9744 47.3768 43.7051 47.3797 42.3807C47.3825 41.0562 46.8606 39.7847 45.9282 38.8442Z" fill="#EC7866"/>
<path d="M16.5514 32.3473C25.2762 32.3473 32.349 25.2745 32.349 16.5497C32.349 7.82499 25.2762 0.752197 16.5514 0.752197C7.8267 0.752197 0.753906 7.82499 0.753906 16.5497C0.753906 25.2745 7.8267 32.3473 16.5514 32.3473Z" fill="#E6ECFF"/>
<path d="M32.3505 16.5497C32.3515 20.1103 31.1491 23.5668 28.9388 26.3583C26.7284 29.1496 23.6395 31.1123 20.1735 31.9276C16.7075 32.743 13.0676 32.3632 9.84459 30.8498C6.62156 29.3365 4.00447 26.7785 2.41797 23.5909C9.65473 26.9083 20.2316 27.3295 32.0571 13.5105C32.2541 14.5116 32.3524 15.5295 32.3505 16.5497Z" fill="#C8D5F8"/>
<path d="M16.5521 29.3383C23.615 29.3383 29.3407 23.6127 29.3407 16.5498C29.3407 9.48694 23.615 3.76135 16.5521 3.76135C9.48926 3.76135 3.76367 9.48694 3.76367 16.5498C3.76367 23.6127 9.48926 29.3383 16.5521 29.3383Z" fill="#E6ECFF"/>
<path d="M29.3414 16.4594V16.5497C29.3437 19.133 28.5628 21.6564 27.1018 23.787C25.6407 25.9175 23.5682 27.5551 21.1576 28.4839C18.747 29.4126 16.1114 29.5888 13.5986 28.9893C11.0858 28.3897 8.81369 27.0425 7.08203 25.1254C13.2355 26.3892 20.9161 24.9374 29.3414 16.4594Z" fill="#C8D5F8"/>
<path d="M12.7889 21.0634V28.7665C11.1297 28.2583 9.59316 27.4132 8.27539 26.2841V21.0634C8.27596 20.864 8.3554 20.673 8.49636 20.5321C8.63731 20.3912 8.82832 20.3117 9.02765 20.3112H12.0367C12.236 20.3117 12.427 20.3912 12.568 20.5321C12.7089 20.673 12.7883 20.864 12.7889 21.0634Z" fill="#EC7866"/>
<path d="M18.8084 17.302V29.1352C17.3161 29.406 15.7872 29.406 14.2949 29.1352V17.302C14.2955 17.1028 14.3749 16.9117 14.5158 16.7708C14.6568 16.6298 14.8478 16.5504 15.0471 16.5498H18.0562C18.2555 16.5504 18.4465 16.6298 18.5875 16.7708C18.7284 16.9117 18.8078 17.1028 18.8084 17.302Z" fill="#EC7866"/>
<path d="M24.826 13.5406V26.284C23.5083 27.4131 21.9717 28.2582 20.3125 28.7664V13.5406C20.3131 13.3413 20.3925 13.1503 20.5334 13.0093C20.6744 12.8685 20.8654 12.789 21.0647 12.7883H24.0738C24.2731 12.789 24.4641 12.8685 24.6051 13.0093C24.7459 13.1503 24.8254 13.3413 24.826 13.5406Z" fill="#EC7866"/>
<path d="M21.0639 6.77039H18.807C18.6076 6.77039 18.4162 6.84964 18.2751 6.99072C18.134 7.13179 18.0548 7.32313 18.0548 7.52265C18.0548 7.72216 18.134 7.9135 18.2751 8.05458C18.4162 8.19565 18.6076 8.27491 18.807 8.27491H19.2275C17.4651 10.1449 13.635 13.5407 9.02765 13.5407C8.82814 13.5407 8.6368 13.62 8.49572 13.7611C8.35465 13.9022 8.27539 14.0935 8.27539 14.2931C8.27539 14.4925 8.35465 14.6838 8.49572 14.825C8.6368 14.9661 8.82814 15.0453 9.02765 15.0453C14.2217 15.0453 18.3818 11.3854 20.3116 9.32913V9.77944C20.3116 9.97895 20.3909 10.1703 20.532 10.3114C20.673 10.4524 20.8644 10.5317 21.0639 10.5317C21.2633 10.5317 21.4547 10.4524 21.5957 10.3114C21.7368 10.1703 21.8161 9.97895 21.8161 9.77944V7.52265C21.8161 7.32313 21.7368 7.13179 21.5957 6.99072C21.4547 6.84964 21.2633 6.77039 21.0639 6.77039Z" fill="#EC7866"/>
<path d="M12.7889 25.434V28.7665C11.1297 28.2582 9.59316 27.4132 8.27539 26.2841V25.3286C9.76983 25.5496 11.2859 25.5849 12.7889 25.434Z" fill="#C40808"/>
<path d="M18.8084 23.8995V29.1353C17.3161 29.4062 15.7872 29.4062 14.2949 29.1353V25.2311C15.8434 24.953 17.3569 24.5065 18.8084 23.8995Z" fill="#C40808"/>
<path d="M24.826 20.4088V26.284C23.5083 27.4131 21.9717 28.2581 20.3125 28.7664V23.2072C21.8974 22.4107 23.4079 21.4742 24.826 20.4088Z" fill="#C40808"/>
</g>
</g>
<defs>
<clipPath id="clip0_260_6426">
<rect width="48.1448" height="48.1448" fill="white"/>
</clipPath>
<clipPath id="clip1_260_6426">
<rect width="48.1448" height="48.1448" fill="white"/>
</clipPath>
</defs>
</svg>
