<svg width="49" height="61" viewBox="0 0 49 61" fill="none" xmlns="http://www.w3.org/2000/svg">
<g clip-path="url(#clip0_260_6447)">
<g clip-path="url(#clip1_260_6447)">
<path d="M47.7695 18.2424L29.9973 0.470215H10.2504C7.6318 0.470215 5.12045 1.51044 3.26882 3.36208C1.41719 5.21371 0.376953 7.72506 0.376953 10.3437V49.8374C0.376953 52.4561 1.41719 54.9674 3.26882 56.819C5.12045 58.6707 7.6318 59.7109 10.2504 59.7109H37.896C40.5147 59.7109 43.026 58.6707 44.8776 56.819C46.7293 54.9674 47.7695 52.4561 47.7695 49.8374V18.2424Z" fill="#E6ECFF"/>
<path d="M37.8957 28.1158H10.2501C9.72635 28.1158 9.22408 27.9077 8.85376 27.5375C8.48344 27.1671 8.27539 26.6649 8.27539 26.1411C8.27539 25.6174 8.48344 25.1152 8.85376 24.7448C9.22408 24.3745 9.72635 24.1664 10.2501 24.1664H37.8957C38.4194 24.1664 38.9217 24.3745 39.2921 24.7448C39.6623 25.1152 39.8704 25.6174 39.8704 26.1411C39.8704 26.6649 39.6623 27.1671 39.2921 27.5375C38.9217 27.9077 38.4194 28.1158 37.8957 28.1158Z" fill="#EC7866"/>
<path d="M22.0982 20.217H10.2501C9.72635 20.217 9.22408 20.0089 8.85376 19.6387C8.48344 19.2683 8.27539 18.7661 8.27539 18.2423C8.27539 17.7186 8.48344 17.2164 8.85376 16.846C9.22408 16.4757 9.72635 16.2676 10.2501 16.2676H22.0982C22.6219 16.2676 23.1241 16.4757 23.4946 16.846C23.8648 17.2164 24.0729 17.7186 24.0729 18.2423C24.0729 18.7661 23.8648 19.2683 23.4946 19.6387C23.1241 20.0089 22.6219 20.217 22.0982 20.217Z" fill="#EC7866"/>
<path d="M22.0982 12.3183H10.2501C9.72635 12.3183 9.22408 12.1103 8.85376 11.74C8.48344 11.3696 8.27539 10.8674 8.27539 10.3436C8.27539 9.81992 8.48344 9.31765 8.85376 8.94733C9.22408 8.577 9.72635 8.36896 10.2501 8.36896H22.0982C22.6219 8.36896 23.1241 8.577 23.4946 8.94733C23.8648 9.31765 24.0729 9.81992 24.0729 10.3436C24.0729 10.8674 23.8648 11.3696 23.4946 11.74C23.1241 12.1103 22.6219 12.3183 22.0982 12.3183Z" fill="#EC7866"/>
<path d="M37.8957 51.812H10.2501C9.72635 51.812 9.22408 51.604 8.85376 51.2337C8.48344 50.8633 8.27539 50.3611 8.27539 49.8374C8.27539 49.3136 8.48344 48.8114 8.85376 48.441C9.22408 48.0707 9.72635 47.8627 10.2501 47.8627H37.8957C38.4194 47.8627 38.9217 48.0707 39.2921 48.441C39.6623 48.8114 39.8704 49.3136 39.8704 49.8374C39.8704 50.3611 39.6623 50.8633 39.2921 51.2337C38.9217 51.604 38.4194 51.812 37.8957 51.812Z" fill="#EC7866"/>
<path d="M37.8957 43.9134H10.2501C9.72635 43.9134 9.22408 43.7053 8.85376 43.335C8.48344 42.9646 8.27539 42.4624 8.27539 41.9387C8.27539 41.415 8.48344 40.9127 8.85376 40.5423C9.22408 40.1721 9.72635 39.964 10.2501 39.964H37.8957C38.4194 39.964 38.9217 40.1721 39.2921 40.5423C39.6623 40.9127 39.8704 41.415 39.8704 41.9387C39.8704 42.4624 39.6623 42.9646 39.2921 43.335C38.9217 43.7053 38.4194 43.9134 37.8957 43.9134Z" fill="#EC7866"/>
<path d="M37.8957 36.0146H10.2501C9.72635 36.0146 9.22408 35.8065 8.85376 35.4362C8.48344 35.0658 8.27539 34.5636 8.27539 34.0399C8.27539 33.5161 8.48344 33.0139 8.85376 32.6435C9.22408 32.2733 9.72635 32.0652 10.2501 32.0652H37.8957C38.4194 32.0652 38.9217 32.2733 39.2921 32.6435C39.6623 33.0139 39.8704 33.5161 39.8704 34.0399C39.8704 34.5636 39.6623 35.0658 39.2921 35.4362C38.9217 35.8065 38.4194 36.0146 37.8957 36.0146Z" fill="#EC7866"/>
<path d="M29.998 0.470215V14.293C29.998 15.3405 30.4142 16.3451 31.1547 17.0857C31.8954 17.8263 32.9 18.2424 33.9474 18.2424H47.7702L29.998 0.470215Z" fill="#E6ECFF"/>
</g>
</g>
<defs>
<clipPath id="clip0_260_6447">
<rect width="48.1448" height="60.181" fill="white"/>
</clipPath>
<clipPath id="clip1_260_6447">
<rect width="48.1448" height="60.181" fill="white"/>
</clipPath>
</defs>
</svg>
