<svg width="49" height="46" viewBox="0 0 49 46" fill="none" xmlns="http://www.w3.org/2000/svg">
<g clip-path="url(#clip0_260_6508)">
<g clip-path="url(#clip1_260_6508)">
<path d="M45.6931 1.18225H2.45781C1.53943 1.18225 0.794922 1.92676 0.794922 2.84515V32.7773C0.794922 33.6957 1.53943 34.4402 2.45781 34.4402H45.6931C46.6115 34.4402 47.356 33.6957 47.356 32.7773V2.84515C47.356 1.92676 46.6115 1.18225 45.6931 1.18225Z" fill="#E6ECFF"/>
<path d="M35.713 41.0918C34.3904 41.0904 33.1223 40.5642 32.187 39.629C31.2518 38.6938 30.7257 37.4257 30.7243 36.1031V32.7773C30.7243 32.3362 30.5491 31.9133 30.2373 31.6014C29.9253 31.2896 29.5024 31.1144 29.0614 31.1144H19.084C18.643 31.1144 18.2201 31.2896 17.9081 31.6014C17.5963 31.9133 17.4211 32.3362 17.4211 32.7773V36.1031C17.4197 37.4257 16.8935 38.6938 15.9584 39.629C15.0231 40.5642 13.755 41.0904 12.4324 41.0918C11.9914 41.0918 11.5684 41.267 11.2566 41.5788C10.9447 41.8907 10.7695 42.3136 10.7695 42.7547C10.7695 43.1957 10.9447 43.6186 11.2566 43.9305C11.5684 44.2423 11.9914 44.4175 12.4324 44.4175H35.713C36.154 44.4175 36.5769 44.2423 36.8888 43.9305C37.2006 43.6186 37.3759 43.1957 37.3759 42.7547C37.3759 42.3136 37.2006 41.8907 36.8888 41.5788C36.5769 41.267 36.154 41.0918 35.713 41.0918Z" fill="#C40808"/>
<path d="M47.356 31.3639V32.7773C47.3547 33.218 47.1791 33.6402 46.8676 33.9518C46.556 34.2633 46.1338 34.4389 45.6931 34.4402H2.45783C2.0172 34.4389 1.59497 34.2633 1.2834 33.9518C0.971818 33.6402 0.796213 33.218 0.79494 32.7773V2.84522C0.793092 2.45627 0.929012 2.07925 1.17861 1.78095C1.4282 1.48266 1.77535 1.28236 2.15851 1.21558C8.04516 13.0387 20.783 28.803 47.356 31.3639Z" fill="#C8D5F8"/>
<path d="M17.4207 22.7999C16.9797 22.7999 16.5568 22.6247 16.2448 22.3129C15.933 22.0009 15.7578 21.578 15.7578 21.137V14.4854C15.7578 14.0444 15.933 13.6215 16.2448 13.3095C16.5568 12.9977 16.9797 12.8225 17.4207 12.8225C17.8617 12.8225 18.2847 12.9977 18.5966 13.3095C18.9084 13.6215 19.0836 14.0444 19.0836 14.4854V21.137C19.0836 21.578 18.9084 22.0009 18.5966 22.3129C18.2847 22.6247 17.8617 22.7999 17.4207 22.7999Z" fill="#EC7866"/>
<path d="M37.3758 22.7999C36.9348 22.7999 36.5118 22.6247 36.1999 22.3129C35.8881 22.0009 35.7129 21.578 35.7129 21.137V14.4854C35.7129 14.0444 35.8881 13.6215 36.1999 13.3095C36.5118 12.9977 36.9348 12.8225 37.3758 12.8225C37.8168 12.8225 38.2397 12.9977 38.5517 13.3095C38.8635 13.6215 39.0387 14.0444 39.0387 14.4854V21.137C39.0387 21.578 38.8635 22.0009 38.5517 22.3129C38.2397 22.6247 37.8168 22.7999 37.3758 22.7999Z" fill="#EC7866"/>
<path d="M10.7703 22.7999C10.3293 22.7999 9.90632 22.6247 9.59447 22.3129C9.28262 22.0009 9.10742 21.578 9.10742 21.137V17.8112C9.10742 17.3702 9.28262 16.9473 9.59447 16.6353C9.90632 16.3235 10.3293 16.1483 10.7703 16.1483C11.2113 16.1483 11.6343 16.3235 11.9462 16.6353C12.258 16.9473 12.4332 17.3702 12.4332 17.8112V21.137C12.4332 21.578 12.258 22.0009 11.9462 22.3129C11.6343 22.6247 11.2113 22.7999 10.7703 22.7999Z" fill="#C40808"/>
<path d="M30.7254 22.7999C30.2844 22.7999 29.8614 22.6247 29.5495 22.3128C29.2377 22.0009 29.0625 21.578 29.0625 21.137V11.1596C29.0625 10.7186 29.2377 10.2956 29.5495 9.98375C29.8614 9.6719 30.2844 9.4967 30.7254 9.4967C31.1664 9.4967 31.5893 9.6719 31.9013 9.98375C32.2131 10.2956 32.3883 10.7186 32.3883 11.1596V21.137C32.3883 21.578 32.2131 22.0009 31.9013 22.3128C31.5893 22.6247 31.1664 22.7999 30.7254 22.7999Z" fill="#EC7866"/>
<path d="M24.0731 22.7999C23.632 22.7999 23.2091 22.6246 22.8972 22.3128C22.5854 22.0009 22.4102 21.578 22.4102 21.137V7.83379C22.4102 7.39276 22.5854 6.9698 22.8972 6.65795C23.2091 6.34609 23.632 6.1709 24.0731 6.1709C24.5141 6.1709 24.937 6.34609 25.2489 6.65795C25.5607 6.9698 25.7359 7.39276 25.7359 7.83379V21.137C25.7359 21.578 25.5607 22.0009 25.2489 22.3128C24.937 22.6246 24.5141 22.7999 24.0731 22.7999Z" fill="#EC7866"/>
<path d="M19.067 21.3198C19.0213 21.7424 18.8151 22.1312 18.4912 22.4063C18.1672 22.6813 17.75 22.8216 17.3257 22.7981C16.9013 22.7747 16.5022 22.5893 16.2104 22.2802C15.9187 21.9712 15.7567 21.562 15.7578 21.1369V18.7589C16.8055 19.6403 17.9029 20.4883 19.067 21.3198Z" fill="#EC7866"/>
<path d="M47.356 27.7886V32.7773C47.3547 33.2179 47.1791 33.6401 46.8676 33.9517C46.5559 34.2633 46.1338 34.4389 45.6931 34.4402H2.45782C2.01718 34.4389 1.59496 34.2633 1.28338 33.9517C0.9718 33.6401 0.796194 33.2179 0.794922 32.7773V27.7886H47.356Z" fill="#EC7866"/>
<path d="M47.356 31.3638V32.7773C47.3547 33.2179 47.1791 33.6401 46.8676 33.9517C46.5559 34.2633 46.1338 34.4389 45.6931 34.4402H2.45782C2.01718 34.4389 1.59496 34.2633 1.28338 33.9517C0.9718 33.6401 0.796194 33.2179 0.794922 32.7773V27.7886H31.3257C36.4926 29.6666 41.8808 30.8683 47.356 31.3638Z" fill="#C40808"/>
</g>
</g>
<defs>
<clipPath id="clip0_260_6508">
<rect width="48.1448" height="45.6" fill="white"/>
</clipPath>
<clipPath id="clip1_260_6508">
<rect width="48.1448" height="45.6" fill="white"/>
</clipPath>
</defs>
</svg>
