<svg width="147" height="109" viewBox="0 0 147 109" fill="none" xmlns="http://www.w3.org/2000/svg">
<path opacity="0.7" d="M91.8024 68.0765C91.8024 48.4229 96.5152 33.0362 105.941 21.9164C115.495 10.7966 128.859 3.4911 146.032 0V20.1708C132.991 24.1791 124.211 31.4199 119.692 41.8932C117.109 47.4531 116.076 52.8191 116.593 57.9911H147V109H91.8024V68.0765ZM0 68.0765C0 48.6815 4.58366 33.3594 13.751 22.1103C23.0474 10.8612 36.5402 3.4911 54.2292 0V20.1708C41.0593 24.3084 32.2148 31.4199 27.6957 41.5053C25.3715 46.8066 24.4032 52.3019 24.7905 57.9911H55.1976V109H0V68.0765Z" fill="#E8E2E8"/>
</svg>
