<svg width="16" height="16" viewBox="0 0 16 16" fill="none" xmlns="http://www.w3.org/2000/svg">
<path d="M15.2723 8.72729C15.0542 8.72729 14.9087 8.87276 14.9087 9.09092V13.8182C14.9087 14.0364 14.7632 14.1818 14.5451 14.1818H1.45416C1.23597 14.1818 1.09053 14.0364 1.09053 13.8182V9.09092C1.09053 8.87273 0.945063 8.72729 0.726906 8.72729C0.50875 8.72729 0.363281 8.87276 0.363281 9.09092V13.8182C0.363281 14.4364 0.836 14.9091 1.45419 14.9091H14.5451C15.1633 14.9091 15.636 14.4364 15.636 13.8182V9.09092C15.636 8.87273 15.4905 8.72729 15.2723 8.72729Z" fill="black"/>
<path d="M14.9091 3.63635H1.09091C0.472719 3.63635 0 4.10907 0 4.72726V7.05454C0 7.5636 0.363625 7.99998 0.836375 8.10907L6.54547 9.38179V10.5454C6.54547 10.7636 6.69094 10.909 6.90909 10.909H9.09091C9.30909 10.909 9.45453 10.7636 9.45453 10.5454V9.38179L15.1636 8.10907C15.6364 7.99998 16 7.5636 16 7.05451V4.72723C16 4.10907 15.5273 3.63635 14.9091 3.63635ZM8.72728 10.1818H7.27275V8.72726H8.72728V10.1818ZM15.2727 7.05451C15.2727 7.23632 15.1636 7.38179 14.9818 7.41813L9.45453 8.65451V8.3636C9.45453 8.14542 9.30906 7.99998 9.09091 7.99998H6.90909C6.69091 7.99998 6.54547 8.14545 6.54547 8.3636V8.65451L1.01819 7.41817C0.836375 7.38179 0.727281 7.23635 0.727281 7.05454V4.72726C0.727281 4.50907 0.87275 4.36363 1.09091 4.36363H14.9091C15.1273 4.36363 15.2727 4.5091 15.2727 4.72726V7.05451Z" fill="black"/>
<path d="M9.81908 1.09094H6.1827C5.56452 1.09094 5.0918 1.56366 5.0918 2.18185V2.54547C5.0918 2.76366 5.23727 2.9091 5.45542 2.9091C5.67358 2.9091 5.81905 2.76363 5.81905 2.54547V2.18185C5.81905 1.96366 5.96452 1.81822 6.18267 1.81822H9.81905C10.0372 1.81822 10.1827 1.96369 10.1827 2.18185V2.54547C10.1827 2.76366 10.3281 2.9091 10.5463 2.9091C10.7645 2.9091 10.9099 2.76363 10.9099 2.54547V2.18185C10.91 1.56366 10.4373 1.09094 9.81908 1.09094Z" fill="black"/>
</svg>
