<svg width="54" height="54" viewBox="0 0 54 54" fill="none" xmlns="http://www.w3.org/2000/svg">
<path d="M52.9478 16.5199C53.5793 16.2954 54.0007 15.6975 54 15.0274C53.9992 14.3572 53.5762 13.7604 52.9444 13.5374L27.5264 4.5693C27.1858 4.44907 26.8143 4.44907 26.4737 4.5693L1.05574 13.5374C0.423775 13.7603 0.000845014 14.3572 1.26426e-06 15.0274C-0.000842486 15.6975 0.420716 16.2954 1.05216 16.5199L11.1212 20.0995V30.4193C11.1212 32.1225 12.898 33.5629 16.4023 34.7003C19.4568 35.6917 23.2205 36.2377 27.0001 36.2377C30.7797 36.2377 34.5433 35.6917 37.5979 34.7003C41.1022 33.5629 42.8791 32.1226 42.8791 30.4193V20.0995L47.0363 18.6215V32.9214C45.1876 33.5751 43.8591 35.3395 43.8591 37.4093C43.8591 39.479 45.1876 41.2435 47.0363 41.8972V47.939C47.0363 48.8127 47.7446 49.521 48.6184 49.521C49.4921 49.521 50.2004 48.8127 50.2004 47.939V41.8972C52.0491 41.2435 53.3776 39.4791 53.3776 37.4093C53.3776 35.3396 52.0491 33.5751 50.2004 32.9214V17.4966L52.9478 16.5199ZM48.6182 39.0044C47.7386 39.0044 47.023 38.2888 47.023 37.4092C47.023 36.5296 47.7386 35.814 48.6182 35.814C49.4979 35.814 50.2135 36.5296 50.2135 37.4092C50.2135 38.2888 49.4979 39.0044 48.6182 39.0044ZM27 7.73874L47.6792 15.035L27 22.3865L6.32085 15.0349L27 7.73874ZM39.7149 30.1808C39.4117 30.4865 38.3262 31.2185 35.8763 31.9175C33.2626 32.663 30.1103 33.0736 27 33.0736C23.8897 33.0736 20.7375 32.663 18.1238 31.9175C15.6738 31.2185 14.5883 30.4866 14.2851 30.1808V21.2243L26.47 25.5561C26.6414 25.6171 26.8207 25.6476 26.9999 25.6476C27.1792 25.6476 27.3584 25.6171 27.5298 25.5561L39.7147 21.2243V30.1808H39.7149Z" fill="#C40808"/>
</svg>
