<svg width="54" height="54" viewBox="0 0 54 54" fill="none" xmlns="http://www.w3.org/2000/svg">
<path d="M53.209 50.936H51.1538V17.5274C51.1538 16.4761 50.2986 15.6209 49.2472 15.6209H42.4968C42.06 15.6209 41.7058 15.975 41.7058 16.4119C41.7058 16.8487 42.06 17.2029 42.4968 17.2029H49.2472C49.4261 17.2029 49.5718 17.3485 49.5718 17.5274V50.9361H39.594V46.9878H45.6283C46.4347 46.9878 47.091 46.3317 47.091 45.5252V43.6542C47.091 42.8477 46.4348 42.1915 45.6283 42.1915H39.594V39.8708H45.6283C46.4347 39.8708 47.091 39.2147 47.091 38.4081V36.5371C47.091 35.7307 46.4348 35.0745 45.6283 35.0745H39.594V32.7537H45.6283C46.4347 32.7537 47.091 32.0976 47.091 31.2911V29.4202C47.091 28.6137 46.4348 27.9576 45.6283 27.9576H39.594V25.6368H45.6283C46.4347 25.6368 47.091 24.9807 47.091 24.1742V22.3032C47.091 21.4968 46.4348 20.8405 45.6283 20.8405H39.594V10.2539C39.594 9.48175 39.1333 8.79104 38.4207 8.49435L21.9339 1.62317C21.3672 1.38692 20.7241 1.44894 20.2135 1.78939C19.7027 2.12984 19.3978 2.6998 19.3978 3.31405V7.02064H15.1994V3.77937C15.1994 3.34252 14.8453 2.98836 14.4084 2.98836C13.9716 2.98836 13.6174 3.34252 13.6174 3.77937V7.02074H8.87129C7.81998 7.02074 6.96463 7.87599 6.96463 8.92741V11.4078H4.29785C3.24643 11.4078 2.39098 12.2628 2.39098 13.3136V45.8033H1.90688C0.855457 45.8033 0 46.6587 0 47.7102V50.6116C0 51.663 0.855457 52.5185 1.90688 52.5185L53.209 52.5182C53.6458 52.5182 54 52.164 54 51.7272C54 51.2903 53.6458 50.936 53.209 50.936ZM45.5089 43.7737V45.4059H39.594V43.7737H45.5089ZM45.5089 36.6566V38.2887H39.594V36.6566H45.5089ZM45.5089 29.5396V31.1718H39.594V29.5396H45.5089ZM45.5089 22.4227V24.0549H39.594V22.4227H45.5089ZM20.9798 3.31405C20.9798 3.19729 21.0495 3.13348 21.0909 3.10574C21.1325 3.07822 21.2179 3.03846 21.3253 3.08339L30.6454 6.9678V42.6051C30.6454 43.0419 30.9996 43.3961 31.4364 43.3961C31.8733 43.3961 32.2275 43.0419 32.2275 42.6051V7.62708L37.8124 9.95478C37.9337 10.0053 38.0121 10.1227 38.0121 10.2539L38.0118 50.9363H32.2275V46.3143C32.2275 45.8774 31.8733 45.5233 31.4364 45.5233C30.9996 45.5233 30.6454 45.8774 30.6454 46.3143V50.9363H26.7595V25.203C26.7595 24.0243 25.8006 23.0653 24.6218 23.0653H20.9798V3.31405ZM24.6218 24.6473C24.9282 24.6473 25.1775 24.8965 25.1775 25.203V50.9361H15.1994V25.203C15.1994 24.8966 15.4486 24.6473 15.7551 24.6473H24.6218ZM13.6174 25.203V30.7823H3.97301V24.6473H13.6932C13.6452 24.8249 13.6174 25.0105 13.6174 25.203ZM3.97301 32.3644H13.6174V38.5005H3.97301V32.3644ZM8.54677 8.9273C8.54677 8.74832 8.69242 8.60267 8.8714 8.60267H19.3975V11.4074H8.54677V8.9273ZM4.29785 12.9897H19.3978V15.7698H9.60472C9.16787 15.7698 8.81371 16.124 8.81371 16.5608C8.81371 16.9977 9.16787 17.3518 9.60472 17.3518H19.3978V23.0653H3.97301V17.3518H5.9208C6.35766 17.3518 6.71182 16.9977 6.71182 16.5608C6.71182 16.124 6.35766 15.7698 5.9208 15.7698H3.97301V13.3135C3.97301 13.1351 4.11877 12.9897 4.29785 12.9897ZM3.97301 40.0827H13.6174V45.8033H3.97301V40.0827ZM1.90688 50.9363C1.72779 50.9363 1.58203 50.7907 1.58203 50.6115V47.7101C1.58203 47.531 1.72779 47.3852 1.90688 47.3852H13.6174V50.9363H1.90688Z" fill="#C40808"/>
<path d="M18.3574 29.856C18.7943 29.856 19.1484 29.5018 19.1484 29.0649V27.3735C19.1484 26.9367 18.7943 26.5825 18.3574 26.5825C17.9206 26.5825 17.5664 26.9367 17.5664 27.3735V29.0649C17.5664 29.5018 17.9205 29.856 18.3574 29.856Z" fill="#C40808"/>
<path d="M21.9902 29.856C22.4271 29.856 22.7812 29.5018 22.7812 29.0649V27.3735C22.7812 26.9367 22.4271 26.5825 21.9902 26.5825C21.5534 26.5825 21.1992 26.9367 21.1992 27.3735V29.0649C21.1992 29.5018 21.5534 29.856 21.9902 29.856Z" fill="#C40808"/>
<path d="M18.3574 35.7657C18.7943 35.7657 19.1484 35.4116 19.1484 34.9747V33.2833C19.1484 32.8465 18.7943 32.4923 18.3574 32.4923C17.9206 32.4923 17.5664 32.8465 17.5664 33.2833V34.9747C17.5664 35.4116 17.9205 35.7657 18.3574 35.7657Z" fill="#C40808"/>
<path d="M21.9902 35.7657C22.4271 35.7657 22.7812 35.4116 22.7812 34.9747V33.2833C22.7812 32.8465 22.4271 32.4923 21.9902 32.4923C21.5534 32.4923 21.1992 32.8465 21.1992 33.2833V34.9747C21.1992 35.4116 21.5534 35.7657 21.9902 35.7657Z" fill="#C40808"/>
<path d="M18.3574 41.6754C18.7943 41.6754 19.1484 41.3212 19.1484 40.8844V39.193C19.1484 38.7561 18.7943 38.402 18.3574 38.402C17.9206 38.402 17.5664 38.7561 17.5664 39.193V40.8844C17.5664 41.3212 17.9205 41.6754 18.3574 41.6754Z" fill="#C40808"/>
<path d="M21.9902 41.6754C22.4271 41.6754 22.7812 41.3212 22.7812 40.8844V39.193C22.7812 38.7561 22.4271 38.402 21.9902 38.402C21.5534 38.402 21.1992 38.7561 21.1992 39.193V40.8844C21.1992 41.3212 21.5534 41.6754 21.9902 41.6754Z" fill="#C40808"/>
<path d="M18.3574 47.5852C18.7943 47.5852 19.1484 47.231 19.1484 46.7942V45.1028C19.1484 44.6659 18.7943 44.3118 18.3574 44.3118C17.9206 44.3118 17.5664 44.6659 17.5664 45.1028V46.7942C17.5664 47.231 17.9205 47.5852 18.3574 47.5852Z" fill="#C40808"/>
<path d="M21.9902 47.5852C22.4271 47.5852 22.7812 47.231 22.7812 46.7942V45.1028C22.7812 44.6659 22.4271 44.3118 21.9902 44.3118C21.5534 44.3118 21.1992 44.6659 21.1992 45.1028V46.7942C21.1992 47.231 21.5534 47.5852 21.9902 47.5852Z" fill="#C40808"/>
</svg>
