<svg width="54" height="54" viewBox="0 0 54 54" fill="none" xmlns="http://www.w3.org/2000/svg">
<path d="M46.17 20.6108C47.7057 19.1067 48.6 17.0521 48.6 14.85C48.6 10.3838 44.9666 6.75 40.5 6.75C39.0243 6.75 37.5724 7.15563 36.2997 7.92334C35.8744 8.18047 35.7372 8.73323 35.9938 9.15912C36.2505 9.585 36.8042 9.72074 37.2296 9.46498C38.2219 8.86644 39.3522 8.55004 40.5 8.55004C43.9734 8.55004 46.8 11.3762 46.8 14.85C46.8 16.9892 45.7286 18.9611 43.9304 20.1273C42.4204 21.1179 40.5061 21.4035 38.758 20.9056C38.2852 20.7693 37.7824 21.0453 37.6453 21.5234C37.509 22.0015 37.7859 22.4994 38.2641 22.6361C38.9918 22.8444 39.7441 22.9499 40.5 22.9499C41.9152 22.9499 43.2831 22.5639 44.4976 21.8667C49.1177 23.5408 52.2 27.9029 52.2 32.8499V37.35H43.9932C43.3558 31.3387 39.5739 26.0783 34.0575 23.5805C35.813 21.7932 36.8999 19.3472 36.8999 16.65C36.9 11.1911 32.4589 6.75 27 6.75C21.5411 6.75 17.1 11.1911 17.1 16.65C17.1 19.348 18.1876 21.7948 19.9439 23.5823C18.0875 24.4257 16.3657 25.6057 14.9054 27.0577C12.1059 29.8652 10.4024 33.4685 9.99802 37.3502H1.80004V32.8501C1.80004 29.7335 3.01736 26.795 5.22429 24.5788C6.43918 23.3716 7.91828 22.4506 9.51086 21.8718C10.7255 22.5661 12.0894 22.95 13.5 22.95C14.2559 22.95 15.0082 22.8445 15.7359 22.6362C16.214 22.4995 16.4909 22.0016 16.3547 21.5235C16.2176 21.0454 15.7148 20.7699 15.242 20.9057C13.4947 21.4045 11.5814 21.1193 10.0653 20.1252C8.27149 18.9611 7.20004 16.9893 7.20004 14.85C7.20004 11.3762 10.0266 8.55004 13.5 8.55004C14.6478 8.55004 15.7781 8.86644 16.7704 9.46498C17.1975 9.72074 17.7486 9.58363 18.0062 9.15912C18.2628 8.73334 18.1256 8.18047 17.7003 7.92334C16.4276 7.15563 14.9757 6.75 13.5 6.75C9.0334 6.75 5.4 10.3838 5.4 14.85C5.4 17.0504 6.29279 19.1034 7.82409 20.6062C6.39678 21.2697 5.07853 22.1857 3.9516 23.3051C1.40358 25.8644 0 29.254 0 32.85V38.25C0 38.7471 0.402574 39.15 0.899965 39.15H9.89993V46.35C9.89993 46.8471 10.3025 47.25 10.7999 47.25H43.1999C43.6974 47.25 44.0999 46.847 44.0999 46.35V39.15H53.0998C53.5973 39.15 53.9998 38.747 53.9998 38.25V32.85C54 27.5286 50.9074 22.7948 46.17 20.6108ZM18.9 16.65C18.9 12.1839 22.5334 8.55004 27 8.55004C31.4666 8.55004 35.1 12.1839 35.1 16.65C35.1 21.1162 31.4666 24.75 27 24.75C22.5334 24.75 18.9 21.1161 18.9 16.65ZM42.3 45.45H11.7V39.15C11.7 35.0692 13.2907 31.2262 16.1771 28.3311C17.6977 26.8187 19.541 25.6456 21.5174 24.8866C23.0884 25.9357 24.9733 26.55 27 26.55C29.0301 26.55 30.9183 25.9339 32.4907 24.8817C38.3735 27.142 42.3 32.8134 42.3 39.15V45.45Z" fill="#C40808"/>
</svg>
