<svg width="62" height="62" viewBox="0 0 62 62" fill="none" xmlns="http://www.w3.org/2000/svg">
<path d="M45.1987 56.832C44.5271 56.832 43.8709 56.5698 43.3762 56.0751L36.3908 49.0781H24.6315C23.9172 49.0781 23.3398 48.4995 23.3398 47.7865C23.3398 47.0735 23.9172 46.4948 24.6315 46.4948H36.9282C37.2718 46.4948 37.6011 46.6304 37.8427 46.8733L45.2052 54.2487L45.2078 47.7865C45.2078 47.0735 45.7851 46.4948 46.4994 46.4948H51.6661C53.8025 46.4948 55.5411 44.7562 55.5411 42.6198V19.3698C55.5411 17.9903 54.7997 16.7064 53.6062 16.0205C52.9875 15.6653 52.7731 14.8748 53.1296 14.2561C53.4861 13.6374 54.2727 13.4256 54.8927 13.7795C56.8857 14.9252 58.1244 17.0668 58.1244 19.3685V42.6185C58.1244 46.1796 55.2272 49.0769 51.6661 49.0769H47.7911V54.2435C47.7911 55.2924 47.1646 56.2301 46.1933 56.6318C45.8717 56.7662 45.5333 56.8307 45.2 56.8307L45.1987 56.832Z" fill="#C40808"/>
<path d="M16.7942 49.0821C16.461 49.0821 16.1239 49.0175 15.8022 48.8844C14.8335 48.4827 14.2083 47.5463 14.2083 46.4974V41.3334H10.3333C6.77221 41.3334 3.875 38.4361 3.875 34.875V11.625C3.875 8.0639 6.77221 5.16669 10.3333 5.16669H43.9167C47.4778 5.16669 50.375 8.0639 50.375 11.625V34.875C50.375 38.4361 47.4778 41.3334 43.9167 41.3334H25.6086L18.6181 48.3239C18.1221 48.8186 17.4646 49.0821 16.7942 49.0821ZM10.3333 7.75002C8.19692 7.75002 6.45833 9.4886 6.45833 11.625V34.875C6.45833 37.0114 8.19692 38.75 10.3333 38.75H15.5C16.2143 38.75 16.7917 39.3287 16.7917 40.0417V46.4974L24.1606 39.1285C24.4035 38.8856 24.7302 38.75 25.0738 38.75H43.9167C46.0531 38.75 47.7917 37.0114 47.7917 34.875V11.625C47.7917 9.4886 46.0531 7.75002 43.9167 7.75002H10.3333Z" fill="#C40808"/>
<path d="M27.1243 28.4166C26.41 28.4166 25.8326 27.838 25.8326 27.125V26.1304C25.8326 24.2536 26.8983 22.546 28.6846 21.5631C29.9569 20.8591 30.595 19.4073 30.2695 17.9529C30.006 16.802 29.0528 15.8474 27.8967 15.5839C26.9809 15.3734 26.0613 15.5439 25.3095 16.0606C24.5629 16.5734 24.0618 17.3781 23.9352 18.2667C23.8331 18.972 23.1951 19.4667 22.4717 19.3621C21.7665 19.26 21.2756 18.6064 21.3764 17.8999C21.6076 16.2982 22.5066 14.8516 23.8461 13.9319C25.1997 13.0032 26.8453 12.6984 28.4702 13.0652C30.6054 13.5534 32.3013 15.2481 32.7883 17.3832C33.3695 19.9717 32.2225 22.5576 29.9337 23.8248C28.983 24.3479 28.416 25.2094 28.416 26.1304V27.125C28.416 27.838 27.8386 28.4166 27.1243 28.4166Z" fill="#C40808"/>
<path d="M27.1237 33.5833C27.8371 33.5833 28.4154 33.005 28.4154 32.2917C28.4154 31.5783 27.8371 31 27.1237 31C26.4103 31 25.832 31.5783 25.832 32.2917C25.832 33.005 26.4103 33.5833 27.1237 33.5833Z" fill="#C40808"/>
</svg>
