<svg width="62" height="62" viewBox="0 0 62 62" fill="none" xmlns="http://www.w3.org/2000/svg">
<g clip-path="url(#clip0_1098_8122)">
<path d="M61.8962 37.8058L61.9055 37.8027L51.7262 15.5924L54.1948 14.3638L53.271 12.5141L50.8644 13.7128L50.5389 13.0029C50.301 12.4841 49.6877 12.2564 49.169 12.4942C48.944 12.5974 48.7635 12.7779 48.6603 13.0029L48.3699 13.6373C46.6185 12.8238 44.7108 12.4017 42.7797 12.4004H34.0997V10.3338H36.1664V8.26715H34.3901L35.1331 5.29427C35.7035 3.01153 34.3154 0.698558 32.0327 0.128033C29.7499 -0.442362 27.437 0.945652 26.8665 3.22839C26.697 3.90651 26.697 4.61602 26.8665 5.29414L27.6094 8.26702H25.8331V10.3337H27.8998V12.4003H19.225C17.2919 12.4019 15.3823 12.825 13.6296 13.6403L13.3392 13.0058C13.1014 12.4871 12.488 12.2594 11.9693 12.4972C11.7443 12.6004 11.5638 12.7808 11.4606 13.0058L11.1351 13.7157L8.72851 12.5119L7.80472 14.3636L10.2733 15.5974L0.0940463 37.8027C0.0312718 37.9376 -0.00076126 38.0848 1.37336e-05 38.2336C0.00453453 42.2265 3.24039 45.4623 7.23329 45.4668H17.5665C21.5594 45.4623 24.7953 42.2265 24.7998 38.2336C24.7972 38.0851 24.762 37.9391 24.6965 37.8058L14.4893 15.5118C15.973 14.8231 17.5893 14.4666 19.225 14.4671H27.8998V52.2723L24.372 55.8001H20.6665C17.8145 55.8034 15.5032 58.1147 15.4999 60.9667C15.4999 61.5374 15.9626 62 16.5332 62H45.4663C46.037 62 46.4996 61.5374 46.4996 60.9667C46.4963 58.1147 44.185 55.8034 41.333 55.8001H37.6275L34.0997 52.2723V14.4671H42.7797C44.4154 14.4666 46.0317 14.8231 47.5154 15.5118L37.2937 37.8027C37.231 37.9376 37.1989 38.0848 37.1997 38.2336C37.2042 42.2265 40.4401 45.4623 44.433 45.4668H54.7662C58.7591 45.4623 61.995 42.2265 61.9995 38.2336C61.997 38.0851 61.9618 37.9391 61.8962 37.8058ZM17.5665 43.4002H7.23329C4.77888 43.3975 2.66405 41.671 2.17 39.2669H22.6298C22.1359 41.671 20.0209 43.3975 17.5665 43.4002ZM22.1566 37.2002H2.64326L12.1354 16.4914C12.3087 16.5379 12.4911 16.5379 12.6644 16.4914L22.1566 37.2002ZM29.271 2.91039C30.0757 1.9556 31.5021 1.83405 32.4569 2.63875C32.5549 2.72142 32.6458 2.81235 32.7285 2.91039C33.1465 3.44203 33.2941 4.13746 33.1284 4.79311L32.2594 8.26715H29.7401L28.8711 4.79311C28.7054 4.13746 28.8532 3.44203 29.271 2.91039ZM29.9664 12.4004V10.3338H32.0331V12.4004H29.9664ZM32.0331 14.4671V51.6668H29.9664V14.4671H32.0331ZM41.333 57.8667C42.6464 57.8683 43.8167 58.6957 44.2563 59.9334H17.7432C18.1828 58.6957 19.3532 57.8683 20.6665 57.8667H41.333ZM34.7053 55.8001H27.2943L29.3609 53.7334H32.6386L34.7053 55.8001ZM49.333 16.4945C49.5036 16.5545 49.6908 16.5468 49.8559 16.4728L59.3563 37.2002H39.8429L49.333 16.4945ZM54.7662 43.4002H44.433C41.9786 43.3975 39.8637 41.671 39.3697 39.2669H59.8295C59.3356 41.671 57.2206 43.3975 54.7662 43.4002Z" fill="#C40808"/>
</g>
<defs>
<clipPath id="clip0_1098_8122">
<rect width="62" height="62" fill="white"/>
</clipPath>
</defs>
</svg>
