<svg width="50" height="50" viewBox="0 0 50 50" fill="none" xmlns="http://www.w3.org/2000/svg">
<path d="M50 8.33301H0V41.6667H50V8.33301Z" fill="#F0F0F0"/>
<path d="M50 12.4995H0V16.6658H50V12.4995Z" fill="#C40808"/>
<path d="M50 20.8333H0V24.9996H50V20.8333Z" fill="#C40808"/>
<path d="M50 29.1658H0V33.3321H50V29.1658Z" fill="#C40808"/>
<path d="M50 37.4995H0V41.6658H50V37.4995Z" fill="#C40808"/>
<path d="M25 8.33301H0V26.2819H25V8.33301Z" fill="#2E52B2"/>
<path d="M9.74819 15.686L9.34556 16.9247H8.04321L9.09702 17.6898L8.69438 18.9284L9.74819 18.1633L10.8013 18.9284L10.3988 17.6898L11.4526 16.9247H10.1501L9.74819 15.686Z" fill="#F0F0F0"/>
<path d="M10.1501 21.3946L9.74819 20.156L9.34556 21.3946H8.04321L9.09702 22.1598L8.69438 23.3984L9.74819 22.6332L10.8013 23.3984L10.3988 22.1598L11.4526 21.3946H10.1501Z" fill="#F0F0F0"/>
<path d="M4.64609 21.3946L4.24404 20.156L3.84141 21.3946H2.53906L3.59287 22.1598L3.19023 23.3984L4.24404 22.6332L5.29727 23.3984L4.89473 22.1598L5.94834 21.3946H4.64609Z" fill="#F0F0F0"/>
<path d="M4.24404 15.686L3.84141 16.9247H2.53906L3.59287 17.6898L3.19023 18.9284L4.24404 18.1633L5.29727 18.9284L4.89473 17.6898L5.94834 16.9247H4.64609L4.24404 15.686Z" fill="#F0F0F0"/>
<path d="M9.74819 11.2158L9.34556 12.4546H8.04321L9.09702 13.2198L8.69438 14.4584L9.74819 13.6932L10.8013 14.4584L10.3988 13.2198L11.4526 12.4546H10.1501L9.74819 11.2158Z" fill="#F0F0F0"/>
<path d="M4.24404 11.2158L3.84141 12.4546H2.53906L3.59287 13.2198L3.19023 14.4584L4.24404 13.6932L5.29727 14.4584L4.89473 13.2198L5.94834 12.4546H4.64609L4.24404 11.2158Z" fill="#F0F0F0"/>
<path d="M15.2522 15.686L14.8497 16.9247H13.5474L14.6011 17.6898L14.1986 18.9284L15.2522 18.1633L16.3056 18.9284L15.9029 17.6898L16.9567 16.9247H15.6544L15.2522 15.686Z" fill="#F0F0F0"/>
<path d="M15.6544 21.3946L15.2522 20.156L14.8497 21.3946H13.5474L14.6011 22.1598L14.1986 23.3984L15.2522 22.6332L16.3056 23.3984L15.9029 22.1598L16.9567 21.3946H15.6544Z" fill="#F0F0F0"/>
<path d="M21.1584 21.3946L20.7564 20.156L20.3538 21.3946H19.0515L20.1051 22.1598L19.7026 23.3984L20.7564 22.6332L21.8096 23.3984L21.407 22.1598L22.4608 21.3946H21.1584Z" fill="#F0F0F0"/>
<path d="M20.7564 15.686L20.3538 16.9247H19.0515L20.1051 17.6898L19.7026 18.9284L20.7564 18.1633L21.8096 18.9284L21.407 17.6898L22.4608 16.9247H21.1584L20.7564 15.686Z" fill="#F0F0F0"/>
<path d="M15.2522 11.2158L14.8497 12.4546H13.5474L14.6011 13.2198L14.1986 14.4584L15.2522 13.6932L16.3056 14.4584L15.9029 13.2198L16.9567 12.4546H15.6544L15.2522 11.2158Z" fill="#F0F0F0"/>
<path d="M20.7564 11.2158L20.3538 12.4546H19.0515L20.1051 13.2198L19.7026 14.4584L20.7564 13.6932L21.8096 14.4584L21.407 13.2198L22.4608 12.4546H21.1584L20.7564 11.2158Z" fill="#F0F0F0"/>
</svg>
