<svg width="50" height="50" viewBox="0 0 50 50" fill="none" xmlns="http://www.w3.org/2000/svg">
<path d="M49.1378 41.3792H0.862108C0.386034 41.3792 0 40.9932 0 40.5171V9.48271C0 9.00664 0.386034 8.62061 0.862108 8.62061H49.1379C49.614 8.62061 50 9.00664 50 9.48271V40.5171C49.9999 40.9933 49.6139 41.3792 49.1378 41.3792Z" fill="#41479B"/>
<path d="M24.1378 8.62085H22.6404L14.655 13.8527V8.62085H10.3447V13.8527L2.35937 8.62085H0.862108C0.386034 8.62085 0 9.00679 0 9.48286V10.1666L6.85106 14.6552H0V18.9656H6.85106L0 23.4542V24.138C0 24.6141 0.386034 25.0001 0.862108 25.0001H2.35957L10.3449 19.7683V25.0001H14.6552V19.7683L22.6405 25.0001H24.1379C24.614 25.0001 25.0001 24.6141 25.0001 24.138V23.4542L18.149 18.9657H25V14.6553H18.1489L25 10.1667V9.48296C25 9.00679 24.6139 8.62085 24.1378 8.62085Z" fill="#F5F5F5"/>
<path d="M25 15.5174H13.793V8.62085H11.2069V15.5174H0V18.1035H11.2069V25.0001H13.793V18.1035H25V15.5174Z" fill="#FF4B55"/>
<path d="M9.4827 14.6554L0.410839 8.7666C0.169433 8.91934 0 9.17607 0 9.48291V9.52764L7.8993 14.6554H9.4827Z" fill="#FF4B55"/>
<path d="M16.2387 14.6553L24.8689 9.05317C24.7189 8.79937 24.4543 8.62085 24.138 8.62085H23.9515L14.6553 14.6553H16.2387Z" fill="#FF4B55"/>
<path d="M8.73778 18.9656L0.124023 24.557C0.272558 24.8169 0.541308 25 0.862206 25H1.0248L10.3213 18.9656H8.73778Z" fill="#FF4B55"/>
<path d="M24.9863 24.2056L16.9135 18.9656H15.3301L24.4974 24.9162C24.7721 24.7888 24.9604 24.5217 24.9863 24.2056Z" fill="#FF4B55"/>
<path d="M12.761 29.7002L13.4117 31.8484L15.497 31.0178C15.6749 30.9469 15.8366 31.1498 15.728 31.3074L14.4542 33.1555L16.4036 34.2679C16.5699 34.3628 16.5122 34.6157 16.3212 34.6291L14.082 34.7855L14.4278 37.0032C14.4573 37.1925 14.2235 37.3051 14.094 37.164L12.5757 35.5109L11.0573 37.164C10.9278 37.305 10.694 37.1924 10.7235 37.0032L11.0693 34.7855L8.83018 34.6291C8.63916 34.6157 8.58145 34.3628 8.74776 34.2679L10.6972 33.1555L9.42334 31.3074C9.31475 31.1498 9.47647 30.9469 9.6544 31.0178L11.7396 31.8484L12.3903 29.7002C12.4461 29.5169 12.7056 29.5169 12.761 29.7002Z" fill="#F5F5F5"/>
<path d="M38.4065 14.4268L38.7244 15.4761L39.7429 15.0704C39.8297 15.0359 39.9088 15.1349 39.8557 15.2119L39.2335 16.1148L40.1858 16.6582C40.267 16.7045 40.2388 16.8281 40.1454 16.8346L39.0517 16.911L39.2205 17.9943C39.235 18.0867 39.1207 18.1417 39.0575 18.0728L38.3158 17.2653L37.5741 18.0728C37.5108 18.1416 37.3966 18.0866 37.411 17.9943L37.5798 16.911L36.4861 16.8346C36.3927 16.8281 36.3645 16.7045 36.4457 16.6582L37.398 16.1148L36.7758 15.2119C36.7227 15.1349 36.8018 15.0359 36.8886 15.0704L37.9072 15.4761L38.225 14.4268C38.2526 14.3372 38.3794 14.3372 38.4065 14.4268Z" fill="#F5F5F5"/>
<path d="M31.3186 22.481L31.6365 23.5303L32.655 23.1246C32.7418 23.0901 32.8209 23.1891 32.7678 23.2661L32.1456 24.169L33.0979 24.7124C33.1791 24.7587 33.1509 24.8823 33.0576 24.8888L31.9638 24.9652L32.1327 26.0485C32.1471 26.1409 32.0329 26.1959 31.9696 26.127L31.2279 25.3195L30.4862 26.127C30.4229 26.1958 30.3087 26.1408 30.3231 26.0485L30.4919 24.9652L29.3982 24.8888C29.3048 24.8823 29.2766 24.7587 29.3579 24.7124L30.3101 24.169L29.6879 23.2661C29.6348 23.1891 29.7139 23.0901 29.8007 23.1246L30.8193 23.5303L31.1371 22.481C31.1647 22.3914 31.2914 22.3914 31.3186 22.481Z" fill="#F5F5F5"/>
<path d="M45.112 19.0327L45.4298 20.0821L46.4484 19.6764C46.5352 19.6418 46.6143 19.7408 46.5612 19.8179L45.939 20.7207L46.8912 21.2642C46.9725 21.3105 46.9443 21.4341 46.8509 21.4405L45.7572 21.5169L45.926 22.6002C45.9405 22.6927 45.8262 22.7477 45.763 22.6787L45.0213 21.8712L44.2796 22.6787C44.2163 22.7476 44.1022 22.6926 44.1165 22.6002L44.2854 21.5169L43.1916 21.4405C43.0983 21.4341 43.0701 21.3105 43.1513 21.2642L44.1036 20.7207L43.4814 19.8179C43.4283 19.7408 43.5074 19.6418 43.5942 19.6764L44.6127 20.0821L44.9306 19.0327C44.958 18.9432 45.0848 18.9432 45.112 19.0327Z" fill="#F5F5F5"/>
<path d="M38.4065 32.826L38.7244 33.8753L39.7429 33.4695C39.8297 33.4349 39.9088 33.534 39.8557 33.611L39.2335 34.5138L40.1858 35.0573C40.267 35.1036 40.2388 35.2272 40.1454 35.2337L39.0517 35.31L39.2205 36.3933C39.235 36.4858 39.1207 36.5408 39.0575 36.4718L38.3158 35.6643L37.5741 36.4718C37.5108 36.5407 37.3966 36.4857 37.411 36.3933L37.5798 35.31L36.4861 35.2337C36.3927 35.2272 36.3645 35.1036 36.4457 35.0573L37.398 34.5138L36.7758 33.611C36.7227 33.534 36.8018 33.4349 36.8886 33.4695L37.9072 33.8753L38.225 32.826C38.2526 32.7364 38.3794 32.7364 38.4065 32.826Z" fill="#F5F5F5"/>
<path d="M40.8656 24.3666L40.6104 25.1318L39.8038 25.1381C39.6994 25.1389 39.6561 25.2721 39.7402 25.3342L40.389 25.8134L40.1456 26.5824C40.1142 26.682 40.2276 26.7643 40.3124 26.7036L40.9687 26.2345L41.6249 26.7036C41.7099 26.7643 41.8232 26.6819 41.7917 26.5824L41.5484 25.8134L42.1972 25.3342C42.2813 25.272 42.2379 25.1389 42.1335 25.1381L41.327 25.1318L41.0718 24.3666C41.0387 24.2675 40.8986 24.2675 40.8656 24.3666Z" fill="#F5F5F5"/>
</svg>
