<svg width="50" height="50" viewBox="0 0 50 50" fill="none" xmlns="http://www.w3.org/2000/svg">
<path d="M0 8.60156H50V41.3984H0V8.60156Z" fill="#D80027"/>
<path d="M13.6123 15.4517L9.5373 15.4564L9.52637 15.4626L9.53262 15.4517L8.2873 11.4158L7.18106 15.4564L3.14355 15.4517L6.49668 17.822H6.51699L6.47793 17.8501L5.11387 21.8673L8.37168 19.3455L8.37793 19.3267L8.38418 19.3455L11.6389 21.8673L10.2748 17.8501L10.2389 17.822H10.2514L13.6123 15.4517Z" fill="#FFDA44"/>
<path d="M20.5496 21.9345H19.7152L19.4605 21.1111L19.234 21.9345H18.4121L19.0965 22.4205H19.1012L19.0934 22.4267L18.8137 23.247L19.4777 22.733L19.4793 22.7283L19.4809 22.733L20.1465 23.247L19.8652 22.4267L19.8574 22.4205H19.8621L20.5496 21.9345Z" fill="#FFDA44"/>
<path d="M15.9406 26.2094L15.9172 25.3438L15.4766 26.0688L14.6875 25.8266L15.2156 26.4922L15.2172 26.4938L15.2094 26.4953L14.7219 27.2016L15.4969 26.9047L15.5 26.9V26.9047L15.9969 27.5922L15.9516 26.7234L15.95 26.7203L16.7391 26.4531L15.9406 26.2094Z" fill="#FFDA44"/>
<path d="M19.1841 17.6812L20.0091 17.6406L20.0138 17.6375L20.0122 17.6437L20.2903 18.4578L20.4935 17.6125L20.4903 17.6046L20.4935 17.6062L21.3216 17.6046L20.6278 17.1218H20.6247L20.6278 17.1187L20.8544 16.2859L20.2278 16.839L19.545 16.3593L19.856 17.1609H19.8513L19.1841 17.6812Z" fill="#FFDA44"/>
<path d="M18.3388 12.6969L18.345 12.6985L19.1341 12.4438L18.3388 12.1922L18.3356 12.1938L18.3388 12.1891L18.3247 11.3235L17.8778 12.0454L17.0903 11.7922L17.6106 12.4625L17.6169 12.4641L17.6044 12.4688L17.1122 13.1657L17.8888 12.8766L17.8919 12.8719V12.8766L18.3825 13.575L18.345 12.7047L18.3388 12.6969Z" fill="#FFDA44"/>
</svg>
