<svg width="50" height="50" viewBox="0 0 50 50" fill="none" xmlns="http://www.w3.org/2000/svg">
<path d="M49.1378 41.3792H0.862108C0.386034 41.3792 0 40.9932 0 40.5171V9.48271C0 9.00664 0.386034 8.62061 0.862108 8.62061H49.1379C49.614 8.62061 50 9.00664 50 9.48271V40.5171C49.9999 40.9933 49.6139 41.3792 49.1378 41.3792Z" fill="#41479B"/>
<path d="M25.3502 12.3716L25.6959 13.4081L26.7884 13.4166C26.9299 13.4176 26.9884 13.5981 26.8747 13.6822L25.9958 14.3312L26.3253 15.3728C26.3679 15.5076 26.2144 15.6193 26.0993 15.537L25.2105 14.9016L24.3218 15.537C24.2067 15.6192 24.0531 15.5077 24.0958 15.3728L24.4253 14.3312L23.5464 13.6822C23.4326 13.5981 23.4912 13.4176 23.6327 13.4166L24.7252 13.4081L25.0709 12.3716C25.1155 12.2375 25.3054 12.2375 25.3502 12.3716Z" fill="#FFE15A"/>
<path d="M25.3502 34.6238L25.6959 35.6603L26.7884 35.6687C26.9299 35.6698 26.9884 35.8503 26.8747 35.9344L25.9958 36.5834L26.3253 37.625C26.3679 37.7598 26.2144 37.8715 26.0993 37.7892L25.2105 37.1538L24.3218 37.7892C24.2067 37.8714 24.0531 37.7599 24.0958 37.625L24.4253 36.5834L23.5464 35.9344C23.4326 35.8503 23.4912 35.6698 23.6327 35.6687L24.7252 35.6603L25.0709 34.6238C25.1155 34.4896 25.3054 34.4896 25.3502 34.6238Z" fill="#FFE15A"/>
<path d="M36.4766 23.4976L36.8223 24.534L37.9148 24.5425C38.0563 24.5436 38.1149 24.7241 38.0011 24.8082L37.1222 25.4572L37.4517 26.4988C37.4944 26.6335 37.3409 26.7453 37.2258 26.6629L36.337 26.0276L35.4482 26.6629C35.3332 26.7452 35.1796 26.6336 35.2222 26.4988L35.5517 25.4572L34.6728 24.8082C34.5591 24.7241 34.6177 24.5436 34.7592 24.5425L35.8516 24.534L36.1973 23.4976C36.242 23.3634 36.4319 23.3634 36.4766 23.4976Z" fill="#FFE15A"/>
<path d="M14.2242 23.4976L14.5699 24.534L15.6624 24.5425C15.8039 24.5436 15.8625 24.7241 15.7487 24.8082L14.8698 25.4572L15.1993 26.4988C15.242 26.6335 15.0885 26.7453 14.9733 26.6629L14.0845 26.0276L13.1958 26.6629C13.0807 26.7452 12.9271 26.6336 12.9698 26.4988L13.2993 25.4572L12.4204 24.8082C12.3066 24.7241 12.3652 24.5436 12.5067 24.5425L13.5992 24.534L13.9449 23.4976C13.9896 23.3634 14.1796 23.3634 14.2242 23.4976Z" fill="#FFE15A"/>
<path d="M15.8946 17.6875L16.2403 18.724L17.3328 18.7325C17.4743 18.7335 17.5329 18.914 17.4191 18.9981L16.5402 19.6471L16.8697 20.6887C16.9124 20.8235 16.7589 20.9352 16.6437 20.8529L15.755 20.2175L14.8662 20.8529C14.7512 20.9351 14.5975 20.8236 14.6402 20.6887L14.9697 19.6471L14.0908 18.9981C13.977 18.914 14.0356 18.7335 14.1771 18.7325L15.2696 18.724L15.6153 17.6875C15.66 17.5534 15.8498 17.5534 15.8946 17.6875Z" fill="#FFE15A"/>
<path d="M35.1656 28.8135L35.5113 29.8499L36.6038 29.8584C36.7453 29.8595 36.8039 30.04 36.6901 30.1241L35.8112 30.7731L36.1407 31.8147C36.1834 31.9495 36.0299 32.0612 35.9147 31.9789L35.026 31.3435L34.1372 31.9789C34.0221 32.0611 33.8685 31.9496 33.9112 31.8147L34.2407 30.7731L33.3618 30.1241C33.248 30.04 33.3066 29.8595 33.4481 29.8584L34.5406 29.8499L34.8863 28.8135C34.931 28.6793 35.1209 28.6793 35.1656 28.8135Z" fill="#FFE15A"/>
<path d="M31.0928 13.615L31.4385 14.6515L32.531 14.66C32.6725 14.661 32.7311 14.8415 32.6174 14.9256L31.7385 15.5746L32.0679 16.6162C32.1106 16.751 31.9571 16.8627 31.842 16.7804L30.9532 16.145L30.0644 16.7804C29.9494 16.8626 29.7958 16.7511 29.8385 16.6162L30.1679 15.5746L29.289 14.9256C29.1753 14.8415 29.2339 14.661 29.3754 14.66L30.4678 14.6515L30.8136 13.615C30.8582 13.4809 31.0479 13.4809 31.0928 13.615Z" fill="#FFE15A"/>
<path d="M19.9669 32.886L20.3126 33.9225L21.4051 33.931C21.5466 33.932 21.6051 34.1125 21.4914 34.1966L20.6125 34.8456L20.942 35.8872C20.9846 36.022 20.8311 36.1337 20.716 36.0514L19.8272 35.416L18.9385 36.0514C18.8234 36.1336 18.6698 36.0221 18.7125 35.8872L19.042 34.8456L18.1631 34.1966C18.0493 34.1125 18.1079 33.932 18.2494 33.931L19.3419 33.9225L19.6876 32.886C19.7323 32.7519 19.922 32.7519 19.9669 32.886Z" fill="#FFE15A"/>
<path d="M34.8863 17.6875L34.5406 18.724L33.4481 18.7325C33.3066 18.7335 33.248 18.914 33.3618 18.9981L34.2407 19.6471L33.9112 20.6887C33.8685 20.8235 34.022 20.9352 34.1372 20.8529L35.026 20.2175L35.9147 20.8529C36.0298 20.9351 36.1834 20.8236 36.1407 20.6887L35.8112 19.6471L36.6901 18.9981C36.8039 18.914 36.7453 18.7335 36.6038 18.7325L35.5113 18.724L35.1656 17.6875C35.1209 17.5534 34.931 17.5534 34.8863 17.6875Z" fill="#FFE15A"/>
<path d="M15.6153 28.8135L15.2696 29.8499L14.1771 29.8584C14.0356 29.8595 13.977 30.04 14.0908 30.1241L14.9697 30.7731L14.6402 31.8147C14.5975 31.9495 14.7511 32.0612 14.8662 31.9789L15.755 31.3435L16.6437 31.9789C16.7588 32.0611 16.9124 31.9496 16.8697 31.8147L16.5402 30.7731L17.4191 30.1241C17.5329 30.04 17.4743 29.8595 17.3328 29.8584L16.2403 29.8499L15.8946 28.8135C15.8498 28.6793 15.66 28.6793 15.6153 28.8135Z" fill="#FFE15A"/>
<path d="M19.6876 13.615L19.3419 14.6515L18.2494 14.66C18.1079 14.661 18.0493 14.8415 18.1631 14.9256L19.042 15.5746L18.7125 16.6162C18.6698 16.751 18.8233 16.8627 18.9385 16.7804L19.8272 16.145L20.716 16.7804C20.831 16.8626 20.9846 16.7511 20.942 16.6162L20.6125 15.5746L21.4914 14.9256C21.6051 14.8415 21.5466 14.661 21.4051 14.66L20.3126 14.6515L19.9669 13.615C19.922 13.4809 19.7323 13.4809 19.6876 13.615Z" fill="#FFE15A"/>
<path d="M30.8136 32.886L30.4678 33.9225L29.3754 33.931C29.2339 33.932 29.1753 34.1125 29.289 34.1966L30.1679 34.8456L29.8385 35.8872C29.7958 36.022 29.9493 36.1337 30.0644 36.0514L30.9532 35.416L31.842 36.0514C31.957 36.1336 32.1106 36.0221 32.0679 35.8872L31.7385 34.8456L32.6174 34.1966C32.7311 34.1125 32.6725 33.932 32.531 33.931L31.4385 33.9225L31.0928 32.886C31.048 32.7519 30.8583 32.7519 30.8136 32.886Z" fill="#FFE15A"/>
</svg>
