<svg width="75" height="75" viewBox="0 0 75 75" fill="none" xmlns="http://www.w3.org/2000/svg">
<g clip-path="url(#clip0_1_509)">
<path d="M11.6969 65.0668C11.5272 65.0668 11.3575 64.982 11.1878 64.8971C10.9332 64.7274 10.8484 64.4729 10.8484 64.2183V36.8123C10.8484 36.388 11.1029 36.0486 11.5272 35.9638L31.4666 31.0426C31.7211 30.9577 31.9757 31.0426 32.2302 31.2123C32.3999 31.382 32.5696 31.6365 32.5696 31.891V59.2123C32.5696 59.6365 32.3151 59.9759 31.8908 60.0608L11.8666 65.0668C11.8666 65.0668 11.7817 65.0668 11.6969 65.0668ZM12.5454 37.4911V63.1153L30.7878 58.5335V32.9941L12.5454 37.4911Z" fill="black"/>
<path d="M36.9817 34.3516C36.8968 34.3516 36.812 34.3516 36.7271 34.3516L31.3817 32.7395C30.9574 32.5698 30.7029 32.1455 30.7877 31.7213C30.9574 31.297 31.3817 31.0425 31.8059 31.1273L37.1514 32.7395C37.5756 32.9092 37.8302 33.3334 37.7453 33.7576C37.6605 34.097 37.3211 34.3516 36.9817 34.3516Z" fill="black"/>
<path d="M47.9271 64.9819C47.8423 64.9819 47.7574 64.9819 47.6726 64.9819L31.3817 60.0607C30.9574 59.891 30.7029 59.4667 30.7877 59.0425C30.9574 58.6183 31.3817 58.3637 31.8059 58.4486L46.9938 63.0304V37.3213L42.7514 36.0485C42.3271 35.8788 42.0726 35.4546 42.1574 35.0304C42.3271 34.6061 42.7514 34.3516 43.1756 34.4364L48.012 35.8788C48.3514 35.9637 48.6059 36.3031 48.6059 36.7273V64.1334C48.6059 64.388 48.5211 64.6425 48.2665 64.8122C48.2665 64.897 48.0968 64.9819 47.9271 64.9819Z" fill="black"/>
<path d="M47.9273 64.9821C47.503 64.9821 47.1636 64.6427 47.0788 64.2184C46.9939 63.7942 47.3333 63.2851 47.7576 63.2851L63.3697 60.9942L61.2485 32.9942L48.1818 37.4911C47.7576 37.6608 47.2485 37.4063 47.0788 36.9821C46.9091 36.5578 47.1636 36.0487 47.5879 35.879L61.7576 31.1275C62.0121 31.0427 62.2667 31.0427 62.5212 31.2124C62.7758 31.3821 62.8606 31.6366 62.8606 31.8911L65.1515 61.673C65.1515 62.0972 64.897 62.5215 64.3879 62.6063L48.0121 64.9821H47.9273Z" fill="black"/>
<path d="M28.3272 53.6969C28.1575 53.6969 27.9878 53.612 27.8181 53.5272L16.4485 45.4666C16.0242 45.212 15.9394 44.7029 16.2788 44.2787C16.5333 43.8545 17.0424 43.7696 17.4666 44.109L28.2424 51.7454L39.3575 41.1393C39.5272 40.9696 39.7818 40.8848 39.9515 40.8848C40.206 40.8848 40.3757 40.9696 40.5454 41.1393L49.0303 50.7272L58.9575 44.5332C59.3818 44.2787 59.8909 44.3636 60.1454 44.7878C60.4 45.212 60.3151 45.7211 59.8909 45.9757L49.3697 52.5939C49.0303 52.8484 48.5212 52.7635 48.2666 52.4242L39.8666 43.006L28.8363 53.5272C28.7515 53.612 28.5818 53.6969 28.3272 53.6969Z" fill="black"/>
<path d="M40.7151 39.2727C40.4605 39.2727 40.206 39.1879 40.0363 38.9333C39.612 38.4242 30.1938 27.0546 30.1938 21.5394C30.1938 15.6849 34.9454 10.9333 40.7151 10.9333C46.4848 10.9333 51.2363 15.6849 51.2363 21.5394C51.2363 27.1394 41.7332 38.5091 41.3938 38.9333C41.2241 39.1879 40.9696 39.2727 40.7151 39.2727ZM40.7151 12.6303C35.8787 12.6303 31.8908 16.6182 31.8908 21.5394C31.8908 25.3576 37.7454 33.4182 40.7151 37.0667C43.6848 33.4182 49.5393 25.3576 49.5393 21.5394C49.5393 16.6182 45.5514 12.6303 40.7151 12.6303Z" fill="black"/>
<path d="M40.715 27.3091C37.8301 27.3091 35.4543 24.9333 35.4543 22.0484C35.4543 19.1636 37.8301 16.7878 40.715 16.7878C43.5998 16.7878 45.9756 19.1636 45.9756 22.0484C45.9756 24.9333 43.5998 27.3091 40.715 27.3091ZM40.715 18.4848C38.7634 18.4848 37.1513 20.0969 37.1513 22.0484C37.1513 24 38.7634 25.6121 40.715 25.6121C42.6665 25.6121 44.2786 24 44.2786 22.0484C44.2786 20.0969 42.6665 18.4848 40.715 18.4848Z" fill="black"/>
</g>
<defs>
<clipPath id="clip0_1_509">
<rect width="56" height="56" fill="white" transform="translate(10 10)"/>
</clipPath>
</defs>
</svg>
