<svg width="75" height="75" viewBox="0 0 75 75" fill="none" xmlns="http://www.w3.org/2000/svg">
<path d="M57.3607 22.4264H49.2485V17.3575C49.2485 15.0684 47.3671 13.2063 45.0546 13.2063H30.9455C28.633 13.2063 26.7516 15.0686 26.7516 17.3575V22.4264H18.6393C13.8756 22.4264 10 26.302 10 31.0657V55.737C10 59.6281 13.1656 62.7939 17.0569 62.7939H58.9431C62.8343 62.7939 66 59.6282 66 55.737V31.0657C65.9999 26.302 62.1243 22.4264 57.3607 22.4264ZM30.0428 17.3575C30.0428 16.8672 30.4309 16.4975 30.9455 16.4975H45.0545C45.5691 16.4975 45.9572 16.8672 45.9572 17.3575V22.4264H30.0428V17.3575ZM62.7086 55.737C62.7087 57.8134 61.0195 59.5027 58.9431 59.5027H17.0569C14.9804 59.5027 13.2912 57.8134 13.2912 55.737V40.3657C13.8066 40.6891 14.3701 40.9512 14.9747 41.138C15.0062 41.1476 15.0379 41.1565 15.0698 41.1644L31.835 45.2616V46.615C31.835 48.74 33.5638 50.4688 35.6887 50.4688H40.3111C42.4361 50.4688 44.1649 48.74 44.1649 46.615V45.2616L60.93 41.1644C60.9621 41.1566 60.9938 41.1478 61.0252 41.138C61.6298 40.9512 62.1932 40.6891 62.7087 40.3657V55.737H62.7086ZM35.1263 46.615V41.9719C35.1263 41.6617 35.3787 41.4094 35.6889 41.4094H40.3113C40.6214 41.4092 40.8738 41.6617 40.8738 41.9719V46.615C40.8738 46.9252 40.6214 47.1776 40.3113 47.1776H35.6889C35.3787 47.1775 35.1263 46.9251 35.1263 46.615ZM62.7088 34.382C62.7088 36.0364 61.6611 37.4766 60.0966 37.9799L44.1626 41.874C44.1104 39.7941 42.4035 38.1179 40.3113 38.1179H35.6889C33.5967 38.1179 31.8898 39.7942 31.8376 41.874L15.9034 37.98C14.339 37.4766 13.2912 36.0364 13.2912 34.382V31.0657C13.2912 28.1167 15.6903 25.7176 18.6393 25.7176H57.3607C60.3096 25.7176 62.7087 28.1167 62.7087 31.0657V34.382H62.7088Z" fill="black"/>
</svg>
