<svg width="56" height="56" viewBox="0 0 56 56" fill="none" xmlns="http://www.w3.org/2000/svg">
<path d="M3.7743 54.32H52.2255C52.5225 54.32 52.8074 54.202 53.0175 53.9919C53.2275 53.7819 53.3455 53.497 53.3455 53.2V47.6728C53.3414 46.2542 53.0044 44.8565 52.3614 43.592C51.7185 42.3276 50.7877 41.2318 49.6439 40.3928C45.2535 37.184 41.6527 35.3136 38.6903 34.72C38.6232 34.5633 38.5195 34.425 38.3879 34.3168L35.7279 32.1328C35.5196 31.9616 35.2565 31.8713 34.987 31.8785C34.7175 31.8857 34.4596 31.9899 34.2607 32.172L27.9999 37.884L21.7391 32.1552C21.5402 31.9731 21.2823 31.8689 21.0128 31.8617C20.7433 31.8545 20.4802 31.9448 20.2719 32.116L17.6119 34.3C17.4803 34.4082 17.3766 34.5465 17.3095 34.7032C14.3471 35.3136 10.7463 37.184 6.3615 40.3984C5.21602 41.2361 4.28364 42.3316 3.63965 43.5962C2.99566 44.8608 2.65812 46.2592 2.6543 47.6784V53.2C2.6543 53.497 2.7723 53.7819 2.98234 53.9919C3.19238 54.202 3.47725 54.32 3.7743 54.32ZM27.9999 40.8464L31.0295 43.3328L29.4111 45.36H26.6111L24.9927 43.3216L27.9999 40.8464ZM26.8351 47.6H29.1647L30.7999 52.08H25.1999L26.8351 47.6ZM51.1055 47.6616V52.08H33.1855L31.2255 46.6928L32.7655 44.7496L33.3927 45.2648C33.5927 45.4305 33.8441 45.5216 34.1039 45.5224C34.2003 45.5203 34.2961 45.5072 34.3895 45.4832C34.5606 45.4372 34.7183 45.3513 34.8497 45.2325C34.9811 45.1137 35.0825 44.9655 35.1455 44.8L38.2087 36.8872C40.8295 37.4472 44.2231 39.2056 48.2887 42.2016C49.1554 42.8278 49.8621 43.6496 50.3516 44.6002C50.841 45.5508 51.0993 46.6035 51.1055 47.6728V47.6616ZM35.0559 34.4624L36.3439 35.5152L33.5999 42.56L29.6799 39.3568L35.0559 34.4624ZM20.9439 34.4624L26.3199 39.3512L22.3999 42.56L19.6559 35.5152L20.9439 34.4624ZM4.8943 47.6728C4.89943 46.6059 5.15557 45.5553 5.64199 44.6058C6.12842 43.6563 6.83147 42.8346 7.6943 42.2072C11.7879 39.2112 15.1815 37.4304 17.7743 36.8928L20.8543 44.8C20.9186 44.9651 21.0211 45.1126 21.1535 45.2304C21.2859 45.3482 21.4444 45.4329 21.6159 45.4776C21.7093 45.5016 21.8051 45.5147 21.9015 45.5168C22.1613 45.516 22.4127 45.4249 22.6127 45.2592L23.2399 44.744L24.7799 46.6872L22.8199 52.08H4.8999L4.8943 47.6728Z" fill="black"/>
<path d="M16.4137 14.7952C16.3187 16.8477 16.6505 18.8975 17.3881 20.8152C17.2797 22.793 17.5731 24.7723 18.2505 26.6336C19.5049 29.9936 24.5337 33.7008 27.3673 34.0368H28.6721C31.4721 33.7008 36.5121 29.9824 37.7945 26.6336C38.4968 24.703 38.785 22.6462 38.6401 20.5968V19.6336C39.3121 18.0936 40.1017 14.0336 39.5865 11.6984C39.4577 10.7464 38.1529 2.92884 29.0361 1.82004C22.0305 0.968842 19.8241 4.28404 18.3961 6.47924C18.065 7.03422 17.6662 7.54588 17.2089 8.00244C15.0809 9.79444 13.5521 11.3232 13.4905 11.3624C13.3801 11.4719 13.2938 11.6031 13.2369 11.7477C13.18 11.8923 13.1539 12.0472 13.1601 12.2024C13.167 12.3584 13.2064 12.5112 13.2758 12.6511C13.3453 12.7909 13.4432 12.9147 13.5633 13.0144C14.4413 13.7164 15.3978 14.314 16.4137 14.7952ZM35.7001 25.844C34.7705 28.2968 30.5705 31.5056 28.4649 31.8024H27.5745C25.4689 31.5056 21.2801 28.2968 20.3449 25.844C19.7602 24.2182 19.5199 22.4885 19.6393 20.7648V20.72C19.6425 20.7053 19.6425 20.69 19.6393 20.6752C19.6393 20.6752 19.8297 17.528 21.7393 16.3128C22.8557 16.4394 23.9828 16.4394 25.0993 16.3128C29.4561 15.7528 31.8585 14.2632 32.9057 13.412C34.3281 14.2408 35.4257 16.1784 36.4113 19.5384V20.6584C36.4085 20.7051 36.4085 20.7518 36.4113 20.7984C36.5224 22.5113 36.2803 24.2287 35.7001 25.844ZM18.6369 9.71604C19.2612 9.12806 19.8019 8.45728 20.2441 7.72244C21.5993 5.67284 23.1393 3.36004 28.7785 4.04324C36.6185 4.99524 37.3465 11.7096 37.3745 11.9952C37.3718 12.0456 37.3718 12.0961 37.3745 12.1464C37.5504 13.2718 37.5391 14.4184 37.3409 15.54C36.4113 13.4904 35.1009 11.7432 33.0569 11.0096C32.8432 10.9373 32.6129 10.9295 32.3947 10.9872C32.1766 11.045 31.9804 11.1658 31.8305 11.3344C31.8305 11.3344 29.9489 13.44 24.8249 14.0728C23.7726 14.2072 22.7075 14.2072 21.6553 14.0728C21.4342 14.0453 21.21 14.0843 21.0113 14.1848C20.0363 14.6822 19.2255 15.4502 18.6761 16.3968C18.6208 15.6662 18.6208 14.9323 18.6761 14.2016C18.6944 13.9668 18.6383 13.7322 18.5156 13.5311C18.393 13.3301 18.2101 13.1728 17.9929 13.0816C17.308 12.791 16.6454 12.4504 16.0105 12.0624C16.6657 11.4408 17.5785 10.6064 18.6369 9.71604Z" fill="black"/>
</svg>
