<svg width="20" height="20" viewBox="0 0 20 20" fill="none" xmlns="http://www.w3.org/2000/svg">
<g clip-path="url(#clip0_260_6767)">
<path d="M11.6667 7.57495L19.0083 9.03328C19.6 9.15828 20 9.65828 20 10.25V18.75C20 19.4416 19.4417 20 18.75 20H11.25C11.4833 20 11.6667 19.8166 11.6667 19.5833V19.1666H18.75C18.975 19.1666 19.1667 18.9833 19.1667 18.75V10.25C19.1667 10.0583 19.0333 9.88329 18.8417 9.84162L11.6667 8.42495V7.57495Z" fill="black"/>
<path d="M16.2513 11.6666C16.4846 11.6666 16.668 11.85 16.668 12.0833C16.668 12.3166 16.4846 12.5 16.2513 12.5H14.5846C14.3513 12.5 14.168 12.3166 14.168 12.0833C14.168 11.85 14.3513 11.6666 14.5846 11.6666H16.2513Z" fill="black"/>
<path d="M16.2513 14.1666C16.4846 14.1666 16.668 14.35 16.668 14.5833C16.668 14.8166 16.4846 15 16.2513 15H14.5846C14.3513 15 14.168 14.8166 14.168 14.5833C14.168 14.35 14.3513 14.1666 14.5846 14.1666H16.2513Z" fill="black"/>
<path d="M16.2513 16.6666C16.4846 16.6666 16.668 16.85 16.668 17.0833C16.668 17.3166 16.4846 17.5 16.2513 17.5H14.5846C14.3513 17.5 14.168 17.3166 14.168 17.0833C14.168 16.85 14.3513 16.6666 14.5846 16.6666H16.2513Z" fill="black"/>
<path d="M11.6654 19.5833C11.6654 19.8167 11.482 20 11.2487 20C11.0154 20 10.832 19.8167 10.832 19.5833V19.1667V7.91666C10.832 7.79166 10.8904 7.675 10.982 7.59166C11.082 7.51666 11.207 7.48333 11.332 7.50833L11.6654 7.575V8.425V19.1667V19.5833Z" fill="black"/>
<path d="M10.8346 19.1666V19.5833C10.8346 19.8166 11.018 20 11.2513 20H7.91797C8.1513 20 8.33464 19.8166 8.33464 19.5833V19.1666H10.8346Z" fill="black"/>
<path d="M8.7513 4.16663C8.98464 4.16663 9.16797 4.34996 9.16797 4.58329C9.16797 4.81663 8.98464 4.99996 8.7513 4.99996H7.08464C6.8513 4.99996 6.66797 4.81663 6.66797 4.58329C6.66797 4.34996 6.8513 4.16663 7.08464 4.16663H8.7513Z" fill="black"/>
<path d="M9.16797 7.08329C9.16797 7.31663 8.98464 7.49996 8.7513 7.49996H7.08464C6.8513 7.49996 6.66797 7.31663 6.66797 7.08329C6.66797 6.84996 6.8513 6.66663 7.08464 6.66663H8.7513C8.98464 6.66663 9.16797 6.84996 9.16797 7.08329Z" fill="black"/>
<path d="M8.7513 9.16663C8.98464 9.16663 9.16797 9.34996 9.16797 9.58329C9.16797 9.81663 8.98464 9.99996 8.7513 9.99996H7.08464C6.8513 9.99996 6.66797 9.81663 6.66797 9.58329C6.66797 9.34996 6.8513 9.16663 7.08464 9.16663H8.7513Z" fill="black"/>
<path d="M8.7513 11.6666C8.98464 11.6666 9.16797 11.85 9.16797 12.0833C9.16797 12.3166 8.98464 12.5 8.7513 12.5H7.08464C6.8513 12.5 6.66797 12.3166 6.66797 12.0833C6.66797 11.85 6.8513 11.6666 7.08464 11.6666H8.7513Z" fill="black"/>
<path d="M5 12.0833C5 12.3166 4.81667 12.5 4.58333 12.5H2.91667C2.68333 12.5 2.5 12.3166 2.5 12.0833C2.5 11.85 2.68333 11.6666 2.91667 11.6666H4.58333C4.81667 11.6666 5 11.85 5 12.0833Z" fill="black"/>
<path d="M4.58333 4.16663C4.81667 4.16663 5 4.34996 5 4.58329C5 4.81663 4.81667 4.99996 4.58333 4.99996H2.91667C2.68333 4.99996 2.5 4.81663 2.5 4.58329C2.5 4.34996 2.68333 4.16663 2.91667 4.16663H4.58333Z" fill="black"/>
<path d="M4.58333 6.66663C4.81667 6.66663 5 6.84996 5 7.08329C5 7.31663 4.81667 7.49996 4.58333 7.49996H2.91667C2.68333 7.49996 2.5 7.31663 2.5 7.08329C2.5 6.84996 2.68333 6.66663 2.91667 6.66663H4.58333Z" fill="black"/>
<path d="M4.58333 9.16663C4.81667 9.16663 5 9.34996 5 9.58329C5 9.81663 4.81667 9.99996 4.58333 9.99996H2.91667C2.68333 9.99996 2.5 9.81663 2.5 9.58329C2.5 9.34996 2.68333 9.16663 2.91667 9.16663H4.58333Z" fill="black"/>
<path d="M7.4987 15.4166C7.4987 15.1833 7.30703 15 7.08203 15H4.58203C4.3487 15 4.16536 15.1833 4.16536 15.4166V19.1666H3.33203V15.4166C3.33203 14.725 3.89036 14.1666 4.58203 14.1666H7.08203C7.7737 14.1666 8.33203 14.725 8.33203 15.4166V19.1666H7.4987V15.4166Z" fill="black"/>
<path d="M4.16536 19.1666H7.4987H8.33203V19.5833C8.33203 19.8166 8.1487 20 7.91536 20H3.7487C3.51536 20 3.33203 19.8166 3.33203 19.5833V19.1666H4.16536Z" fill="black"/>
<path d="M1.45833 0.166615L10.6167 1.55828C11.225 1.65828 11.6667 2.17495 11.6667 2.79161V7.57495L11.3333 7.50828C11.2083 7.48328 11.0833 7.51661 10.9833 7.59161C10.8917 7.67495 10.8333 7.79161 10.8333 7.91661V2.79161C10.8333 2.58328 10.6833 2.40828 10.4833 2.37495L1.325 0.991615C1.3 0.983281 1.275 0.983281 1.25 0.983281C1.15 0.983281 1.05833 1.01661 0.983333 1.08328C0.883333 1.16661 0.833333 1.27495 0.833333 1.39995V18.7499C0.833333 18.9833 1.025 19.1666 1.25 19.1666H3.33333V19.5833C3.33333 19.8166 3.51667 19.9999 3.75 19.9999H1.25C0.558333 19.9999 0 19.4416 0 18.7499V1.39995C0 1.03328 0.158333 0.683281 0.441667 0.449948C0.725 0.208281 1.09167 0.108281 1.45833 0.166615Z" fill="black"/>
</g>
<defs>
<clipPath id="clip0_260_6767">
<rect width="20" height="20" fill="white"/>
</clipPath>
</defs>
</svg>
