<svg width="54" height="54" viewBox="0 0 54 54" fill="none" xmlns="http://www.w3.org/2000/svg">
<path d="M32.0625 10.9688H29.5312V8.4375C29.5312 8.21372 29.4424 7.99911 29.2841 7.84088C29.1259 7.68265 28.9113 7.59375 28.6875 7.59375H25.3125C25.0887 7.59375 24.8741 7.68265 24.7159 7.84088C24.5576 7.99911 24.4688 8.21372 24.4688 8.4375V10.9688H21.9375C21.7137 10.9688 21.4991 11.0576 21.3409 11.2159C21.1826 11.3741 21.0938 11.5887 21.0938 11.8125V15.1875C21.0938 15.4113 21.1826 15.6259 21.3409 15.7841C21.4991 15.9424 21.7137 16.0312 21.9375 16.0312H24.4688V18.5625C24.4688 18.7863 24.5576 19.0009 24.7159 19.1591C24.8741 19.3174 25.0887 19.4062 25.3125 19.4062H28.6875C28.9113 19.4062 29.1259 19.3174 29.2841 19.1591C29.4424 19.0009 29.5312 18.7863 29.5312 18.5625V16.0312H32.0625C32.2863 16.0312 32.5009 15.9424 32.6591 15.7841C32.8174 15.6259 32.9062 15.4113 32.9062 15.1875V11.8125C32.9062 11.5887 32.8174 11.3741 32.6591 11.2159C32.5009 11.0576 32.2863 10.9688 32.0625 10.9688ZM31.2188 14.3438H28.6875C28.4637 14.3438 28.2491 14.4326 28.0909 14.5909C27.9326 14.7491 27.8438 14.9637 27.8438 15.1875V17.7188H26.1562V15.1875C26.1562 14.9637 26.0674 14.7491 25.9091 14.5909C25.7509 14.4326 25.5363 14.3438 25.3125 14.3438H22.7812V12.6562H25.3125C25.5363 12.6562 25.7509 12.5674 25.9091 12.4091C26.0674 12.2509 26.1562 12.0363 26.1562 11.8125V9.28125H27.8438V11.8125C27.8438 12.0363 27.9326 12.2509 28.0909 12.4091C28.2491 12.5674 28.4637 12.6562 28.6875 12.6562H31.2188V14.3438Z" fill="#002661"/>
<path d="M50.3972 15.4912C50.4143 15.3428 50.4227 15.1935 50.4225 15.044C50.4184 14.2706 50.1501 13.5219 49.6621 12.9218C49.1741 12.3218 48.4957 11.9066 47.7394 11.745C46.8838 11.5821 45.9984 11.7503 45.2622 12.2156C44.5259 12.6808 43.9939 13.4083 43.7738 14.2509L40.0612 24.9328C40.0062 24.9546 39.9527 24.98 39.9009 25.0087L32.4422 29.3794C31.3008 30.0498 30.3542 31.0064 29.6957 32.1547C29.0372 33.303 28.6897 34.6032 28.6875 35.9269V43.875C28.4637 43.875 28.2491 43.9639 28.0909 44.1221C27.9326 44.2803 27.8438 44.495 27.8438 44.7187V51.4687C27.8438 51.6925 27.9326 51.9071 28.0909 52.0654C28.2491 52.2236 28.4637 52.3125 28.6875 52.3125H40.5C40.7238 52.3125 40.9384 52.2236 41.0966 52.0654C41.2549 51.9071 41.3438 51.6925 41.3438 51.4687V44.7187C41.3438 44.495 41.2549 44.2803 41.0966 44.1221C40.9384 43.9639 40.7238 43.875 40.5 43.875V42.0187C40.5016 41.6624 40.5774 41.3102 40.7227 40.9848C40.868 40.6594 41.0795 40.3678 41.3438 40.1287L47.0475 35.0578C47.6714 34.5119 48.118 33.7921 48.33 32.9906L51.9919 19.2965C52.0701 19.0106 52.1098 18.7155 52.11 18.419C52.1067 17.8236 51.9466 17.2395 51.646 16.7256C51.3453 16.2116 50.9146 15.7859 50.3972 15.4912ZM45.3853 14.7487C45.4889 14.3124 45.7531 13.9311 46.1253 13.6809C46.4975 13.4307 46.9503 13.3299 47.3934 13.3987C47.7716 13.4779 48.1112 13.6845 48.3554 13.984C48.5995 14.2835 48.7335 14.6577 48.735 15.044V15.0609C47.9813 15.0749 47.2528 15.3347 46.6604 15.8007C46.0679 16.2668 45.6439 16.9136 45.4528 17.6428L43.0988 24.9075C42.7423 24.7384 42.3602 24.6301 41.9681 24.5869L45.3853 14.7487ZM39.6562 50.625H29.5312V45.5625H39.6562V50.625ZM50.3634 18.8578L46.6931 32.5603C46.5661 33.0364 46.3021 33.4648 45.9337 33.7922L40.2216 38.8631C39.7796 39.2617 39.4258 39.7484 39.1832 40.2918C38.9405 40.8353 38.8142 41.4235 38.8125 42.0187V43.875H30.375V35.9269C30.3792 34.8974 30.6504 33.8867 31.1621 32.9934C31.6738 32.1002 32.4085 31.355 33.2944 30.8306L40.7447 26.4684C40.9368 26.3565 41.1491 26.2836 41.3694 26.254C41.5898 26.2244 41.8138 26.2386 42.0286 26.2959C42.2435 26.3531 42.4449 26.4522 42.6213 26.5875C42.7977 26.7229 42.9456 26.8917 43.0566 27.0844C43.2757 27.4742 43.3362 27.9336 43.2253 28.3669C43.1667 28.5808 43.0665 28.7811 42.9304 28.9563C42.7943 29.1315 42.625 29.2781 42.4322 29.3878L37.5975 32.1806C37.4138 32.2974 37.2824 32.4806 37.2306 32.6919C37.1789 32.9033 37.2107 33.1265 37.3197 33.3149C37.4286 33.5033 37.6061 33.6424 37.8151 33.703C38.0241 33.7636 38.2484 33.7412 38.4413 33.6403L43.2759 30.8475C43.6624 30.6282 44.0011 30.3339 44.272 29.9818C44.543 29.6296 44.7408 29.2269 44.8538 28.7972C45.0834 27.9339 44.9621 27.0147 44.5162 26.2406L44.4656 26.1647L47.0728 18.1237C47.1764 17.6874 47.4406 17.3061 47.8128 17.0559C48.185 16.8057 48.6378 16.7049 49.0809 16.7737C49.4591 16.8529 49.7987 17.0595 50.0429 17.359C50.287 17.6585 50.421 18.0327 50.4225 18.419C50.4253 18.5675 50.4054 18.7154 50.3634 18.8578Z" fill="#002661"/>
<path d="M25.3121 43.875V35.9269C25.31 34.6032 24.9625 33.303 24.304 32.1547C23.6455 31.0064 22.6988 30.0498 21.5575 29.3794L14.0987 25.0003C14.0481 24.975 13.989 24.9581 13.9384 24.9328L10.2512 14.31C10.0369 13.4551 9.50492 12.714 8.7635 12.2375C8.02208 11.761 7.12695 11.5849 6.26027 11.745C5.50393 11.9066 4.82552 12.3218 4.33752 12.9219C3.84952 13.5219 3.58124 14.2707 3.57715 15.0441C3.57693 15.1935 3.58538 15.3428 3.60246 15.4913C3.08504 15.7859 2.65434 16.2117 2.35367 16.7256C2.053 17.2396 1.89296 17.8236 1.88965 18.4191C1.89129 18.7149 1.92811 19.0095 1.99934 19.2966L5.66965 32.9822C5.87939 33.787 6.32623 34.5102 6.95215 35.0578L12.6475 40.1288C12.9144 40.3662 13.1282 40.6572 13.275 40.9829C13.4219 41.3086 13.4984 41.6615 13.4996 42.0188V43.875C13.2759 43.875 13.0613 43.9639 12.903 44.1221C12.7448 44.2804 12.6559 44.495 12.6559 44.7188V51.4688C12.6559 51.6925 12.7448 51.9072 12.903 52.0654C13.0613 52.2236 13.2759 52.3125 13.4996 52.3125H25.3121C25.5359 52.3125 25.7505 52.2236 25.9088 52.0654C26.067 51.9072 26.1559 51.6925 26.1559 51.4688V44.7188C26.1559 44.495 26.067 44.2804 25.9088 44.1221C25.7505 43.9639 25.5359 43.875 25.3121 43.875ZM5.26465 15.0441C5.26569 14.6589 5.3985 14.2856 5.64101 13.9863C5.88352 13.687 6.22114 13.4797 6.59777 13.3988C7.05311 13.3327 7.5166 13.4412 7.89529 13.7025C8.27399 13.9638 8.53988 14.3587 8.63965 14.8078L12.0315 24.5869C11.6394 24.6301 11.2573 24.7385 10.9009 24.9075L8.56371 17.685C8.3735 16.9486 7.94865 16.2942 7.35342 15.8208C6.75818 15.3473 6.02496 15.0806 5.26465 15.061V15.0441ZM13.7696 38.8631L8.0659 33.7922C7.69554 33.4631 7.43124 33.0314 7.30652 32.5519L3.62777 18.8578C3.59285 18.7142 3.57584 18.5669 3.57715 18.4191C3.57819 18.0339 3.711 17.6606 3.95351 17.3613C4.19602 17.062 4.53364 16.8547 4.91027 16.7738C5.36241 16.7059 5.82347 16.8118 6.20072 17.0701C6.57797 17.3283 6.84343 17.7199 6.94371 18.166L9.53402 26.1647L9.4834 26.2406C9.03756 27.0148 8.91622 27.9339 9.1459 28.7972C9.25887 29.2269 9.45666 29.6297 9.72763 29.9818C9.9986 30.3339 10.3373 30.6283 10.7237 30.8475L15.5584 33.6403C15.7512 33.7412 15.9756 33.7637 16.1846 33.703C16.3936 33.6424 16.5711 33.5034 16.68 33.3149C16.7889 33.1265 16.8208 32.9033 16.769 32.692C16.7172 32.4806 16.5858 32.2974 16.4021 32.1806L11.5675 29.3878C11.3746 29.2781 11.2053 29.1315 11.0693 28.9563C10.9332 28.7811 10.8329 28.5808 10.7743 28.3669C10.6635 27.9336 10.7239 27.4743 10.9431 27.0844C11.0533 26.8921 11.2004 26.7235 11.3758 26.5881C11.5512 26.4526 11.7516 26.3531 11.9655 26.2951C12.1794 26.2371 12.4026 26.2219 12.6224 26.2502C12.8422 26.2784 13.0543 26.3498 13.2465 26.46L20.7053 30.8306C21.5912 31.355 22.3259 32.1002 22.8376 32.9935C23.3493 33.8867 23.6205 34.8975 23.6246 35.9269V43.875H15.1871V42.0188C15.1857 41.4227 15.0587 40.8337 14.8145 40.29C14.5703 39.7463 14.2143 39.2601 13.7696 38.8631ZM24.4684 50.625H14.3434V45.5625H24.4684V50.625Z" fill="#002661"/>
<path d="M38.936 4.33012C38.1527 3.54546 37.2224 2.92298 36.1982 2.49828C35.1741 2.07359 34.0763 1.85502 32.9675 1.8551C31.8588 1.85518 30.761 2.0739 29.737 2.49874C28.7129 2.92358 27.7826 3.5462 26.9995 4.33097C26.2164 3.54618 25.2862 2.92355 24.2621 2.49873C23.2381 2.07391 22.1403 1.85525 21.0316 1.85525C19.9229 1.85525 18.8252 2.07391 17.8011 2.49873C16.7771 2.92355 15.8469 3.54618 15.0638 4.33097C13.4846 5.91357 12.5977 8.05801 12.5977 10.2937C12.5977 12.5295 13.4846 14.6739 15.0638 16.2565L26.4038 27.5965C26.562 27.7547 26.7766 27.8436 27.0003 27.8436C27.224 27.8436 27.4386 27.7547 27.5968 27.5965L38.9368 16.2565C40.516 14.6737 41.4028 12.529 41.4026 10.2932C41.4024 8.05727 40.5154 5.91276 38.936 4.33012ZM26.9995 25.8069L16.256 15.0635C15.3128 14.119 14.6708 12.9161 14.4111 11.6067C14.1515 10.2974 14.2859 8.94056 14.7973 7.70762C15.3087 6.47467 16.1741 5.42103 17.2843 4.67988C18.3944 3.93874 19.6993 3.54336 21.0341 3.54375C21.9208 3.5407 22.7992 3.71424 23.6181 4.05423C24.4371 4.39422 25.1801 4.89387 25.8039 5.52403L26.4029 6.12309C26.5612 6.28127 26.7757 6.37013 26.9995 6.37013C27.2232 6.37013 27.4378 6.28127 27.596 6.12309L28.1967 5.52234C28.8231 4.8948 29.5671 4.39695 30.3862 4.05727C31.2052 3.71758 32.0832 3.54274 32.9698 3.54274C33.8565 3.54274 34.7345 3.71758 35.5535 4.05727C36.3725 4.39695 37.1165 4.8948 37.7429 5.52234C39.0068 6.78795 39.7167 8.50344 39.7167 10.2921C39.7167 12.0807 39.0068 13.7962 37.7429 15.0618L26.9995 25.8069Z" fill="#002661"/>
</svg>
