<svg width="53" height="53" viewBox="0 0 53 53" fill="none" xmlns="http://www.w3.org/2000/svg">
<path d="M48.4591 32.9223L45.6747 30.1379C43.615 28.0666 41.165 26.4245 38.4664 25.3066C35.7677 24.1886 32.8741 23.6171 29.9531 23.625C28.1041 23.6222 26.2619 23.8489 24.4688 24.3V16.875H31.6406L33.9188 19.9125C33.9973 20.0173 34.0993 20.1023 34.2164 20.1609C34.3336 20.2195 34.4628 20.25 34.5938 20.25H40.5C40.7238 20.25 40.9383 20.161 41.0965 20.0028L44.4715 16.6278C44.5895 16.5098 44.6698 16.3595 44.7024 16.1958C44.7349 16.0322 44.7182 15.8625 44.6544 15.7084C44.5905 15.5542 44.4824 15.4225 44.3437 15.3298C44.2049 15.237 44.0419 15.1875 43.875 15.1875H40.6991L39.6562 14.6661V12.3339L40.6991 11.8125H43.875C44.0419 11.8125 44.2049 11.763 44.3437 11.6702C44.4824 11.5775 44.5905 11.4458 44.6544 11.2916C44.7182 11.1375 44.7349 10.9678 44.7024 10.8042C44.6698 10.6405 44.5895 10.4902 44.4715 10.3722L41.0965 6.99722C40.9383 6.83897 40.7238 6.75005 40.5 6.75H34.5938C34.4628 6.75 34.3336 6.7805 34.2164 6.83908C34.0993 6.89766 33.9973 6.98271 33.9188 7.0875L31.6406 10.125H24.4688V2.53125C24.4688 1.85992 24.2021 1.21609 23.7274 0.741386C23.2527 0.266684 22.6088 0 21.9375 0H3.375C2.70367 0 2.05984 0.266684 1.58514 0.741386C1.11043 1.21609 0.84375 1.85992 0.84375 2.53125V28.6875C0.84375 29.3588 1.11043 30.0027 1.58514 30.4774C2.05984 30.9521 2.70367 31.2188 3.375 31.2188H13.1507L11.4632 32.9062H6.75C4.96041 32.9083 3.24468 33.6201 1.97925 34.8855C0.713814 36.1509 0.0020099 37.8667 0 39.6562V42.1875C0.00133975 43.306 0.446244 44.3782 1.23712 45.1691C2.028 45.96 3.10028 46.4049 4.21875 46.4062H8.49572C8.70002 48.037 9.49274 49.5369 10.7249 50.6244C11.9572 51.7119 13.5441 52.312 15.1875 52.312C16.8309 52.312 18.4178 51.7119 19.6501 50.6244C20.8823 49.5369 21.675 48.037 21.8793 46.4062H33.8082C34.0125 48.037 34.8052 49.5369 36.0374 50.6244C37.2697 51.7119 38.8566 52.312 40.5 52.312C42.1434 52.312 43.7303 51.7119 44.9626 50.6244C46.1948 49.5369 46.9875 48.037 47.1918 46.4062H48.9375C49.8326 46.4062 50.691 46.0507 51.324 45.4177C51.9569 44.7848 52.3125 43.9264 52.3125 43.0312V37.125C52.3113 36.0697 51.9151 35.0531 51.202 34.2753C50.4888 33.4975 49.5103 33.0148 48.4591 32.9223ZM50.625 37.125V37.9688H48.0938C47.87 37.9688 47.6554 37.8799 47.4971 37.7216C47.3389 37.5634 47.25 37.3488 47.25 37.125V34.5938H48.0938C48.7651 34.5938 49.4089 34.8604 49.8836 35.3351C50.3583 35.8098 50.625 36.4537 50.625 37.125ZM46.0569 32.9062H31.2188V25.3547C36.2237 25.6485 40.945 27.7758 44.4808 31.3301L46.0569 32.9062ZM19.4062 26.1562H5.90625V22.7812H19.4062V26.1562ZM29.5312 25.3226V32.9062H13.8493L15.4254 31.3301C19.1675 27.5699 24.2271 25.415 29.5312 25.3226ZM32.0625 11.8125C32.1935 11.8125 32.3227 11.782 32.4398 11.7234C32.557 11.6648 32.6589 11.5798 32.7375 11.475L35.0156 8.4375H40.1507L41.8382 10.125H40.5C40.3691 10.1249 40.24 10.1552 40.1228 10.2136L38.4353 11.0573C38.2951 11.1274 38.1771 11.2352 38.0947 11.3686C38.0123 11.502 37.9687 11.6557 37.9688 11.8125V15.1875C37.9687 15.3443 38.0123 15.498 38.0947 15.6314C38.1771 15.7648 38.2951 15.8726 38.4353 15.9427L40.1228 16.7864C40.24 16.8448 40.3691 16.8751 40.5 16.875H41.8382L40.1507 18.5625H35.0156L32.7375 15.525C32.6589 15.4202 32.557 15.3352 32.4398 15.2766C32.3227 15.218 32.1935 15.1875 32.0625 15.1875H24.4688V11.8125H32.0625ZM2.53125 28.6875V2.53125C2.53125 2.30747 2.62015 2.09286 2.77838 1.93463C2.93661 1.77639 3.15122 1.6875 3.375 1.6875H21.9375C22.1613 1.6875 22.3759 1.77639 22.5341 1.93463C22.6924 2.09286 22.7812 2.30747 22.7812 2.53125V24.8062C22.2103 25.0003 21.6478 25.2177 21.0938 25.4585V21.9375C21.0938 21.7137 21.0049 21.4991 20.8466 21.3409C20.6884 21.1826 20.4738 21.0938 20.25 21.0938H5.0625C4.83872 21.0938 4.62411 21.1826 4.46588 21.3409C4.30764 21.4991 4.21875 21.7137 4.21875 21.9375V27C4.21875 27.2238 4.30764 27.4384 4.46588 27.5966C4.62411 27.7549 4.83872 27.8438 5.0625 27.8438H16.9222C16.2048 28.365 15.5191 28.9285 14.8686 29.5312H3.375C3.15122 29.5312 2.93661 29.4424 2.77838 29.2841C2.62015 29.1259 2.53125 28.9113 2.53125 28.6875ZM6.75 34.5938V37.125C6.75 37.5726 6.57221 38.0018 6.25574 38.3182C5.93927 38.6347 5.51005 38.8125 5.0625 38.8125H1.76344C1.96363 37.6342 2.57388 36.5645 3.48635 35.7925C4.39882 35.0206 5.55479 34.596 6.75 34.5938ZM15.1875 50.625C14.1862 50.625 13.2074 50.3281 12.3749 49.7718C11.5424 49.2155 10.8935 48.4249 10.5104 47.4998C10.1272 46.5748 10.0269 45.5569 10.2223 44.5749C10.4176 43.5928 10.8998 42.6908 11.6078 41.9828C12.3158 41.2748 13.2178 40.7926 14.1999 40.5973C15.1819 40.4019 16.1998 40.5022 17.1248 40.8854C18.0499 41.2685 18.8405 41.9174 19.3968 42.7499C19.9531 43.5825 20.25 44.5612 20.25 45.5625C20.2487 46.9047 19.7149 48.1916 18.7657 49.1407C17.8166 50.0899 16.5297 50.6237 15.1875 50.625ZM40.5 50.625C39.4987 50.625 38.52 50.3281 37.6874 49.7718C36.8549 49.2155 36.206 48.4249 35.8229 47.4998C35.4397 46.5748 35.3394 45.5569 35.5348 44.5749C35.7301 43.5928 36.2123 42.6908 36.9203 41.9828C37.6283 41.2748 38.5303 40.7926 39.5124 40.5973C40.4944 40.4019 41.5123 40.5022 42.4373 40.8854C43.3624 41.2685 44.153 41.9174 44.7093 42.7499C45.2656 43.5825 45.5625 44.5612 45.5625 45.5625C45.5612 46.9047 45.0274 48.1916 44.0782 49.1407C43.1291 50.0899 41.8422 50.6237 40.5 50.625ZM48.9375 44.7188H47.1918C46.9875 43.088 46.1948 41.5881 44.9626 40.5006C43.7303 39.4131 42.1434 38.813 40.5 38.813C38.8566 38.813 37.2697 39.4131 36.0374 40.5006C34.8052 41.5881 34.0125 43.088 33.8082 44.7188H21.8793C21.675 43.088 20.8823 41.5881 19.6501 40.5006C18.4178 39.4131 16.8309 38.813 15.1875 38.813C13.5441 38.813 11.9572 39.4131 10.7249 40.5006C9.49274 41.5881 8.70002 43.088 8.49572 44.7188H4.21875C3.54742 44.7188 2.90359 44.4521 2.42889 43.9774C1.95418 43.5027 1.6875 42.8588 1.6875 42.1875V40.5H5.0625C5.95761 40.5 6.81605 40.1444 7.44899 39.5115C8.08192 38.8785 8.4375 38.0201 8.4375 37.125V34.5938H45.5625V37.125C45.5625 37.7963 45.8292 38.4402 46.3039 38.9149C46.7786 39.3896 47.4224 39.6562 48.0938 39.6562H50.625V43.0312C50.625 43.4788 50.4472 43.908 50.1307 44.2245C49.8143 44.541 49.3851 44.7188 48.9375 44.7188Z" fill="#002661"/>
</svg>
