<svg width="54" height="54" viewBox="0 0 54 54" fill="none" xmlns="http://www.w3.org/2000/svg">
<g clip-path="url(#clip0_223_527)">
<path d="M53.1562 48.0937H52.3125V45.1507C53.9688 43.5527 54 41.5538 54 41.4644C54.0008 41.2012 53.8793 40.9531 53.6709 40.7928L52.3125 39.7465V34.5929C52.3125 34.1263 51.9345 33.7492 51.4688 33.7492H48.6354L46.7707 26.8253L48.8759 21.611C48.9603 21.4034 48.9577 21.1714 48.87 20.9647C48.7822 20.7588 48.616 20.5951 48.4085 20.5124L15.9469 7.44356L14.7985 1.92881C14.7412 1.6529 14.5488 1.4234 14.2872 1.31793L11.1569 0.0607453C10.838 -0.0683484 10.4718 0.0101203 10.233 0.25987C10.1005 0.399089 6.95925 3.71503 5.03128 8.51006C2.01066 16.0177 3.88294 22.6901 4.21959 23.7583V43.8742H2.53125C2.0655 43.8742 1.6875 44.2513 1.6875 44.7179V48.0929H0.84375C0.378 48.0929 0 48.4701 0 48.9367V53.1554C0 53.622 0.378 53.9992 0.84375 53.9992H53.1562C53.622 53.9992 54 53.622 54 53.1554V48.9367C54 48.4701 53.622 48.0937 53.1562 48.0937ZM45.3997 41.4517C45.6367 42.4904 46.5952 43.9509 48.5477 43.4438C49.329 43.2405 49.8192 42.8068 50.1525 42.2196C50.4697 41.6601 50.5524 41.0214 50.4174 40.4165L52.2669 41.8416C52.1699 42.3731 51.8678 43.3468 50.9262 44.1323C50.3845 44.588 49.6842 44.9238 48.8472 45.1313C46.1894 45.7844 44.7947 44.4513 44.2935 43.8058L45.4005 41.4526L45.3997 41.4517ZM8.23247 25.2872C8.75559 25.4104 9.08381 25.1125 9.21712 24.7911L13.3836 14.699L22.6555 18.4013L21.9569 22.5906L14.553 48.0929H8.43666V44.7179C8.43666 44.2513 8.05866 43.8742 7.59291 43.8742H5.90541V24.705L8.23162 25.2863L8.23247 25.2872ZM23.4149 23.625H25.0324L17.9288 48.0937H16.3114L23.4149 23.625ZM23.8528 33.7348L26.1562 25.8069L27.8294 31.5697L23.8528 33.7357V33.7348ZM28.3103 33.2286L29.716 38.0708L24.3101 35.408L28.3103 33.2286ZM23.7769 21.9375L24.3743 18.3524L26.2617 16.9948L27.9517 17.7171L28.5559 21.9375H23.7769ZM23.0065 36.6474L29.4443 39.8191L20.0694 46.7699L23.0065 36.6474ZM30.5868 41.0729L32.6253 48.0946H21.1165L30.5868 41.0729ZM27.2784 23.6258H28.8959L35.9994 48.0946H34.382L27.2776 23.6258H27.2784ZM30.3564 22.6024L30.1868 21.4161L41.1362 25.7875L43.3029 33.7508H42.1867C40.3253 33.7508 38.8117 35.2645 38.8117 37.1258V43.6767L37.3334 46.6332L30.3564 22.6024ZM38.4893 48.0946L40.4992 44.075V37.1258C40.4992 36.1935 41.2543 35.4383 42.1867 35.4383H43.7619L44.7145 38.9407L42.5613 43.5164C42.4533 43.7467 42.4465 44.0125 42.5621 44.2395C43.1013 45.2925 44.7592 46.9926 47.4871 46.9926C48.0322 46.9926 48.6186 46.9252 49.2472 46.7707C49.7416 46.6484 50.1972 46.4839 50.6225 46.2881V48.0954H38.4877L38.4893 48.0946ZM50.6242 35.4383V38.4488L49.7104 37.7452L49.0894 35.4392L50.6242 35.4383ZM48.7612 40.7076C48.8295 40.9371 48.8017 41.1792 48.6835 41.3876C48.5637 41.5986 48.2811 41.7749 48.0431 41.8357C47.7984 41.9268 47.6491 41.8753 47.5571 41.8297C47.3124 41.7049 47.1395 41.4172 47.077 41.191L43.0988 26.5705L45.1777 27.4008L48.7612 40.7076ZM46.9943 21.7645L45.414 25.6787L42.9452 24.6932L44.5483 20.7807L46.9943 21.7645ZM15.6735 9.153L42.984 20.1487L41.3783 24.0663L29.9118 19.4881L29.5566 17.01C29.5152 16.7172 29.3237 16.4683 29.0528 16.3527L26.4878 15.2558C26.217 15.1402 25.904 15.1732 25.6635 15.347L23.4832 16.9155L14.0273 13.1406L15.6735 9.153ZM6.59644 9.14034C8.02069 5.59828 10.2077 2.85778 11.0776 1.84696L13.2393 2.71518L14.3345 7.97512L7.93631 23.4723L5.73581 22.923C5.30381 21.3249 4.04409 15.4853 6.59728 9.1395L6.59644 9.14034ZM3.375 45.5625H6.75V48.0937H3.375V45.5625ZM52.3125 52.3125H1.6875V49.7812H52.3125V52.3125Z" fill="#002661"/>
<path d="M10.9688 7.59375C11.4347 7.59375 11.8125 7.21599 11.8125 6.75C11.8125 6.28401 11.4347 5.90625 10.9688 5.90625C10.5028 5.90625 10.125 6.28401 10.125 6.75C10.125 7.21599 10.5028 7.59375 10.9688 7.59375Z" fill="#002661"/>
<path d="M9.28125 10.9688C9.74724 10.9688 10.125 10.591 10.125 10.125C10.125 9.65901 9.74724 9.28125 9.28125 9.28125C8.81526 9.28125 8.4375 9.65901 8.4375 10.125C8.4375 10.591 8.81526 10.9688 9.28125 10.9688Z" fill="#002661"/>
</g>
<defs>
<clipPath id="clip0_223_527">
<rect width="54" height="54" fill="white"/>
</clipPath>
</defs>
</svg>
