<svg width="54" height="54" viewBox="0 0 54 54" fill="none" xmlns="http://www.w3.org/2000/svg">
<g clip-path="url(#clip0_223_499)">
<path d="M46.4109 0H44.0892C43.0686 0 43.0686 1.58226 44.0892 1.58226H46.4109C48.8086 1.58226 50.7593 3.52591 50.7593 5.91491V24.224C50.7593 26.6131 48.8087 28.5567 46.4109 28.5567H43.7777C43.604 28.5567 43.4351 28.6139 43.297 28.7195L38.4652 32.4154V29.3479C38.4652 28.9109 38.1111 28.5567 37.6741 28.5567H28.0455C27.257 28.5567 26.4992 28.3486 25.8309 27.9529V19.072C25.8309 17.4086 24.9836 15.9388 23.697 15.0693V5.91491C23.697 3.52591 25.6477 1.58226 28.0455 1.58226H39.1315C40.1519 1.58226 40.1519 0 39.1315 0H28.0455C24.7753 0 22.1148 2.65345 22.1148 5.91491V14.374C21.7525 14.2875 21.3751 14.2403 20.9867 14.2403H6.50419C3.83323 14.2403 1.66016 16.4078 1.66016 19.072V20.7803C1.66016 21.8008 3.24242 21.8008 3.24242 20.7803V19.072C3.24242 17.2803 4.70558 15.8226 6.50419 15.8226H20.9868C22.7854 15.8226 24.2487 17.2803 24.2487 19.072V28.2679C24.2392 28.3377 24.2396 28.4081 24.2487 28.4774V33.5103C24.2487 33.6097 24.2427 33.7088 24.2337 33.8073H22.6022C20.8044 33.8073 19.3057 35.1049 18.995 36.8102C18.923 36.8373 18.8539 36.8752 18.7899 36.9246L15.2515 39.6567V37.5508C15.2515 37.1139 14.8973 36.7597 14.4603 36.7597H6.50419C4.70558 36.7597 3.24242 35.302 3.24242 33.5103V25.5271C3.24242 24.5067 1.66016 24.5067 1.66016 25.5271V33.5104C1.66016 36.1746 3.83323 38.3421 6.50419 38.3421H13.6693V41.2671C13.6693 41.9017 14.4399 42.2824 14.944 41.8934L18.935 38.8119V47.7121C18.935 49.7295 20.5802 51.3706 22.6023 51.3706H27.4572V53.2167C27.4572 53.8511 28.2278 54.2322 28.7318 53.8429L31.9339 51.3706H32.8798C34.902 51.3706 36.5472 49.7294 36.5472 47.7121V46.3075C36.5472 45.287 34.9649 45.287 34.9649 46.3075V47.7121C34.9649 48.857 34.0296 49.7883 32.8798 49.7883H31.6639C31.4889 49.7883 31.3189 49.8464 31.1805 49.9532L29.0394 51.6063V50.5794C29.0394 50.1425 28.6853 49.7882 28.2482 49.7882H22.6022C21.4525 49.7882 20.5171 48.8568 20.5171 47.712V37.4659C20.5171 36.321 21.4524 35.3897 22.6022 35.3897H32.8798C34.0295 35.3897 34.9649 36.3211 34.9649 37.4659V41.3497C34.9649 42.3702 36.5472 42.3702 36.5472 41.3497V37.466C36.5472 35.4486 34.902 33.8075 32.8798 33.8075H25.8219C25.8279 33.7087 25.831 29.7128 25.831 29.7128C26.5285 29.9933 27.2764 30.1391 28.0456 30.1391H36.8831V34.0167C36.8831 34.6497 37.6503 35.0308 38.1549 34.6451L44.0457 30.1391H46.411C49.6811 30.1391 52.3416 27.4857 52.3416 24.2241V5.91491C52.3415 2.65345 49.681 0 46.4109 0Z" fill="#002661"/>
<path d="M39.2051 5.84508C38.2006 5.58865 37.177 6.38231 37.177 7.42027C37.177 8.55433 36.7637 9.64725 36.0138 10.4971L33.8341 12.9637C33.693 12.7471 33.4491 12.6038 33.1714 12.6038H28.9161C28.4791 12.6038 28.125 12.958 28.125 13.3949V22.9691C28.125 23.4061 28.4791 23.7603 28.9161 23.7603H33.1714C33.4911 23.7603 33.7658 23.5703 33.8905 23.2975C34.752 23.8239 35.7503 24.1085 36.766 24.1085H44.2862C45.4353 24.1085 46.3833 23.1113 46.3294 21.9651C46.3055 21.4576 46.3316 14.6419 46.3316 14.4905C46.3316 13.3627 45.414 12.445 44.2885 12.445L40.3779 12.4333L40.5398 12.0499C41.2798 10.2975 41.158 8.26541 40.2143 6.61384C39.9941 6.22798 39.6355 5.9551 39.2051 5.84508C39.6355 5.9551 38.7746 5.73516 39.2051 5.84508C39.6355 5.9551 38.2007 5.58865 39.2051 5.84508ZM32.3802 22.178H29.7073V14.186H32.3802V22.178ZM44.2862 14.0272C44.5417 14.0272 44.7495 14.235 44.7495 14.4904C44.7495 14.641 44.7479 15.0495 44.7458 15.6034C44.7341 18.6616 44.7263 21.558 44.7489 22.0394C44.7571 22.2131 44.6726 22.329 44.6215 22.3825C44.5331 22.4752 44.4141 22.5261 44.2862 22.5261H36.766C35.8696 22.5261 34.9923 22.2155 34.2955 21.6514L33.9625 21.3818V15.2077L37.1999 11.5444C38.2055 10.4047 38.7593 8.94008 38.7593 7.42016C38.7593 7.37544 38.8203 7.36384 38.8406 7.39865C39.5412 8.62469 39.6315 10.1332 39.0823 11.4341L38.4579 12.9129C38.3548 13.1569 38.3808 13.4361 38.5267 13.657C38.6728 13.8779 38.9196 14.011 39.1843 14.0119L44.2862 14.0272Z" fill="#002661"/>
<path d="M8.43371 27.4784C7.99669 27.4784 7.64258 27.8326 7.64258 28.2695C7.64258 28.7064 7.99669 29.0606 8.43371 29.0606H10.7657L10.3301 31.6955C10.2588 32.1265 10.5506 32.5338 10.9816 32.6051C11.0253 32.6124 11.0687 32.6158 11.1115 32.6158C11.4917 32.6158 11.827 32.3411 11.8912 31.9536L12.3694 29.0607H14.2779L13.8423 31.6956C13.771 32.1266 14.0628 32.5339 14.4938 32.6052C14.5375 32.6125 14.5809 32.616 14.6237 32.616C15.0039 32.616 15.3392 32.3412 15.4034 31.9537L15.8816 29.0608H19.0559C19.493 29.0608 19.8471 28.7066 19.8471 28.2697C19.8471 27.8328 19.493 27.4786 19.0559 27.4786H16.1432L16.4623 25.5486H19.0559C19.493 25.5486 19.8471 25.1944 19.8471 24.7575C19.8471 24.3206 19.493 23.9664 19.0559 23.9664H16.7239L17.1596 21.3315C17.2309 20.9005 16.9391 20.4932 16.5081 20.4219C16.0766 20.3504 15.6698 20.6424 15.5985 21.0734L15.1202 23.9663H13.2117L13.6474 21.3314C13.7187 20.9004 13.4269 20.4931 12.9959 20.4218C12.5638 20.3503 12.1577 20.6422 12.0863 21.0733L11.608 23.9662H8.43371C7.99669 23.9662 7.64258 24.3204 7.64258 24.7573C7.64258 25.1942 7.99669 25.5484 8.43371 25.5484H11.3464L11.0273 27.4784H8.43371ZM12.9502 25.5484H14.8587L14.5396 27.4784H12.6311L12.9502 25.5484Z" fill="#002661"/>
<path d="M27.7314 39.4717C27.0926 38.9457 26.2427 38.7383 25.3902 38.9455C24.2977 39.2108 23.1953 40.2321 23.1953 41.9155C23.1953 42.9633 23.5777 43.8728 24.3643 44.696C25.0068 45.3685 25.934 46.0079 27.3705 46.7695C27.4864 46.831 27.6137 46.8617 27.741 46.8617C27.8684 46.8617 27.9957 46.831 28.1116 46.7695C30.6177 45.4409 32.2867 44.1071 32.2867 41.9155C32.2867 40.2229 31.1451 39.2121 30.0137 38.9611C29.1637 38.7725 28.3397 38.9727 27.7314 39.4717ZM30.7043 41.9155C30.7043 43.0976 29.9202 43.9717 27.7409 45.1714C25.5616 43.9716 24.7775 43.0975 24.7775 41.9155C24.7775 41.036 25.2867 40.5989 25.7634 40.4831C25.8513 40.4618 25.9454 40.4497 26.0421 40.4497C26.4007 40.4497 26.7948 40.6153 27.0379 41.0865C27.1764 41.3547 27.4563 41.5209 27.7567 41.5147C28.0582 41.5087 28.3303 41.3317 28.4578 41.0583C28.7138 40.5095 29.2522 40.413 29.6708 40.506C30.1705 40.6166 30.7043 41.0452 30.7043 41.9155Z" fill="#002661"/>
</g>
<defs>
<clipPath id="clip0_223_499">
<rect width="54" height="54" fill="white"/>
</clipPath>
</defs>
</svg>
