<svg width="54" height="54" viewBox="0 0 54 54" fill="none" xmlns="http://www.w3.org/2000/svg">
<path d="M50.5102 35.9854C50.0731 35.9854 49.7192 36.3397 49.7192 36.7764V49.3873H33.4144V34.4169C33.4144 33.3989 32.5863 32.5708 31.5687 32.5708H22.4308C21.4132 32.5708 20.5851 33.3993 20.5851 34.4169V49.3873H4.28027V36.7764C4.28027 36.3397 3.92638 35.9854 3.48926 35.9854C3.05214 35.9854 2.69824 36.3397 2.69824 36.7764V49.7564C2.69824 50.4251 3.24248 50.9693 3.91113 50.9693H50.0883C50.757 50.9693 51.3012 50.4251 51.3012 49.7564V36.7764C51.3012 36.3397 50.9473 35.9854 50.5102 35.9854ZM22.1671 49.3873V34.4169C22.1671 34.2715 22.2854 34.1528 22.4308 34.1528H31.5687C31.7141 34.1528 31.8323 34.2715 31.8323 34.4169V49.3873H22.1671Z" fill="#002661"/>
<path d="M46.7527 46.2622C47.6814 46.2622 48.4369 45.5066 48.4369 44.578V35.946C48.4369 35.0174 47.6814 34.2622 46.7527 34.2622H36.9635C36.0349 34.2622 35.2793 35.0174 35.2793 35.946V44.578C35.2793 45.5066 36.0349 46.2622 36.9635 46.2622H46.7527ZM36.8613 44.578V35.946C36.8613 35.89 36.9071 35.8442 36.9635 35.8442H46.7527C46.8092 35.8442 46.8549 35.89 46.8549 35.946V44.578C46.8549 44.6344 46.8092 44.6801 46.7527 44.6801H36.9635C36.9071 44.6801 36.8613 44.6344 36.8613 44.578Z" fill="#002661"/>
<path d="M17.0369 46.2622C17.9655 46.2622 18.7211 45.5066 18.7211 44.578V35.946C18.7211 35.0174 17.9655 34.2622 17.0369 34.2622H7.24768C6.31906 34.2622 5.56348 35.0174 5.56348 35.946V44.578C5.56348 45.5066 6.31906 46.2622 7.24768 46.2622H17.0369ZM7.14551 44.578V35.946C7.14551 35.89 7.19124 35.8442 7.24768 35.8442H17.0369C17.0934 35.8442 17.1391 35.89 17.1391 35.946V44.578C17.1391 44.6344 17.0934 44.6801 17.0369 44.6801H7.24768C7.19124 44.6801 7.14551 44.6344 7.14551 44.578Z" fill="#002661"/>
<path d="M51.6756 14.7203C51.6756 13.8753 52.3632 13.1881 53.209 13.1881C53.6461 13.1881 54 12.8338 54 12.3971V10.4616C54 10.0249 53.6461 9.67058 53.209 9.67058H40.151C39.7139 9.67058 39.36 10.0249 39.36 10.4616C39.36 10.8987 39.7139 11.2526 40.151 11.2526H52.418V11.7079C51.3349 11.9921 50.48 12.8466 50.1953 13.9293H37.7512V6.90738C37.7512 4.78523 36.0246 3.05859 33.9024 3.05859H20.098C17.9754 3.05859 16.2492 4.78523 16.2492 6.90738V9.67058H0.791016C0.353897 9.67058 0 10.0249 0 10.4616V12.3971C0 12.8338 0.353897 13.1881 0.791016 13.1881C1.63683 13.1881 2.32443 13.8753 2.32443 14.7203C2.32443 15.0058 2.47563 15.2559 2.70222 15.3951V20.7979H1.27881C0.609741 20.7979 0.065506 21.3422 0.065506 22.0108V26.3182C0.065506 26.9868 0.609741 27.5311 1.27881 27.5311H2.70222V33.6182C2.70222 34.0549 3.05612 34.4092 3.49324 34.4092C3.93036 34.4092 4.28426 34.0549 4.28426 33.6182V27.5311H49.7812V33.6194C49.7812 34.0561 50.1351 34.4104 50.5723 34.4104C51.009 34.4104 51.3633 34.0561 51.3633 33.6194V27.5311H52.7867C53.4558 27.5311 54 26.9868 54 26.3182V22.0108C54 21.3422 53.4558 20.7979 52.7867 20.7979H51.3633V15.3502C51.5528 15.2056 51.6756 14.9774 51.6756 14.7203ZM17.8308 6.90738C17.8308 5.65741 18.848 4.64062 20.0976 4.64062H33.902C35.152 4.64062 36.1688 5.65741 36.1688 6.90738V15.5381C36.1688 16.7881 35.152 17.8049 33.902 17.8049H20.098C18.848 17.8049 17.8312 16.7881 17.8312 15.5381V6.90738H17.8308ZM52.418 25.949H1.64754V22.38H52.418V25.949ZM4.28426 20.7979V15.5113H13.8766C14.3137 15.5113 14.6676 15.1574 14.6676 14.7203C14.6676 14.2836 14.3137 13.9293 13.8766 13.9293H3.8047C3.52002 12.8466 2.66515 11.9921 1.58203 11.7079V11.2526H16.2488V15.5385C16.2488 17.6607 17.9754 19.3873 20.0976 19.3873H33.902C36.0246 19.3873 37.7508 17.6607 37.7508 15.5385V15.5117H49.7808V20.7979H4.28426Z" fill="#002661"/>
<path d="M23.9414 40.9792H23.3086C22.8715 40.9792 22.5176 41.3336 22.5176 41.7703C22.5176 42.207 22.8715 42.5613 23.3086 42.5613H23.9414C24.3785 42.5613 24.7324 42.207 24.7324 41.7703C24.7324 41.3336 24.3785 40.9792 23.9414 40.9792Z" fill="#002661"/>
<path d="M21.3336 7.79761H22.303L23.2975 12.5519C23.4903 13.4731 24.3135 14.1422 25.2549 14.1422H29.9519C30.7788 14.1422 31.5307 13.6223 31.8228 12.849L33.3739 8.74271C33.5214 8.35173 33.4678 7.91338 33.2305 7.57019C32.9932 7.22659 32.6018 7.02142 32.1845 7.02142H25.5412C25.1045 7.02142 24.7502 7.37532 24.7502 7.81244C24.7502 8.24915 25.1045 8.60345 25.5412 8.60345H31.7354L30.3429 12.2899C30.2819 12.4514 30.125 12.5602 29.9523 12.5602H25.2549C25.0583 12.5602 24.8866 12.4201 24.8462 12.2281L23.8475 7.45525C23.6971 6.73674 23.0557 6.21558 22.3215 6.21558H21.334C20.8969 6.21558 20.543 6.56947 20.543 7.00659C20.543 7.4433 20.8969 7.79761 21.3336 7.79761Z" fill="#002661"/>
<path d="M25.3916 14.8059H25.1807C24.7435 14.8059 24.3896 15.1598 24.3896 15.5969C24.3896 16.0336 24.7435 16.3879 25.1807 16.3879H25.3916C25.8287 16.3879 26.1826 16.0336 26.1826 15.5969C26.1826 15.1598 25.8287 14.8059 25.3916 14.8059Z" fill="#002661"/>
<path d="M28.8193 14.8059H28.6084C28.1713 14.8059 27.8174 15.1598 27.8174 15.5969C27.8174 16.0336 28.1713 16.3879 28.6084 16.3879H28.8193C29.2565 16.3879 29.6104 16.0336 29.6104 15.5969C29.6104 15.1598 29.2565 14.8059 28.8193 14.8059Z" fill="#002661"/>
</svg>
