<svg width="51" height="51" viewBox="0 0 51 51" fill="none" xmlns="http://www.w3.org/2000/svg">
<path d="M49.95 23.7094C49.95 21.3047 49.3594 18.9 48.3047 16.7484C47.2922 14.7656 46.7859 12.5719 46.7859 10.3359V10.2516H47.3344C47.7562 10.2516 48.0516 9.91406 48.0938 9.49219V5.69531C48.0938 5.27344 47.7562 4.93594 47.3344 4.93594H36.4078C35.9859 4.93594 35.6484 5.27344 35.6484 5.69531V9.49219C35.6484 9.91406 35.9859 10.2094 36.4078 10.2516H36.9141V10.3359C36.9141 12.5719 36.4078 14.7656 35.3953 16.7484C34.2984 18.9 33.75 21.3047 33.75 23.7094V30.8813L28.7719 28.8141C28.6453 28.7719 28.5609 28.7297 28.4344 28.7719C27.5062 28.8563 26.5781 29.0672 25.6922 29.3625V11.3062C25.6922 11.2641 25.6922 11.1797 25.6922 11.1375L24.0469 4.47188V0.759375C24.0469 0.3375 23.7094 0.0421875 23.2875 0H2.40469C1.98281 0 1.6875 0.3375 1.64531 0.759375V4.47188C1.64531 4.47188 0.421875 9.49219 0 11.1375V11.3062V49.275C0 49.6969 0.3375 49.9922 0.759375 50.0344H46.7437C48.5578 50.0344 49.9922 48.5578 50.0344 46.7438C49.9922 46.7438 49.95 23.9203 49.95 23.7094ZM37.125 6.4125H46.575V8.73281H37.125V6.4125ZM35.6062 20.5453C35.8594 19.4484 36.2391 18.4359 36.7453 17.4234C37.8422 15.2297 38.4328 12.7828 38.4328 10.3359V10.2516H45.3516V10.3359C45.3516 12.7828 45.9422 15.2297 47.0391 17.4234C47.925 19.1531 48.4313 21.0938 48.5156 23.0344H35.2266C35.2687 22.1906 35.3953 21.3469 35.6062 20.5453ZM35.2266 24.4688H48.5156V33.5391H40.1625L35.1844 31.4719L35.2266 24.4688ZM39.5297 34.8891H29.9531C29.5312 33.8766 28.3922 33.3703 27.3797 33.75C26.8734 33.9609 26.4516 34.3406 26.2406 34.8891H21.1359C21.8109 33.1594 24.5953 30.6703 28.3922 30.2906L39.5297 34.8891ZM27.5906 35.6063C27.5906 35.3109 27.8437 35.1 28.1391 35.1C28.4344 35.1 28.6453 35.3531 28.6453 35.6484C28.6453 35.9437 28.3922 36.1547 28.0969 36.1547C27.8016 36.1547 27.5906 35.9016 27.5906 35.6063ZM19.4906 35.6063V38.0953H1.47656V22.7812H24.2578V29.9953C21.4312 31.4297 19.4906 33.75 19.4906 35.6063ZM2.95312 5.27344H22.6969L24.0047 10.5469H1.64531L2.95312 5.27344ZM24.2578 12.0234V21.3047H1.47656V12.0234H24.2578ZM22.5703 1.47656V3.79688H3.12187V1.47656H22.5703ZM1.47656 39.6141H19.4906V48.5578H1.47656V39.6141ZM20.9672 36.3656H26.2406C26.6625 37.3781 27.8016 37.8844 28.8141 37.5047C29.3203 37.2938 29.7422 36.9141 29.9531 36.3656H42.4828V38.3906C41.175 39.0656 40.6687 40.6266 41.3016 41.9344C41.5547 42.4406 41.9766 42.8625 42.4828 43.1156V48.5578H20.9672V36.3656ZM46.7016 48.5156H43.9594V42.5672C43.9594 42.2297 43.7062 41.9344 43.4109 41.85C42.7781 41.6813 42.3984 41.0906 42.5672 40.4578C42.6516 40.0359 42.9891 39.6984 43.4109 39.6141C43.7484 39.5297 43.9594 39.2344 43.9594 38.8969V35.6063C43.9594 35.1844 43.6641 35.0156 43.6641 35.0156H48.4734V46.7438C48.4734 47.7141 47.6719 48.5156 46.7016 48.5156Z" fill="#002661"/>
<path d="M3.24766 27.7172C2.82578 27.7172 2.53047 28.0547 2.48828 28.4765V31.3453C2.48828 31.7672 2.82578 32.1047 3.24766 32.1047C3.66953 32.1047 4.00703 31.7672 4.00703 31.3453V28.4343C3.96484 28.0547 3.66953 27.7172 3.24766 27.7172Z" fill="#002661"/>
<path d="M13.3309 26.3251C13.0355 26.072 12.6137 26.072 12.3605 26.3251C12.234 26.4095 9.57617 28.8142 9.57617 31.5142C9.57617 33.3282 11.0527 34.8048 12.8668 34.8048C14.6809 34.8048 16.1574 33.3282 16.1574 31.5142C16.1152 28.8142 13.4574 26.4095 13.3309 26.3251ZM12.8668 33.3282C11.8965 33.3282 11.0949 32.5267 11.0527 31.5142C11.0527 30.0798 12.1918 28.6454 12.8668 27.886C13.5418 28.6032 14.6809 30.0376 14.6809 31.5142C14.6387 32.5267 13.8371 33.3282 12.8668 33.3282Z" fill="#002661"/>
<path d="M36.3238 43.4954C35.227 43.4954 34.2988 44.3813 34.2988 45.5204C34.2988 46.6594 35.1848 47.5454 36.3238 47.5454C37.4629 47.5454 38.3488 46.6594 38.3488 45.5204C38.3066 44.3813 37.4207 43.4954 36.3238 43.4954ZM36.3238 46.0266C36.0285 46.0266 35.7754 45.7735 35.7754 45.4782C35.7754 45.1829 36.0285 44.9297 36.3238 44.9297C36.6191 44.9297 36.8723 45.1829 36.8723 45.4782C36.8301 45.7735 36.6191 46.0266 36.3238 46.0266Z" fill="#002661"/>
<path d="M34.4258 39.4875C34.7753 39.4875 35.0586 39.2042 35.0586 38.8547C35.0586 38.5052 34.7753 38.2219 34.4258 38.2219C34.0763 38.2219 33.793 38.5052 33.793 38.8547C33.793 39.2042 34.0763 39.4875 34.4258 39.4875Z" fill="#002661"/>
<path d="M38.2227 42.0609C38.5721 42.0609 38.8555 41.7776 38.8555 41.4281C38.8555 41.0786 38.5721 40.7953 38.2227 40.7953C37.8732 40.7953 37.5898 41.0786 37.5898 41.4281C37.5898 41.7776 37.8732 42.0609 38.2227 42.0609Z" fill="#002661"/>
<path d="M29.6152 32.8218C29.9647 32.8218 30.248 32.5385 30.248 32.189C30.248 31.8395 29.9647 31.5562 29.6152 31.5562C29.2657 31.5562 28.9824 31.8395 28.9824 32.189C28.9824 32.5385 29.2657 32.8218 29.6152 32.8218Z" fill="#002661"/>
<path d="M24.9746 33.75C25.3241 33.75 25.6074 33.4667 25.6074 33.1172C25.6074 32.7677 25.3241 32.4844 24.9746 32.4844C24.6251 32.4844 24.3418 32.7677 24.3418 33.1172C24.3418 33.4667 24.6251 33.75 24.9746 33.75Z" fill="#002661"/>
<path d="M27.4648 46.9969C27.8143 46.9969 28.0977 46.7136 28.0977 46.3641C28.0977 46.0146 27.8143 45.7313 27.4648 45.7313C27.1154 45.7313 26.832 46.0146 26.832 46.3641C26.832 46.7136 27.1154 46.9969 27.4648 46.9969Z" fill="#002661"/>
<path d="M31.2617 43.875C31.6112 43.875 31.8945 43.5917 31.8945 43.2422C31.8945 42.8927 31.6112 42.6094 31.2617 42.6094C30.9122 42.6094 30.6289 42.8927 30.6289 43.2422C30.6289 43.5917 30.9122 43.875 31.2617 43.875Z" fill="#002661"/>
<path d="M24.6793 39.825C23.5824 39.825 22.6543 40.7109 22.6543 41.85C22.6543 42.989 23.5402 43.875 24.6793 43.875C25.8184 43.875 26.7043 42.989 26.7043 41.85C26.6621 40.7109 25.7762 39.825 24.6793 39.825ZM24.6793 42.3562C24.384 42.3562 24.1309 42.1031 24.1309 41.8078C24.1309 41.5125 24.384 41.2593 24.6793 41.2593C24.9746 41.2593 25.2277 41.5125 25.2277 41.8078C25.1855 42.1031 24.9324 42.3562 24.6793 42.3562Z" fill="#002661"/>
</svg>
