<svg width="54" height="54" viewBox="0 0 54 54" fill="none" xmlns="http://www.w3.org/2000/svg">
<g clip-path="url(#clip0_223_283)">
<path d="M25.1998 50.4001H28.7998C29.2968 50.4001 29.6998 49.9971 29.6998 49.5001C29.6998 49.0031 29.2968 48.6001 28.7998 48.6001H25.1998C24.7028 48.6001 24.2998 49.0031 24.2998 49.5001C24.2998 49.9971 24.7028 50.4001 25.1998 50.4001Z" fill="#002661"/>
<path d="M11.6998 13.5C12.1968 13.5 12.5998 13.097 12.5998 12.6V7.2H41.3998V14.4C41.3998 14.897 41.8028 15.3 42.2998 15.3C42.7968 15.3 43.1998 14.897 43.1998 14.4V3.6C43.1998 1.98 41.1226 0 38.6998 0H15.2998C12.8158 0.002925 10.8027 2.016 10.7998 4.5V12.6C10.7998 13.097 11.2028 13.5 11.6998 13.5ZM12.5998 4.5C12.5998 3.00881 13.8086 1.8 15.2998 1.8H38.6998C40.2595 1.8 41.3998 3.06 41.3998 3.6V5.4H12.5998V4.5Z" fill="#002661"/>
<path d="M42.2998 39.6001C41.8028 39.6001 41.3998 40.0031 41.3998 40.5001V45.0001H12.5998V41.4001C12.5998 40.9031 12.1968 40.5001 11.6998 40.5001C11.2028 40.5001 10.7998 40.9031 10.7998 41.4001V49.5001C10.8027 51.9841 12.8158 53.9972 15.2998 54.0001H38.6998C41.1838 53.9972 43.1969 51.9841 43.1998 49.5001V40.5001C43.1998 40.0031 42.7968 39.6001 42.2998 39.6001ZM41.3998 49.5001C41.3998 50.9913 40.191 52.2001 38.6998 52.2001H15.2998C13.8086 52.2001 12.5998 50.9913 12.5998 49.5001V46.8001H41.3998V49.5001Z" fill="#002661"/>
<path d="M25.2 2.69995H23.4C22.903 2.69995 22.5 3.10293 22.5 3.59995C22.5 4.09698 22.903 4.49995 23.4 4.49995H25.2C25.697 4.49995 26.1 4.09698 26.1 3.59995C26.1 3.10293 25.697 2.69995 25.2 2.69995Z" fill="#002661"/>
<path d="M30.6004 2.69995H28.8004C28.3034 2.69995 27.9004 3.10293 27.9004 3.59995C27.9004 4.09698 28.3034 4.49995 28.8004 4.49995H30.6004C31.0974 4.49995 31.5004 4.09698 31.5004 3.59995C31.5004 3.10293 31.0974 2.69995 30.6004 2.69995Z" fill="#002661"/>
<path d="M53.793 17.4249C53.6219 17.2189 53.3679 17.0997 53.1 17.1H29.4768L29.0178 14.0049C28.8152 12.6843 27.6825 11.707 26.3466 11.7H22.5V13.5H26.3466C26.7931 13.4996 27.1723 13.8268 27.2376 14.2686L30.3822 35.4951C30.5848 36.8156 31.7175 37.7929 33.0534 37.8H35.2656C35.7533 39.1997 37.2833 39.939 38.6829 39.4515C39.4566 39.1819 40.0648 38.5737 40.3344 37.8H44.2656C44.7626 39.2059 46.3053 39.9426 47.7111 39.4455C49.1169 38.9484 49.8538 37.4058 49.3567 36C48.8596 34.594 47.3169 33.8573 45.9111 34.3544C45.1422 34.6262 44.5374 35.2311 44.2656 36H40.3344C39.8467 34.6002 38.3167 33.8609 36.9171 34.3485C36.1434 34.618 35.5351 35.2262 35.2656 36H33.0534C32.6079 35.9976 32.2301 35.6718 32.1624 35.2314L31.8762 33.3H50.4C50.8326 33.2996 51.2038 32.9916 51.2838 32.5665L53.9838 18.1665C54.0338 17.9032 53.9638 17.6313 53.793 17.4249ZM46.8 36C47.297 36 47.7 36.4029 47.7 36.9C47.7 37.397 47.297 37.8 46.8 37.8C46.303 37.8 45.9 37.397 45.9 36.9C45.9 36.4029 46.303 36 46.8 36ZM37.8 36C38.297 36 38.7 36.4029 38.7 36.9C38.7 37.397 38.297 37.8 37.8 37.8C37.303 37.8 36.9 37.397 36.9 36.9C36.9 36.4029 37.303 36 37.8 36ZM49.653 31.5H31.6098L29.7441 18.9H52.02L49.653 31.5Z" fill="#002661"/>
<path d="M23.4 27C23.4 20.5383 18.1618 15.3 11.7 15.3C5.23822 15.3 0 20.5383 0 27C0 33.4618 5.23822 38.7 11.7 38.7C18.1586 38.6926 23.3926 33.4587 23.4 27ZM1.8 27C1.8 21.5324 6.23239 17.1 11.7 17.1C17.1676 17.1 21.6 21.5324 21.6 27C21.6 32.4677 17.1676 36.9 11.7 36.9C6.23509 36.8936 1.80641 32.465 1.8 27Z" fill="#002661"/>
<path d="M12.5996 34.1999V33.1721C14.5212 32.6776 15.6781 30.7188 15.1835 28.7972C14.7745 27.208 13.3406 26.0979 11.6996 26.0999C10.7054 26.0999 9.89961 25.2941 9.89961 24.2999C9.89961 23.3057 10.7054 22.4999 11.6996 22.4999C12.6938 22.4999 13.4996 23.3057 13.4996 24.2999C13.4996 24.7969 13.9026 25.1999 14.3996 25.1999C14.8966 25.1999 15.2996 24.7969 15.2996 24.2999C15.2934 22.6634 14.1843 21.2369 12.5996 20.8277V19.7999C12.5996 19.3029 12.1966 18.8999 11.6996 18.8999C11.2026 18.8999 10.7996 19.3029 10.7996 19.7999V20.8277C8.878 21.3223 7.72116 23.281 8.21571 25.2026C8.62476 26.7918 10.0586 27.9019 11.6996 27.8999C12.6938 27.8999 13.4996 28.7057 13.4996 29.6999C13.4996 30.6941 12.6938 31.4999 11.6996 31.4999C10.7054 31.4999 9.89961 30.6941 9.89961 29.6999C9.89961 29.2029 9.49663 28.7999 8.99961 28.7999C8.50258 28.7999 8.09961 29.2029 8.09961 29.6999C8.1058 31.3364 9.21493 32.7629 10.7996 33.1721V34.1999C10.7996 34.6969 11.2026 35.0999 11.6996 35.0999C12.1966 35.0999 12.5996 34.6969 12.5996 34.1999Z" fill="#002661"/>
<path d="M32.4 21.6H45C45.497 21.6 45.9 21.1971 45.9 20.7C45.9 20.203 45.497 19.8 45 19.8H32.4C31.903 19.8 31.5 20.203 31.5 20.7C31.5 21.1971 31.903 21.6 32.4 21.6Z" fill="#002661"/>
<path d="M47.6998 21.6H49.4998C49.9968 21.6 50.3998 21.1971 50.3998 20.7C50.3998 20.203 49.9968 19.8 49.4998 19.8H47.6998C47.2028 19.8 46.7998 20.203 46.7998 20.7C46.7998 21.1971 47.2028 21.6 47.6998 21.6Z" fill="#002661"/>
</g>
<defs>
<clipPath id="clip0_223_283">
<rect width="54" height="54" fill="white"/>
</clipPath>
</defs>
</svg>
