<svg width="54" height="54" viewBox="0 0 54 54" fill="none" xmlns="http://www.w3.org/2000/svg">
<g clip-path="url(#clip0_223_196)">
<path d="M15.3005 32.3994H8.10059V34.1994H15.3005V32.3994Z" fill="#002661"/>
<path d="M53.9048 42.7969L51.2048 37.397C51.0524 37.092 50.7406 36.8995 50.3998 36.8995H44.9999V34.1995C44.9999 33.7025 44.5969 33.2996 44.0999 33.2996H26.1002C25.6032 33.2996 25.2002 33.7025 25.2002 34.1995V50.3993C25.2002 50.8963 25.6032 51.2993 26.1002 51.2993H29.8279C30.3153 53.2169 32.265 54.3763 34.1825 53.889C35.4551 53.5655 36.4488 52.5718 36.7722 51.2993H43.3277C43.815 53.2169 45.7647 54.3763 47.6823 53.889C48.9548 53.5655 49.9485 52.5718 50.272 51.2993H53.0997C53.5967 51.2993 53.9997 50.8963 53.9997 50.3993V43.1994C53.9997 43.0597 53.9672 42.9219 53.9048 42.7969ZM33.3001 52.1992C32.3059 52.1992 31.5001 51.3934 31.5001 50.3993C31.5001 49.4051 32.3059 48.5993 33.3001 48.5993C34.2942 48.5993 35.1 49.4051 35.1 50.3993C35.099 51.393 34.2938 52.1982 33.3001 52.1992ZM43.1999 49.4993H36.7722C36.3642 47.914 34.937 46.8043 33.3001 46.7993C31.6631 46.8043 30.2359 47.914 29.8279 49.4993H27.0002V35.0995H43.1999V49.4993ZM48.5998 38.6995H49.8435L51.6436 42.2994H48.5998V38.6995ZM46.7998 52.1992C45.8057 52.1992 44.9999 51.3934 44.9999 50.3993C44.9999 49.4051 45.8057 48.5993 46.7998 48.5993C47.794 48.5993 48.5998 49.4051 48.5998 50.3993C48.5988 51.393 47.7935 52.1982 46.7998 52.1992ZM52.1997 49.4993H50.272C49.8639 47.914 48.4368 46.8043 46.7998 46.7993C46.1659 46.8029 45.5446 46.9758 44.9999 47.3002V38.6995H46.7998V43.1994C46.7998 43.6964 47.2028 44.0994 47.6998 44.0994H52.1997V49.4993Z" fill="#002661"/>
<path d="M21.5989 12.5999H19.7998V14.3998H21.5989V12.5999Z" fill="#002661"/>
<path d="M25.1995 12.5999H23.4004V14.3998H25.1995V12.5999Z" fill="#002661"/>
<path d="M28.7991 12.5999H27V14.3998H28.7991V12.5999Z" fill="#002661"/>
<path d="M32.3987 12.5999H30.5996V14.3998H32.3987V12.5999Z" fill="#002661"/>
<path d="M49.5775 15.0326L46.7892 12.2438C44.7162 10.1734 41.9083 9.00727 38.9785 8.99985H31.9984L27.763 2.22319C27.5984 1.96005 27.3101 1.80008 26.9997 1.79997H24.2997C23.8025 1.80019 23.3995 2.2035 23.3998 2.70086C23.3998 2.7742 23.4088 2.84721 23.4265 2.91843L24.9469 8.99985H17.7696L15.2621 0.641577C15.1479 0.260771 14.7974 0 14.3999 0H9.89999C9.40297 0 9 0.402968 9 0.899985V9.89984H9.00844C9.00551 10.1374 9.09731 10.3665 9.2637 10.5361L14.8886 16.161C17.2093 18.4969 20.368 19.8071 23.6608 19.7997H23.9059L21.6697 24.8344C21.4679 25.2886 21.6726 25.8203 22.1267 26.0222C22.1532 26.0339 22.1801 26.0443 22.2075 26.0534L24.9057 26.9534C25.2837 27.0793 25.6993 26.9418 25.9278 26.6155L30.6959 19.7997H47.6005C49.1421 19.8025 50.3941 18.5551 50.3971 17.0134C50.3984 16.2704 50.1034 15.5575 49.5775 15.0326ZM26.5009 3.59994L29.8758 8.99985H26.8025L25.4524 3.59994H26.5009ZM10.8 1.79997H13.7302L15.8902 8.99985H10.8V1.79997ZM24.838 25.0334L23.717 24.6595L26.6749 17.9997H29.7585L24.838 25.0334ZM48.5237 17.3828C48.3738 17.7601 48.0064 18.0056 47.6005 17.9997H31.9551L32.2238 17.6156C32.5086 17.2083 32.4093 16.647 32.0019 16.3622C31.8507 16.2565 31.6708 16.1997 31.4863 16.1997H26.0899C25.7341 16.1997 25.4117 16.4093 25.2673 16.7345L24.7054 17.9997H23.6608C20.8457 18.0059 18.1452 16.8855 16.1612 14.8885L12.0725 10.7998H38.9785C40.9407 10.8083 42.8497 11.4385 44.4313 12.5998H37.7995V14.3998H46.399L48.3071 16.3078C48.5953 16.5865 48.6816 17.0142 48.5237 17.3828Z" fill="#002661"/>
<path d="M22.0615 51.5376C21.4949 50.9291 20.7349 50.5357 19.9108 50.4245L23.3474 40.8019C23.5143 40.3332 23.2697 39.8179 22.8009 39.651C22.7955 39.6491 22.79 39.6471 22.7845 39.6453L20.5898 38.9138L18.8853 29.5385C18.8075 29.1105 18.4347 28.7994 17.9998 28.7994H14.3999V26.0994C14.3999 25.6024 13.9969 25.1995 13.4999 25.1995H9.89993C9.40292 25.1995 8.99995 25.6024 8.99995 26.0994V28.7994H5.40001C4.96498 28.7994 4.59227 29.1106 4.51453 29.5385L2.80996 38.9138L0.61535 39.6453C0.14342 39.8032 -0.111051 40.3137 0.046784 40.7855C0.048584 40.791 0.0504965 40.7964 0.0524089 40.8019L3.489 50.4248C2.6663 50.5369 1.90762 50.93 1.34175 51.5376C1.01607 51.9478 0.523776 52.1906 9.73046e-05 52.199V53.999C0.975344 53.9937 1.90402 53.5811 2.56168 52.8608C2.88736 52.4503 3.37988 52.2075 3.90378 52.199C4.0939 52.1974 4.28256 52.2326 4.45941 52.3026C4.46695 52.306 4.47179 52.3132 4.47943 52.3163C4.76169 52.457 5.01796 52.6445 5.23745 52.871C5.90186 53.585 6.83155 53.9931 7.8069 53.999C8.78193 53.9936 9.71037 53.5807 10.3676 52.8604C10.9338 52.1208 11.9923 51.9802 12.7318 52.5463C12.8497 52.6365 12.9553 52.742 13.0456 52.8599C13.7021 53.5805 14.6301 53.9935 15.6049 53.999C16.5797 53.9931 17.5087 53.5848 18.1721 52.8705C18.3897 52.6457 18.6436 52.4591 18.9232 52.3186C18.9313 52.3152 18.9365 52.3076 18.9443 52.304C19.1216 52.2331 19.311 52.1976 19.5019 52.1991C20.0245 52.2076 20.5158 52.4503 20.84 52.8605C21.4969 53.5807 22.425 53.9935 23.3997 53.9991V52.1991C22.877 52.1906 22.3858 51.9478 22.0615 51.5376ZM10.7999 26.9994H12.5999V28.7994H10.7999V26.9994ZM10.7999 50.5164C10.1711 50.7109 9.60215 51.0623 9.14676 51.5376C8.57909 52.278 7.51868 52.4179 6.77833 51.8503C6.66089 51.7603 6.55581 51.6551 6.4657 51.5376C6.18637 51.2647 5.87666 51.0246 5.54265 50.8223L2.05668 41.0621L10.7999 38.148V50.5164ZM11.4152 36.0454L4.75742 38.2647L6.15104 30.5994H17.2488L18.6424 38.2647L11.9846 36.0454C11.7998 35.9839 11.6 35.9839 11.4152 36.0454ZM17.8553 50.8281C17.5253 51.0296 17.2191 51.2678 16.9425 51.5381C16.3775 52.2769 15.3204 52.4176 14.5817 51.8525C14.4634 51.7621 14.3577 51.6563 14.2672 51.5381C13.8091 51.0579 13.2348 50.7042 12.6 50.5113V38.148L21.3432 41.0621L17.8553 50.8281Z" fill="#002661"/>
<path d="M35.9993 12.5999H34.2002V14.3998H35.9993V12.5999Z" fill="#002661"/>
</g>
<defs>
<clipPath id="clip0_223_196">
<rect width="54" height="54" fill="white"/>
</clipPath>
</defs>
</svg>
