<svg width="54" height="54" viewBox="0 0 54 54" fill="none" xmlns="http://www.w3.org/2000/svg">
<path d="M49.7812 20.309V18.6215C49.7818 18.272 49.7118 17.926 49.5756 17.6042C49.4393 17.2823 49.2395 16.9913 48.9881 16.7484C48.7341 16.5078 48.4346 16.3204 48.1071 16.1972C47.7797 16.0741 47.4309 16.0176 47.0812 16.0312C43.9683 16.1155 40.866 16.4314 37.8 16.9762L36.6862 17.1956C36.4471 14.8278 35.3506 12.6292 33.6031 11.0137C31.8557 9.39816 29.5779 8.47724 27.1987 8.42435C24.8194 8.37145 22.503 9.19023 20.6854 10.7265C18.8679 12.2628 17.6747 14.4105 17.3306 16.7653C17.3306 16.9172 17.3306 17.0606 17.3306 17.204C13.8991 16.5212 10.4162 16.1289 6.91875 16.0312C6.56852 16.0211 6.21982 16.0812 5.89319 16.208C5.56657 16.3348 5.26864 16.5257 5.01699 16.7695C4.76534 17.0133 4.56506 17.305 4.42796 17.6274C4.29087 17.9499 4.21973 18.2965 4.21875 18.6469V20.3344C3.26585 20.5289 2.40942 21.0466 1.7944 21.8C1.17938 22.5534 0.843552 23.4962 0.84375 24.4687V48.0937C0.84375 49.2126 1.28822 50.2857 2.07939 51.0768C2.47114 51.4686 2.93621 51.7793 3.44805 51.9914C3.9599 52.2034 4.50849 52.3125 5.0625 52.3125H48.9375C50.0564 52.3125 51.1294 51.868 51.9206 51.0768C52.7118 50.2857 53.1562 49.2126 53.1562 48.0937V24.4687C53.1623 23.4918 52.8291 22.5431 52.2136 21.7845C51.5981 21.0259 50.7384 20.5044 49.7812 20.309ZM19.0181 17.0015C19.2864 15.2479 20.1225 13.6306 21.3981 12.3976C22.6737 11.1647 24.3185 10.3841 26.0803 10.1756C26.3857 10.142 26.6927 10.1251 27 10.125C28.9825 10.1202 30.8956 10.8542 32.3663 12.1837C33.2515 12.9748 33.9511 13.9515 34.4153 15.0442C34.8796 16.1369 35.0968 17.3186 35.0517 18.5049C35.0066 19.6912 34.7001 20.853 34.1543 21.9072C33.6084 22.9614 32.8365 23.8822 31.8937 24.6037C31.1788 25.1338 30.597 25.8229 30.1942 26.6166C29.7915 27.4103 29.579 28.2869 29.5734 29.1769C29.5712 29.4939 29.4443 29.7974 29.2201 30.0216C28.9959 30.2458 28.6924 30.3728 28.3753 30.375H27.8438V24.4687C27.8441 24.2716 27.7755 24.0805 27.6497 23.9287L24.5784 20.25H29.1769L27.6666 21.7603C27.5283 21.9217 27.4561 22.1293 27.4643 22.3417C27.4725 22.554 27.5605 22.7555 27.7108 22.9057C27.8611 23.056 28.0625 23.144 28.2749 23.1522C28.4872 23.1604 28.6948 23.0882 28.8563 22.95L31.8094 19.9969C31.925 19.8789 32.0035 19.7297 32.0351 19.5675C32.0667 19.4054 32.05 19.2376 31.9871 19.0849C31.9242 18.9322 31.8179 18.8013 31.6813 18.7084C31.5447 18.6155 31.3839 18.5648 31.2188 18.5625H22.7812C22.6208 18.5622 22.4636 18.6077 22.328 18.6937C22.1925 18.7796 22.0843 18.9024 22.0161 19.0476C21.9479 19.1929 21.9226 19.3546 21.943 19.5137C21.9635 19.6729 22.0289 19.8229 22.1316 19.9462L26.1562 24.7725V30.375H25.6247C25.4655 30.375 25.3079 30.3435 25.161 30.2823C25.0141 30.2212 24.8807 30.1315 24.7685 30.0186C24.6564 29.9057 24.5677 29.7717 24.5075 29.6243C24.4474 29.4769 24.417 29.3191 24.4181 29.16C24.4083 28.2711 24.193 27.3964 23.789 26.6046C23.385 25.8127 22.8033 25.125 22.0894 24.5953C20.9426 23.7221 20.0522 22.5561 19.5118 21.2198C18.9713 19.8836 18.8008 18.4265 19.0181 17.0015ZM5.90625 18.6469C5.9073 18.5217 5.93342 18.398 5.98309 18.2831C6.03275 18.1682 6.10495 18.0644 6.19541 17.9779C6.28586 17.8914 6.39275 17.8239 6.50974 17.7793C6.62674 17.7348 6.75147 17.7142 6.87656 17.7187C10.3753 17.816 13.859 18.2168 17.2884 18.9169C17.3853 20.2895 17.775 21.6255 18.4314 22.835C19.0878 24.0444 19.9956 25.0992 21.0938 25.9284C21.6068 26.3009 22.0263 26.7874 22.3191 27.3497C22.612 27.9119 22.7702 28.5346 22.7812 29.1684C22.7811 29.9273 23.0791 30.6558 23.6109 31.1971C24.1428 31.7385 24.8659 32.0492 25.6247 32.0625H28.3753C28.7572 32.0614 29.1351 31.9849 29.4874 31.8375C29.8396 31.6901 30.1594 31.4746 30.4282 31.2034C30.6971 30.9322 30.9098 30.6106 31.0541 30.2571C31.1984 29.9035 31.2716 29.525 31.2694 29.1431C31.2831 28.5145 31.4426 27.8976 31.7355 27.3412C32.0283 26.7848 32.4464 26.304 32.9569 25.9369C34.0498 25.1027 34.9523 24.0451 35.6041 22.8346C36.2559 21.6241 36.6421 20.2885 36.7369 18.9169L38.1375 18.6384C41.106 18.1105 44.1095 17.8031 47.1234 17.7187C47.25 17.7122 47.3766 17.733 47.4945 17.7795C47.6124 17.8261 47.7189 17.8975 47.8069 17.9887C47.8959 18.0753 47.9664 18.179 48.0143 18.2935C48.0621 18.4081 48.0863 18.5312 48.0853 18.6553V45.4781C48.0856 45.7171 47.9936 45.947 47.8286 46.1199C47.6635 46.2928 47.4381 46.3954 47.1994 46.4062C40.5769 46.4948 34.023 47.7604 27.8438 50.144V35.4375H28.6875C28.9113 35.4375 29.1259 35.3486 29.2841 35.1904C29.4424 35.0321 29.5312 34.8175 29.5312 34.5937C29.5312 34.37 29.4424 34.1553 29.2841 33.9971C29.1259 33.8389 28.9113 33.75 28.6875 33.75H25.3125C25.0887 33.75 24.8741 33.8389 24.7159 33.9971C24.5576 34.1553 24.4688 34.37 24.4688 34.5937C24.4688 34.8175 24.5576 35.0321 24.7159 35.1904C24.8741 35.3486 25.0887 35.4375 25.3125 35.4375H26.1562V50.1525C19.9785 47.7625 13.424 46.4939 6.80063 46.4062C6.56037 46.3975 6.33288 46.2959 6.16605 46.1227C5.99923 45.9496 5.90609 45.7185 5.90625 45.4781V18.6469ZM2.53125 48.0937V24.4687C2.53272 23.9465 2.69568 23.4375 2.99779 23.0115C3.2999 22.5855 3.72638 22.2634 4.21875 22.0894V45.4781C4.2226 46.1562 4.48794 46.8066 4.95949 47.2939C5.43104 47.7811 6.07242 48.0677 6.75 48.0937C12.0472 48.2194 17.3021 49.0711 22.3678 50.625H5.0625C4.39117 50.625 3.74734 50.3583 3.27264 49.8836C2.79793 49.4089 2.53125 48.7651 2.53125 48.0937ZM51.4688 48.0937C51.4688 48.7651 51.2021 49.4089 50.7274 49.8836C50.2527 50.3583 49.6088 50.625 48.9375 50.625H31.6237C36.6922 49.0703 41.95 48.2186 47.25 48.0937C47.9276 48.0677 48.569 47.7811 49.0405 47.2939C49.5121 46.8066 49.7774 46.1562 49.7812 45.4781V22.064C50.2777 22.2396 50.7071 22.5655 51.0095 22.9965C51.312 23.4276 51.4725 23.9422 51.4688 24.4687V48.0937Z" fill="#002661"/>
<path d="M9.2217 22.7813C10.3355 22.8572 11.4576 22.9585 12.5545 23.0935H12.6558C12.8795 23.1069 13.0995 23.0309 13.2672 22.8821C13.4349 22.7334 13.5367 22.5241 13.5501 22.3003C13.5636 22.0766 13.4875 21.8566 13.3388 21.6889C13.1901 21.5212 12.9808 21.4194 12.757 21.406C11.6348 21.271 10.4789 21.1613 9.33983 21.0853C9.11605 21.0708 8.89566 21.1457 8.72714 21.2937C8.55862 21.4416 8.45578 21.6505 8.44124 21.8742C8.42669 22.098 8.50163 22.3184 8.64958 22.4869C8.79753 22.6554 9.00636 22.7583 9.23014 22.7728L9.2217 22.7813Z" fill="#002661"/>
<path d="M9.2217 26.2659C11.2801 26.4002 13.3303 26.6396 15.3642 26.9831H15.5076C15.6184 26.9925 15.73 26.98 15.836 26.9463C15.942 26.9126 16.0403 26.8584 16.1253 26.7867C16.2103 26.715 16.2803 26.6273 16.3314 26.5285C16.3825 26.4297 16.4137 26.3219 16.4231 26.2111C16.4325 26.1003 16.42 25.9887 16.3863 25.8827C16.3526 25.7768 16.2984 25.6785 16.2267 25.5935C16.155 25.5084 16.0673 25.4384 15.9685 25.3873C15.8697 25.3362 15.7619 25.305 15.6511 25.2956C13.5613 24.941 11.4548 24.6932 9.33983 24.5531C9.11605 24.5386 8.89566 24.6135 8.72714 24.7615C8.55862 24.9094 8.45578 25.1182 8.44124 25.342C8.42669 25.5658 8.50163 25.7862 8.64958 25.9547C8.79753 26.1232 9.00636 26.2261 9.23014 26.2406L9.2217 26.2659Z" fill="#002661"/>
<path d="M8.43719 31.2778C8.4233 31.5003 8.49803 31.7193 8.64505 31.8868C8.79208 32.0544 8.99946 32.157 9.22188 32.1722C13.7348 32.4487 18.1987 33.2616 22.5194 34.5937C22.7331 34.6609 22.9647 34.6404 23.1633 34.5367C23.3619 34.4331 23.5111 34.2548 23.5783 34.0411C23.6454 33.8274 23.6249 33.5958 23.5213 33.3972C23.4176 33.1986 23.2393 33.0493 23.0256 32.9822C18.5775 31.5982 13.9805 30.7485 9.33156 30.4509C9.21798 30.4441 9.10419 30.4603 8.99703 30.4986C8.88988 30.5368 8.79156 30.5964 8.70801 30.6736C8.62446 30.7509 8.5574 30.8442 8.51086 30.948C8.46432 31.0519 8.43926 31.164 8.43719 31.2778Z" fill="#002661"/>
<path d="M23.0339 37.125C18.5858 35.7411 13.9888 34.8914 9.33983 34.5938C9.22903 34.5866 9.11789 34.6013 9.01276 34.637C8.90764 34.6727 8.81059 34.7289 8.72714 34.8021C8.55862 34.9501 8.45578 35.1589 8.44124 35.3827C8.42669 35.6064 8.50163 35.8268 8.64958 35.9954C8.79753 36.1639 9.00636 36.2667 9.23014 36.2813C13.7434 36.5606 18.2073 37.3763 22.5276 38.7113C22.7255 38.7403 22.9273 38.6981 23.097 38.5922C23.2666 38.4863 23.3932 38.3235 23.454 38.133C23.5148 37.9424 23.5059 37.7365 23.429 37.5519C23.352 37.3673 23.212 37.216 23.0339 37.125Z" fill="#002661"/>
<path d="M23.0339 41.3438C18.5858 39.9598 13.9888 39.11 9.33983 38.8125C9.11605 38.798 8.89566 38.8729 8.72714 39.0209C8.55862 39.1688 8.45578 39.3776 8.44124 39.6014C8.42669 39.8252 8.50163 40.0456 8.64958 40.2141C8.79753 40.3826 9.00636 40.4855 9.23014 40.5C13.7447 40.8128 18.2058 41.6626 22.5192 43.0313C22.743 43.0995 22.9847 43.0761 23.1912 42.9661C23.3977 42.8561 23.552 42.6686 23.6203 42.4449C23.6885 42.2211 23.6651 41.9794 23.5551 41.7729C23.4452 41.5664 23.2577 41.412 23.0339 41.3438Z" fill="#002661"/>
<path d="M31.219 34.6444C31.3029 34.6571 31.3882 34.6571 31.4721 34.6444C35.7925 33.3094 40.2564 32.4936 44.7696 32.2144C44.9934 32.1998 45.2023 32.097 45.3502 31.9285C45.4981 31.7599 45.5731 31.5396 45.5585 31.3158C45.544 31.092 45.4412 30.8832 45.2726 30.7352C45.1041 30.5873 44.8837 30.5123 44.66 30.5269C40.011 30.8244 35.414 31.6741 30.9659 33.0581C30.8551 33.0747 30.7486 33.113 30.6526 33.1708C30.5566 33.2285 30.4729 33.3046 30.4063 33.3947C30.2718 33.5767 30.2151 33.8047 30.2487 34.0284C30.2823 34.2522 30.4034 34.4535 30.5853 34.588C30.7673 34.7225 30.9952 34.7792 31.219 34.7456V34.6444Z" fill="#002661"/>
<path d="M31.219 38.7534C31.3029 38.7662 31.3882 38.7662 31.4721 38.7534C35.7907 37.4042 40.2547 36.5743 44.7696 36.2813C44.8804 36.2741 44.9887 36.2451 45.0884 36.196C45.188 36.147 45.2769 36.0788 45.3502 35.9954C45.4235 35.9119 45.4796 35.8149 45.5153 35.7097C45.5511 35.6046 45.5657 35.4935 45.5585 35.3827C45.5513 35.2719 45.5224 35.1636 45.4733 35.064C45.4243 34.9643 45.3561 34.8754 45.2726 34.8021C45.1892 34.7289 45.0921 34.6727 44.987 34.637C44.8819 34.6013 44.7708 34.5866 44.66 34.5938C40.011 34.8914 35.414 35.7411 30.9659 37.125C30.7421 37.1586 30.5408 37.2797 30.4063 37.4616C30.2718 37.6436 30.2151 37.8715 30.2487 38.0953C30.2823 38.3191 30.4034 38.5204 30.5853 38.6549C30.7673 38.7894 30.9952 38.8461 31.219 38.8125V38.7534Z" fill="#002661"/>
<path d="M31.219 43.0313C31.3029 43.044 31.3882 43.044 31.4721 43.0313C35.7925 41.6963 40.2564 40.8805 44.7696 40.6013C44.9934 40.5867 45.2023 40.4839 45.3502 40.3154C45.4981 40.1468 45.5731 39.9265 45.5585 39.7027C45.544 39.4789 45.4412 39.2701 45.2726 39.1221C45.1041 38.9742 44.8837 38.8992 44.66 38.9138C40.0151 39.1784 35.4182 39.9941 30.9659 41.3438C30.7421 41.3773 30.5408 41.4984 30.4063 41.6804C30.2718 41.8624 30.2151 42.0903 30.2487 42.3141C30.2823 42.5379 30.4034 42.7391 30.5853 42.8736C30.7673 43.0081 30.9952 43.0648 31.219 43.0313Z" fill="#002661"/>
<path d="M27 5.90625C27.2238 5.90625 27.4384 5.81736 27.5966 5.65912C27.7549 5.50089 27.8438 5.28628 27.8438 5.0625V1.6875C27.8438 1.46372 27.7549 1.24911 27.5966 1.09088C27.4384 0.932645 27.2238 0.84375 27 0.84375C26.7762 0.84375 26.5616 0.932645 26.4034 1.09088C26.2451 1.24911 26.1562 1.46372 26.1562 1.6875V5.0625C26.1562 5.28628 26.2451 5.50089 26.4034 5.65912C26.5616 5.81736 26.7762 5.90625 27 5.90625Z" fill="#002661"/>
<path d="M32.9649 8.37847C33.0759 8.37911 33.186 8.35782 33.2888 8.31584C33.3916 8.27385 33.4851 8.21198 33.5639 8.13378L35.9517 5.74597C36.09 5.58456 36.1622 5.37693 36.154 5.16458C36.1458 4.95223 36.0578 4.75079 35.9075 4.60052C35.7572 4.45026 35.5558 4.36223 35.3434 4.35402C35.1311 4.34582 34.9235 4.41805 34.7621 4.55628L32.3658 6.93565C32.2468 7.05367 32.1657 7.20445 32.1327 7.36877C32.0997 7.53309 32.1164 7.7035 32.1807 7.85828C32.245 8.01306 32.3539 8.1452 32.4935 8.23784C32.6332 8.33049 32.7973 8.37944 32.9649 8.37847Z" fill="#002661"/>
<path d="M20.4358 8.13373C20.5972 8.27196 20.8048 8.34419 21.0172 8.33599C21.2295 8.32779 21.431 8.23976 21.5812 8.08949C21.7315 7.93922 21.8195 7.73779 21.8277 7.52543C21.8359 7.31308 21.7637 7.10546 21.6255 6.94405L19.2461 4.5478C19.0847 4.40957 18.8771 4.33734 18.6647 4.34554C18.4523 4.35374 18.2509 4.44177 18.1006 4.59204C17.9504 4.74231 17.8623 4.94374 17.8541 5.15609C17.8459 5.36845 17.9182 5.57607 18.0564 5.73748L20.4358 8.13373Z" fill="#002661"/>
</svg>
