<svg width="54" height="54" viewBox="0 0 54 54" fill="none" xmlns="http://www.w3.org/2000/svg">
<g clip-path="url(#clip0_223_546)">
<path d="M27 6.75C26.379 6.75 25.875 6.246 25.875 5.625V1.125C25.875 0.504 26.379 0 27 0C27.621 0 28.125 0.504 28.125 1.125V5.625C28.125 6.246 27.621 6.75 27 6.75Z" fill="#002661"/>
<path d="M42.1158 13.0095C41.8278 13.0095 41.5398 12.8993 41.3193 12.681C40.8805 12.2423 40.8805 11.529 41.3193 11.0903L44.5008 7.90877C44.9395 7.47002 45.6528 7.47002 46.0915 7.90877C46.5303 8.34752 46.5303 9.06077 46.0915 9.49952L42.91 12.681C42.6918 12.8993 42.4038 13.0095 42.1158 13.0095Z" fill="#002661"/>
<path d="M52.875 28.125H48.375C47.754 28.125 47.25 27.621 47.25 27C47.25 26.379 47.754 25.875 48.375 25.875H52.875C53.496 25.875 54 26.379 54 27C54 27.621 53.496 28.125 52.875 28.125Z" fill="#002661"/>
<path d="M45.2973 46.422C45.0093 46.422 44.7213 46.3118 44.5008 46.0935L41.3193 42.912C40.8805 42.4733 40.8805 41.76 41.3193 41.3213C41.758 40.8825 42.4713 40.8825 42.91 41.3213L46.0915 44.5027C46.5303 44.9415 46.5303 45.6548 46.0915 46.0935C45.8733 46.3118 45.5853 46.422 45.2973 46.422Z" fill="#002661"/>
<path d="M27 54C26.379 54 25.875 53.496 25.875 52.875V48.375C25.875 47.754 26.379 47.25 27 47.25C27.621 47.25 28.125 47.754 28.125 48.375V52.875C28.125 53.496 27.621 54 27 54Z" fill="#002661"/>
<path d="M8.70271 46.422C8.41471 46.422 8.12671 46.3118 7.90621 46.0935C7.46746 45.6548 7.46746 44.9415 7.90621 44.5027L11.0877 41.3213C11.5265 40.8825 12.2397 40.8825 12.6785 41.3213C13.1172 41.76 13.1172 42.4733 12.6785 42.912L9.49696 46.0935C9.27871 46.3118 8.99071 46.422 8.70271 46.422Z" fill="#002661"/>
<path d="M5.625 28.125H1.125C0.504 28.125 0 27.621 0 27C0 26.379 0.504 25.875 1.125 25.875H5.625C6.246 25.875 6.75 26.379 6.75 27C6.75 27.621 6.246 28.125 5.625 28.125Z" fill="#002661"/>
<path d="M11.8849 13.0095C11.5969 13.0095 11.3089 12.8993 11.0884 12.681L7.90914 9.49952C7.47039 9.06077 7.47039 8.34752 7.90914 7.90877C8.34789 7.47002 9.06114 7.47002 9.49989 7.90877L12.6814 11.0903C13.1201 11.529 13.1201 12.2423 12.6814 12.681C12.4609 12.8993 12.1729 13.0095 11.8849 13.0095Z" fill="#002661"/>
<path d="M23.7895 45C23.6568 45 23.5263 44.9775 23.3958 44.9303C22.903 44.7458 22.6038 44.2463 22.6735 43.7288L24.5928 29.25H16.8753C16.45 29.25 16.0608 29.0093 15.8695 28.629C15.6783 28.2488 15.7188 27.792 15.9753 27.45L29.4753 9.45C29.788 9.0315 30.3438 8.883 30.8185 9.09C31.2955 9.29475 31.5723 9.7965 31.4868 10.3095L29.4528 22.5H37.1253C37.5393 22.5 37.9195 22.7273 38.1153 23.0918C38.311 23.4563 38.2907 23.8973 38.0658 24.246L24.73 44.496C24.5163 44.8178 24.1585 45 23.7895 45ZM19.1253 27H25.8753C26.2015 27 26.5075 27.1418 26.7213 27.3848C26.935 27.6255 27.034 27.9518 26.9913 28.2735L25.549 39.159L35.0373 24.75H28.1253C27.7945 24.75 27.4818 24.606 27.2658 24.3518C27.052 24.0998 26.9598 23.7645 27.016 23.4405L28.5078 14.49L19.1253 27Z" fill="#002661"/>
</g>
<defs>
<clipPath id="clip0_223_546">
<rect width="54" height="54" fill="white"/>
</clipPath>
</defs>
</svg>
