<svg width="54" height="54" viewBox="0 0 54 54" fill="none" xmlns="http://www.w3.org/2000/svg">
<path d="M53.5108 25.3175C53.2147 25.1947 52.8738 25.2626 52.647 25.4892L50.2733 27.863V11.723C50.2733 11.2852 49.9184 10.9304 49.4807 10.9304H43.3908L45.6014 8.71975C45.6017 8.71944 45.602 8.71901 45.6024 8.7187L47.7324 6.58865C48.1888 6.13228 48.4401 5.5252 48.4401 4.87973C48.4401 4.23426 48.1888 3.62739 47.7324 3.17082L45.2693 0.707697C44.8129 0.251333 44.2058 0 43.5604 0C42.9149 0 42.3079 0.251333 41.8515 0.707697L39.7204 2.8388L37.1452 5.41393L31.6289 10.9303H7.02634V3.08919C7.02634 2.65138 6.67144 2.29659 6.23374 2.29659C2.79651 2.2968 0 5.0931 0 8.53054V42.1948C0 42.2533 0.00675001 42.3102 0.0187735 42.3651C0.12825 43.8236 0.759271 45.1788 1.81386 46.2075C2.94111 47.3069 4.42917 47.9124 6.00403 47.9124H30.2237L25.6623 52.4739C25.4356 52.7006 25.3678 53.0414 25.4905 53.3377C25.6131 53.6338 25.9022 53.8269 26.2227 53.8269H53.2075C53.6452 53.8269 54.0001 53.4721 54.0001 53.0343V26.0498C54.0001 25.7293 53.8069 25.4402 53.5108 25.3175ZM42.9726 1.82873C43.2966 1.50451 43.8245 1.50451 44.1485 1.82873L46.6117 4.29195C46.9359 4.61606 46.9359 5.14372 46.6117 5.46793L45.0412 7.03858L41.4018 3.39937L42.9726 1.82873ZM40.2809 4.52029L43.9201 8.1594L42.4658 9.61371L38.8268 5.97461L40.2809 4.52029ZM52.4151 34.9558H50.9528C50.515 34.9558 50.1602 35.3106 50.1602 35.7484C50.1602 36.1862 50.515 36.541 50.9528 36.541H52.4151V38.9294H50.9528C50.515 38.9294 50.1602 39.2842 50.1602 39.722C50.1602 40.1598 50.515 40.5146 50.9528 40.5146H52.4151V42.903H50.9528C50.515 42.903 50.1602 43.2578 50.1602 43.6956C50.1602 44.1334 50.515 44.4882 50.9528 44.4882H52.4151V46.8766H50.9528C50.515 46.8766 50.1602 47.2315 50.1602 47.6692C50.1602 48.107 50.515 48.4618 50.9528 48.4618H52.4151V52.242H28.1362L36.1421 44.2362C36.4517 43.9266 36.4517 43.4248 36.1421 43.1153C36.1066 43.0797 36.0684 43.0489 36.0284 43.0215C35.7198 42.8102 35.2952 42.8413 35.0211 43.1153L31.8089 46.3274H6.00414C3.60029 46.3274 1.66514 44.4507 1.589 42.0512C1.59353 41.9006 1.60524 41.7513 1.62401 41.6036C1.62412 41.6028 1.62422 41.6019 1.62433 41.6011C1.63319 41.5309 1.64384 41.4611 1.65597 41.3917C1.65734 41.3838 1.65882 41.3759 1.66019 41.368C1.67126 41.3061 1.68371 41.2445 1.69731 41.1831C1.70111 41.166 1.70512 41.1489 1.70912 41.1319C1.72115 41.0801 1.73412 41.0285 1.74804 40.9771C1.75564 40.9493 1.76355 40.9217 1.77167 40.894C1.78327 40.8537 1.79529 40.8135 1.80805 40.7738C1.82082 40.734 1.83442 40.6947 1.84824 40.6553C1.85784 40.6278 1.86733 40.6003 1.87766 40.573C1.89696 40.5211 1.91743 40.4697 1.93852 40.4188C1.94453 40.4041 1.95044 40.3892 1.95666 40.3746C1.98377 40.3113 2.01193 40.2487 2.04167 40.1869C2.04293 40.1843 2.04409 40.1817 2.04536 40.179C2.66531 38.8961 3.85763 37.9396 5.28853 37.6428C5.29254 37.642 5.29655 37.641 5.30055 37.6402C5.36616 37.6268 5.43239 37.6153 5.49905 37.6046C5.51012 37.6028 5.52119 37.6006 5.53248 37.5989C5.5927 37.5898 5.65356 37.5826 5.71441 37.5757C5.7315 37.5738 5.74848 37.5712 5.76567 37.5695C5.82442 37.5636 5.88369 37.5597 5.94297 37.556C5.96174 37.5549 5.98051 37.5529 5.99929 37.5519C6.07691 37.548 6.15517 37.546 6.23374 37.546C6.67144 37.546 7.02634 37.1912 7.02634 36.7534V31.0065C7.02634 30.5687 6.67144 30.2139 6.23374 30.2139C5.79605 30.2139 5.44114 30.5687 5.44114 31.0065V36.0107C4.10274 36.18 2.86042 36.7769 1.88083 37.7335C1.77778 37.8341 1.68012 37.9388 1.58499 38.0451V8.53054C1.58499 6.23754 3.25414 4.32676 5.44104 3.94939V11.723V27.8362V27.8363C5.44104 28.274 5.79594 28.6289 6.23364 28.6289C6.67133 28.6289 7.02624 28.274 7.02624 27.8363V27.8362V12.5156H30.0438L25.6622 16.8972C25.3526 17.2068 25.3526 17.7086 25.6622 18.0181C25.9717 18.3276 26.4736 18.3276 26.783 18.0181L32.5177 12.2834C32.5179 12.2832 32.518 12.283 32.5182 12.2829L37.7057 7.09542L41.3447 10.7346L40.9177 11.1616C40.9174 11.1619 40.917 11.1622 40.9167 11.1625L24.9352 27.1442L21.2961 23.5051L24.4462 20.355C24.7558 20.0453 24.7558 19.5436 24.4462 19.2341C24.1367 18.9246 23.6349 18.9246 23.3254 19.2341L19.6147 22.9447C19.5949 22.9645 19.5763 22.9855 19.5589 23.007C19.5531 23.0142 19.5479 23.0219 19.5424 23.0294C19.5313 23.0442 19.5203 23.0592 19.5101 23.0748C19.5043 23.0839 19.499 23.0932 19.4935 23.1026C19.4848 23.1173 19.4763 23.1323 19.4686 23.1476C19.4636 23.1575 19.459 23.1675 19.4544 23.1779C19.4473 23.1934 19.4408 23.2092 19.4348 23.225C19.4327 23.2306 19.4299 23.2359 19.4279 23.2415L17.8837 27.6158L16.8309 30.5983C16.817 30.638 16.807 30.6783 16.7995 30.7189H14.1636C13.7259 30.7189 13.371 31.0737 13.371 31.5115C13.371 31.9493 13.7259 32.3041 14.1636 32.3041H36.1132C36.551 32.3041 36.9058 31.9493 36.9058 31.5115C36.9058 31.0737 36.551 30.7189 36.1132 30.7189H20.3653L25.199 29.0126C25.203 29.0111 25.2068 29.0091 25.2108 29.0077C25.2295 29.0007 25.248 28.9929 25.2663 28.9846C25.2735 28.9812 25.2808 28.978 25.2879 28.9745C25.3069 28.965 25.3255 28.9546 25.3439 28.9434C25.3498 28.9398 25.3559 28.9366 25.3617 28.9329C25.3808 28.9206 25.3994 28.9072 25.4176 28.8931C25.4221 28.8896 25.4269 28.8866 25.4313 28.883C25.4534 28.8653 25.475 28.8462 25.4954 28.8257L41.8056 12.5157H48.688V29.4483L37.3505 40.7859C37.0409 41.0956 37.0409 41.5973 37.3505 41.9068C37.3698 41.9261 37.3899 41.9443 37.4107 41.9612C37.556 42.0797 37.7335 42.139 37.9109 42.139C38.0883 42.139 38.2659 42.0797 38.4112 41.9612C38.4319 41.9444 38.4521 41.9261 38.4714 41.9068C38.4717 41.9065 38.4714 41.9068 38.4717 41.9065L52.4151 27.963V34.9558ZM23.4855 27.9362L21.2152 28.7377L19.7026 27.225L20.504 24.9547L23.4855 27.9362Z" fill="#002661"/>
</svg>
