<svg width="54" height="54" viewBox="0 0 54 54" fill="none" xmlns="http://www.w3.org/2000/svg">
<path d="M30.6045 24.3843C30.6045 22.381 28.9797 20.7512 26.9825 20.7512C24.9852 20.7512 23.3604 22.381 23.3604 24.3843C23.3604 26.0692 24.5097 27.4895 26.0631 27.8987L26.0815 31.7484C26.0839 32.2567 26.4967 32.6541 27.0044 32.6541H27.0089C27.5187 32.6541 27.9299 32.2546 27.9276 31.7448L27.9093 27.8965C29.459 27.4847 30.6045 26.0664 30.6045 24.3843ZM26.9826 26.1714C26.0034 26.1714 25.2066 25.3697 25.2066 24.3843C25.2066 23.399 26.0032 22.5974 26.9826 22.5974C27.9618 22.5974 28.7585 23.399 28.7585 24.3843C28.7585 25.3697 27.9618 26.1714 26.9826 26.1714Z" fill="#002661"/>
<path d="M50.5351 23.3085C48.9445 23.3085 47.6018 24.3463 47.1963 25.8463H40.9831C41.3476 24.1155 41.6127 22.3847 41.8187 20.5386H46.327C46.8368 20.5386 47.1923 20.1612 47.1923 19.6514V10.836C48.6923 10.433 49.768 9.09023 49.768 7.49942C49.768 5.59107 48.2282 4.03857 46.3176 4.03857C44.407 4.03857 42.8311 5.59107 42.8311 7.49942C42.8311 9.08665 43.9615 10.4268 45.3462 10.8332V18.6924H42.0096C42.1438 17.3078 42.2507 15.8165 42.3501 14.3463C42.3899 13.7571 41.859 13.3079 41.2872 13.3967C40.191 13.6064 39.0826 13.7643 37.9644 13.7643C34.2502 13.7641 30.8373 12.08 27.5864 8.667C27.1242 8.27319 26.6695 8.28161 26.2227 8.69227C22.7703 12.7424 17.9799 14.4261 12.7135 13.3964C12.1396 13.2841 11.5755 13.757 11.6154 14.3466C11.7166 15.84 11.8231 17.3078 11.9532 18.6924H8.88462V10.8332C10.2692 10.4268 11.4117 9.08677 11.4117 7.49942C11.4117 5.59107 9.85246 4.03857 7.94192 4.03857C6.03138 4.03857 4.48431 5.59107 4.48431 7.49942C4.48431 9.09034 5.53846 10.433 7.03846 10.836V19.6513C7.03846 20.161 7.43215 20.5385 7.94192 20.5385H12.1398C12.3438 22.3846 12.604 24.1154 12.963 25.8462H6.80377C6.39819 24.3462 5.05558 23.3084 3.465 23.3084C1.55435 23.3085 0 24.8611 0 26.7695C0 28.6777 1.55435 30.2302 3.46488 30.2302C5.05546 30.2302 6.39808 29.1924 6.80365 27.6924H13.4032C13.8975 29.5426 14.5963 31.2587 15.3748 33.0001H7.94192C7.43215 33.0001 7.03846 33.3777 7.03846 33.8874V43.1656C5.53846 43.5703 4.48696 44.9117 4.48696 46.5008C4.48696 48.4092 6.03635 49.9617 7.94688 49.9617C9.85754 49.9617 11.4192 48.4092 11.4192 46.5008C11.4192 44.9117 10.3846 43.5703 8.88462 43.1656V34.8463H16.4315C18.7955 38.5386 22.175 41.1391 26.6731 42.8166C26.8903 42.8817 27.1078 42.8822 27.3254 42.8182C31.7819 41.1132 35.1376 38.4232 37.494 34.8463H45.3462V43.1656C43.9615 43.5703 42.8332 44.9117 42.8332 46.5008C42.8332 48.4092 44.402 49.9617 46.3126 49.9617C48.2233 49.9617 49.7558 48.4092 49.7558 46.5008C49.7558 44.9117 48.6923 43.5703 47.1923 43.1656V33.8875C47.1923 33.3778 46.8368 33.0002 46.327 33.0002H38.5568C39.3503 31.264 40.0472 29.5404 40.5405 27.6925H47.1962C47.6018 29.1925 48.9444 30.2303 50.535 30.2303C52.4457 30.2302 54 28.6777 54 26.7693C54 24.861 52.4457 23.3085 50.5351 23.3085ZM44.7134 7.49942C44.7134 6.609 45.4395 5.88473 46.332 5.88473C47.2245 5.88473 47.9507 6.609 47.9507 7.49942C47.9507 8.38984 47.2245 9.11411 46.332 9.11411C45.4395 9.11411 44.7134 8.38984 44.7134 7.49942ZM6.31823 7.49942C6.31823 6.609 7.04446 5.88473 7.93696 5.88473C8.82946 5.88473 9.55569 6.609 9.55569 7.49942C9.55569 8.38984 8.82946 9.11411 7.93696 9.11411C7.04446 9.11411 6.31823 8.38984 6.31823 7.49942ZM3.46488 28.384C2.57238 28.384 1.84615 27.6598 1.84615 26.7695C1.84615 25.879 2.57238 25.1548 3.46488 25.1548C4.35738 25.1548 5.08362 25.879 5.08362 26.7695C5.08373 27.6598 4.3575 28.384 3.46488 28.384ZM9.56065 46.5008C9.56065 47.3912 8.83442 48.1155 7.94192 48.1155C7.04942 48.1155 6.32331 47.3912 6.32331 46.5008C6.32331 45.6104 7.04942 44.8861 7.94192 44.8861C8.83442 44.8861 9.56065 45.6104 9.56065 46.5008ZM47.9458 46.5008C47.9458 47.3912 47.2195 48.1155 46.327 48.1155C45.4345 48.1155 44.7083 47.3912 44.7083 46.5008C44.7083 45.6104 45.4345 44.8861 46.327 44.8861C47.2195 44.8861 47.9458 45.6104 47.9458 46.5008ZM13.5388 15.3991C18.5193 16.041 23.608 14.4894 26.9608 10.6523C30.5893 14.1704 35.3213 16.2436 40.4274 15.3921C39.5645 27.2547 37.7863 36.6432 26.9915 40.9443C16.1902 36.7443 14.4077 27.3223 13.5388 15.3991ZM50.5351 28.384C49.6426 28.384 48.9164 27.6598 48.9164 26.7695C48.9164 25.879 49.6426 25.1548 50.5351 25.1548C51.4276 25.1548 52.1538 25.879 52.1538 26.7695C52.1538 27.6598 51.4276 28.384 50.5351 28.384Z" fill="#002661"/>
</svg>
