<svg width="54" height="54" viewBox="0 0 54 54" fill="none" xmlns="http://www.w3.org/2000/svg">
<path d="M50.3928 52.1925V21.5968H51.2926C51.7896 21.5968 52.1925 21.1939 52.1925 20.697V16.1977C52.1925 15.7007 51.7896 15.2978 51.2926 15.2978H50.3928V11.6984C50.3928 11.2014 49.9899 10.7985 49.4929 10.7985H47.6932V0.899859C47.6932 0.402891 47.2903 0 46.7933 0H7.19898C6.70201 0 6.29912 0.402891 6.29912 0.899859V10.7984H4.4994C4.00243 10.7984 3.59954 11.2013 3.59954 11.6983V15.2977H2.69968C2.20271 15.2977 1.79982 15.7006 1.79982 16.1976V20.6969C1.79982 21.1938 2.20271 21.5967 2.69968 21.5967H3.59954V52.1923H0V53.992H4.4994H49.4929H54V52.1923H50.3928V52.1925ZM8.09884 1.79972H45.8934V10.7984H8.09884V1.79972ZM5.39926 12.5981H7.19898H46.7932H48.5929V15.2977H5.39926V12.5981ZM48.5929 52.1925H5.39926V21.5968H48.593V52.1925H48.5929ZM4.4994 19.7971H3.59954V17.0975H4.4994H49.4929H50.3928V19.7971H49.4929H4.4994Z" fill="#002661"/>
</svg>
