<svg width="54" height="54" viewBox="0 0 54 54" fill="none" xmlns="http://www.w3.org/2000/svg">
<path d="M28.6128 31.3244C28.6128 31.7613 28.9669 32.1154 29.4039 32.1154C29.8408 32.1154 30.1949 31.7613 30.1949 31.3244C30.1949 29.9019 29.0884 28.8387 27.791 28.9108V28.4734C27.791 28.0365 27.437 27.6824 27 27.6824C26.5632 27.6824 26.209 28.0365 26.209 28.4734V28.9108C24.9044 28.8228 23.8029 29.9241 23.8052 31.3244V32.4061C23.7986 33.7888 24.9044 34.9201 26.209 34.8197V37.5647C25.7598 37.6189 25.3872 37.2821 25.3872 36.733C25.3872 36.2962 25.033 35.942 24.5962 35.942C24.1593 35.942 23.8052 36.2962 23.8052 36.733C23.8052 38.1156 24.9044 39.2472 26.209 39.1467V39.5842C26.209 40.021 26.5632 40.3752 27 40.3752C27.437 40.3752 27.791 40.021 27.791 39.5842V39.1467C29.0832 39.2186 30.1983 38.1452 30.1949 36.733V35.6513C30.198 34.2284 29.0883 33.1659 27.791 33.2376V30.4928C28.2267 30.418 28.6128 30.7906 28.6128 31.3244ZM26.209 33.2378C25.7599 33.2921 25.3878 32.9552 25.3872 32.4062V31.3245C25.3861 30.8023 25.7746 30.4119 26.209 30.4929V33.2378ZM28.6128 35.6514V36.7331C28.6062 37.2525 28.2316 37.6481 27.791 37.5648V34.8198C28.2267 34.7447 28.6137 35.1177 28.6128 35.6514ZM30.6387 8.41542C30.6387 6.4091 29.0063 4.77677 27 4.77677C24.9937 4.77677 23.3614 6.4091 23.3614 8.41542C23.3614 10.4217 24.9937 12.0541 27 12.0541C29.0063 12.0541 30.6387 10.4217 30.6387 8.41542ZM24.9434 8.41542C24.9434 7.28143 25.866 6.35879 27 6.35879C28.134 6.35879 29.0567 7.28143 29.0567 8.41542C29.0567 9.54942 28.134 10.4721 27 10.4721C25.866 10.4721 24.9434 9.54942 24.9434 8.41542ZM27 24.9651C22.0023 24.9651 17.9363 29.0311 17.9363 34.0288C17.9363 39.0266 22.0023 43.0926 27 43.0926C31.9978 43.0926 36.0638 39.0266 36.0638 34.0288C36.0638 29.0311 31.9978 24.9651 27 24.9651ZM27 41.5105C22.8746 41.5105 19.5183 38.1542 19.5183 34.0288C19.5183 29.9034 22.8746 26.5471 27 26.5471C31.1254 26.5471 34.4817 29.9034 34.4817 34.0288C34.4817 38.1542 31.1254 41.5105 27 41.5105ZM50.4532 20.4074C52.284 20.5219 54.0155 19.1906 53.9999 17.2433V14.8703C53.9868 14.6436 53.9123 14.3565 53.5844 14.174L28.9176 0.499287C27.717 -0.166429 26.2832 -0.166429 25.0824 0.499287L15.1304 6.01655C14.7483 6.22833 14.6102 6.70979 14.8221 7.0919C15.0339 7.47401 15.5155 7.61218 15.8975 7.40019L25.8495 1.88293C26.57 1.48352 27.4302 1.48362 28.1507 1.88293L50.1507 14.0793H3.8494L12.6324 9.21013C13.0145 8.99835 13.1526 8.51688 12.9407 8.13477C12.7289 7.75266 12.2474 7.6146 11.8653 7.82649L0.415882 14.1739C0.234055 14.2804 -0.00303828 14.5082 0.000125773 14.8703V17.2433C-0.0167492 19.1059 1.66695 20.6107 3.54681 20.4074L6.32823 24.3225V43.7352L3.54681 47.6502H1.84582C0.828158 47.6502 0.000125773 48.4782 0.000125773 49.4959V52.1326C0.000125773 53.1502 0.828158 53.9783 1.84582 53.9783H52.1542C53.1719 53.9783 53.9999 53.1502 53.9999 52.1326V49.4959C53.9999 48.4782 53.1719 47.6502 52.1542 47.6502H50.4532L47.6718 43.7352V24.3225L50.4532 20.4074ZM3.16418 18.8254C2.29185 18.8254 1.58215 18.1157 1.58215 17.2433V15.6613H52.4179V17.2433C52.4179 18.1157 51.7082 18.8254 50.8359 18.8254H3.16418ZM40.5262 34.708C40.9632 34.708 41.3172 34.3539 41.3172 33.917V24.8611H46.0898V43.1966H41.3172V37.6084C41.3172 37.1716 40.9632 36.8174 40.5262 36.8174C40.0893 36.8174 39.7352 37.1716 39.7352 37.6084V43.7352L36.9538 47.6502H17.0463L14.2649 43.7352V24.3225L17.0463 20.4074H36.9539L39.7353 24.3225V33.917C39.7352 34.3539 40.0894 34.708 40.5262 34.708ZM5.48754 20.4074H15.1057L13.0656 23.2791H7.52761L5.48754 20.4074ZM12.6829 24.8611V43.1966H7.91025V24.8611H12.6829ZM7.52761 44.7786H13.0655L15.1056 47.6502H5.48754L7.52761 44.7786ZM52.1542 49.2322C52.2997 49.2322 52.4179 49.3505 52.4179 49.4959V52.1326C52.4179 52.2779 52.2997 52.3962 52.1542 52.3962H1.84582C1.70049 52.3962 1.58215 52.2779 1.58215 52.1326V49.4959C1.58215 49.3505 1.70049 49.2322 1.84582 49.2322H52.1542ZM48.5126 47.6502H38.8945L40.9347 44.7786H46.4725L48.5126 47.6502ZM46.4724 23.2791H40.9346L38.8944 20.4074H48.5125L46.4724 23.2791Z" fill="#002661"/>
</svg>
