<svg width="54" height="54" viewBox="0 0 54 54" fill="none" xmlns="http://www.w3.org/2000/svg">
<g clip-path="url(#clip0_223_466)">
<path d="M47.9085 24.5557H50.467C52.4151 24.5557 54 22.9708 54 21.0227C54 19.0746 52.4151 17.4897 50.467 17.4897H49.6062C49.4851 15.0778 48.8063 13.7106 48.2343 12.6009H50.467C52.4151 12.6009 54 11.016 54 9.06789C54 7.11977 52.4151 5.53489 50.467 5.53489H48.6921C49.3405 4.11634 49.4907 2.81201 48.5753 1.50936C47.9113 0.564258 46.8253 0 45.6689 0C44.1508 0 42.7975 0.974531 42.3016 2.42483C41.9631 3.41508 41.3471 4.20325 40.8646 5.53489H36.7373C36.8477 5.29316 36.9558 5.03518 37.056 4.75696C37.4479 3.66926 37.2852 2.45521 36.6206 1.50936C35.9566 0.564258 34.8706 0 33.7142 0C32.1961 0 30.8429 0.974426 30.3469 2.42483C30.1866 2.89354 29.9585 3.32722 29.7169 3.78633C29.4518 4.28994 29.1587 4.84682 28.9084 5.535H24.7826C24.8932 5.29327 25.0012 5.03529 25.1015 4.75706C25.4934 3.66936 25.3305 2.45521 24.666 1.50936C24.0018 0.564258 22.9158 0 21.7595 0C20.2414 0 18.8881 0.974426 18.3922 2.42483C18.2319 2.89354 18.0036 3.32722 17.762 3.78633C17.4973 4.28931 17.2057 4.84323 16.9552 5.53489H12.828C13.4764 4.11645 13.6267 2.81222 12.7112 1.50936C12.0472 0.564258 10.9612 0 9.80469 0C8.28657 0 6.93341 0.974531 6.4375 2.42483C6.09873 3.41561 5.48163 4.2082 4.9988 5.53489H3.53299C1.58488 5.53489 0 7.11988 0 9.06799C0 11.0161 1.58488 12.601 3.53299 12.601H10.5978C10.7039 12.8214 10.8146 13.0358 10.923 13.2461C11.5404 14.4429 12.1789 15.6805 12.1789 18.2634V18.2744C12.1789 18.2766 12.1788 18.2787 12.1788 18.2809C12.1788 18.2825 12.1788 18.2842 12.1789 18.2858C12.1725 22.977 9.8588 23.4961 9.8588 26.9995C9.8588 27.9868 10.0397 28.7389 10.3204 29.4446H6.20093C6.03703 28.7128 5.95698 27.9071 5.95698 26.9995C5.95698 22.1011 8.27708 21.902 8.27708 18.2634C8.27708 16.7726 7.84392 15.7891 7.40032 14.9096C7.20352 14.5195 6.72785 14.3628 6.33783 14.5596C5.9478 14.7564 5.79108 15.2321 5.98788 15.6221C6.28003 16.2014 6.53421 16.7585 6.64116 17.4899H3.53299C1.58488 17.4897 0 19.0746 0 21.0227C0 22.9708 1.58488 24.5557 3.53299 24.5557H4.58209C4.30998 26.0202 4.29838 27.9211 4.58578 29.4445H3.53299C1.58488 29.4443 0 31.0293 0 32.9773C0 34.9253 1.58488 36.5103 3.53299 36.5103H6.64327C6.40248 38.2161 5.30139 39.0874 4.7192 41.3991H3.53299C1.58488 41.3991 0 42.984 0 44.932C0 46.88 1.58488 48.465 3.53299 48.465H5.00945C5.48026 49.7644 6.0962 50.6094 6.43001 51.5758C6.93109 53.0258 8.28436 54 9.79741 54C10.9523 54 12.0386 53.4357 12.7033 52.4906C13.3669 51.5469 13.5305 50.3359 13.1407 49.2512C13.0401 48.971 12.9316 48.7101 12.8208 48.465H16.9625C17.429 49.7471 18.0546 50.6202 18.3847 51.5758C18.8858 53.0258 20.239 54 21.7521 54C22.9071 54 23.9934 53.4357 24.6581 52.4906C25.3217 51.547 25.4852 50.3359 25.0953 49.2513C24.9947 48.9711 24.8863 48.7102 24.7755 48.4651H28.9188C29.39 49.7655 30.0052 50.6087 30.3393 51.5758C30.8403 53.0258 32.1936 54 33.7066 54C34.8616 54 35.948 53.4357 36.6126 52.4906C37.2762 51.547 37.4398 50.336 37.05 49.2513C36.9494 48.9711 36.841 48.7102 36.7301 48.4651H40.8718C41.3454 49.7669 41.9595 50.6077 42.2939 51.5758C42.7949 53.0258 44.1482 54 45.6613 54C46.8163 54 47.9025 53.4357 48.5672 52.4906C49.5145 51.1438 49.3022 49.831 48.6848 48.465H50.4668C52.4149 48.465 53.9998 46.8801 53.9998 44.932C53.9998 42.9839 52.4149 41.399 50.4668 41.399H48.2335C48.8065 40.3087 49.4869 38.9633 49.6065 36.5102H50.4668C52.4149 36.5102 53.9998 34.9253 53.9998 32.9772C53.9998 31.0291 52.4149 29.4442 50.4668 29.4442H47.9148C47.0727 27.7188 47.1127 26.1677 47.9085 24.5557ZM3.53299 22.9736C2.45721 22.9736 1.58203 22.0984 1.58203 21.0227C1.58203 19.9469 2.45721 19.0717 3.53299 19.0717H6.63841C6.42463 20.5121 5.61874 21.3205 5.01272 22.9736H3.53299ZM52.418 21.0227C52.418 22.0984 51.5428 22.9736 50.467 22.9736C47.2637 22.9736 39.4128 22.9736 36.7522 22.9736C37.1751 22.0375 37.5598 20.8458 37.6503 19.0717H50.467C51.5428 19.0717 52.418 19.9469 52.418 21.0227ZM25.6949 34.9283C25.6029 33.1752 25.2153 31.9765 24.7906 31.0264C25.1458 31.0264 40.5197 31.0266 40.8861 31.0264C41.4827 32.6538 42.2846 33.53 42.5001 34.9283H25.6949ZM28.6288 41.3991H24.3243C24.8973 40.3088 25.5776 38.9634 25.6973 36.5103H30.5528C30.312 38.2161 29.2108 39.0872 28.6288 41.3991ZM18.3138 41.3991C18.9548 39.3113 20.2316 38.3891 20.2316 35.7356C20.2316 33.1421 18.9494 32.1356 18.311 30.0372C18.3059 30.0175 18.3 29.9979 18.2934 29.9789C17.8053 28.33 17.8125 26.0851 18.1486 24.5555H22.268C21.3594 26.8567 21.9063 28.8356 22.8776 30.7184C23.4934 31.9119 24.1301 33.146 24.1336 35.7144C24.1336 35.716 24.1335 35.7176 24.1335 35.7193C24.1335 35.7215 24.1336 35.7237 24.1336 35.7261V35.7357C24.1336 38.3638 23.4979 39.5721 22.8831 40.7406C22.7705 40.9548 22.6555 41.1733 22.5455 41.3992H18.3138V41.3991ZM12.3695 41.3991C12.9425 40.3088 13.6229 38.9634 13.7425 36.5103H18.5979C18.3568 38.2189 17.2507 39.0979 16.6714 41.3991H12.3695ZM17.7616 15.2694C18.1485 16.0193 18.472 16.6465 18.5957 17.4897H13.7419C13.621 15.0778 12.9422 13.7106 12.3702 12.6009H16.6813C16.971 13.7371 17.3924 14.5539 17.7616 15.2694ZM13.7409 19.0717H30.5479C30.21 21.3479 28.2844 22.2378 28.2844 26.9993C28.2844 27.8864 28.3538 28.6946 28.4953 29.4443H24.0055C23.1627 27.7177 23.2039 26.1667 23.9991 24.5555H25.7697C26.2066 24.5555 26.5607 24.2014 26.5607 23.7645C26.5607 23.3277 26.2066 22.9735 25.7697 22.9735C24.4988 22.9735 14.2733 22.9735 12.8427 22.9735C13.2656 22.0375 13.6503 20.8458 13.7409 19.0717ZM42.5044 17.4897H37.6514C37.5304 15.0778 36.8516 13.7106 36.2797 12.6009H40.5907C41.1809 14.9159 42.2556 15.7963 42.5044 17.4897ZM34.5074 12.6009C34.6135 12.8213 34.724 13.0357 34.8325 13.246C35.7964 15.1143 36.0638 16.152 36.0883 18.2891C36.0842 20.8995 35.4507 22.1031 34.838 23.2673C33.7609 25.3142 33.368 27.2783 34.2298 29.4445H30.1104C29.9465 28.7127 29.8664 27.907 29.8664 26.9994C29.8664 24.3713 30.5021 23.1635 31.1168 21.9954C33.6196 17.2397 31.1029 15.269 30.2777 12.601L34.5074 12.6009ZM28.6341 12.6009C29.2158 14.8831 30.3042 15.8108 30.5505 17.4897H25.6966C25.5755 15.0778 24.8967 13.7106 24.3248 12.6009H28.6341ZM40.4516 29.4443H35.9608C35.1244 27.7244 35.1528 26.1726 35.9533 24.5555H40.4443C40.1809 25.9799 40.1563 27.8848 40.4516 29.4443ZM52.418 9.06799C52.418 10.1438 51.5428 11.019 50.467 11.019H47.5233C47.387 10.5834 47.3051 10.1089 47.3051 9.5272C47.3051 8.49857 47.5471 7.81861 47.8916 7.11703H50.4671C51.5428 7.11693 52.418 7.99221 52.418 9.06799ZM43.7985 2.93678C44.0756 2.12646 44.8273 1.58203 45.6704 1.58203C46.3202 1.58203 46.9072 1.88705 47.2809 2.41893C48.6478 4.36419 45.723 5.95434 45.723 9.5271C45.723 12.8581 47.8014 13.4702 48.0226 17.4897H44.0994C43.7705 14.5284 41.8211 14.0057 41.8211 9.5271C41.8211 5.76619 43.1264 4.9024 43.7985 2.93678ZM40.313 11.0188H35.0339C35.0224 11.0186 35.0108 11.0186 34.9993 11.0188H29.2858C29.2763 11.0186 29.2668 11.0187 29.2573 11.0188H23.6137C23.4774 10.5833 23.3955 10.1088 23.3955 9.5271C23.3955 8.49846 23.6376 7.8185 23.982 7.11693H29.4643C29.47 7.11703 29.4756 7.11714 29.4813 7.11714C29.4871 7.11714 29.493 7.11703 29.4988 7.11693H35.4405C35.4487 7.11703 35.4569 7.11703 35.465 7.11693H40.4401C40.2102 8.37612 40.1908 9.84646 40.313 11.0188ZM31.1168 4.52313C31.3759 4.0308 31.6438 3.5216 31.8439 2.93678C32.1209 2.12646 32.8726 1.58203 33.7157 1.58203C34.3655 1.58203 34.9526 1.88705 35.3262 2.41893C35.7004 2.95154 35.7885 3.60819 35.5678 4.22075C35.3916 4.70981 35.1834 5.13274 34.9744 5.53489H30.614C30.7743 5.17377 30.9471 4.84545 31.1168 4.52313ZM19.8891 2.93678C20.1662 2.12646 20.9178 1.58203 21.7609 1.58203C22.4107 1.58203 22.9978 1.88705 23.3713 2.41882C24.7414 4.36862 21.8135 5.94095 21.8135 9.5271C21.8135 12.8526 23.8915 13.4637 24.113 17.4897H20.1899C19.8658 14.5722 17.9115 13.9476 17.9115 9.5271C17.9117 5.76619 19.2169 4.9024 19.8891 2.93678ZM7.93441 2.93667C8.21148 2.12646 8.96305 1.58203 9.80627 1.58203C10.4561 1.58203 11.0431 1.88705 11.4168 2.41893C12.1402 3.44841 11.6469 4.41534 11.0649 5.535H6.70444C7.11218 4.61668 7.6044 3.90171 7.93441 2.93667ZM1.58203 9.06799C1.58203 7.99221 2.45721 7.11703 3.53299 7.11703H16.5305C16.3007 8.37612 16.2813 9.84646 16.4035 11.019H3.53299C2.45721 11.0188 1.58203 10.1437 1.58203 9.06799ZM12.0438 24.5557H16.5348C16.2713 25.98 16.2467 27.8849 16.542 29.4445H12.0514C11.215 27.7243 11.2433 26.1727 12.0438 24.5557ZM1.58203 32.9773C1.58203 31.9016 2.45721 31.0264 3.53299 31.0264H16.9767C17.5732 32.6538 18.3752 33.53 18.5907 34.9283H3.53299C2.45721 34.9283 1.58203 34.0531 1.58203 32.9773ZM3.53299 46.8831C2.45721 46.8831 1.58203 46.0079 1.58203 44.9321C1.58203 43.8563 2.45721 42.9812 3.53299 42.9812H4.44656C4.40058 43.4339 4.37484 43.9287 4.37484 44.4723C4.37484 45.4055 4.45342 46.1973 4.58093 46.883H3.53299V46.8831ZM11.4093 51.5805C11.0351 52.1127 10.4475 52.418 9.79741 52.418C8.95852 52.418 8.20631 51.8719 7.92534 51.0591C7.25077 49.1067 5.95687 48.1438 5.95687 44.4723C5.95687 39.9405 7.91564 39.5008 8.23669 36.5103H12.159C11.9408 40.6093 9.85869 41.0561 9.85869 44.4723C9.85869 46.8896 11.0014 47.9764 11.6518 49.7862C11.8709 50.3958 11.7825 51.0498 11.4093 51.5805ZM23.6066 49.7862C23.8257 50.3958 23.7373 51.0498 23.3641 51.5805C22.9899 52.1127 22.4023 52.418 21.7522 52.418C20.9133 52.418 20.161 51.8719 19.8801 51.0591C19.5542 50.116 19.0674 49.3766 18.667 48.4651H23.0182C23.2252 48.8715 23.4313 49.2982 23.6066 49.7862ZM12.034 46.8831C11.356 45.4832 11.2995 44.1269 11.6521 42.9812H28.3561C28.3101 43.4339 28.2844 43.9287 28.2844 44.4723C28.2844 45.4055 28.363 46.1973 28.4905 46.883C26.107 46.8831 14.3411 46.8831 12.034 46.8831ZM35.3187 51.5805C34.9445 52.1127 34.357 52.418 33.7069 52.418C32.868 52.418 32.1157 51.8719 31.8348 51.0591C31.1607 49.1084 29.8663 48.1438 29.8663 44.4723C29.8663 39.9286 31.8247 39.5042 32.1461 36.5103H36.0684C35.9564 38.6143 35.3887 39.6934 34.8378 40.7404C32.4243 45.3277 34.6943 47.3737 35.5613 49.7862C35.7804 50.3958 35.692 51.0498 35.3187 51.5805ZM47.2734 51.5807C46.8992 52.1127 46.3116 52.418 45.6615 52.418C44.8226 52.418 44.0703 51.8719 43.7895 51.0591C43.4638 50.1164 42.9765 49.376 42.5764 48.4651H46.9276C47.5015 49.5913 47.9963 50.5528 47.2734 51.5807ZM52.418 44.932C52.418 46.0078 51.5428 46.883 50.467 46.883H35.9434C35.5955 46.1644 35.3503 45.4788 35.3503 44.4723C35.3503 43.8844 35.4294 43.4104 35.5615 42.9812H46.9465C46.9522 42.9813 46.9577 42.9814 46.9634 42.9814C46.9691 42.9814 46.9748 42.9813 46.9805 42.9812H50.4671C51.5428 42.9812 52.418 43.8563 52.418 44.932ZM36.2789 41.3991C36.8519 40.3088 37.5323 38.9634 37.6519 36.5103H42.507C42.4029 37.247 42.1561 37.7878 41.8885 38.3141C41.6904 38.7034 41.8456 39.1796 42.2351 39.3776C42.6248 39.5759 43.101 39.4201 43.2986 39.031C43.7062 38.2296 44.141 37.2479 44.141 35.7356C44.141 33.1421 42.8587 32.1356 42.2203 30.0372C41.7013 28.0243 41.7245 26.0734 42.0579 24.5555H46.1773C45.3192 26.7288 45.7278 28.6649 46.7869 30.7184C47.4026 31.9119 48.0393 33.146 48.0428 35.7144C48.0428 35.716 48.0427 35.7176 48.0427 35.7193C48.0427 35.7215 48.0428 35.7237 48.0428 35.7261V35.7357C48.0428 38.3638 47.4072 39.5721 46.7924 40.7406C46.6797 40.9548 46.5648 41.1733 46.4548 41.3992H36.2789V41.3991ZM52.418 32.9773C52.418 34.0531 51.5428 34.9283 50.467 34.9283H49.6045C49.5124 33.1752 49.1248 31.9765 48.7002 31.0264H50.4671C51.5428 31.0264 52.418 31.9017 52.418 32.9773Z" fill="#002661"/>
</g>
<defs>
<clipPath id="clip0_223_466">
<rect width="54" height="54" fill="white"/>
</clipPath>
</defs>
</svg>
