<svg width="14" height="14" viewBox="0 0 14 14" fill="none" xmlns="http://www.w3.org/2000/svg">
<g clip-path="url(#clip0_260_6107)">
<path d="M2.625 10.2083H1.16667C0.857247 10.2083 0.560501 10.3312 0.341709 10.55C0.122916 10.7688 0 11.0656 0 11.375L0 12.8333C0 13.1427 0.122916 13.4395 0.341709 13.6583C0.560501 13.8771 0.857247 14 1.16667 14H2.625C2.93442 14 3.23117 13.8771 3.44996 13.6583C3.66875 13.4395 3.79167 13.1427 3.79167 12.8333V11.375C3.79167 11.0656 3.66875 10.7688 3.44996 10.55C3.23117 10.3312 2.93442 10.2083 2.625 10.2083ZM2.625 12.8333H1.16667V11.375H2.625V12.8333Z" fill="#A0ABB8"/>
<path d="M12.834 10.2083H11.3757C11.0662 10.2083 10.7695 10.3312 10.5507 10.55C10.3319 10.7688 10.209 11.0656 10.209 11.375V12.8333C10.209 13.1427 10.3319 13.4395 10.5507 13.6583C10.7695 13.8771 11.0662 14 11.3757 14H12.834C13.1434 14 13.4401 13.8771 13.6589 13.6583C13.8777 13.4395 14.0007 13.1427 14.0007 12.8333V11.375C14.0007 11.0656 13.8777 10.7688 13.6589 10.55C13.4401 10.3312 13.1434 10.2083 12.834 10.2083ZM12.834 12.8333H11.3757V11.375H12.834V12.8333Z" fill="#A0ABB8"/>
<path d="M2.625 5.10419H1.16667C0.857247 5.10419 0.560501 5.2271 0.341709 5.4459C0.122916 5.66469 0 5.96143 0 6.27085L0 7.72919C0 8.03861 0.122916 8.33535 0.341709 8.55414C0.560501 8.77294 0.857247 8.89585 1.16667 8.89585H2.625C2.93442 8.89585 3.23117 8.77294 3.44996 8.55414C3.66875 8.33535 3.79167 8.03861 3.79167 7.72919V6.27085C3.79167 5.96143 3.66875 5.66469 3.44996 5.4459C3.23117 5.2271 2.93442 5.10419 2.625 5.10419ZM2.625 7.72919H1.16667V6.27085H2.625V7.72919Z" fill="#A0ABB8"/>
<path d="M12.834 5.10419H11.3757C11.0662 5.10419 10.7695 5.2271 10.5507 5.4459C10.3319 5.66469 10.209 5.96143 10.209 6.27085V7.72919C10.209 8.03861 10.3319 8.33535 10.5507 8.55414C10.7695 8.77294 11.0662 8.89585 11.3757 8.89585H12.834C13.1434 8.89585 13.4401 8.77294 13.6589 8.55414C13.8777 8.33535 14.0007 8.03861 14.0007 7.72919V6.27085C14.0007 5.96143 13.8777 5.66469 13.6589 5.4459C13.4401 5.2271 13.1434 5.10419 12.834 5.10419ZM12.834 7.72919H11.3757V6.27085H12.834V7.72919Z" fill="#A0ABB8"/>
<path d="M2.625 0H1.16667C0.857247 0 0.560501 0.122916 0.341709 0.341709C0.122916 0.560501 0 0.857247 0 1.16667L0 2.625C0 2.93442 0.122916 3.23117 0.341709 3.44996C0.560501 3.66875 0.857247 3.79167 1.16667 3.79167H2.625C2.93442 3.79167 3.23117 3.66875 3.44996 3.44996C3.66875 3.23117 3.79167 2.93442 3.79167 2.625V1.16667C3.79167 0.857247 3.66875 0.560501 3.44996 0.341709C3.23117 0.122916 2.93442 0 2.625 0ZM2.625 2.625H1.16667V1.16667H2.625V2.625Z" fill="#A0ABB8"/>
<path d="M7.72852 10.2083H6.27018C5.96076 10.2083 5.66402 10.3312 5.44522 10.55C5.22643 10.7688 5.10352 11.0656 5.10352 11.375V12.8333C5.10352 13.1427 5.22643 13.4395 5.44522 13.6583C5.66402 13.8771 5.96076 14 6.27018 14H7.72852C8.03794 14 8.33468 13.8771 8.55347 13.6583C8.77227 13.4395 8.89518 13.1427 8.89518 12.8333V11.375C8.89518 11.0656 8.77227 10.7688 8.55347 10.55C8.33468 10.3312 8.03794 10.2083 7.72852 10.2083ZM7.72852 12.8333H6.27018V11.375H7.72852V12.8333Z" fill="#A0ABB8"/>
<path d="M7.72852 5.10419H6.27018C5.96076 5.10419 5.66402 5.2271 5.44522 5.4459C5.22643 5.66469 5.10352 5.96143 5.10352 6.27085V7.72919C5.10352 8.03861 5.22643 8.33535 5.44522 8.55414C5.66402 8.77294 5.96076 8.89585 6.27018 8.89585H7.72852C8.03794 8.89585 8.33468 8.77294 8.55347 8.55414C8.77227 8.33535 8.89518 8.03861 8.89518 7.72919V6.27085C8.89518 5.96143 8.77227 5.66469 8.55347 5.4459C8.33468 5.2271 8.03794 5.10419 7.72852 5.10419ZM7.72852 7.72919H6.27018V6.27085H7.72852V7.72919Z" fill="#A0ABB8"/>
<path d="M7.72852 0H6.27018C5.96076 0 5.66402 0.122916 5.44522 0.341709C5.22643 0.560501 5.10352 0.857247 5.10352 1.16667V2.625C5.10352 2.93442 5.22643 3.23117 5.44522 3.44996C5.66402 3.66875 5.96076 3.79167 6.27018 3.79167H7.72852C8.03794 3.79167 8.33468 3.66875 8.55347 3.44996C8.77227 3.23117 8.89518 2.93442 8.89518 2.625V1.16667C8.89518 0.857247 8.77227 0.560501 8.55347 0.341709C8.33468 0.122916 8.03794 0 7.72852 0ZM7.72852 2.625H6.27018V1.16667H7.72852V2.625Z" fill="#A0ABB8"/>
<path d="M12.834 0H11.3757C11.0662 0 10.7695 0.122916 10.5507 0.341709C10.3319 0.560501 10.209 0.857247 10.209 1.16667V2.625C10.209 2.93442 10.3319 3.23117 10.5507 3.44996C10.7695 3.66875 11.0662 3.79167 11.3757 3.79167H12.834C13.1434 3.79167 13.4401 3.66875 13.6589 3.44996C13.8777 3.23117 14.0007 2.93442 14.0007 2.625V1.16667C14.0007 0.857247 13.8777 0.560501 13.6589 0.341709C13.4401 0.122916 13.1434 0 12.834 0ZM12.834 2.625H11.3757V1.16667H12.834V2.625Z" fill="#A0ABB8"/>
</g>
<defs>
<clipPath id="clip0_260_6107">
<rect width="14" height="14" fill="white"/>
</clipPath>
</defs>
</svg>
