<svg width="40" height="40" viewBox="0 0 40 40" fill="none" xmlns="http://www.w3.org/2000/svg">
<g clip-path="url(#clip0_260_1776)">
<path d="M36.7345 22.0114L25.1086 2.31877C24.7441 1.70135 24.101 1.33447 23.3854 1.33447C23.379 1.33447 23.3726 1.33447 23.3661 1.33455C22.644 1.34119 22.0004 1.71971 21.6438 2.34736L18.916 7.30955C19.5138 7.43299 20.1021 7.59494 20.6794 7.79447C21.3618 7.99377 22.1179 8.3326 22.9898 8.82979C24.2359 9.52572 25.3677 10.4017 26.3641 11.4433C27.6147 12.7506 28.5949 14.2585 29.2777 15.9254C29.9846 17.6514 30.343 19.4802 30.343 21.3607C30.343 22.6092 30.182 23.8418 29.8682 25.0313H35.0105C35.7384 25.0313 36.3884 24.654 36.7492 24.0218C37.1099 23.3899 37.1045 22.6382 36.7345 22.0114Z" fill="#FFDA8C"/>
<path d="M37.8848 21.3332L26.2591 1.64046C25.9489 1.11507 25.5073 0.686866 24.9819 0.402178C24.487 0.133897 23.925 -0.00516579 23.3548 0.000146706C22.7853 0.00538108 22.2254 0.154756 21.7355 0.4321C21.2154 0.726475 20.7817 1.16272 20.4813 1.69374C20.48 1.69608 20.4787 1.69851 20.4773 1.70093L17.5134 7.09249C17.292 7.06929 17.0695 7.05108 16.8459 7.03812C16.7473 7.00999 16.6441 7.0053 16.5447 7.02312C16.3696 7.01601 16.1886 7.01249 15.9952 7.01249C14.0585 7.01249 12.1794 7.39202 10.4099 8.14038C9.55953 8.50007 8.73945 8.94523 7.97234 9.46351C7.21266 9.97671 6.49836 10.5661 5.84922 11.2152C5.20008 11.8644 4.6107 12.5787 4.0975 13.3384C3.57922 14.1055 3.13406 14.9256 2.77438 15.7759C2.02594 17.5453 1.64648 19.4245 1.64648 21.3612C1.64648 23.298 2.02594 25.1771 2.77438 26.9466C3.13406 27.7969 3.57922 28.617 4.0975 29.3841C4.6107 30.1437 5.20008 30.8581 5.84922 31.5073C6.49836 32.1564 7.21266 32.7458 7.97234 33.259C8.73945 33.7773 9.55961 34.2224 10.4099 34.5821C12.1793 35.3305 14.0585 35.71 15.9952 35.71C17.1874 35.71 18.3727 35.5634 19.5182 35.2741C20.4702 35.0337 21.3972 34.6944 22.2806 34.2633L26.8451 38.8286C27.2267 39.2102 27.6724 39.5059 28.1698 39.7073C28.6495 39.9016 29.1564 40.0002 29.6763 40.0002C30.1961 40.0002 30.703 39.9016 31.1827 39.7073C31.6801 39.5059 32.1258 39.2102 32.5074 38.8286L32.7944 38.5416C34.3555 36.9806 34.3555 34.4405 32.7945 32.8794L28.4341 28.5183C28.8321 27.828 29.1701 27.1084 29.446 26.3666H35.0115C35.6252 26.3666 36.2213 26.2023 36.7355 25.8915C37.2196 25.5988 37.6255 25.1813 37.9094 24.6841C38.1932 24.1869 38.3463 23.6252 38.3523 23.0594C38.3584 22.4585 38.1969 21.8616 37.8848 21.3332ZM35.0113 25.0318H29.8691C30.183 23.8423 30.3439 22.6096 30.3439 21.3612C30.3439 19.4805 29.9855 17.6519 29.2785 15.9259C28.5958 14.259 27.6155 12.751 26.3649 11.4437C25.3685 10.4022 24.2367 9.52616 22.9906 8.83023C22.1188 8.33296 21.3627 7.99421 20.6802 7.79491C20.103 7.59538 19.5146 7.43343 18.9169 7.30999L21.6447 2.3478C22.0013 1.72015 22.6448 1.34163 23.367 1.33499C23.3734 1.33491 23.3798 1.33491 23.3863 1.33491C24.1019 1.33491 24.745 1.70179 25.1095 2.31921L36.7352 22.0119C37.1053 22.6387 37.1107 23.3903 36.7498 24.0224C36.3892 24.6544 35.7392 25.0318 35.0113 25.0318ZM31.8504 37.5976L31.5634 37.8846C31.0601 38.388 30.3898 38.6652 29.6762 38.6652C28.9625 38.6652 28.2923 38.388 27.7889 37.8847L23.4986 33.5936C25.1443 32.5816 26.5752 31.2434 27.6956 29.6674L31.8504 33.823C32.891 34.8637 32.891 36.557 31.8504 37.5976ZM27.1698 28.035H9.25078C9.20555 28.035 9.1607 28.0335 9.11609 28.0306C8.44766 27.9873 7.85672 27.6226 7.51688 27.0363C7.47164 26.9583 7.43203 26.8784 7.39805 26.797C7.16016 26.2274 7.19773 25.5876 7.51156 25.0396L17.0236 8.3878C17.7215 8.44194 18.4031 8.55069 19.0644 8.70937C18.8026 9.09624 18.6647 9.54585 18.6647 10.0156V18.0242C18.6647 18.6451 18.9062 19.2313 19.3448 19.6748L19.35 19.68C19.7934 20.1185 20.3796 20.3601 21.0005 20.3601C22.2885 20.3601 23.3364 19.3122 23.3364 18.0242V10.6034C26.7725 12.9488 29.0092 16.8973 29.0092 21.3611C29.0092 23.7235 28.3743 26.023 27.1698 28.035ZM22.0016 9.80749V18.0242C22.0016 18.5762 21.5526 19.0253 21.0005 19.0253C20.7345 19.0253 20.4828 18.9217 20.2912 18.7336C20.103 18.542 19.9995 18.2902 19.9995 18.0242V10.0156C19.9995 9.64718 20.1995 9.3153 20.5126 9.14062C20.9572 9.28866 21.4485 9.50874 22.0016 9.80749ZM15.5045 8.35624L6.35297 24.3769C6.06352 24.8823 5.915 25.435 5.9075 25.9887C5.90656 26.0602 5.90789 26.1316 5.91164 26.203C5.93859 26.7206 6.08883 27.2341 6.36219 27.7057C6.64758 28.198 7.05344 28.6111 7.53602 28.9004C7.58406 28.9291 7.63273 28.9567 7.68211 28.9829C7.715 29.0004 7.74828 29.0173 7.78172 29.0336C7.79844 29.0418 7.81531 29.0498 7.83219 29.0576C8.27109 29.2625 8.75547 29.3697 9.25078 29.3697H26.2529C26.2522 29.3706 26.2515 29.3716 26.2508 29.3724C26.2457 29.3789 26.2405 29.3853 26.2355 29.3918C26.2008 29.436 26.1658 29.4799 26.1305 29.5237C26.117 29.5404 26.1034 29.557 26.0898 29.5737C26.0624 29.6074 26.0348 29.641 26.007 29.6744C25.992 29.6926 25.9769 29.7107 25.9617 29.7287C25.9339 29.7618 25.9059 29.7947 25.8777 29.8275C25.8635 29.8441 25.8494 29.8607 25.8351 29.8772C25.7994 29.9184 25.7634 29.9593 25.7273 30C25.7207 30.0074 25.7142 30.0148 25.7077 30.0223C25.6651 30.0699 25.6222 30.1173 25.5789 30.1643C25.5656 30.1787 25.5522 30.193 25.5388 30.2075C25.5082 30.2405 25.4775 30.2734 25.4466 30.306C25.4305 30.323 25.4142 30.34 25.398 30.3569C25.3687 30.3876 25.3393 30.418 25.3097 30.4483C25.2936 30.4648 25.2774 30.4813 25.2613 30.4978C25.2281 30.5314 25.1948 30.5648 25.1613 30.598C25.1491 30.6101 25.1369 30.6225 25.1245 30.6346C25.0791 30.6793 25.0334 30.7237 24.9873 30.7677C24.9759 30.7786 24.9645 30.7893 24.953 30.8001C24.9177 30.8337 24.8823 30.867 24.8466 30.9002C24.8299 30.9157 24.813 30.9311 24.7963 30.9466C24.7651 30.9752 24.7338 31.0037 24.7023 31.0321C24.6847 31.048 24.6671 31.0637 24.6495 31.0795C24.6166 31.1089 24.5834 31.138 24.5502 31.1669C24.5347 31.1805 24.5193 31.1941 24.5037 31.2077C24.4554 31.2494 24.407 31.2909 24.358 31.3319C24.3534 31.3359 24.3487 31.3397 24.3441 31.3436C24.2995 31.3809 24.2546 31.418 24.2095 31.4548C24.1929 31.4684 24.1761 31.4817 24.1594 31.4952C24.1256 31.5225 24.0918 31.5496 24.0577 31.5765C24.0391 31.5912 24.0205 31.6059 24.0019 31.6204C23.9681 31.6467 23.9343 31.673 23.9003 31.699C23.8827 31.7125 23.8651 31.7261 23.8473 31.7394C23.8058 31.7709 23.764 31.8022 23.722 31.8332C23.7122 31.8405 23.7025 31.8478 23.6927 31.855C23.6413 31.8929 23.5895 31.9303 23.5373 31.9674C23.522 31.9784 23.5066 31.9891 23.4913 31.9999C23.4538 32.0264 23.4163 32.0527 23.3784 32.0787C23.3594 32.0919 23.3402 32.105 23.321 32.1181C23.2859 32.1421 23.2505 32.1659 23.2152 32.1896C23.1959 32.2024 23.1768 32.2152 23.1575 32.228C23.1185 32.2537 23.0793 32.2792 23.0401 32.3046C23.0251 32.3143 23.0101 32.3241 22.995 32.3338C22.941 32.3684 22.8868 32.4025 22.8323 32.4362C22.8206 32.4434 22.8089 32.4505 22.7972 32.4577C22.7539 32.4843 22.7105 32.5107 22.6669 32.5368C22.6477 32.5483 22.6283 32.5597 22.609 32.5711C22.572 32.593 22.535 32.6147 22.4977 32.6362C22.4773 32.648 22.457 32.6597 22.4365 32.6714C22.3981 32.6933 22.3596 32.7149 22.321 32.7365C22.3027 32.7466 22.2845 32.7569 22.2663 32.767C22.221 32.7919 22.1756 32.8165 22.1301 32.8409C22.1073 32.8513 22.0851 32.8632 22.0634 32.8764C20.207 33.8568 18.1097 34.3751 15.9953 34.3751C8.81938 34.3751 2.98133 28.537 2.98133 21.3611C2.98125 14.3494 8.55484 8.61507 15.5045 8.35624Z" fill="#360535"/>
<path d="M15.9945 34.3753C18.1088 34.3753 20.2061 33.857 22.0625 32.8766C22.0842 32.8635 22.1065 32.8515 22.1292 32.8411C22.1748 32.8167 22.2202 32.7921 22.2654 32.7672C22.2837 32.7571 22.302 32.7468 22.3202 32.7367C22.3587 32.7152 22.3973 32.6936 22.4356 32.6716C22.4561 32.6599 22.4765 32.6482 22.4969 32.6364C22.5341 32.6149 22.5711 32.5932 22.6081 32.5713C22.6274 32.5599 22.6467 32.5485 22.666 32.537C22.7096 32.5109 22.753 32.4845 22.7962 32.4579C22.808 32.4507 22.8198 32.4437 22.8314 32.4364C22.8859 32.4027 22.9402 32.3686 22.9941 32.334C23.0092 32.3244 23.0242 32.3146 23.0392 32.3048C23.0785 32.2795 23.1177 32.2539 23.1566 32.2282C23.1759 32.2154 23.1951 32.2026 23.2143 32.1898C23.2497 32.1661 23.285 32.1423 23.3202 32.1183C23.3393 32.1053 23.3585 32.0921 23.3776 32.0789C23.4153 32.0529 23.4529 32.0265 23.4904 32.0001C23.5057 31.9893 23.5212 31.9786 23.5365 31.9676C23.5885 31.9305 23.6404 31.8931 23.6919 31.8552C23.7017 31.848 23.7114 31.8406 23.7212 31.8334C23.7631 31.8024 23.8049 31.7711 23.8465 31.7396C23.8642 31.7262 23.8818 31.7127 23.8995 31.6992C23.9334 31.6732 23.9673 31.647 24.001 31.6206C24.0197 31.606 24.0384 31.5914 24.0569 31.5767C24.0909 31.5498 24.1248 31.5227 24.1585 31.4954C24.1752 31.4819 24.192 31.4686 24.2087 31.455C24.2537 31.4182 24.2986 31.3811 24.3432 31.3438C24.3479 31.3399 24.3526 31.3361 24.3572 31.3321C24.4061 31.2911 24.4545 31.2496 24.5028 31.2079C24.5184 31.1944 24.5338 31.1807 24.5494 31.1671C24.5826 31.1382 24.6157 31.109 24.6486 31.0797C24.6662 31.064 24.6838 31.0482 24.7014 31.0323C24.7329 31.0039 24.7642 30.9754 24.7954 30.9468C24.8122 30.9313 24.8291 30.9159 24.8458 30.9004C24.8814 30.8672 24.9169 30.8339 24.9522 30.8004C24.9636 30.7895 24.9752 30.7788 24.9865 30.7679C25.0326 30.7239 25.0783 30.6795 25.1237 30.6348C25.136 30.6227 25.1482 30.6104 25.1605 30.5982C25.1939 30.565 25.2273 30.5316 25.2604 30.498C25.2766 30.4816 25.2927 30.465 25.3088 30.4485C25.3384 30.4182 25.3678 30.3878 25.3971 30.3571C25.4134 30.3402 25.4295 30.3232 25.4457 30.3062C25.4766 30.2736 25.5073 30.2407 25.538 30.2077C25.5513 30.1933 25.5648 30.1789 25.578 30.1645C25.6212 30.1175 25.6642 30.0701 25.7068 30.0225C25.7134 30.0151 25.7198 30.0076 25.7264 30.0002C25.7626 29.9595 25.7985 29.9186 25.8342 29.8774C25.8485 29.8609 25.8627 29.8443 25.8769 29.8277C25.905 29.7949 25.933 29.7619 25.9609 29.7289C25.976 29.7108 25.9911 29.6928 26.0062 29.6747C26.034 29.6412 26.0616 29.6076 26.089 29.5739C26.1026 29.5572 26.1162 29.5406 26.1297 29.5239C26.1649 29.4801 26.1999 29.4362 26.2346 29.392C26.2397 29.3855 26.2449 29.3791 26.2499 29.3726C26.2506 29.3717 26.2513 29.3707 26.252 29.3699H9.25C8.75469 29.3699 8.27031 29.2628 7.83141 29.0579C7.81453 29.05 7.79773 29.042 7.78094 29.0338C7.74742 29.0175 7.71422 29.0006 7.68133 28.9831C7.63195 28.9568 7.5832 28.9293 7.53523 28.9006C7.05266 28.6113 6.64672 28.1982 6.36141 27.7059C6.08797 27.2343 5.93781 26.7208 5.91086 26.2032C5.90711 26.1318 5.90578 26.0604 5.90672 25.9889C5.9143 25.4352 6.06273 24.8825 6.35219 24.3771L15.5037 8.35645C8.55414 8.61527 2.98047 14.3496 2.98047 21.3613C2.98047 28.5372 8.81851 34.3753 15.9945 34.3753Z" fill="#92CDF7"/>
<path d="M23.3365 10.6033V18.0241C23.3365 19.3121 22.2886 20.36 21.0006 20.36C20.3797 20.36 19.7934 20.1185 19.3501 19.6799C19.3483 19.6782 19.3465 19.6764 19.3448 19.6747C18.9063 19.2312 18.6648 18.645 18.6648 18.0241V10.0155C18.6648 9.54574 18.8026 9.09613 19.0644 8.70926C18.4031 8.55051 17.7215 8.44184 17.0237 8.3877L7.5117 25.0395C7.19788 25.5875 7.16022 26.2274 7.39819 26.7969C7.43217 26.8783 7.47178 26.9582 7.51702 27.0362C7.85686 27.6225 8.4478 27.9872 9.11624 28.0305C9.16077 28.0334 9.20569 28.0349 9.25092 28.0349H27.1699C28.3744 26.0229 29.0093 23.7234 29.0093 21.3611C29.0093 16.8973 26.7726 12.9487 23.3365 10.6033ZM21.0007 26.7001C19.5287 26.7001 18.3312 25.5025 18.3312 24.0306C18.3312 22.5586 19.5287 21.3611 21.0007 21.3611C22.4726 21.3611 23.6702 22.5586 23.6702 24.0306C23.6702 25.5025 22.4726 26.7001 21.0007 26.7001Z" fill="#FFDA8C"/>
<path d="M27.6951 29.6672C26.5748 31.2432 25.1438 32.5815 23.498 33.5934L27.7884 37.8845C28.2917 38.3879 28.962 38.6651 29.6756 38.6651C30.3893 38.6651 31.0595 38.3879 31.5629 37.8844L31.8498 37.5975C32.8905 36.5568 32.8905 34.8636 31.8498 33.8229L27.6951 29.6672Z" fill="#FFA5A5"/>
<path d="M21.9385 24.974C22.4596 24.4528 22.4596 23.6078 21.9385 23.0866C21.4173 22.5654 20.5723 22.5654 20.0511 23.0866C19.5299 23.6078 19.5299 24.4528 20.0511 24.974C20.5723 25.4951 21.4173 25.4951 21.9385 24.974Z" fill="white"/>
<path d="M20.9996 21.3608C19.5276 21.3608 18.3301 22.5583 18.3301 24.0304C18.3301 25.5023 19.5276 26.6999 20.9996 26.6999C22.4716 26.6999 23.6691 25.5023 23.6691 24.0304C23.6691 22.5583 22.4716 21.3608 20.9996 21.3608ZM20.9996 25.3651C20.2636 25.3651 19.6648 24.7664 19.6648 24.0304C19.6648 23.2944 20.2636 22.6956 20.9996 22.6956C21.7356 22.6956 22.3344 23.2944 22.3344 24.0304C22.3344 24.7663 21.7355 25.3651 20.9996 25.3651Z" fill="#360535"/>
<path d="M20 10.0156V18.0242C20 18.2902 20.1036 18.542 20.2917 18.7336C20.4833 18.9217 20.7351 19.0253 21.0011 19.0253C21.553 19.0253 22.0022 18.5763 22.0022 18.0242V9.8075C21.4491 9.50875 20.9577 9.28875 20.5132 9.14062C20.2001 9.31531 20 9.64719 20 10.0156Z" fill="white"/>
</g>
<defs>
<clipPath id="clip0_260_1776">
<rect width="40" height="40" fill="white"/>
</clipPath>
</defs>
</svg>
