<svg width="40" height="40" viewBox="0 0 40 40" fill="none" xmlns="http://www.w3.org/2000/svg">
<path d="M32.5 20.0002V37.5002C32.5 38.1906 31.9404 38.7502 31.25 38.7502H7.5C6.80961 38.7502 6.25 38.1906 6.25 37.5002V20.0002H32.5Z" fill="#F04938"/>
<path d="M31.25 21.2502V36.2502C31.25 36.9406 30.6904 37.5002 30 37.5002H6.25C5.55961 37.5002 5 36.9406 5 36.2502V21.2502C5 20.5599 5.55961 20.0002 6.25 20.0002H32.5C31.8096 20.0002 31.25 20.5599 31.25 21.2502Z" fill="#D7E6F0"/>
<path d="M32.5 2.50024V20.0002H6.25V2.50024C6.25 1.80985 6.80961 1.25024 7.5 1.25024H31.25C31.9404 1.25024 32.5 1.80985 32.5 2.50024Z" fill="#D6332C"/>
<path d="M31.25 18.7502V3.75024C31.25 3.05985 30.6904 2.50024 30 2.50024H6.25C5.55961 2.50024 5 3.05985 5 3.75024V18.7502C5 19.4406 5.55961 20.0002 6.25 20.0002H32.5C31.8096 20.0002 31.25 19.4406 31.25 18.7502Z" fill="#A5C3DC"/>
<path d="M15.2084 22.5002H8.125C7.77984 22.5002 7.5 22.7801 7.5 23.1252V31.8752C7.5 32.2204 7.77984 32.5002 8.125 32.5002H15.2084C15.5535 32.5002 15.8334 32.2204 15.8334 31.8752V23.1252C15.8334 22.7801 15.5535 22.5002 15.2084 22.5002Z" fill="#F04938"/>
<path d="M15.8334 31.8752V30.6252C15.8334 29.5897 14.9939 28.7502 13.9584 28.7502H9.375C8.33945 28.7502 7.5 29.5897 7.5 30.6252V31.8752C7.5 32.2204 7.77984 32.5002 8.125 32.5002H15.2083C15.5535 32.5002 15.8334 32.2204 15.8334 31.8752Z" fill="#00D2D2"/>
<path d="M11.668 31.25C10.6324 31.25 9.79297 30.4105 9.79297 29.375V28.75H13.543V29.375C13.543 30.4105 12.7035 31.25 11.668 31.25Z" fill="#D7E6F0"/>
<path d="M11.666 28.1252C13.0467 28.1252 14.166 27.006 14.166 25.6252C14.166 24.2445 13.0467 23.1252 11.666 23.1252C10.2853 23.1252 9.16602 24.2445 9.16602 25.6252C9.16602 27.006 10.2853 28.1252 11.666 28.1252Z" fill="#FAB991"/>
<path d="M19.375 23.7502H18.125C17.7798 23.7502 17.5 23.4704 17.5 23.1252C17.5 22.7801 17.7798 22.5002 18.125 22.5002H19.375C19.7202 22.5002 20 22.7801 20 23.1252C20 23.4704 19.7202 23.7502 19.375 23.7502Z" fill="#A5C3DC"/>
<path d="M28.125 23.7502H21.875C21.5298 23.7502 21.25 23.4704 21.25 23.1252C21.25 22.7801 21.5298 22.5002 21.875 22.5002H28.125C28.4702 22.5002 28.75 22.7801 28.75 23.1252C28.75 23.4704 28.4702 23.7502 28.125 23.7502Z" fill="#A5C3DC"/>
<path d="M19.375 26.2502H18.125C17.7798 26.2502 17.5 25.9704 17.5 25.6252C17.5 25.2801 17.7798 25.0002 18.125 25.0002H19.375C19.7202 25.0002 20 25.2801 20 25.6252C20 25.9704 19.7202 26.2502 19.375 26.2502Z" fill="#A5C3DC"/>
<path d="M28.125 26.2502H21.875C21.5298 26.2502 21.25 25.9704 21.25 25.6252C21.25 25.2801 21.5298 25.0002 21.875 25.0002H28.125C28.4702 25.0002 28.75 25.2801 28.75 25.6252C28.75 25.9704 28.4702 26.2502 28.125 26.2502Z" fill="#A5C3DC"/>
<path d="M19.375 28.7502H18.125C17.7798 28.7502 17.5 28.4704 17.5 28.1252C17.5 27.7801 17.7798 27.5002 18.125 27.5002H19.375C19.7202 27.5002 20 27.7801 20 28.1252C20 28.4704 19.7202 28.7502 19.375 28.7502Z" fill="#A5C3DC"/>
<path d="M28.125 28.7502H21.875C21.5298 28.7502 21.25 28.4704 21.25 28.1252C21.25 27.7801 21.5298 27.5002 21.875 27.5002H28.125C28.4702 27.5002 28.75 27.7801 28.75 28.1252C28.75 28.4704 28.4702 28.7502 28.125 28.7502Z" fill="#A5C3DC"/>
<path d="M19.375 31.2502H18.125C17.7798 31.2502 17.5 30.9704 17.5 30.6252C17.5 30.2801 17.7798 30.0002 18.125 30.0002H19.375C19.7202 30.0002 20 30.2801 20 30.6252C20 30.9704 19.7202 31.2502 19.375 31.2502Z" fill="#A5C3DC"/>
<path d="M28.125 31.2502H21.875C21.5298 31.2502 21.25 30.9704 21.25 30.6252C21.25 30.2801 21.5298 30.0002 21.875 30.0002H28.125C28.4702 30.0002 28.75 30.2801 28.75 30.6252C28.75 30.9704 28.4702 31.2502 28.125 31.2502Z" fill="#A5C3DC"/>
<path d="M28.125 35.0002H8.125C7.77984 35.0002 7.5 34.7204 7.5 34.3752C7.5 34.0301 7.77984 33.7502 8.125 33.7502H28.125C28.4702 33.7502 28.75 34.0301 28.75 34.3752C28.75 34.7204 28.4702 35.0002 28.125 35.0002Z" fill="#A5C3DC"/>
<path d="M30 7.5H32.5V12.5H30V7.5Z" fill="#FAA019"/>
<path d="M31.25 8.9585C32.6307 8.9585 33.75 7.83921 33.75 6.4585C33.75 5.07778 32.6307 3.9585 31.25 3.9585C29.8693 3.9585 28.75 5.07778 28.75 6.4585C28.75 7.83921 29.8693 8.9585 31.25 8.9585Z" fill="#FAA019"/>
<path d="M28.7578 6.25014H29.9992C30.6896 6.25014 31.2492 5.69053 31.2492 5.00014V3.9585C29.9387 3.9585 28.8637 4.96693 28.7578 6.25014Z" fill="#FFD205"/>
<path d="M36.875 15.6252H25.625C25.2798 15.6252 25 15.3454 25 15.0002V13.1252C25 12.7801 25.2798 12.5002 25.625 12.5002H36.875C37.2202 12.5002 37.5 12.7801 37.5 13.1252V15.0002C37.5 15.3454 37.2202 15.6252 36.875 15.6252Z" fill="#FFD205"/>
<path d="M36.875 15.6252H31.875C31.5298 15.6252 31.25 15.3454 31.25 15.0002V13.7502C31.25 13.4051 31.5298 13.1252 31.875 13.1252H36.875C37.2202 13.1252 37.5 13.4051 37.5 13.7502V15.0002C37.5 15.3454 37.2202 15.6252 36.875 15.6252Z" fill="#FAA019"/>
<path d="M26.25 16.8752H36.25C36.5952 16.8752 36.875 16.5954 36.875 16.2502V15.6252H25.625V16.2502C25.625 16.5954 25.9048 16.8752 26.25 16.8752Z" fill="#289BC3"/>
<path d="M18.125 18.1252C14.3341 18.1252 11.25 15.0411 11.25 11.2502C11.25 7.45939 14.3341 4.37524 18.125 4.37524C21.9159 4.37524 25 7.45939 25 11.2502C25 15.0411 21.9159 18.1252 18.125 18.1252ZM18.125 5.62524C15.0234 5.62524 12.5 8.1486 12.5 11.2502C12.5 14.3519 15.0234 16.8752 18.125 16.8752C21.2266 16.8752 23.75 14.3519 23.75 11.2502C23.75 8.1486 21.2266 5.62524 18.125 5.62524Z" fill="#289BC3"/>
<path d="M18.125 15.9377C15.5403 15.9377 13.4375 13.8349 13.4375 11.2502C13.4375 8.66556 15.5403 6.56274 18.125 6.56274C20.7097 6.56274 22.8125 8.66556 22.8125 11.2502C22.8125 13.8349 20.7097 15.9377 18.125 15.9377ZM18.125 7.18774C15.8849 7.18774 14.0625 9.01017 14.0625 11.2502C14.0625 13.4903 15.8849 15.3127 18.125 15.3127C20.3651 15.3127 22.1875 13.4903 22.1875 11.2502C22.1875 9.01017 20.3651 7.18774 18.125 7.18774Z" fill="#289BC3"/>
<path d="M14.0723 13.0928L19.9639 7.20114L20.4058 7.64302L14.5141 13.5346L14.0723 13.0928Z" fill="#289BC3"/>
<path d="M15.8398 14.8606L21.7315 8.96891L22.1734 9.41079L16.2817 15.3025L15.8398 14.8606Z" fill="#289BC3"/>
</svg>
