<svg width="40" height="40" viewBox="0 0 40 40" fill="none" xmlns="http://www.w3.org/2000/svg">
<g clip-path="url(#clip0_260_1592)">
<path d="M37.074 4.33034C38.5294 4.72031 39.3931 6.21631 39.0031 7.67173L30.8828 37.9773C30.4928 39.4327 28.9968 40.2964 27.5414 39.9064L11.7298 35.6696C10.2744 35.2796 9.41065 33.7836 9.8007 32.3282L17.921 2.02278C18.311 0.567355 19.807 -0.296383 21.2624 0.0936672L37.074 4.33034Z" fill="#F5F9EC"/>
<path d="M24.8368 8.35059H16.2252L9.80066 32.3281C9.41069 33.7834 10.2745 35.2794 11.7299 35.6694L27.5414 39.9059C28.9968 40.2959 30.4928 39.4324 30.8827 37.9769L35.866 19.3796L24.8368 8.35059Z" fill="#E4E8DB"/>
<path d="M37.074 4.33026C38.5294 4.72022 39.3932 6.21622 39.0031 7.67165L35.4725 20.8479L14.3906 15.1991L17.9212 2.02278C18.3112 0.567355 19.8072 -0.296383 21.2626 0.0936671L37.074 4.33026Z" fill="#DCC69F"/>
<path d="M19.0249 34.7971L21.4961 25.5742L20.1785 25.2212L17.7073 34.4441L19.0249 34.7971Z" fill="#C8BEB2"/>
<path d="M22.2041 22.9408L22.9102 20.3057L21.5926 19.9526L20.8865 22.5877L22.2041 22.9408Z" fill="#C8BEB2"/>
<path d="M26.1592 23.9959L26.8652 21.3608L25.5476 21.0078L24.8416 23.6429L26.1592 23.9959Z" fill="#C8BEB2"/>
<path d="M30.1084 25.0565L30.8145 22.4214L29.4969 22.0684L28.7908 24.7035L30.1084 25.0565Z" fill="#C8BEB2"/>
<path d="M22.9761 35.8572L25.4473 26.6343L24.1297 26.2812L21.6585 35.5042L22.9761 35.8572Z" fill="#C8BEB2"/>
<path d="M26.9331 36.9182L29.4043 27.6953L28.0867 27.3423L25.6155 36.5652L26.9331 36.9182Z" fill="#C8BEB2"/>
<path d="M32.4141 5.90642L31.2847 5.60376L27.2508 9.36479C26.1936 9.08156 25.0077 8.76372 24.8039 8.70916C24.051 8.50744 23.1971 8.68213 23.0963 9.05854C22.9954 9.43504 23.6475 10.0132 24.4004 10.215C24.604 10.2695 25.7901 10.5873 26.8472 10.8706L28.4602 16.1448L29.5896 16.4474L29.4824 11.5768C30.2244 11.7756 30.9815 11.9784 31.478 12.1114L32.3548 13.6577L33.1077 13.8594L32.9783 11.7064L34.167 9.90651L33.4141 9.70479L31.8816 10.6055C31.3852 10.4725 30.628 10.2696 29.8861 10.0709L32.4141 5.90642Z" fill="#F5F9EC"/>
<path d="M14.3906 15.1989L35.4728 20.8477L35.866 19.3798L24.8369 8.35059H16.2256L14.3906 15.1989Z" fill="#CDB994"/>
<path d="M24.8057 8.7091C24.0527 8.5073 23.1988 8.68207 23.0982 9.05848C22.9974 9.43498 23.6491 10.0133 24.4024 10.215C24.6058 10.2696 25.7918 10.5875 26.8489 10.8706L28.4621 16.1449L29.5914 16.4474L29.5165 13.0292L25.3392 8.85208C25.0741 8.78106 24.8773 8.72828 24.8057 8.7091Z" fill="#E4E8DB"/>
<path d="M22.58 0.446716L13.0475 36.0227L11.7298 35.6697C10.2744 35.2797 9.41065 33.7837 9.8007 32.3283L17.9211 2.02278C18.311 0.567355 19.8071 -0.296383 21.2625 0.0936671L22.58 0.446716Z" fill="#EA672C"/>
<path d="M25.4563 34.6269C25.4563 36.1337 24.2349 37.3552 22.7281 37.3552H2.26645C1.51304 37.3552 0.902344 36.7445 0.902344 35.9911V8.70884C0.902344 7.95542 1.51304 7.34473 2.26645 7.34473H22.7281C24.2349 7.34473 25.4563 8.5662 25.4563 10.0729V34.6269Z" fill="#125D9D"/>
<path d="M13.1788 11.437C8.65857 11.437 4.99414 15.1014 4.99414 19.6217C4.99414 24.1419 8.65857 27.8063 13.1788 27.8063C17.699 27.8063 21.3635 24.1419 21.3635 19.6217C21.3635 15.1014 17.6991 11.437 13.1788 11.437ZM19.2361 16.5524H16.2863C16.0042 15.1389 15.5636 13.9963 15.1137 13.1149C16.9161 13.6528 18.3958 14.9026 19.2361 16.5524ZM15.225 19.6217C15.225 20.2306 15.1794 20.79 15.1167 21.3268H11.2412C11.1783 20.79 11.1326 20.2305 11.1326 19.6217C11.1326 19.0125 11.1775 18.4532 11.2398 17.9165H15.118C15.18 18.4532 15.225 19.0126 15.225 19.6217ZM11.4674 16.5524C11.8461 14.8431 12.4708 13.6013 12.9803 12.8211C13.0476 12.8191 13.1109 12.8011 13.1788 12.8011C13.2474 12.8011 13.311 12.8195 13.3792 12.8214C13.8911 13.6067 14.5136 14.849 14.8905 16.5524H11.4674ZM11.2439 13.1149C10.7956 13.9945 10.3547 15.1383 10.0723 16.5524H7.12156C7.96185 14.9026 9.44148 13.6531 11.2439 13.1149ZM6.60038 17.9165H9.86513C9.80817 18.4567 9.76853 19.0186 9.76853 19.6217C9.76853 20.2251 9.8092 20.7863 9.86709 21.3268H6.6003C6.45775 20.7786 6.35817 20.2139 6.35817 19.6217C6.35825 19.0296 6.45783 18.4647 6.60038 17.9165ZM7.12156 22.6909H10.0756C10.3607 24.1076 10.8019 25.26 11.2419 26.1279C9.44055 25.5897 7.96151 24.3401 7.12156 22.6909ZM12.9803 26.4223C12.4915 25.6703 11.8547 24.4252 11.4691 22.6909H14.8887C14.5037 24.424 13.8676 25.6686 13.3771 26.4223C13.3098 26.4242 13.2469 26.4422 13.179 26.4422C13.111 26.4422 13.0479 26.4243 12.9803 26.4223ZM15.1164 26.1279C15.557 25.2591 15.998 24.1077 16.2824 22.6909H19.2361C18.3962 24.3401 16.9175 25.5893 15.1164 26.1279ZM19.7573 21.3268H16.4909C16.5485 20.7863 16.5891 20.2251 16.5891 19.6217C16.5891 19.0186 16.5498 18.4567 16.4928 17.9165H19.7572C19.8998 18.4647 19.9994 19.0295 19.9994 19.6217C19.9994 20.2139 19.8998 20.7787 19.7573 21.3268Z" fill="#E7BE29"/>
<path d="M5.89062 33.2642V31.3113H6.62733C6.75701 31.3113 6.85599 31.3175 6.92437 31.33C7.02028 31.346 7.10059 31.3764 7.16547 31.4212C7.23027 31.466 7.28244 31.5289 7.322 31.6097C7.36148 31.6905 7.38126 31.7793 7.38126 31.8761C7.38126 32.0422 7.3284 32.1828 7.22276 32.2977C7.11705 32.4128 6.92616 32.4702 6.64992 32.4702H6.14904V33.2642H5.89062ZM6.14904 32.2397H6.65393C6.82086 32.2397 6.93946 32.2087 7.00962 32.1465C7.07979 32.0843 7.11483 31.9968 7.11483 31.884C7.11483 31.8024 7.0942 31.7325 7.05285 31.6742C7.01158 31.6161 6.9571 31.5776 6.88967 31.559C6.8461 31.5474 6.76579 31.5416 6.64856 31.5416H6.14904V32.2397Z" fill="white"/>
<path d="M7.29297 33.2644L8.04297 31.3115H8.32142L9.12071 33.2644H8.82632L8.59851 32.6729H7.78192L7.56741 33.2644H7.29297ZM7.85643 32.4624H8.51854L8.31469 31.9215C8.25254 31.7572 8.20633 31.6223 8.17615 31.5166C8.15125 31.6418 8.11621 31.7662 8.07094 31.8896L7.85643 32.4624Z" fill="white"/>
<path d="M9.24023 32.6367L9.48398 32.6154C9.49549 32.7131 9.52235 32.7933 9.56455 32.8559C9.60675 32.9184 9.67223 32.9691 9.76107 33.0077C9.84991 33.0463 9.94974 33.0657 10.0608 33.0657C10.1594 33.0657 10.2464 33.051 10.322 33.0217C10.3974 32.9924 10.4536 32.9523 10.4905 32.9011C10.5274 32.8501 10.5458 32.7944 10.5458 32.7339C10.5458 32.6726 10.528 32.6192 10.4925 32.5734C10.4569 32.5277 10.3984 32.4893 10.3166 32.4581C10.2642 32.4378 10.1483 32.406 9.96893 32.3629C9.78955 32.3198 9.66388 32.2793 9.59192 32.241C9.49865 32.1922 9.42916 32.1316 9.38347 32.0591C9.33768 31.9867 9.31483 31.9058 9.31483 31.816C9.31483 31.7174 9.3428 31.6253 9.39873 31.5396C9.45466 31.4539 9.53633 31.3888 9.64384 31.3444C9.75126 31.3 9.87071 31.2778 10.0022 31.2778C10.1469 31.2778 10.2746 31.3011 10.3852 31.3477C10.4957 31.3944 10.5807 31.463 10.6402 31.5536C10.6997 31.6442 10.7317 31.7467 10.7362 31.8612L10.4884 31.8799C10.4751 31.7566 10.43 31.6633 10.3532 31.6002C10.2764 31.5372 10.1629 31.5056 10.0128 31.5056C9.85656 31.5056 9.74265 31.5343 9.67112 31.5916C9.59959 31.6489 9.56387 31.7179 9.56387 31.7988C9.56387 31.8689 9.58919 31.9266 9.63983 31.9719C9.68954 32.0172 9.81939 32.0636 10.0295 32.1111C10.2394 32.1587 10.3835 32.2002 10.4617 32.2357C10.5754 32.2881 10.6593 32.3545 10.7135 32.4349C10.7676 32.5153 10.7947 32.6078 10.7947 32.7126C10.7947 32.8166 10.765 32.9144 10.7055 33.0063C10.646 33.0982 10.5604 33.1698 10.449 33.2208C10.3375 33.2719 10.2121 33.2974 10.0727 33.2974C9.89595 33.2974 9.74785 33.2716 9.62841 33.2202C9.50896 33.1687 9.41527 33.0912 9.34732 32.9877C9.27954 32.8843 9.24382 32.7673 9.24023 32.6367Z" fill="white"/>
<path d="M11.0586 32.6367L11.3023 32.6154C11.3139 32.7131 11.3407 32.7933 11.3829 32.8559C11.4251 32.9184 11.4906 32.9691 11.5794 33.0077C11.6683 33.0463 11.7681 33.0657 11.8792 33.0657C11.9777 33.0657 12.0648 33.051 12.1403 33.0217C12.2158 32.9924 12.272 32.9523 12.3089 32.9011C12.3457 32.8501 12.3641 32.7944 12.3641 32.7339C12.3641 32.6726 12.3464 32.6192 12.3108 32.5734C12.2753 32.5277 12.2167 32.4893 12.135 32.4581C12.0825 32.4378 11.9667 32.406 11.7873 32.3629C11.6079 32.3198 11.4822 32.2793 11.4103 32.241C11.317 32.1922 11.2475 32.1316 11.2018 32.0591C11.156 31.9867 11.1332 31.9058 11.1332 31.816C11.1332 31.7174 11.1612 31.6253 11.2171 31.5396C11.273 31.4539 11.3547 31.3888 11.4622 31.3444C11.5696 31.3 11.6891 31.2778 11.8205 31.2778C11.9653 31.2778 12.0929 31.3011 12.2035 31.3477C12.3141 31.3944 12.3991 31.463 12.4586 31.5536C12.5181 31.6442 12.5501 31.7467 12.5545 31.8612L12.3068 31.8799C12.2935 31.7566 12.2484 31.6633 12.1715 31.6002C12.0947 31.5372 11.9812 31.5056 11.8312 31.5056C11.6749 31.5056 11.561 31.5343 11.4895 31.5916C11.418 31.6489 11.3822 31.7179 11.3822 31.7988C11.3822 31.8689 11.4076 31.9266 11.4582 31.9719C11.5079 32.0172 11.6377 32.0636 11.8478 32.1111C12.0578 32.1587 12.2019 32.2002 12.2801 32.2357C12.3937 32.2881 12.4776 32.3545 12.5318 32.4349C12.586 32.5153 12.6131 32.6078 12.6131 32.7126C12.6131 32.8166 12.5833 32.9144 12.5238 33.0063C12.4643 33.0982 12.3788 33.1698 12.2674 33.2208C12.1559 33.2719 12.0304 33.2974 11.891 33.2974C11.7143 33.2974 11.5662 33.2716 11.4468 33.2202C11.3273 33.1687 11.2336 33.0912 11.1657 32.9877C11.0979 32.8843 11.0621 32.7673 11.0586 32.6367Z" fill="white"/>
<path d="M12.9668 33.2644V31.3115H13.7035C13.8332 31.3115 13.9322 31.3177 14.0005 31.3302C14.0965 31.3462 14.1768 31.3767 14.2416 31.4214C14.3064 31.4663 14.3586 31.5292 14.3982 31.6099C14.4376 31.6907 14.4574 31.7796 14.4574 31.8764C14.4574 32.0424 14.4046 32.183 14.2989 32.2979C14.1932 32.413 14.0023 32.4704 13.7261 32.4704H13.2252V33.2644H12.9668ZM13.2252 32.24H13.7301C13.897 32.24 14.0156 32.2089 14.0858 32.1467C14.156 32.0845 14.191 31.9971 14.191 31.8843C14.191 31.8026 14.1704 31.7327 14.129 31.6745C14.0878 31.6163 14.0333 31.5779 13.9658 31.5592C13.9223 31.5477 13.842 31.5419 13.7247 31.5419H13.2252V32.24Z" fill="white"/>
<path d="M14.709 32.3131C14.709 31.9889 14.796 31.7352 14.9701 31.5517C15.1442 31.3684 15.3689 31.2766 15.6442 31.2766C15.8244 31.2766 15.987 31.3198 16.1318 31.4059C16.2765 31.4921 16.3868 31.6122 16.4628 31.7662C16.5388 31.9204 16.5767 32.0951 16.5767 32.2904C16.5767 32.4885 16.5367 32.6656 16.4568 32.8219C16.3769 32.9783 16.2636 33.0966 16.1172 33.1769C15.9706 33.2573 15.8126 33.2975 15.6429 33.2975C15.4591 33.2975 15.2948 33.253 15.15 33.1642C15.0053 33.0754 14.8956 32.9542 14.821 32.8005C14.7462 32.647 14.709 32.4845 14.709 32.3131ZM14.9754 32.3171C14.9754 32.5525 15.0387 32.7379 15.1653 32.8732C15.2918 33.0087 15.4505 33.0764 15.6415 33.0764C15.836 33.0764 15.9961 33.008 16.1218 32.8713C16.2474 32.7345 16.3103 32.5405 16.3103 32.2891C16.3103 32.1302 16.2834 31.9914 16.2297 31.8728C16.176 31.7542 16.0974 31.6623 15.9939 31.5971C15.8904 31.5318 15.7743 31.4992 15.6455 31.4992C15.4626 31.4992 15.3052 31.5621 15.1733 31.6877C15.0413 31.8134 14.9754 32.0232 14.9754 32.3171Z" fill="white"/>
<path d="M16.9121 33.2644V31.3115H17.778C17.9521 31.3115 18.0844 31.3291 18.1749 31.3641C18.2656 31.3993 18.3379 31.4612 18.3921 31.55C18.4462 31.6388 18.4733 31.737 18.4733 31.8444C18.4733 31.9829 18.4285 32.0997 18.3388 32.1947C18.2491 32.2898 18.1106 32.3501 17.9232 32.3759C17.9915 32.4088 18.0435 32.4412 18.079 32.4731C18.1545 32.5425 18.226 32.629 18.2935 32.7329L18.6332 33.2644H18.3081L18.0497 32.8581C17.9742 32.7409 17.912 32.6512 17.8632 32.589C17.8143 32.5269 17.7706 32.4834 17.7319 32.4585C17.6933 32.4337 17.654 32.4164 17.614 32.4066C17.5847 32.4004 17.5368 32.3973 17.4701 32.3973H17.1704V33.2645H16.9121V33.2644ZM17.1705 32.1734H17.7261C17.8441 32.1734 17.9366 32.1612 18.0031 32.1367C18.0697 32.1123 18.1204 32.0733 18.155 32.0195C18.1896 31.9658 18.2069 31.9075 18.2069 31.8443C18.2069 31.752 18.1733 31.676 18.1063 31.6165C18.0392 31.5571 17.9333 31.5272 17.7886 31.5272H17.1704L17.1705 32.1734Z" fill="white"/>
<path d="M19.327 33.2642V31.5417H18.6836V31.3113H20.2315V31.5417H19.5854V33.2642H19.327Z" fill="white"/>
</g>
<defs>
<clipPath id="clip0_260_1592">
<rect width="40" height="40" fill="white"/>
</clipPath>
</defs>
</svg>
