<svg width="40" height="40" viewBox="0 0 40 40" fill="none" xmlns="http://www.w3.org/2000/svg">
<g clip-path="url(#clip0_260_1628)">
<path d="M22.171 39.9995C31.473 39.9995 39.0139 32.4586 39.0139 23.1566C39.0139 13.8545 31.473 6.31372 22.171 6.31372C12.8689 6.31372 5.32812 13.8545 5.32812 23.1566C5.32812 32.4586 12.8689 39.9995 22.171 39.9995Z" fill="#6DAFDF"/>
<path d="M13.0887 36.731C13.0849 36.7372 13.0799 36.741 13.0762 36.7472C13.1012 36.7547 13.125 36.766 13.15 36.7723L13.0887 36.731Z" fill="#E8EFF3"/>
<path d="M13.5671 12.9713L13.5371 12.9012C13.8212 12.8775 13.8525 12.681 14.0702 12.6222C14.318 12.5584 14.2291 12.6397 14.4694 12.6472C14.6633 12.6522 14.7722 12.7999 15 12.7123C14.9412 12.8036 14.8485 12.8624 14.7572 12.9225C14.5657 13.0401 14.3718 13.1615 14.1515 13.1966C13.9325 13.2316 13.681 13.1615 13.5671 12.9713Z" fill="#E8EFF3"/>
<path d="M15.9574 28.1716C15.9436 28.3193 15.8485 28.4432 15.7647 28.5633C15.3905 29.0926 15.144 29.7183 15.0576 30.3615C14.9725 30.9784 14.95 31.7443 14.3906 32.0133C14.0715 32.1647 13.6398 32.1059 13.4158 32.3825C13.3457 32.4663 13.3082 32.5739 13.2707 32.6753C13.1067 33.1496 12.9428 33.6238 12.7776 34.0981C12.6074 34.0718 12.4335 34.0418 12.2646 34.0118C12.4623 34.0894 12.5849 34.3722 12.451 34.5511C12.2633 34.436 12.0005 34.5411 11.8816 34.7288C11.7665 34.9165 11.7665 35.153 11.8103 35.3695C11.9442 36.0115 12.4523 36.5558 13.0767 36.7485C12.9528 36.95 12.62 36.8374 12.4247 36.6835C11.0169 35.5923 10.0046 34.0043 9.60915 32.2686C9.46899 31.6567 9.39641 31.0097 9.07982 30.4704C8.81453 30.0149 8.39406 29.667 8.13002 29.2103C7.75962 28.5608 7.73584 27.7411 7.29786 27.1367C7.05259 26.7926 6.66842 26.3634 6.9262 26.0293C7.03007 25.8904 7.24155 25.7665 7.17147 25.6101C7.1477 25.5587 7.09639 25.525 7.0576 25.4799C6.90868 25.2985 7.03632 25.0357 7.13018 24.8204C7.28785 24.445 7.31413 24.0346 7.2841 23.6204C6.90743 23.2374 6.62087 22.7719 6.45569 22.2614C6.35683 21.9498 6.22543 21.5594 5.89882 21.5343C5.83 21.2928 5.75742 21.0525 5.68985 20.811C5.65356 20.8924 5.56721 20.9412 5.47461 20.9462C5.97766 17.1107 7.75711 13.717 10.3487 11.1654C10.4013 11.1454 10.4563 11.1179 10.5114 11.0904C11.107 10.7925 11.5951 10.3195 12.1745 9.9904C12.2933 9.92158 12.4272 9.85776 12.5674 9.88153C12.7038 9.90156 12.8239 10.0505 12.7664 10.1769C12.7438 10.2294 12.6963 10.2682 12.6475 10.2995C11.9617 10.8101 11.2197 11.2468 10.4376 11.5972C10.3437 11.6372 10.2448 11.6835 10.1973 11.7724C10.1109 11.9238 10.2273 12.1265 10.3875 12.1941C10.5477 12.2616 10.7316 12.2391 10.9018 12.2116C10.7479 12.4043 10.6891 12.6708 10.7466 12.9124C10.9018 12.9374 10.9644 12.7272 11.0194 12.582C11.2472 12.0051 12.202 11.8262 12.1807 11.2017C12.4272 11.3519 12.705 11.0716 12.8765 10.8376C13.0479 10.6011 13.4096 10.3796 13.586 10.6086C13.5898 10.7312 13.5973 10.8539 13.601 10.9765C13.9414 10.9139 14.2855 10.8488 14.6247 10.7863C14.4257 10.9077 14.3431 11.188 14.4394 11.4007C14.5358 11.6134 14.8036 11.7336 15.0251 11.6635C15.0101 11.8424 14.8411 11.9688 14.6897 12.0652C14.303 12.3192 13.8888 12.5795 13.4509 12.6884L13.536 12.8998C13.5247 12.9023 13.5122 12.9061 13.5009 12.9049C13.2256 12.9136 12.9491 12.6971 12.6537 12.7171C12.4735 12.7284 12.2533 12.7146 12.1382 12.8898C12.1219 12.9111 12.0368 13.2265 12.0831 13.2027C12.2483 13.1213 12.4147 13.0413 12.5762 12.9599C12.6174 13.0926 12.62 13.2377 12.5837 13.3766C12.7789 13.3704 12.9778 13.4254 13.1418 13.538C12.9366 13.941 12.4585 14.1888 12.008 14.1262C12.013 13.9885 12.0143 13.8521 12.0193 13.7145C11.6489 13.6607 11.3235 13.9598 11.1171 14.2676C10.9068 14.5779 10.7379 14.9383 10.4125 15.1235C10.2136 15.2412 9.9783 15.275 9.76682 15.3688C9.55784 15.4664 9.35887 15.6629 9.38515 15.8906C9.39767 15.9982 9.45898 16.1021 9.44897 16.2122C9.42394 16.4162 9.17867 16.4963 9.00974 16.6189C8.72067 16.8292 8.62557 17.2434 8.32023 17.4261C8.09749 17.5612 7.81718 17.5387 7.5644 17.5988C7.31288 17.6588 7.04884 17.8903 7.13268 18.1356C7.00879 18.1694 6.86614 18.0693 6.86238 17.9391C6.36934 18.77 6.02021 19.6873 5.84126 20.6371C6.04774 20.8035 6.2905 20.4719 6.34932 20.2116C6.41189 19.9526 6.66216 19.6247 6.86489 19.7937C6.79105 20.1666 6.71722 20.537 6.64464 20.9099C6.62838 20.9812 6.61586 21.0576 6.64589 21.1239C6.68218 21.2065 6.77103 21.2465 6.8361 21.3078C7.0188 21.488 6.97375 21.7821 6.96875 22.0374C6.95999 22.3502 7.04383 22.6606 7.18899 22.9371C7.17773 22.8833 7.16897 22.8282 7.16146 22.7744C7.45553 22.832 7.76963 22.7569 8.00614 22.573C8.13128 22.4741 8.23889 22.344 8.39031 22.3002C8.54548 22.2526 8.71066 22.3052 8.86333 22.3577C9.3376 22.5217 9.8419 22.7031 10.1397 23.1048C10.2911 23.3088 10.3775 23.559 10.5614 23.7317C10.9782 24.1322 11.734 24.0171 12.1106 24.4575C12.4122 24.8129 12.3171 25.3485 12.1995 25.804C11.9868 25.6689 11.6702 25.9529 11.7865 26.1782C11.9129 26.0568 12.0581 25.9279 12.2295 25.9392C12.4047 25.9467 12.5411 26.1957 12.4047 26.2983C12.7338 25.9304 13.4684 26.1381 13.556 26.6287C13.9802 26.6862 14.4082 26.745 14.8311 26.8064C14.7185 27.4233 16.0237 27.5459 15.9574 28.1716Z" fill="#E8EFF3"/>
<path d="M14.5067 10.4135C14.3365 10.4836 14.1175 10.3772 14.0674 10.2008C14.0174 10.0243 14.1475 9.81785 14.329 9.78907C14.4441 9.7703 14.5993 9.79283 14.6406 9.68396C14.6531 9.65142 14.6493 9.61388 14.6518 9.57884C14.6606 9.37111 14.8583 9.21094 15.0635 9.17215C15.2688 9.13335 15.4777 9.18716 15.6792 9.24097C15.7418 9.39489 15.7518 9.57133 15.7067 9.73151C15.5666 9.72901 15.4264 9.72525 15.285 9.72275C15.2825 9.95551 15.2412 10.2471 15.0197 10.3184C14.822 10.3822 14.5793 10.2233 14.4091 10.3434" fill="#E8EFF3"/>
<path d="M16.8379 8.23229C17.2321 8.07461 17.5737 7.80682 17.9629 7.63788C18.6324 7.34756 19.3907 7.36634 20.1202 7.39136C21.7808 7.44767 23.4414 7.50274 25.102 7.55905C24.704 7.74425 24.3061 7.9307 23.9081 8.11591C23.5828 8.26732 23.2149 8.42249 22.877 8.30236C22.8507 8.57892 23.0872 8.85172 23.3638 8.86673C22.6555 9.2434 21.7383 8.75161 20.9975 9.05819C20.6871 9.18708 20.4256 9.45112 20.0915 9.48241C19.8975 9.49993 19.7023 9.43611 19.5096 9.46614C19.1867 9.51494 18.9665 9.80401 18.7162 10.0142C18.4271 10.257 18.0179 10.4084 17.6713 10.2608C17.3247 10.1131 17.1733 9.57376 17.4748 9.34601C17.6225 9.23339 17.824 9.22713 17.9942 9.1533C18.1643 9.07947 18.3095 8.86173 18.1944 8.71532C18.1443 8.6515 18.058 8.62271 18.0117 8.55639C17.9629 8.48381 17.9741 8.38495 17.9353 8.30612C17.7864 7.99953 17.2921 8.36743 16.9818 8.22728" fill="#E8EFF3"/>
<path d="M21.7793 9.95764C22.007 9.9201 22.2098 9.79997 22.425 9.71738C22.6402 9.63479 22.893 9.59349 23.092 9.70862C23.1433 9.86504 22.9581 9.99268 22.8004 10.0377C22.4976 10.1228 22.1722 10.1303 21.8656 10.059" fill="#E8EFF3"/>
<path d="M35.2195 12.5081C35.1582 12.5118 35.0931 12.5043 35.0305 12.4843C34.749 12.4055 34.5463 12.1702 34.3135 11.995C33.7742 11.5858 33.0096 11.487 32.3814 11.7523C32.5391 11.552 32.6279 11.298 32.6292 11.0427L32.5403 11.0678C31.5818 10.4258 30.453 9.75006 29.3405 10.0679C29.084 10.143 28.8463 10.2656 28.586 10.337C28.3094 10.4145 28.0066 10.4333 27.7638 10.586C27.5173 10.7386 27.3684 11.099 27.5561 11.313C27.7163 11.4957 27.9928 11.4669 28.2306 11.5057C28.4646 11.5433 28.7199 11.7973 28.5772 11.99C27.5035 12.4092 26.4274 12.8334 25.3537 13.2564C25.8229 13.4429 26.1032 14.0072 25.9693 14.4953C25.6152 14.5341 25.2911 14.2988 24.9395 14.2538C24.4277 14.1937 23.9083 14.6154 23.8633 15.1272C23.8145 15.6403 24.2562 16.1458 24.7693 16.1709C25.1535 16.1921 25.5451 15.9844 25.9118 16.107C25.9493 15.7579 26.2084 15.4776 26.4711 15.2423C26.9805 14.7943 27.6937 14.4039 28.3169 14.6817C28.5209 14.7706 28.6911 14.9232 28.8563 15.0747C29.2204 15.4038 29.5846 15.7366 29.9487 16.0695C30.0789 15.9519 30.2077 15.8342 30.3379 15.7204C30.5331 15.9544 30.7283 16.1884 30.926 16.4261C31.0374 16.3611 31.1525 16.2997 31.2627 16.2334C31.3265 16.4361 31.3928 16.6351 31.4566 16.8378C31.5017 16.6226 31.5417 16.4124 31.5818 16.2009C31.832 16.2247 32.0973 16.2497 32.3338 16.1496C32.5691 16.0545 32.7543 15.7904 32.6742 15.5489C32.6329 15.42 32.5215 15.3137 32.5065 15.1798C32.474 14.9107 32.8657 14.7518 33.1059 14.8907C33.3412 15.0246 33.4451 15.3099 33.5314 15.5714C33.6052 15.3162 33.6753 15.0646 33.7479 14.8106C33.9469 15.4501 34.2522 16.057 34.6451 16.5976C33.8755 16.3986 33.0484 16.4299 32.2988 16.6839C32.5103 17.0255 32.897 17.2458 33.2961 17.2558C33.4751 17.2633 33.6753 17.2345 33.8054 17.3572C33.9031 17.451 33.9206 17.5937 33.9306 17.7238C33.9681 18.093 34.0057 18.4584 34.0395 18.8225C33.6503 18.4571 33.0546 18.4571 32.519 18.4121C31.9834 18.362 31.3665 18.1743 31.2001 17.6625C30.9711 17.889 30.8547 18.2244 30.8948 18.5472C30.3479 18.3783 29.7235 18.1243 29.5983 17.5661C29.1541 17.6975 28.6323 17.3859 28.5434 16.9329C28.5121 16.774 28.5121 16.5838 28.3807 16.4912C28.3007 16.4361 28.193 16.4374 28.0942 16.4424C27.2633 16.485 26.4361 16.5225 25.609 16.565C25.1572 16.5901 24.6892 16.6126 24.28 16.8078C23.8708 16.9993 23.5279 17.4047 23.5442 17.8565C22.7583 18.2569 22.0738 18.8651 21.592 19.6021C21.4394 19.8286 21.3042 20.0914 21.3405 20.3605C21.3655 20.5682 21.4907 20.7521 21.5195 20.9561C21.5695 21.3065 21.3505 21.6281 21.2442 21.966C20.9463 22.9245 21.6246 23.8881 22.2615 24.6702C22.5631 25.0331 22.911 25.4298 23.3815 25.4786C23.6731 25.5086 23.9596 25.3972 24.2399 25.3084C25.0433 25.0506 25.9043 24.9655 26.7414 25.0531C26.5412 25.1895 26.7189 25.5249 26.9517 25.5899C27.1844 25.655 27.4435 25.595 27.6675 25.6888C28.1768 25.909 28.0554 26.6686 27.7876 27.1517C27.9065 27.1366 28.0304 27.1216 28.153 27.1066C28.0779 27.2693 28.0028 27.4332 27.9265 27.5921C28.6348 27.7298 28.845 28.6858 28.6323 29.3779C28.4233 30.0711 27.964 30.6905 27.9065 31.4113C27.8777 31.8068 27.974 32.1985 28.0717 32.5826C28.3144 33.5562 28.5572 34.531 28.8 35.5083C29.6446 35.666 30.2052 34.6136 31.0174 34.3258C31.3227 34.2157 31.6731 34.2119 31.9196 34.0054C32.1574 33.8065 32.1173 33.3047 31.8283 33.2859C32.2225 33.2696 32.5804 32.933 32.6166 32.5388C32.6279 32.4287 32.6191 32.3173 32.6417 32.2085C32.678 32.0545 32.7856 31.9231 32.8894 31.7968C33.5502 30.9683 34.0057 30.001 34.4599 29.0462C34.58 28.791 34.6989 28.5382 34.8178 28.2829C35.2683 27.3306 35.715 26.3821 36.1655 25.4298C36.342 25.0556 36.5184 24.6852 36.6961 24.311C36.4646 24.6439 35.9203 24.5626 35.6249 24.2848C35.3259 24.0057 35.1882 23.604 34.9617 23.2649C34.7703 22.9733 34.505 22.7093 34.4274 22.3639C34.3823 22.1662 34.4074 21.9585 34.3861 21.7545C34.3385 21.3128 34.0732 20.9286 33.9006 20.5206C33.7279 20.1127 33.659 19.5921 33.9581 19.2643C34.6664 20.7108 35.3008 22.195 35.864 23.7091C35.9503 23.4851 36.1305 23.2987 36.3507 23.2023C36.5122 23.1285 36.6886 23.106 36.8575 23.0472C37.303 22.8845 37.6334 22.444 37.6634 21.9722C37.6897 21.5005 37.4194 21.0212 36.9939 20.8072C36.7837 20.7021 36.5384 20.6558 36.3407 20.5169C36.143 20.3817 36.0129 20.0952 36.1555 19.9012C36.2894 19.7185 36.5822 19.741 36.7762 19.8612C36.9702 19.985 37.1066 20.1803 37.2893 20.3179C37.4207 20.418 37.5758 20.4893 37.7185 20.582C38.4918 21.0938 38.622 22.1524 38.7309 23.0759C38.7909 23.5727 38.8622 24.0658 38.9523 24.5526C38.9624 24.4499 38.9699 24.3436 38.9761 24.241C39.2652 19.8161 37.8174 15.6878 35.2195 12.5081ZM36.3995 18.1318C36.2894 18.1167 36.1918 18.0379 36.1092 17.9641C35.9716 17.8402 35.8364 17.6988 35.8064 17.5173C35.7701 17.3008 35.889 17.0643 35.7876 16.8666C35.7401 16.7715 35.6487 16.7089 35.5736 16.6389C35.3747 16.4587 35.2383 16.2084 35.1982 15.9469C35.1632 15.7154 35.2558 15.4163 35.4898 15.3925C35.6012 15.38 35.7188 15.4488 35.7613 15.5552L35.5999 15.629C35.8602 15.6766 35.9566 16.0795 35.7438 16.2372C35.715 16.2622 35.68 16.2822 35.6775 16.321C35.6763 16.3435 35.69 16.3673 35.7075 16.3836C35.8602 16.5725 36.0992 16.6526 36.3044 16.7815C36.5109 16.9054 36.7061 17.1244 36.6573 17.3572C36.5873 17.3797 36.5209 17.3985 36.4509 17.4197C36.3733 17.4873 36.4221 17.6199 36.4947 17.6975C36.566 17.7751 36.6598 17.8527 36.6573 17.9603C36.6486 18.0754 36.5134 18.1468 36.3995 18.1318Z" fill="#E8EFF3"/>
<path d="M35.751 29.8362L35.4645 30.0126C35.5383 30.3555 35.3205 30.7372 34.9877 30.8473C34.8112 30.9061 34.581 30.9211 34.5122 31.0938C34.4533 31.2402 34.561 31.3991 34.566 31.5568C34.5747 31.8171 34.3194 31.9948 34.133 32.1763C33.9465 32.3577 33.8302 32.7131 34.0554 32.8445C34.108 32.8745 34.1693 32.8845 34.2293 32.8945C34.4809 32.9333 34.7562 32.9584 34.9727 32.8245C35.5908 32.4403 35.1041 31.2602 35.716 30.8648C35.8023 30.8085 35.9099 30.771 35.9625 30.6821C36.1127 30.4168 35.6221 30.114 35.751 29.8362Z" fill="#E8EFF3"/>
<path d="M17.3737 10.1204C17.206 10.2417 17.0346 10.3569 16.8544 10.4607C16.7092 10.5446 16.6154 10.5921 16.5503 10.6197C16.2262 10.94 15.8921 11.2466 15.5792 11.5795C15.2614 11.9186 14.9648 12.274 14.6607 12.6244C14.6557 12.6331 14.6582 12.6319 14.6519 12.6419C13.7585 14.2136 12.8087 15.7716 11.6699 17.1806C26.5901 25.2257 31.8258 33.6187 27.0405 39.2736C27.0506 39.2699 27.0618 39.2649 27.0718 39.2611C30.7984 37.7069 33.3487 33.9991 33.0509 29.9709C32.6142 24.0582 27.5298 17.068 17.3737 10.1204Z" fill="#FFD93B"/>
<path d="M17.4889 2.54851L15.0625 2.97147L14.2078 2.11678C13.9462 1.85525 13.5208 1.85525 13.258 2.11678C12.9964 2.37832 12.9964 2.80379 13.258 3.06533L13.4457 3.25303L12.3682 3.44074L11.6612 2.73371C11.3997 2.47092 10.9742 2.47092 10.7114 2.73371C10.4499 2.99525 10.4499 3.42072 10.7114 3.68225L10.7502 3.7223L7.93713 4.21158L5.82231 2.09676C5.13906 1.41351 4.34944 0.842886 3.47223 0.439944C2.81651 0.139614 2.08196 -0.084382 1.4888 0.0307444C1.25104 0.0770452 1.06334 0.264751 1.01704 0.502512C0.888145 1.16699 1.18472 2.00917 1.53886 2.71995C1.92428 3.4933 2.4411 4.19281 3.05177 4.80474L5.19913 6.95209L4.70859 9.76518L4.66855 9.72639C4.40576 9.46485 3.98154 9.46485 3.71875 9.72639C3.45596 9.98793 3.45596 10.4134 3.71875 10.6749L4.42578 11.382L4.23807 12.4594L4.05037 12.2729C3.78883 12.0101 3.36336 12.0101 3.10057 12.2729C2.83904 12.5345 2.83904 12.9599 3.10057 13.2215L3.95526 14.0762L3.5323 16.5026C3.48725 16.7629 3.57109 17.0294 3.75754 17.2159C4.13546 17.5938 4.76865 17.5099 5.0352 17.0482L6.12139 15.1649C6.75959 15.7217 7.47037 15.937 7.47037 15.937C7.47037 15.937 7.2201 15.0973 6.54936 14.424L7.27641 13.1652C7.93463 13.7796 8.71048 14.0136 8.71048 14.0136C8.71048 14.0136 8.46021 13.1702 7.78572 12.4957C7.76069 12.4681 7.73316 12.4469 7.70688 12.4218L8.79057 10.5435L11.5173 13.2703L10.7615 16.6577C10.6414 17.2534 10.9855 17.8491 11.5624 18.0405C12.1405 18.232 12.7737 17.9579 13.0377 17.3973L14.0526 14.9258C14.7133 15.0347 15.3753 15.0247 15.6869 14.9359C16.0148 15.1386 16.235 15.2487 16.235 15.2487C16.235 15.2487 16.1249 15.0285 15.9221 14.7006C16.011 14.3903 16.021 13.7283 15.9121 13.0663L18.3986 12.0452C18.525 11.9864 18.6376 11.9063 18.7352 11.8087C19.0593 11.4833 19.172 11.0115 19.0281 10.5773C18.8366 9.99919 18.2409 9.65506 17.6453 9.77644L14.2578 10.5323L11.5298 7.80428L13.4081 6.72059C13.4332 6.74687 13.4544 6.7744 13.4807 6.80068C14.1552 7.47517 14.9986 7.72544 14.9986 7.72544C14.9986 7.72544 14.7634 6.95084 14.149 6.29137L15.4078 5.56432C16.0823 6.23506 16.922 6.48533 16.922 6.48533C16.922 6.48533 16.7068 5.7758 16.1499 5.13635L18.0332 4.05016C18.4962 3.78361 18.5788 3.15042 18.2022 2.7725C18.0157 2.5873 17.7492 2.50221 17.4889 2.54851Z" fill="#5A5F63"/>
<path d="M30.5327 34.8177C30.4213 35.5998 30.4301 35.5911 29.9195 37.1203C30.2124 36.0241 30.3388 35.7713 30.4076 34.8052C31.0095 30.5918 28.1388 25.2835 25.4772 22.3916C24.1445 20.7798 22.3412 18.9991 20.6093 17.5738C19.1177 16.3287 18.4444 15.8895 17.1931 14.996C16.9053 14.8083 16.8302 14.4078 17.0304 14.1325C17.2306 13.8447 17.6185 13.7696 17.9064 13.9698C17.9064 13.9824 17.9189 13.9824 17.9314 13.9949C19.159 14.9497 19.6908 15.3126 21.2976 16.7729C23.1258 18.436 24.7964 20.2668 26.0653 21.9286C28.8183 25.3211 31.1909 30.1977 30.5327 34.8177Z" fill="#E9B02C"/>
</g>
<defs>
<clipPath id="clip0_260_1628">
<rect width="40" height="40" fill="white"/>
</clipPath>
</defs>
</svg>
