<svg width="40" height="40" viewBox="0 0 40 40" fill="none" xmlns="http://www.w3.org/2000/svg">
<path d="M32.5712 40H7.42758C6.16992 40 5.15039 38.9805 5.15039 37.7228V2.27719C5.15039 1.01953 6.16992 0 7.42758 0H32.5713C33.8289 0 34.8484 1.01953 34.8484 2.27719V37.7228C34.8484 38.9805 33.8288 40 32.5712 40Z" fill="#FFE8D2"/>
<path d="M32.5712 0H30.4713V10.36C30.4713 24.1127 19.3226 35.2614 5.56992 35.2614H5.15039V37.7228C5.15039 38.9805 6.16992 40 7.42758 40H32.5713C33.8289 40 34.8484 38.9805 34.8484 37.7228V2.27719C34.8484 1.01953 33.8288 0 32.5712 0Z" fill="#F7D4AD"/>
<path d="M31.7402 17.9415H10.6625C10.3279 17.9415 10.0566 17.6702 10.0566 17.3356C10.0566 17.001 10.3279 16.7297 10.6625 16.7297H31.7402C32.0748 16.7297 32.3461 17.001 32.3461 17.3356C32.3461 17.6702 32.0748 17.9415 31.7402 17.9415Z" fill="#E2A876"/>
<path d="M31.7402 21.1961H10.6625C10.3279 21.1961 10.0566 20.9248 10.0566 20.5902C10.0566 20.2556 10.3279 19.9844 10.6625 19.9844H31.7402C32.0748 19.9844 32.3461 20.2556 32.3461 20.5902C32.3461 20.9249 32.0748 21.1961 31.7402 21.1961Z" fill="#E2A876"/>
<path d="M20 24.451H10.6625C10.3279 24.451 10.0566 24.1797 10.0566 23.8451C10.0566 23.5105 10.3279 23.2393 10.6625 23.2393H20C20.3346 23.2393 20.6059 23.5105 20.6059 23.8451C20.6059 24.1797 20.3346 24.451 20 24.451Z" fill="#E2A876"/>
<path d="M20 27.7054H10.6625C10.3279 27.7054 10.0566 27.4341 10.0566 27.0995C10.0566 26.7649 10.3279 26.4937 10.6625 26.4937H20C20.3346 26.4937 20.6059 26.7649 20.6059 27.0995C20.6059 27.4341 20.3346 27.7054 20 27.7054Z" fill="#E2A876"/>
<path d="M31.7402 11.4317H10.6625C10.3279 11.4317 10.0566 11.1604 10.0566 10.8258C10.0566 10.4912 10.3279 10.22 10.6625 10.22H31.7402C32.0748 10.22 32.3461 10.4912 32.3461 10.8258C32.3461 11.1604 32.0748 11.4317 31.7402 11.4317Z" fill="#E2A876"/>
<path d="M31.7402 14.6866H10.6625C10.3279 14.6866 10.0566 14.4153 10.0566 14.0807C10.0566 13.7461 10.3279 13.4749 10.6625 13.4749H31.7402C32.0748 13.4749 32.3461 13.7461 32.3461 14.0807C32.3461 14.4153 32.0748 14.6866 31.7402 14.6866Z" fill="#E2A876"/>
<path d="M8.43398 17.9415C8.76859 17.9415 9.03984 17.6702 9.03984 17.3356C9.03984 17.001 8.76859 16.7297 8.43398 16.7297C8.09938 16.7297 7.82812 17.001 7.82812 17.3356C7.82812 17.6702 8.09938 17.9415 8.43398 17.9415Z" fill="#E2A876"/>
<path d="M8.43398 11.4317C8.76859 11.4317 9.03984 11.1604 9.03984 10.8258C9.03984 10.4912 8.76859 10.22 8.43398 10.22C8.09938 10.22 7.82812 10.4912 7.82812 10.8258C7.82812 11.1604 8.09938 11.4317 8.43398 11.4317Z" fill="#E2A876"/>
<path d="M8.43398 14.6866C8.76859 14.6866 9.03984 14.4153 9.03984 14.0807C9.03984 13.7461 8.76859 13.4749 8.43398 13.4749C8.09938 13.4749 7.82812 13.7461 7.82812 14.0807C7.82812 14.4153 8.09938 14.6866 8.43398 14.6866Z" fill="#E2A876"/>
<path d="M8.43398 21.1961C8.76859 21.1961 9.03984 20.9248 9.03984 20.5902C9.03984 20.2556 8.76859 19.9844 8.43398 19.9844C8.09938 19.9844 7.82812 20.2556 7.82812 20.5902C7.82812 20.9248 8.09938 21.1961 8.43398 21.1961Z" fill="#E2A876"/>
<path d="M8.43398 24.451C8.76859 24.451 9.03984 24.1797 9.03984 23.8451C9.03984 23.5105 8.76859 23.2393 8.43398 23.2393C8.09938 23.2393 7.82812 23.5105 7.82812 23.8451C7.82812 24.1797 8.09938 24.451 8.43398 24.451Z" fill="#E2A876"/>
<path d="M8.43398 27.7054C8.76859 27.7054 9.03984 27.4341 9.03984 27.0995C9.03984 26.7649 8.76859 26.4937 8.43398 26.4937C8.09938 26.4937 7.82812 26.7649 7.82812 27.0995C7.82812 27.4341 8.09938 27.7054 8.43398 27.7054Z" fill="#E2A876"/>
<path d="M20 30.9603H10.6625C10.3279 30.9603 10.0566 30.689 10.0566 30.3544C10.0566 30.0198 10.3279 29.7485 10.6625 29.7485H20C20.3346 29.7485 20.6059 30.0198 20.6059 30.3544C20.6059 30.6891 20.3346 30.9603 20 30.9603Z" fill="#E2A876"/>
<path d="M8.43398 30.9603C8.76859 30.9603 9.03984 30.689 9.03984 30.3544C9.03984 30.0198 8.76859 29.7485 8.43398 29.7485C8.09938 29.7485 7.82812 30.0198 7.82812 30.3544C7.82812 30.689 8.09938 30.9603 8.43398 30.9603Z" fill="#E2A876"/>
<path d="M20 34.2149H10.6625C10.3279 34.2149 10.0566 33.9436 10.0566 33.609C10.0566 33.2744 10.3279 33.0032 10.6625 33.0032H20C20.3346 33.0032 20.6059 33.2744 20.6059 33.609C20.6059 33.9436 20.3346 34.2149 20 34.2149Z" fill="#E2A876"/>
<path d="M11.8204 37.4698H8.43398C8.09938 37.4698 7.82812 37.1985 7.82812 36.8639C7.82812 36.5293 8.09938 36.2581 8.43398 36.2581H11.8204C12.155 36.2581 12.4263 36.5293 12.4263 36.8639C12.4263 37.1985 12.1551 37.4698 11.8204 37.4698Z" fill="#6E4848"/>
<path d="M31.1232 37.4698H27.7367C27.4021 37.4698 27.1309 37.1985 27.1309 36.8639C27.1309 36.5293 27.4021 36.2581 27.7367 36.2581H31.1232C31.4578 36.2581 31.7291 36.5293 31.7291 36.8639C31.7291 37.1985 31.4579 37.4698 31.1232 37.4698Z" fill="#6E4848"/>
<path d="M8.43398 34.2149C8.76859 34.2149 9.03984 33.9436 9.03984 33.609C9.03984 33.2744 8.76859 33.0032 8.43398 33.0032C8.09938 33.0032 7.82812 33.2744 7.82812 33.609C7.82812 33.9436 8.09938 34.2149 8.43398 34.2149Z" fill="#E2A876"/>
<path d="M17.1655 4.6646H16.1219V3.70757H17.308C17.6427 3.70757 17.9138 3.43632 17.9138 3.10171C17.9138 2.7671 17.6426 2.49585 17.308 2.49585H15.516C15.1814 2.49585 14.9102 2.7671 14.9102 3.10171V7.52296C14.9102 7.85757 15.1814 8.12882 15.516 8.12882C15.8507 8.12882 16.1219 7.85757 16.1219 7.52296V5.87632H17.1655C17.5002 5.87632 17.7714 5.60507 17.7714 5.27046C17.7714 4.93585 17.5002 4.6646 17.1655 4.6646Z" fill="#6E4848"/>
<path d="M21.7301 4.6646H20.6863V3.70757H21.8724C22.2071 3.70757 22.4783 3.43632 22.4783 3.10171C22.4783 2.7671 22.207 2.49585 21.8724 2.49585H20.0805C19.7459 2.49585 19.4746 2.7671 19.4746 3.10171V7.52296C19.4746 7.85757 19.7459 8.12882 20.0805 8.12882C20.4152 8.12882 20.6863 7.85757 20.6863 7.52296V5.87632H21.7301C22.0647 5.87632 22.3359 5.60507 22.3359 5.27046C22.3359 4.93585 22.0648 4.6646 21.7301 4.6646Z" fill="#6E4848"/>
<path d="M26.1745 6.87105H24.9208V5.87612H26.0373C26.372 5.87612 26.6432 5.60487 26.6432 5.27026C26.6432 4.93565 26.372 4.6644 26.0373 4.6644H24.9208V3.66948H26.1745C26.5091 3.66948 26.7803 3.39823 26.7803 3.06362C26.7803 2.72901 26.5091 2.45776 26.1745 2.45776H24.3148C23.9802 2.45776 23.709 2.72901 23.709 3.06362V7.4769C23.709 7.81151 23.9802 8.08276 24.3148 8.08276H26.1745C26.5091 8.08276 26.7803 7.81151 26.7803 7.4769C26.7803 7.14229 26.5091 6.87105 26.1745 6.87105Z" fill="#6E4848"/>
<path d="M30.8926 5.86758C31.6093 5.62875 32.1256 4.97203 32.1256 4.20086C32.1256 3.22852 31.3052 2.4375 30.2967 2.4375H29.1131C29.1129 2.4375 29.1127 2.4375 29.1124 2.4375C29.1122 2.4375 29.112 2.4375 29.1117 2.4375C28.7771 2.4375 28.5059 2.70875 28.5059 3.04336V7.49727C28.5059 7.83187 28.7771 8.10312 29.1117 8.10312C29.4464 8.10312 29.7176 7.83187 29.7176 7.49727V6.36664L31.0649 7.8975C31.1847 8.03359 31.352 8.10312 31.52 8.10312C31.6621 8.10312 31.8049 8.05336 31.92 7.95203C32.1712 7.73102 32.1955 7.34812 31.9745 7.09695L30.8926 5.86758ZM30.2968 3.64914C30.6313 3.64914 30.9139 3.9018 30.9139 4.20078C30.9139 4.49984 30.6313 4.75242 30.2968 4.75242C30.1617 4.75242 29.9395 4.75328 29.724 4.7543C29.723 4.545 29.7221 4.33063 29.7221 4.20078C29.7221 4.08984 29.7216 3.86875 29.721 3.64914H30.2968Z" fill="#6E4848"/>
<path d="M10.5535 8.14487C8.99148 8.14487 7.7207 6.87409 7.7207 5.31206C7.7207 3.75003 8.99148 2.47925 10.5535 2.47925C12.1155 2.47925 13.3863 3.75003 13.3863 5.31206C13.3863 6.87409 12.1155 8.14487 10.5535 8.14487ZM10.5535 3.69104C9.65961 3.69104 8.93242 4.41823 8.93242 5.31214C8.93242 6.20605 9.65961 6.93323 10.5535 6.93323C11.4474 6.93323 12.1746 6.20605 12.1746 5.31214C12.1746 4.41823 11.4474 3.69104 10.5535 3.69104Z" fill="#6E4848"/>
<path d="M29.4289 27.1235C29.7636 27.1235 30.0348 26.8523 30.0348 26.5177V26.4016C30.0348 25.3051 29.1427 24.413 28.046 24.413H27.8088V23.9281C27.8088 23.5935 27.5376 23.3223 27.203 23.3223C26.8684 23.3223 26.5971 23.5935 26.5971 23.9281V24.413H26.3598C25.2632 24.413 24.3711 25.3051 24.3711 26.4016V27.4369C24.3711 28.5334 25.2632 29.4255 26.3598 29.4255H26.5971V32.0148H26.3598C25.9313 32.0148 25.5828 31.6663 25.5828 31.2379C25.5828 30.9033 25.3116 30.632 24.977 30.632C24.6423 30.632 24.3711 30.9033 24.3711 31.2379C24.3711 32.3345 25.2632 33.2266 26.3598 33.2266H26.5971V33.5263C26.5971 33.861 26.8684 34.1322 27.203 34.1322C27.5377 34.1322 27.8088 33.8609 27.8088 33.5263V33.2266H28.046C29.1426 33.2266 30.0348 32.3344 30.0348 31.2379V30.2026C30.0348 29.106 29.1427 28.2138 28.046 28.2138H27.8088V25.6246H28.046C28.4745 25.6246 28.823 25.9731 28.823 26.4016V26.5176C28.823 26.8523 29.0943 27.1235 29.4289 27.1235ZM28.0461 29.4255C28.4745 29.4255 28.823 29.7741 28.823 30.2025V31.2378C28.823 31.6663 28.4745 32.0148 28.0461 32.0148H27.8089V29.4255H28.0461V29.4255ZM26.5971 28.2138H26.3598C25.9313 28.2138 25.5828 27.8653 25.5828 27.4369V26.4016C25.5828 25.9732 25.9313 25.6247 26.3598 25.6247H26.5971V28.2138Z" fill="#FF8B59"/>
</svg>
