<svg width="40" height="40" viewBox="0 0 40 40" fill="none" xmlns="http://www.w3.org/2000/svg">
<path d="M31.3594 3.35938V23.6641H20.7891C20.2969 23.6641 19.8437 23.4063 19.5859 22.9844L17.7187 19.9219C17.4609 19.5 17.0078 19.2422 16.5156 19.2422H8.13281V6.13281L11.6641 2.60156H30.6094C31.0156 2.60156 31.3594 2.9375 31.3594 3.35938Z" fill="#EAEFFE"/>
<path d="M12.4922 16.7891H11.0312C10.6016 16.7891 10.2578 16.4375 10.2578 16.0156V8.78906C10.2578 8.35938 10.6016 8.01562 11.0312 8.01562H12.4922C12.0625 8.01562 11.7187 8.35938 11.7187 8.78906V16.0156C11.7109 16.4453 12.0547 16.7891 12.4922 16.7891Z" fill="#F3AE83"/>
<path d="M19.0313 8.78919V16.0158C19.0313 16.4376 18.6797 16.7892 18.2578 16.7892H12.4844C12.0547 16.7892 11.7109 16.4376 11.7109 16.0158V8.78919C11.7109 8.3595 12.0547 8.01575 12.4844 8.01575H18.2578C18.6875 8.00794 19.0313 8.3595 19.0313 8.78919Z" fill="#F6C9AF"/>
<path d="M8.13281 6.13281L11.6562 2.60156V5.375C11.6562 5.79688 11.3125 6.13281 10.8984 6.13281H8.13281Z" fill="#D5DCF8"/>
<path d="M10.3906 39.9219H5.64844C4.86719 39.9219 4.24219 39.2891 4.24219 38.5156V20.6484C4.24219 19.8672 4.86719 19.2422 5.64844 19.2422H10.3906C9.60937 19.2422 8.98437 19.8672 8.98437 20.6484V38.5156C8.98437 39.2891 9.60937 39.9219 10.3906 39.9219Z" fill="#66AFF1"/>
<path d="M35.7578 25.0703V38.5156C35.7578 39.2891 35.1328 39.9219 34.3516 39.9219H10.3906C9.60938 39.9219 8.98438 39.2891 8.98438 38.5156V20.6484C8.98438 19.8672 9.60938 19.2422 10.3906 19.2422H16.5234C17.0156 19.2422 17.4688 19.4922 17.7266 19.9219L19.5938 22.9844C19.8516 23.3984 20.3047 23.6641 20.7969 23.6641H34.3594C35.1328 23.6562 35.7578 24.2891 35.7578 25.0703Z" fill="#86C1F4"/>
<path d="M6.11719 19.2344H5.65625C4.875 19.2344 4.25 19.8594 4.25 20.6406V17.8594C4.25 17.1016 4.85156 16.4844 5.60156 16.4531L6.11719 19.2344Z" fill="#4C9CED"/>
<path d="M35.7578 17.8672V25.0703C35.7578 24.2891 35.1328 23.6641 34.3516 23.6641H31.3594V21.2578L32.8984 16.4609H34.3516C35.1328 16.4609 35.7578 17.0938 35.7578 17.8672Z" fill="#4C9CED"/>
<path d="M24.5078 6.47656H25.4844V5.5C25.4844 5.125 25.7891 4.8125 26.1719 4.8125C26.5547 4.8125 26.8594 5.11719 26.8594 5.5V6.47656H27.8359C28.2109 6.47656 28.5234 6.78125 28.5234 7.16406C28.5234 7.54688 28.2187 7.85156 27.8359 7.85156H26.8594V8.82812C26.8594 9.20312 26.5547 9.51563 26.1719 9.51563C25.7891 9.51563 25.4844 9.21094 25.4844 8.82812V7.85156H24.5078C23.6016 7.82812 23.6016 6.49219 24.5078 6.47656Z" fill="#F44A7E"/>
<path d="M17.0625 30.7812H18.6328V29.2109C18.6328 28.6016 19.125 28.1016 19.7422 28.1016C20.3594 28.1016 20.8516 28.5937 20.8516 29.2109V30.7812H22.4219C23.0313 30.7812 23.5313 31.2734 23.5313 31.8906C23.5313 32.5078 23.0391 33 22.4219 33H20.8516V34.5703C20.8516 35.1797 20.3594 35.6797 19.7422 35.6797C19.125 35.6797 18.6328 35.1875 18.6328 34.5703V33H17.0625C15.6094 32.9531 15.6094 30.8125 17.0625 30.7812Z" fill="#EAEFFE"/>
<path d="M16.6328 13.7422V15.3203H12.6484V13.7422C12.6484 13 13.0859 12.3594 13.7188 12.0703C14.2109 12.5078 15.0703 12.5078 15.5703 12.0703C16.1953 12.3594 16.6328 13 16.6328 13.7422Z" fill="#44569B"/>
<path d="M16.1016 10.9375C16.0547 12.8594 13.2344 12.8594 13.1875 10.9375C13.2344 9.01562 16.0547 9.01562 16.1016 10.9375Z" fill="#6A88C8"/>
<path d="M22.2813 2.60157H12.9453L13.5781 0.609379C13.7031 0.210942 14.1328 -0.0156209 14.5313 0.117192L22.2813 2.60157Z" fill="#C0C8F3"/>
<path d="M35.7031 7.69531C34.7109 10.7891 32.3203 18.2422 31.3594 21.25V5.50781L35.2187 6.74219C35.6172 6.875 35.8281 7.29688 35.7031 7.69531Z" fill="#C0C8F3"/>
<path d="M8.1331 7.8125V19.2422H6.11748C5.77373 17.4219 4.61748 11.1953 4.2581 9.27344C4.17998 8.875 4.43779 8.5 4.82842 8.42969L8.1331 7.8125Z" fill="#C0C8F3"/>
<path d="M23.0303 9.90625H20.9678C20.4209 9.90625 20.4131 9.0625 20.9678 9.0625H23.0303C23.585 9.0625 23.585 9.89844 23.0303 9.90625Z" fill="#44569B"/>
<path d="M28.5068 12.4766H20.9678C20.4209 12.4766 20.4131 11.6328 20.9678 11.6328H28.5068C29.0537 11.6328 29.0615 12.4688 28.5068 12.4766Z" fill="#44569B"/>
<path d="M28.5068 14.9688H20.9678C20.4209 14.9688 20.4131 14.125 20.9678 14.125H28.5068C29.0537 14.125 29.0615 14.9609 28.5068 14.9688Z" fill="#44569B"/>
<path d="M28.5068 17.5859H20.9678C20.4209 17.5859 20.4131 16.7422 20.9678 16.7422H28.5068C29.0537 16.75 29.0615 17.5859 28.5068 17.5859Z" fill="#44569B"/>
<path d="M28.5068 20.2109H20.9678C20.4209 20.2109 20.4131 19.3672 20.9678 19.3672H28.5068C29.0537 19.375 29.0615 20.2109 28.5068 20.2109Z" fill="#44569B"/>
</svg>
