<svg width="19" height="13" viewBox="0 0 19 13" fill="none" xmlns="http://www.w3.org/2000/svg">
<path d="M16.0596 12.0422H1.24572C0.915457 12.0418 0.59884 11.9104 0.365311 11.6769C0.131782 11.4434 0.000406857 11.1268 0 10.7965V2.7423C0.00401945 2.55784 0.0475482 2.37639 0.12765 2.21019C0.207752 2.04398 0.322565 1.89689 0.464345 1.77882C0.606124 1.66076 0.771573 1.57447 0.949533 1.52578C1.12749 1.47709 1.31383 1.46713 1.49596 1.49657C1.46649 1.31439 1.47642 1.12802 1.5251 0.950005C1.57377 0.771995 1.66005 0.606491 1.77811 0.464656C1.89618 0.322821 2.04329 0.207952 2.20951 0.127797C2.37574 0.047641 2.55723 0.00406255 2.74172 0H17.5555C17.8858 0.000410164 18.2024 0.131787 18.4359 0.365316C18.6695 0.598844 18.8008 0.915459 18.8013 1.24572V9.29991C18.7972 9.48441 18.7536 9.6659 18.6735 9.83213C18.5933 9.99836 18.4784 10.1455 18.3366 10.2635C18.1948 10.3816 18.0292 10.4679 17.8512 10.5165C17.6732 10.5652 17.4868 10.5751 17.3047 10.5456C17.3342 10.7278 17.3244 10.9141 17.2758 11.0922C17.2272 11.2702 17.141 11.4357 17.023 11.5775C16.905 11.7194 16.7579 11.8343 16.5917 11.9144C16.4255 11.9946 16.244 12.0382 16.0596 12.0422ZM1.24572 2.12157C1.08113 2.12171 0.923327 2.18715 0.806947 2.30353C0.690567 2.41991 0.625125 2.57771 0.624987 2.7423V10.7965C0.625125 10.9611 0.690567 11.1189 0.806947 11.2353C0.923327 11.3516 1.08113 11.4171 1.24572 11.4172H16.0596C16.2241 11.417 16.3817 11.3515 16.498 11.2351C16.6142 11.1187 16.6796 10.961 16.6797 10.7965V2.7423C16.6796 2.57781 16.6142 2.42008 16.498 2.30371C16.3817 2.18734 16.2241 2.12184 16.0596 2.12157H1.24572ZM17.3047 9.92064C17.7374 9.96868 18.1649 9.7923 18.1763 9.29989V1.24572C18.1761 1.08113 18.1107 0.923327 17.9943 0.806947C17.8779 0.690567 17.7201 0.625125 17.5555 0.624987H2.74169C2.25894 0.635906 2.06822 1.05925 2.12096 1.49657H16.0596C16.3898 1.497 16.7063 1.62841 16.9397 1.86195C17.1732 2.09549 17.3044 2.4121 17.3047 2.7423V9.92064ZM14.1254 10.5456H3.17931C3.13827 10.5457 3.09762 10.5376 3.0597 10.5219C3.02177 10.5062 2.98731 10.4832 2.95829 10.4542C2.92927 10.4251 2.90625 10.3907 2.89055 10.3528C2.87486 10.3148 2.86679 10.2742 2.86681 10.2331C2.86639 9.95264 2.75473 9.68375 2.55633 9.48546C2.35792 9.28717 2.08897 9.17566 1.80846 9.17541C1.76742 9.17543 1.72677 9.16736 1.68885 9.15166C1.65092 9.13597 1.61646 9.11295 1.58744 9.08393C1.55842 9.0549 1.5354 9.02045 1.5197 8.98252C1.50401 8.9446 1.49594 8.90395 1.49596 8.86291V4.67589C1.49594 4.63485 1.50401 4.5942 1.5197 4.55628C1.5354 4.51835 1.55842 4.48389 1.58744 4.45487C1.61646 4.42585 1.65092 4.40283 1.68885 4.38713C1.72677 4.37144 1.76742 4.36337 1.80846 4.36339C2.08897 4.36313 2.35792 4.25163 2.55633 4.05334C2.75473 3.85505 2.86639 3.58616 2.86681 3.30565C2.86679 3.26461 2.87486 3.22396 2.89055 3.18603C2.90625 3.14811 2.92927 3.11365 2.95829 3.08463C2.98731 3.05561 3.02177 3.03259 3.0597 3.01689C3.09762 3.00119 3.13827 2.99313 3.17931 2.99315H14.1254C14.1664 2.99313 14.207 3.00119 14.245 3.01689C14.2829 3.03259 14.3174 3.05561 14.3464 3.08463C14.3754 3.11365 14.3984 3.14811 14.4141 3.18603C14.4298 3.22396 14.4379 3.26461 14.4379 3.30565C14.4383 3.58616 14.5499 3.85505 14.7483 4.05334C14.9467 4.25163 15.2157 4.36313 15.4962 4.36339C15.5373 4.36337 15.5779 4.37144 15.6158 4.38713C15.6537 4.40283 15.6882 4.42585 15.7172 4.45487C15.7463 4.48389 15.7693 4.51835 15.785 4.55628C15.8007 4.5942 15.8087 4.63485 15.8087 4.67589V8.86291C15.8087 8.90395 15.8007 8.9446 15.785 8.98252C15.7693 9.02045 15.7463 9.0549 15.7172 9.08393C15.6882 9.11295 15.6537 9.13597 15.6158 9.15166C15.5779 9.16736 15.5373 9.17543 15.4962 9.17541C15.2157 9.17566 14.9467 9.28717 14.7483 9.48546C14.5499 9.68375 14.4383 9.95264 14.4379 10.2331C14.4379 10.2742 14.4298 10.3148 14.4141 10.3528C14.3984 10.3907 14.3754 10.4251 14.3464 10.4542C14.3174 10.4832 14.2829 10.5062 14.245 10.5219C14.207 10.5376 14.1664 10.5457 14.1254 10.5456ZM3.46251 9.92064H13.8422C13.9056 9.58837 14.0674 9.28283 14.3066 9.04366C14.5458 8.8045 14.8514 8.64274 15.1837 8.57939V4.95939C14.8514 4.89604 14.5458 4.73429 14.3066 4.49513C14.0674 4.25596 13.9056 3.95042 13.8422 3.61814H3.4625C3.39908 3.95042 3.23726 4.25596 2.99804 4.49513C2.75881 4.73429 2.45324 4.89604 2.12095 4.95939V8.57939C2.45324 8.64274 2.75881 8.8045 2.99804 9.04366C3.23726 9.28283 3.39909 9.58837 3.46251 9.92064ZM8.65233 8.81346C5.9274 8.78641 5.93046 4.75159 8.65239 4.72534C11.3826 4.75281 11.3651 8.78977 8.65233 8.81346ZM7.21438 6.7694C7.21724 7.14958 7.37054 7.51316 7.64076 7.78061C7.91098 8.04806 8.27611 8.19762 8.6563 8.19658C9.0365 8.19553 9.4008 8.04396 9.66954 7.77503C9.93828 7.5061 10.0896 7.14168 10.0904 6.76149C10.0875 6.3813 9.93419 6.01773 9.66397 5.75028C9.39376 5.48282 9.02862 5.33327 8.64843 5.33431C8.26824 5.33536 7.90393 5.48692 7.63519 5.75586C7.36645 6.02479 7.21515 6.38921 7.21438 6.7694ZM12.9871 7.82103C12.7086 7.82028 12.4418 7.7091 12.2452 7.5119C12.0486 7.31469 11.9382 7.04756 11.9383 6.76908C11.9384 6.49061 12.0489 6.22354 12.2456 6.02646C12.4424 5.82937 12.7092 5.71835 12.9877 5.71776C13.2662 5.71852 13.533 5.8297 13.7296 6.02691C13.9262 6.22412 14.0366 6.49125 14.0365 6.76972C14.0364 7.04819 13.9259 7.31526 13.7291 7.51235C13.5324 7.70943 13.2656 7.82045 12.9871 7.82103ZM12.5501 6.7697C12.548 6.82715 12.558 6.8844 12.5794 6.93777C12.6008 6.99114 12.6331 7.03944 12.6742 7.07959C12.7154 7.11974 12.7645 7.15083 12.8183 7.17089C12.8722 7.19094 12.9297 7.1995 12.9871 7.19603C13.0437 7.19697 13.0999 7.18663 13.1524 7.16563C13.205 7.14463 13.2529 7.11338 13.2932 7.0737C13.3336 7.03403 13.3657 6.98672 13.3876 6.93453C13.4095 6.88234 13.4208 6.82631 13.4208 6.76971C13.4208 6.71311 13.4096 6.65707 13.3878 6.60485C13.366 6.55263 13.334 6.50527 13.2937 6.46554C13.2534 6.4258 13.2056 6.39449 13.153 6.37341C13.1005 6.35233 13.0443 6.34191 12.9877 6.34276C12.9302 6.33929 12.8727 6.34786 12.8187 6.36794C12.7648 6.38802 12.7156 6.41917 12.6744 6.45937C12.6332 6.49957 12.6008 6.54795 12.5794 6.60139C12.558 6.65483 12.548 6.71216 12.5501 6.7697ZM4.32188 7.82103C4.1818 7.8249 4.0424 7.80025 3.91215 7.74858C3.78189 7.69691 3.6635 7.61929 3.56418 7.52045C3.46485 7.42161 3.38665 7.3036 3.33434 7.1736C3.28203 7.0436 3.2567 6.90432 3.25988 6.76423C3.26827 6.48816 3.38384 6.2262 3.58209 6.03389C3.78034 5.84157 4.04569 5.73402 4.32189 5.73402C4.59809 5.73402 4.86344 5.84157 5.06169 6.03389C5.25994 6.2262 5.37551 6.48816 5.3839 6.76423C5.38686 6.90427 5.36138 7.04345 5.30899 7.17335C5.2566 7.30325 5.17839 7.42117 5.0791 7.51997C4.97982 7.61876 4.86151 7.69639 4.73136 7.74814C4.6012 7.79988 4.46189 7.82468 4.32188 7.82103ZM3.88487 6.7694C3.88556 6.8853 3.93226 6.99619 4.0147 7.07766C4.09714 7.15913 4.20857 7.20451 4.32447 7.20383C4.44037 7.20314 4.55126 7.15644 4.63273 7.074C4.7142 6.99156 4.75959 6.88013 4.7589 6.76423C4.75856 6.70684 4.74692 6.65008 4.72465 6.59719C4.70237 6.5443 4.6699 6.49631 4.62907 6.45597C4.58825 6.41563 4.53989 6.38373 4.48674 6.36208C4.43359 6.34043 4.37669 6.32946 4.3193 6.3298C4.26191 6.33014 4.20515 6.34178 4.15226 6.36406C4.09937 6.38633 4.05139 6.41881 4.01105 6.45963C3.97071 6.50045 3.9388 6.54881 3.91715 6.60197C3.8955 6.65512 3.88454 6.71201 3.88487 6.7694Z" fill="black"/>
</svg>
