<svg width="62" height="62" viewBox="0 0 62 62" fill="none" xmlns="http://www.w3.org/2000/svg">
<g clip-path="url(#clip0_66_1493)">
<path d="M11.8246 52.8437C11.8048 52.826 11.7844 52.8091 11.7633 52.793C11.1312 52.2684 10.4991 51.7058 9.91763 51.1243C9.54818 50.7588 8.95341 50.7588 8.58396 51.1243C8.2142 51.4946 8.2142 52.0941 8.58396 52.4643C9.21603 53.0964 9.8481 53.6842 10.556 54.2531C10.9452 54.6034 11.5447 54.5718 11.8951 54.1826C12.2452 53.7934 12.2138 53.194 11.8246 52.8437Z" fill="#002661"/>
<path d="M1.90284 24.7351C1.40856 24.5623 0.867829 24.8232 0.695116 25.3175C0.669517 25.3908 0.652925 25.4672 0.645973 25.5444C0.456352 26.4104 0.310976 27.2889 0.203524 28.1675C0.135893 28.6814 0.493328 29.1543 1.00625 29.2294H1.12635C1.60624 29.2297 2.01061 28.8715 2.06813 28.3951C2.16926 27.5734 2.30832 26.7454 2.48529 25.9426C2.65801 25.4484 2.39712 24.9076 1.90284 24.7351Z" fill="#002661"/>
<path d="M7.1119 47.8186C6.6252 47.1486 6.16379 46.4533 5.7403 45.7454C5.47262 45.2953 4.8908 45.1474 4.44077 45.4151C4.43998 45.4156 4.43903 45.4161 4.43824 45.4167C3.98821 45.6844 3.8403 46.2662 4.10799 46.7162C4.10846 46.717 4.10893 46.718 4.10957 46.7188C4.56466 47.4772 5.05767 48.2231 5.58229 48.9373C5.90575 49.3491 6.50179 49.4205 6.91358 49.0971C7.30531 48.7893 7.39206 48.2307 7.1119 47.8186Z" fill="#002661"/>
<path d="M3.80474 41.8392C3.50135 41.0744 3.22324 40.2843 2.98937 39.4879C2.84352 38.9851 2.31748 38.6956 1.81467 38.8415C1.80582 38.844 1.79713 38.8467 1.78844 38.8495C1.29084 39.0015 1.00878 39.5263 1.15637 40.0252C1.4092 40.8722 1.69995 41.7191 2.02863 42.5535C2.22583 43.0439 2.78332 43.2816 3.2738 43.0844C3.76429 42.8872 4.00195 42.3297 3.80474 41.8392Z" fill="#002661"/>
<path d="M4.37166 18.2345C3.90393 17.9989 3.33365 18.1871 3.09804 18.6548C2.69984 19.4449 2.33324 20.2603 2.01089 21.0883C1.82079 21.5734 2.05797 22.1211 2.54182 22.3145C3.02867 22.5073 3.57968 22.269 3.77246 21.7822C3.77309 21.7806 3.77373 21.7788 3.77436 21.7773C4.07775 21.0061 4.40643 20.2413 4.79199 19.5081C5.02759 19.0404 4.8394 18.4703 4.37166 18.2345Z" fill="#002661"/>
<path d="M2.09943 35.2431C2.09927 35.2423 2.09927 35.2414 2.09911 35.2406C1.99798 34.4189 1.92846 33.5846 1.89685 32.7629C1.87773 32.2392 1.43765 31.8304 0.913984 31.8495C0.390315 31.8686 -0.0184758 32.3087 0.000644283 32.8324C0.000644283 33.7173 0.101775 34.6085 0.215548 35.4871C0.280335 35.9466 0.668268 36.2915 1.13205 36.3024H1.27742C1.79699 36.2369 2.16501 35.7625 2.09943 35.2431Z" fill="#002661"/>
<path d="M27.2522 3.61484C27.2016 3.09117 26.7361 2.70782 26.2124 2.75839C25.3338 2.84688 24.4489 2.97329 23.5767 3.14395C23.053 3.19278 22.6682 3.65687 22.7171 4.18054C22.7659 4.70421 23.23 5.08898 23.7537 5.04016L23.7473 5.01487H23.9306C24.746 4.85686 25.574 4.73676 26.3957 4.65459C26.9194 4.60403 27.3027 4.13851 27.2522 3.61484Z" fill="#002661"/>
<path d="M8.48936 12.4985C8.09495 12.1495 7.49211 12.1863 7.14305 12.5807C6.56155 13.2444 6.00532 13.946 5.48703 14.6665C5.17984 15.0905 5.27449 15.6834 5.69861 15.9906C5.85963 16.1072 6.05305 16.1702 6.25183 16.1709V16.1835C6.55696 16.1846 6.84392 16.0388 7.02296 15.7916C7.50965 15.1216 8.02795 14.4643 8.57153 13.8448C8.92059 13.4504 8.88377 12.8478 8.48936 12.4985Z" fill="#002661"/>
<path d="M33.5008 2.91632C32.6285 2.78359 31.7373 2.68878 30.8524 2.63821C30.3288 2.60677 29.8789 3.00576 29.8474 3.52943C29.816 4.0531 30.215 4.50298 30.7387 4.53442C31.573 4.59763 32.401 4.68612 33.2164 4.81253H33.3617C33.8854 4.85093 34.341 4.45762 34.3794 3.93396C34.4178 3.41044 34.0245 2.95472 33.5008 2.91632Z" fill="#002661"/>
<path d="M13.8732 7.98092C13.5766 7.57814 13.0181 7.47495 12.5972 7.74532C11.8703 8.24465 11.1561 8.78823 10.4734 9.35078C10.0702 9.68593 10.015 10.2843 10.3502 10.6876C10.6853 11.0909 11.2837 11.146 11.687 10.8109C12.3191 10.2799 12.9891 9.77426 13.6717 9.30653C14.0934 8.99619 14.1835 8.40267 13.8732 7.98092Z" fill="#002661"/>
<path d="M17.0541 7.2145C17.051 7.2145 17.048 7.21387 17.0448 7.21387C17.0415 7.21387 17.0383 7.2145 17.0352 7.2145H17.0541Z" fill="#002661"/>
<path d="M20.3978 4.99369C20.2592 4.48883 19.7375 4.19176 19.2324 4.33049C19.188 4.34266 19.1446 4.35815 19.1024 4.37664C18.2744 4.68003 17.4464 5.0087 16.65 5.40691C16.1751 5.62782 15.9694 6.19178 16.1903 6.66646C16.3452 6.99941 16.6786 7.2121 17.0452 7.21399C17.182 7.21131 17.3168 7.17955 17.4401 7.11982C18.1859 6.76586 18.957 6.4435 19.7345 6.15907C20.2397 6.02033 20.5366 5.49856 20.3978 4.99369Z" fill="#002661"/>
<path d="M31.8609 59.8374C31.8277 59.3137 31.3764 58.9161 30.8528 58.9493C30.0247 59.0125 29.1904 59.0315 28.3624 59.0062C27.8387 58.9923 27.4029 59.4054 27.389 59.929C27.3751 60.4527 27.7882 60.8885 28.3118 60.9024H29.1146C29.7466 60.9024 30.3787 60.9024 30.9728 60.8455C31.4965 60.8125 31.8941 60.361 31.8609 59.8374Z" fill="#002661"/>
<path d="M56.6746 37.873C56.1667 37.7439 55.6502 38.0509 55.5211 38.5588C55.3188 39.3615 55.0723 40.1579 54.7942 40.9354C54.6294 41.4236 54.8847 41.9543 55.3694 42.13C55.8622 42.3068 56.4052 42.0505 56.582 41.5576C56.5823 41.5567 56.5826 41.5557 56.5829 41.5548C56.88 40.7205 57.1391 39.8672 57.3604 39.0265C57.4896 38.5186 57.1824 38.0022 56.6746 37.873Z" fill="#002661"/>
<path d="M57.8862 27.0172C57.7408 26.1449 57.5575 25.2663 57.3363 24.413C57.1849 23.9118 56.6557 23.6282 56.1545 23.7797C55.6793 23.9232 55.3954 24.4089 55.5033 24.8934C55.7119 25.6898 55.8826 26.5115 56.0216 27.3269C56.1033 27.7736 56.4903 28.0996 56.9444 28.1043H57.1025C57.619 28.0204 57.9698 27.5339 57.8862 27.0172Z" fill="#002661"/>
<path d="M61.9157 16.135C61.8711 16.0382 61.8101 15.9498 61.7354 15.874L60.0604 14.1295C59.8205 13.8899 59.468 13.8024 59.1439 13.9019L56.1226 14.8184L52.583 11.064L60.5281 6.63947C60.9911 6.4263 61.1936 5.87814 60.9802 5.41531C60.9357 5.31844 60.8747 5.23011 60.7999 5.15426L58.5687 2.92306C58.3255 2.68935 57.9741 2.60686 57.6522 2.70815L47.5834 5.75473L44.1955 2.15825C43.3321 1.1599 41.9265 0.826324 40.7065 1.33024H40.6496C39.7297 1.70885 38.9992 2.43936 38.6206 3.35918C38.5252 3.59937 38.4574 3.84951 38.4184 4.10503L38.0328 3.97229C37.5336 3.81175 36.9987 4.08622 36.8382 4.5854C36.6776 5.08458 36.9521 5.61946 37.4513 5.78001C37.938 5.93803 38.4247 6.11501 38.9114 6.29831C39.0579 6.52743 39.2296 6.73949 39.4234 6.93038L42.9945 10.3183L41.9706 13.6998C31.9558 6.55603 18.046 8.88347 10.9022 18.8983C3.75837 28.9131 6.0858 42.8228 16.1006 49.9666C26.1154 57.1104 40.0252 54.7829 47.169 44.7681C52.8659 36.7817 52.6671 26.0086 46.6795 18.2379L48.2976 15.3178L52.0521 18.8574L51.1482 21.8471C51.0394 22.1756 51.125 22.5374 51.3695 22.7825C51.3695 22.7825 53.2214 24.6155 53.2657 24.6787C53.7035 24.9325 54.2643 24.7833 54.5183 24.3455C54.5222 24.3387 54.5262 24.3317 54.5298 24.3248L57.0012 19.7928L61.4636 17.3594C61.9266 17.146 62.129 16.5979 61.9157 16.135ZM14.7221 17.3845C18.5327 13.5756 23.7013 11.4381 29.089 11.443C29.5105 11.443 29.9317 11.4557 30.3532 11.481C33.937 14.7867 32.8814 17.8017 30.4796 20.5196C29.0622 22.0228 27.5416 23.4252 25.9287 24.7165C23.5963 26.7012 21.422 28.5532 20.6003 30.4051C19.6269 32.6047 20.3412 34.5957 24.2727 36.3339C26.2384 37.2062 27.3066 37.8825 27.7237 38.3945C27.7299 38.4019 27.7359 38.4071 27.7421 38.4117C27.7291 38.4156 27.716 38.4199 27.6985 38.4261C26.7466 38.7886 25.7334 38.9624 24.7151 38.9381C19.9493 39.1403 16.5551 36.0937 13.9194 33.7361C12.0231 32.0485 10.4493 30.6453 8.81223 30.6327C9.08276 25.6395 11.1874 20.9217 14.7221 17.3845ZM49.4796 31.783H49.4859C49.4831 40.5925 43.8199 48.4027 35.4476 51.1433C35.2125 49.6619 35.4865 48.1445 36.2251 46.8389C37.2266 45.2305 38.5116 43.8172 40.0175 42.6673C45.8515 37.8003 46.1802 35.0824 46.433 32.9903C46.591 31.6693 46.7111 30.6832 49.3216 29.2484C49.4263 30.0892 49.4791 30.9357 49.4796 31.783ZM48.3039 24.944C48.5865 25.7398 48.8186 26.5527 48.9992 27.3775C45.0235 29.4001 44.8465 30.8412 44.6063 32.807C44.3914 34.5768 44.1133 36.8901 38.8419 41.2893C37.1534 42.5811 35.7178 44.1732 34.607 45.9856C33.6385 47.6976 33.3029 49.6956 33.6589 51.63C22.6942 54.1365 11.7738 47.2798 9.26732 36.3153C8.98068 35.0613 8.8135 33.7829 8.76799 32.4973C9.77298 32.4973 11.075 33.6919 12.6742 35.114C15.5691 37.6992 19.273 40.9986 24.7909 40.8027C26.0911 40.8251 27.382 40.5799 28.5834 40.0821C29.0898 39.8582 29.4732 39.4241 29.6326 38.8938C29.7672 38.3023 29.5964 37.6828 29.1775 37.2441C28.5834 36.5172 27.2813 35.6576 25.0438 34.6589C22.3701 33.477 21.7886 32.3266 22.3132 31.151C22.9453 29.6719 24.9806 27.9906 27.1422 26.0944C28.8267 24.7331 30.4129 23.2547 31.8891 21.6699C34.5311 18.6613 35.8901 15.3808 33.2038 11.7907C36.1892 12.4009 38.9981 13.678 41.4207 15.5262L39.9669 20.3236C39.8596 20.6523 39.945 21.0134 40.1882 21.2591C40.1882 21.2591 42.5458 23.5977 42.6216 23.642C43.0595 23.8957 43.6203 23.7466 43.8742 23.3087C43.8782 23.3019 43.882 23.295 43.8858 23.288L45.7251 19.9633C46.8108 21.4964 47.6786 23.1727 48.3039 24.944ZM56.78 17.8838L55.9646 18.2883C55.7821 18.3789 55.6351 18.5279 55.5474 18.7118L55.1429 19.5335L53.5691 22.3778L53.1077 21.8722L54.0242 18.8446C54.131 18.4898 54.0137 18.1058 53.7271 17.8712L48.7401 13.1749C48.379 12.8202 47.7987 12.8254 47.444 13.1864C47.4355 13.1951 47.4272 13.2038 47.419 13.2128C47.3558 13.2824 42.8681 21.3665 42.8681 21.3665L41.8884 20.3868L44.9476 10.3053C45.0573 9.94867 44.9397 9.56121 44.6506 9.3256L40.6812 5.59007C40.2419 5.21794 40.0959 4.6031 40.3209 4.07311C40.5225 3.61391 40.8907 3.2481 41.3512 3.04915H41.3828C41.9063 2.84705 42.5003 2.99938 42.8618 3.4284L46.6542 7.43572C46.8924 7.69139 47.2552 7.78952 47.5897 7.68854L57.7028 4.63565L58.6825 5.61536L50.6552 10.0272C50.2109 10.2696 50.0472 10.8265 50.2897 11.2706C50.2935 11.2776 50.2973 11.2844 50.3013 11.2913C50.3392 11.3609 55.1745 16.5059 55.1745 16.5059C55.4141 16.7594 55.7767 16.855 56.11 16.7524L59.1502 15.8359L59.6243 16.31L56.78 17.8838Z" fill="#002661"/>
<path d="M54.3379 44.5362C54.3242 44.5281 54.3101 44.5202 54.2959 44.513C53.8429 44.2761 53.2837 44.4411 53.0318 44.8859C52.6336 45.6128 52.1974 46.327 51.7297 47.0097C51.4277 47.439 51.5311 48.0319 51.9604 48.3338C52.3898 48.6358 52.9826 48.5325 53.2846 48.1031C53.7776 47.3699 54.2454 46.6051 54.6752 45.834C54.9405 45.3824 54.7894 44.8014 54.3379 44.5362Z" fill="#002661"/>
<path d="M57.3363 30.6958C56.8128 30.6887 56.3825 31.1072 56.3752 31.6308C56.3751 31.6436 56.3751 31.6564 56.3755 31.6692V31.7766C56.3755 32.6046 56.3376 33.4389 56.2618 34.267C56.2144 34.7884 56.5985 35.2497 57.12 35.2971C57.1204 35.2971 57.1209 35.2972 57.1214 35.2972H57.2099C57.71 35.302 58.1276 34.9174 58.1643 34.4187C58.2465 33.5401 58.2844 32.6489 58.2844 31.764V31.6376C58.2809 31.1164 57.8574 30.6958 57.3363 30.6958Z" fill="#002661"/>
<path d="M24.0436 58.5321C23.222 58.3931 22.4066 58.2161 21.6165 57.9759C21.1225 57.8023 20.5813 58.0619 20.4075 58.5558C20.2337 59.0498 20.4935 59.591 20.9874 59.7648C21.0236 59.7776 21.0607 59.7881 21.0982 59.7964C21.9452 60.0366 22.8174 60.2452 23.6897 60.4285H23.8667C24.3903 60.4773 24.8544 60.0926 24.9033 59.5689C24.9521 59.0452 24.5673 58.5811 24.0436 58.5321Z" fill="#002661"/>
<path d="M38.714 58.2441C38.5425 57.7785 38.0411 57.5238 37.5641 57.66V57.6853C36.7803 57.9445 35.9713 58.1657 35.1685 58.3174C34.6572 58.4326 34.3359 58.9406 34.4511 59.4519C34.5663 59.9633 35.0744 60.2845 35.5857 60.1693C36.4453 59.9734 37.3113 59.7332 38.1519 59.4614C38.6433 59.2803 38.8949 58.7353 38.714 58.2441Z" fill="#002661"/>
<path d="M17.5398 56.4653C16.7877 56.0923 16.0481 55.6878 15.3339 55.2833C14.8818 55.018 14.3003 55.1694 14.035 55.6215C13.7697 56.0735 13.9211 56.655 14.3732 56.9204C15.138 57.3691 15.9281 57.7863 16.7308 58.1845C17.2055 58.4079 17.7715 58.2041 17.9949 57.7294C18.2184 57.2547 18.0147 56.6887 17.5398 56.4653Z" fill="#002661"/>
<path d="M50.309 50.3665C49.9292 50.0196 49.3418 50.0389 48.9856 50.4103H48.992C48.4231 51.0423 47.8226 51.5985 47.2095 52.1484C46.8186 52.4975 46.7846 53.0975 47.1337 53.4884C47.4827 53.8794 48.0827 53.9133 48.4737 53.5643C49.1057 52.9765 49.7757 52.3507 50.3699 51.706C50.723 51.3192 50.6957 50.7195 50.309 50.3665Z" fill="#002661"/>
<path d="M45.0784 55.0956C44.8097 54.6462 44.2276 54.4997 43.778 54.7684C43.7629 54.7774 43.748 54.7869 43.7335 54.7968V54.7715C43.0382 55.214 42.3113 55.6311 41.5781 56.0357C41.1121 56.2747 40.9282 56.8464 41.1673 57.3124C41.4064 57.7784 41.9781 57.9624 42.4441 57.7233C43.2278 57.3188 44.0053 56.87 44.7511 56.3959C45.2005 56.1272 45.3471 55.545 45.0784 55.0956Z" fill="#002661"/>
</g>
<defs>
<clipPath id="clip0_66_1493">
<rect width="62" height="62" fill="white"/>
</clipPath>
</defs>
</svg>
