<svg width="64" height="64" viewBox="0 0 64 64" fill="none" xmlns="http://www.w3.org/2000/svg">
<path d="M59.8116 22.4441C60.9681 20.5859 61.9073 18.3631 62.0077 15.9583C62.0894 13.9999 61.3651 12.0637 60.0201 10.6464C58.6926 9.2475 56.9091 8.46562 54.9982 8.445C54.9717 8.44475 54.9458 8.44462 54.9194 8.44462C53.2369 8.44462 51.6451 9.02737 50.3694 10.0977C45.1324 6.05712 38.6357 3.839 32.0002 3.839C27.6691 3.839 23.3612 4.78463 19.4498 6.57875C19.3059 4.95 18.6162 3.39263 17.4862 2.20175C16.1587 0.80275 14.3752 0.021125 12.4644 0.0005C12.4377 0.000125 12.4118 0 12.3854 0C10.5042 0 8.73481 0.72675 7.39581 2.05137C6.03806 3.3945 5.29018 5.18625 5.29018 7.09613C5.29018 10.253 6.77193 13.1206 8.37418 15.2987C6.49431 17.6803 4.99331 20.3151 3.90868 23.1401C3.72343 23.6229 3.96456 24.1644 4.44706 24.3498C4.55756 24.392 4.67081 24.4121 4.78243 24.4121C5.15868 24.4121 5.51368 24.1835 5.65668 23.8113C6.61381 21.3183 7.91731 18.983 9.53718 16.8549C9.51481 17.0754 9.50043 17.2974 9.50043 17.5182V22.0672C9.50043 22.9634 9.99368 23.7779 10.7877 24.1934C11.1388 24.3771 11.5204 24.4679 11.9008 24.4679C12.3803 24.4679 12.8578 24.3232 13.2684 24.0382L16.6239 21.7085C17.5629 21.0566 18.6634 20.712 19.8068 20.712H24.1253C25.8003 20.712 27.3751 20.0598 28.5596 18.8754L32.8211 14.6139C34.2529 13.1819 34.3321 10.8647 33.0009 9.33838L30.9258 6.959C30.6332 6.6235 30.5153 6.17588 30.5854 5.74988C31.0564 5.72613 31.5281 5.71138 32.0002 5.71138C38.1694 5.71138 44.2098 7.75675 49.0982 11.4839C48.2712 12.665 47.8243 14.0673 47.8243 15.5409C47.8243 16.8383 48.0761 18.086 48.4821 19.258C48.2059 21.2946 48.5041 23.3611 49.3464 25.2369L51.1679 29.2921C52.1434 31.4638 54.3121 32.8671 56.6929 32.8671C57.9011 32.8671 59.0697 32.5107 60.0722 31.8369L60.1302 31.7979C60.1821 32.5007 60.2083 33.2081 60.2083 33.9196C60.2083 49.4737 47.5542 62.1279 32.0001 62.1279C16.4459 62.1279 3.79181 49.4735 3.79181 33.9194C3.79181 31.7364 4.04193 29.5623 4.53531 27.4574C4.65331 26.9539 4.34093 26.4503 3.83756 26.3323C3.33418 26.2136 2.83031 26.5265 2.71243 27.03C2.18618 29.2749 1.91943 31.5929 1.91943 33.9195C1.91943 41.9544 5.04843 49.5083 10.7299 55.1898C16.4113 60.8711 23.9652 64 32.0001 64C40.0349 64 47.5888 60.8711 53.2702 55.1896C58.9517 49.5081 62.0807 41.9541 62.0807 33.9194C62.0807 29.9433 61.3159 26.0847 59.8116 22.4441ZM8.71268 3.38238C9.69831 2.40725 11.0008 1.87238 12.3861 1.87238C12.4053 1.87238 12.4247 1.8725 12.4441 1.87275C13.8438 1.88775 15.1521 2.46225 16.1278 3.4905C17.1261 4.5425 17.6638 5.98038 17.6031 7.43563C17.4289 11.6074 14.0759 15.3625 12.6423 16.7831C12.5012 16.923 12.2717 16.9233 12.1313 16.784C10.6374 15.3036 7.16256 11.3961 7.16256 7.09613C7.16256 5.69012 7.71306 4.37125 8.71268 3.38238ZM29.5146 8.1895L31.5898 10.569C32.2762 11.3561 32.2356 12.5513 31.4969 13.2898L27.2354 17.5513C26.4047 18.3821 25.3002 18.8396 24.1253 18.8396H19.8068C18.2801 18.8396 16.8102 19.2999 15.5562 20.1705L12.2007 22.5001C11.9643 22.6646 11.7409 22.5788 11.6557 22.5343C11.5707 22.4897 11.3731 22.3551 11.3731 22.0672V18.5166C11.6902 18.6771 12.0381 18.7585 12.3863 18.7585C12.9563 18.7585 13.5264 18.5434 13.9606 18.1133C15.7662 16.3238 18.7127 12.8444 19.3552 8.70088C22.2688 7.23825 25.4439 6.2905 28.6968 5.90688C28.6771 6.72738 28.9556 7.54837 29.5146 8.1895ZM54.9201 10.3169C54.9393 10.3169 54.9587 10.317 54.9779 10.3173C56.3778 10.3323 57.6861 10.9069 58.6618 11.9351C59.6601 12.9871 60.1978 14.425 60.1371 15.8801C59.9629 20.0519 56.6099 23.807 55.1763 25.2278C55.0352 25.3676 54.8057 25.3679 54.6653 25.2286C53.1714 23.7481 49.6967 19.8406 49.6967 15.5407C49.6967 14.1347 50.2472 12.8158 51.2468 11.8269C52.2323 10.8519 53.5347 10.3169 54.9201 10.3169ZM59.0274 30.2827C58.3348 30.7484 57.5276 30.9945 56.6929 30.9945C55.0482 30.9945 53.5498 30.025 52.8759 28.5246L51.0544 24.4694C50.8949 24.1141 50.7601 23.7504 50.6478 23.3809C51.5714 24.6931 52.5608 25.7792 53.3473 26.5586C53.7809 26.9881 54.3503 27.2029 54.9199 27.2029C55.4899 27.2029 56.0601 26.9877 56.4942 26.5576C57.0869 25.9702 57.8027 25.1996 58.5197 24.2844C59.1597 26.0427 59.6196 27.8516 59.8961 29.6987L59.0274 30.2827Z" fill="black"/>
<path d="M54.9205 19.7223C57.0987 19.7223 58.8707 17.9502 58.8707 15.772C58.8707 13.5939 57.0986 11.8218 54.9205 11.8218C52.7422 11.8218 50.9702 13.5939 50.9702 15.772C50.9702 17.9502 52.7422 19.7223 54.9205 19.7223ZM54.9205 13.694C56.0662 13.694 56.9983 14.6262 56.9983 15.7719C56.9983 16.9177 56.0662 17.8498 54.9205 17.8498C53.7747 17.8498 52.8426 16.9177 52.8426 15.7719C52.8426 14.6262 53.7747 13.694 54.9205 13.694Z" fill="black"/>
<path d="M40.647 20.4707C39.3195 19.0717 37.5361 18.2898 35.6253 18.2692C35.5988 18.2689 35.5729 18.2688 35.5465 18.2688C33.6653 18.2688 31.8959 18.9956 30.5569 20.3202C29.5444 21.3218 28.8716 22.5729 28.5946 23.9363C26.4444 23.8429 24.3588 24.8413 23.091 26.6323L19.9454 31.0758C18.7178 32.8098 18.5649 35.0572 19.5124 36.9274C19.1123 37.8246 18.9 38.8033 18.9 39.8162C18.9 43.94 21.4276 47.5692 23.4501 49.8132L23.2465 55.3473C23.198 56.6671 23.8113 57.9123 24.887 58.6783C25.564 59.1604 26.3601 59.4018 27.1568 59.4018C27.938 59.4017 28.7198 59.1694 29.3891 58.7044L38.0066 52.7177C39.3485 51.7854 40.5073 50.6366 41.451 49.3034L44.0526 45.6287C44.3514 45.2067 44.2515 44.6223 43.8294 44.3236C43.4075 44.0247 42.823 44.1247 42.5244 44.5467L39.9228 48.2217C39.1049 49.3768 38.1009 50.3723 36.9381 51.18L28.3206 57.1668C27.6154 57.6564 26.6721 57.6511 25.973 57.1532C25.412 56.7537 25.0921 56.1043 25.1175 55.416L25.27 51.3562C25.5048 51.4362 25.7499 51.4785 25.9956 51.4785C26.5655 51.4785 27.1358 51.2634 27.5698 50.8332C29.5454 48.8752 32.8889 44.8947 33.0833 40.2338C33.1649 38.2753 32.4404 36.3392 31.0954 34.9218C29.7679 33.5228 27.9844 32.741 26.0735 32.7204C24.1683 32.6974 22.3628 33.4283 21.0053 34.7715C20.942 34.834 20.8815 34.8986 20.821 34.9631C20.6664 33.9973 20.8844 32.9895 21.4733 32.1577L24.6189 27.7142C25.5055 26.4619 26.9584 25.7595 28.4608 25.8069C28.662 30.4419 31.9746 34.4017 33.974 36.3829C34.4076 36.8125 34.977 37.0273 35.5466 37.0273C36.1168 37.0273 36.6869 36.8123 37.121 36.382C37.9361 35.5742 38.9838 34.4213 39.9474 33.0192L44.8051 36.458C45.4181 36.892 45.8254 37.5387 45.9521 38.2792C46.0788 39.0194 45.9095 39.7649 45.4755 40.3778L44.7925 41.3425C44.4938 41.7645 44.5936 42.3488 45.0156 42.6477C45.18 42.7639 45.3688 42.8199 45.5558 42.8199C45.8493 42.8199 46.1383 42.6823 46.3206 42.4245L47.0036 41.4598C47.7266 40.4386 48.0086 39.1968 47.7976 37.9634C47.5868 36.7302 46.9081 35.6528 45.8869 34.9299L40.9341 31.4238C41.8539 29.751 42.5489 27.8327 42.6345 25.7825C42.7165 23.8242 41.992 21.888 40.647 20.4707ZM25.9959 34.5923C26.0151 34.5923 26.0345 34.5924 26.0536 34.5927C27.4535 34.6077 28.7618 35.1823 29.7375 36.2105C30.7358 37.2625 31.2735 38.7004 31.2129 40.1557C31.0388 44.3275 27.6856 48.0824 26.2519 49.5033C26.111 49.6432 25.8818 49.6433 25.7411 49.5039C24.2471 48.0237 20.7724 44.1165 20.7724 39.8162C20.7724 38.4103 21.3229 37.0914 22.3224 36.1024C23.3081 35.1272 24.6106 34.5923 25.9959 34.5923ZM35.8033 35.052C35.6624 35.192 35.4329 35.1923 35.2923 35.0529C33.7984 33.5724 30.3236 29.6649 30.3236 25.365C30.3236 23.959 30.8741 22.64 31.8738 21.6512C32.8594 20.676 34.1619 20.1412 35.5471 20.1412C35.5664 20.1412 35.5858 20.1413 35.605 20.1416C37.0049 20.1566 38.3131 20.7312 39.2889 21.7594C40.2871 22.8114 40.8249 24.2493 40.7641 25.7044C40.59 29.8763 37.2369 33.6313 35.8033 35.052Z" fill="black"/>
<path d="M38.5615 24.6602C38.0444 24.6602 37.6253 25.0794 37.6253 25.5965C37.6253 26.7422 36.6932 27.6744 35.5474 27.6744C34.4017 27.6744 33.4695 26.7422 33.4695 25.5965C33.4695 24.4507 34.4017 23.5186 35.5474 23.5186C35.6864 23.5186 35.8252 23.5324 35.9598 23.5595C36.4673 23.6606 36.9603 23.3327 37.0622 22.826C37.1639 22.319 36.8355 21.8256 36.3287 21.7236C36.0728 21.6722 35.8099 21.6462 35.5474 21.6462C33.3692 21.6462 31.5972 23.4184 31.5972 25.5965C31.5972 27.7746 33.3693 29.5467 35.5474 29.5467C37.7257 29.5467 39.4977 27.7746 39.4977 25.5965C39.4978 25.0792 39.0787 24.6602 38.5615 24.6602Z" fill="black"/>
<path d="M25.9961 43.9977C28.1744 43.9977 29.9464 42.2255 29.9464 40.0474C29.9464 37.8693 28.1743 36.0972 25.9961 36.0972C23.818 36.0972 22.0459 37.8693 22.0459 40.0474C22.0459 42.2255 23.8179 43.9977 25.9961 43.9977ZM25.9961 37.9694C27.1419 37.9694 28.074 38.9015 28.074 40.0473C28.074 41.193 27.1419 42.1252 25.9961 42.1252C24.8504 42.1252 23.9183 41.193 23.9183 40.0473C23.9183 38.9017 24.8504 37.9694 25.9961 37.9694Z" fill="black"/>
<path d="M16.3367 7.32745C16.3367 5.1492 14.5645 3.3772 12.3864 3.3772C10.2083 3.3772 8.43604 5.14932 8.43604 7.32745C8.43604 9.50557 10.2082 11.2776 12.3863 11.2776C14.5644 11.2776 16.3367 9.50557 16.3367 7.32745ZM10.3085 7.32745C10.3085 6.1817 11.2407 5.24957 12.3864 5.24957C13.5322 5.24957 14.4643 6.1817 14.4643 7.32745C14.4643 8.4732 13.5322 9.4052 12.3864 9.4052C11.2407 9.4052 10.3085 8.4732 10.3085 7.32745Z" fill="black"/>
</svg>
