<svg width="62" height="62" viewBox="0 0 62 62" fill="none" xmlns="http://www.w3.org/2000/svg">
<path d="M16.3183 35.8181H45.685C45.8777 35.8181 46.0625 35.7415 46.1988 35.6053C46.335 35.469 46.4116 35.2842 46.4116 35.0915V31.6873C46.4098 30.548 46.086 29.4324 45.4775 28.4692C44.869 27.5059 44.0007 26.7344 42.9725 26.2434C43.7202 25.6945 44.2754 24.9234 44.5587 24.0402C44.842 23.157 44.8391 22.2068 44.5503 21.3254C44.2615 20.444 43.7016 19.6763 42.9505 19.1321C42.1994 18.5878 41.2956 18.2947 40.368 18.2947C39.4405 18.2947 38.5367 18.5878 37.7856 19.1321C37.0345 19.6763 36.4746 20.444 36.1858 21.3254C35.897 22.2068 35.894 23.157 36.1774 24.0402C36.4607 24.9234 37.0159 25.6945 37.7636 26.2434C36.4079 26.8938 35.342 28.0244 34.7725 29.4161C34.388 28.9385 33.9112 28.5432 33.3708 28.2536C33.8981 27.7749 34.2681 27.1479 34.4322 26.4549C34.5964 25.7619 34.5469 25.0355 34.2904 24.3712C34.0338 23.7069 33.5822 23.1358 32.9949 22.733C32.4076 22.3303 31.7121 22.1147 31 22.1147C30.2879 22.1147 29.5924 22.3303 29.0051 22.733C28.4178 23.1358 27.9662 23.7069 27.7096 24.3712C27.4531 25.0355 27.4036 25.7619 27.5677 26.4549C27.7319 27.1479 28.1019 27.7749 28.6292 28.2536C28.0952 28.5395 27.6233 28.9288 27.241 29.3986C26.6759 27.9919 25.6045 26.8478 24.2379 26.1916C24.9856 25.6427 25.5407 24.8716 25.824 23.9884C26.1074 23.1052 26.1044 22.155 25.8156 21.2736C25.5268 20.3922 24.9669 19.6245 24.2158 19.0802C23.4648 18.536 22.5609 18.2429 21.6334 18.2429C20.7058 18.2429 19.802 18.536 19.0509 19.0802C18.2999 19.6245 17.74 20.3922 17.4511 21.2736C17.1623 22.155 17.1594 23.1052 17.4427 23.9884C17.7261 24.8716 18.2812 25.6427 19.0289 26.1916C18.0008 26.6825 17.1324 27.4541 16.5239 28.4173C15.9154 29.3805 15.5916 30.4962 15.5898 31.6355V35.0915C15.5898 35.1871 15.6087 35.2817 15.6453 35.37C15.682 35.4583 15.7357 35.5384 15.8033 35.6059C15.871 35.6734 15.9513 35.7269 16.0397 35.7633C16.1281 35.7997 16.2228 35.8183 16.3183 35.8181ZM37.4216 22.7041C37.4211 22.1239 37.5918 21.5565 37.9123 21.0729C38.2329 20.5893 38.689 20.211 39.2235 19.9855C39.7581 19.7599 40.3473 19.6971 40.9174 19.805C41.4874 19.9128 42.013 20.1864 42.4283 20.5916C42.8435 20.9968 43.13 21.5155 43.2517 22.0828C43.3735 22.65 43.3252 23.2406 43.1128 23.7805C42.9005 24.3205 42.5335 24.7857 42.0579 25.118C41.5823 25.4503 41.0193 25.6349 40.4393 25.6486C40.416 25.6486 40.3932 25.6447 40.3695 25.6447C40.3458 25.6447 40.3211 25.6481 40.2993 25.6486C39.5304 25.6298 38.7993 25.3114 38.2618 24.7614C37.7242 24.2114 37.4228 23.4732 37.4216 22.7041ZM35.78 31.6873C35.7817 30.4831 36.2562 29.3277 37.1015 28.47C37.9468 27.6123 39.0952 27.1209 40.2993 27.1017C40.323 27.1017 40.3477 27.1051 40.3695 27.1051C40.3913 27.1051 40.4179 27.1017 40.4393 27.1017C41.6434 27.1208 42.7918 27.6121 43.6371 28.4698C44.4824 29.3276 44.957 30.483 44.9585 31.6873V34.3649H35.78V31.6873ZM31.0017 23.576C31.5479 23.5741 32.0728 23.788 32.4621 24.1712C32.8513 24.5544 33.0735 25.0758 33.0803 25.622C33.0871 26.1681 32.8779 26.6949 32.4982 27.0876C32.1185 27.4803 31.5991 27.7072 31.053 27.7188H30.9503C30.4042 27.7072 29.8848 27.4803 29.5052 27.0876C29.1255 26.6949 28.9163 26.1681 28.9231 25.622C28.9298 25.0758 29.152 24.5544 29.5413 24.1712C29.9306 23.788 30.4555 23.5741 31.0017 23.576ZM30.7653 29.172H30.899C30.9334 29.172 30.9668 29.1768 31.0017 29.1768C31.0366 29.1768 31.07 29.1729 31.1044 29.172H31.2376C32.0564 29.1727 32.8414 29.4982 33.4205 30.077C33.9997 30.6557 34.3256 31.4406 34.3269 32.2594V34.3635H27.6765V32.2594C27.6776 31.4406 28.0035 30.6558 28.5825 30.077C29.1616 29.4982 29.9466 29.1727 30.7653 29.172ZM18.686 22.6523C18.6854 22.0721 18.856 21.5046 19.1764 21.021C19.4969 20.5373 19.9529 20.159 20.4875 19.9334C21.022 19.7077 21.6112 19.6449 22.1813 19.7526C22.7513 19.8603 23.277 20.1339 23.6923 20.539C24.1076 20.9441 24.3941 21.4628 24.516 22.03C24.6379 22.5972 24.5897 23.1878 24.3774 23.7278C24.1651 24.2677 23.7982 24.733 23.3227 25.0654C22.8472 25.3978 22.2841 25.5825 21.7041 25.5963C21.6804 25.5963 21.6557 25.5929 21.6339 25.5929C21.6121 25.5929 21.5854 25.5963 21.5641 25.5963C20.7953 25.5776 20.0641 25.2594 19.5265 24.7094C18.9889 24.1595 18.6873 23.4213 18.686 22.6523ZM17.0449 31.6355C17.0465 30.4312 17.5211 29.2757 18.3664 28.418C19.2116 27.5602 20.36 27.0687 21.5641 27.0494C21.5874 27.0494 21.6101 27.0533 21.6339 27.0533C21.6576 27.0533 21.6823 27.0499 21.7041 27.0494C22.9082 27.0687 24.0566 27.5602 24.9019 28.418C25.7471 29.2757 26.2217 30.4312 26.2233 31.6355V34.3649H17.0449V31.6355Z" fill="#002661"/>
<path d="M26.6842 17.638L26.6992 17.6501C28.7913 19.2728 29.963 20.0851 31.1298 20.0851C32.2967 20.0851 33.4674 19.266 35.5541 17.6269L35.5643 17.6187C41.0542 13.3 40.718 9.06363 40.3184 7.44194C40.0818 6.3319 39.5316 5.31308 38.7331 4.5065C37.9346 3.69992 36.9213 3.13948 35.8137 2.89172C34.0433 2.56283 32.3291 3.23078 30.9971 4.72799C29.48 3.17072 27.622 2.52166 25.7891 2.93919C24.7508 3.21466 23.8112 3.77714 23.0779 4.56214C22.3447 5.34715 21.8475 6.3229 21.6433 7.37752C21.2815 9.00599 21.0519 13.2622 26.6842 17.638ZM23.0601 7.69188C23.2048 6.90562 23.5676 6.17589 24.1072 5.58602C24.6468 4.99615 25.3414 4.56991 26.1117 4.35599C27.6249 4.0116 29.2073 4.72557 30.4546 6.31335C30.5244 6.40324 30.6145 6.47525 30.7176 6.52342C30.8207 6.5716 30.9338 6.59456 31.0475 6.59041C31.1609 6.58709 31.2721 6.55724 31.3719 6.50323C31.4718 6.44923 31.5576 6.37259 31.6224 6.27944C32.6881 4.74543 34.0831 4.05132 35.5488 4.32014C37.1186 4.61077 38.4691 6.0048 38.9089 7.78972C39.6112 10.6398 38.0627 13.8076 34.6609 16.4813L34.6512 16.4891C32.8024 17.9422 31.8796 18.6402 31.1322 18.6417H31.1298C30.3858 18.6417 29.4582 17.95 27.6045 16.5104L27.5895 16.4983C22.598 12.6301 22.7593 9.05103 23.0601 7.69188Z" fill="#002661"/>
<path d="M29.5645 13.6676C29.7007 13.8038 29.8855 13.8803 30.0781 13.8803C30.2708 13.8803 30.4556 13.8038 30.5918 13.6676L34.3326 9.92678C34.402 9.85976 34.4574 9.77959 34.4955 9.69094C34.5335 9.6023 34.5536 9.50696 34.5544 9.41049C34.5553 9.31402 34.5369 9.21834 34.5003 9.12905C34.4638 9.03976 34.4099 8.95864 34.3416 8.89042C34.2734 8.8222 34.1923 8.76825 34.103 8.73172C34.0137 8.69518 33.918 8.6768 33.8216 8.67764C33.7251 8.67848 33.6298 8.69852 33.5411 8.7366C33.4525 8.77468 33.3723 8.83003 33.3053 8.89942L30.0798 12.1263L28.6964 10.743C28.629 10.6754 28.5489 10.6218 28.4607 10.5852C28.3725 10.5486 28.278 10.5297 28.1826 10.5297C28.0871 10.5296 27.9925 10.5483 27.9043 10.5848C27.8161 10.6213 27.7359 10.6748 27.6684 10.7422C27.6008 10.8097 27.5472 10.8898 27.5106 10.978C27.474 11.0661 27.4551 11.1607 27.4551 11.2561C27.4549 11.4489 27.5314 11.6339 27.6676 11.7703L29.5645 13.6676Z" fill="#002661"/>
<path d="M24.4718 44.068L21.9817 42.9665L15.152 36.7569C15.135 36.7414 15.1161 36.7283 15.0992 36.7133C15.0323 36.6556 14.9655 36.599 14.8957 36.5476L14.8778 36.5355C14.2605 36.0857 13.5005 35.8759 12.7398 35.9455L11.9449 28.3626C11.862 27.5505 11.47 26.8013 10.8499 26.2701C10.2299 25.739 9.42945 25.4665 8.61416 25.5092C7.79886 25.5519 7.0312 25.9065 6.47006 26.4995C5.90892 27.0925 5.59728 27.8785 5.59962 28.6949V41.2068C5.6004 42.2982 5.83015 43.3773 6.27402 44.3743C6.71789 45.3714 7.36601 46.2642 8.1765 46.9951L13.866 52.1188C14.2543 52.4684 14.5648 52.8957 14.7774 53.373C14.99 53.8503 15.1 54.3669 15.1002 54.8894V58.4641C15.1002 58.6568 15.1767 58.8416 15.313 58.9779C15.4492 59.1141 15.634 59.1907 15.8267 59.1907H28.1037C28.2964 59.1907 28.4812 59.1141 28.6174 58.9779C28.7537 58.8416 28.8302 58.6568 28.8302 58.4641V50.7509C28.8305 49.3343 28.4185 47.9481 27.6447 46.7615C26.8708 45.5748 25.7684 44.639 24.4718 44.068ZM27.3781 57.7361H16.5533V54.8894C16.5531 54.1631 16.4003 53.4449 16.1048 52.7815C15.8092 52.118 15.3775 51.5241 14.8376 51.0382L9.14961 45.9159C8.49031 45.3212 7.96309 44.5948 7.60199 43.7837C7.24089 42.9726 7.05395 42.0947 7.05323 41.2068V28.6949C7.05244 28.2519 7.22189 27.8254 7.52656 27.5037C7.83123 27.1821 8.24785 26.9897 8.6903 26.9664C9.13275 26.9432 9.56723 27.0908 9.90395 27.3788C10.2407 27.6667 10.4539 28.0731 10.4996 28.5138L11.3278 36.4289C11.1233 36.5587 10.9342 36.7113 10.764 36.8838C10.4731 37.1806 10.2435 37.5318 10.0883 37.9173C9.93313 38.3029 9.85547 38.7153 9.85974 39.1309C9.86402 39.5465 9.95014 39.9571 10.1132 40.3394C10.2763 40.7217 10.513 41.0682 10.81 41.3589L17.1239 47.542C17.1917 47.6103 17.2724 47.6646 17.3613 47.7015C17.4502 47.7384 17.5456 47.7573 17.6419 47.757C17.7382 47.7567 17.8334 47.7373 17.9222 47.6999C18.0109 47.6625 18.0913 47.6079 18.1587 47.5391C18.2261 47.4703 18.2792 47.3889 18.3148 47.2994C18.3505 47.21 18.368 47.1143 18.3663 47.0181C18.3647 46.9218 18.3439 46.8268 18.3053 46.7386C18.2666 46.6505 18.2108 46.5708 18.1411 46.5044L11.8267 40.3204C11.6084 40.1069 11.4513 39.8387 11.3717 39.5439C11.2921 39.2491 11.2929 38.9383 11.374 38.6439C11.4552 38.3495 11.6137 38.0822 11.8331 37.8698C12.0524 37.6573 12.3247 37.5075 12.6216 37.436C12.6667 37.4248 12.7122 37.419 12.7577 37.4117C12.8032 37.4045 12.8507 37.3982 12.8972 37.3948C12.9437 37.3914 12.9941 37.389 13.0464 37.3899C13.0987 37.3909 13.1341 37.3943 13.1777 37.3982C13.2452 37.4042 13.3123 37.414 13.3787 37.4277C13.4422 37.4403 13.5049 37.4565 13.5666 37.4762C13.6063 37.4892 13.6451 37.5072 13.6838 37.5246C13.7389 37.5477 13.7927 37.5735 13.8451 37.6021C13.8766 37.619 13.9081 37.6365 13.9386 37.6559C14.0228 37.708 14.1023 37.7671 14.1765 37.8327L21.0933 44.1237C21.0972 44.1271 21.102 44.1276 21.1054 44.131C21.1596 44.179 21.2204 44.2188 21.2861 44.2492L23.8862 45.3986C24.9247 45.8561 25.8077 46.6058 26.4275 47.5563C27.0473 48.5068 27.3773 49.6171 27.3771 50.7519L27.3781 57.7361Z" fill="#002661"/>
<path d="M55.4715 26.4469C55.0464 26.0223 54.5098 25.7267 53.9237 25.5943C53.3377 25.462 52.7261 25.4981 52.1598 25.6987C51.5934 25.8993 51.0954 26.2561 50.7234 26.7279C50.3513 27.1996 50.1203 27.767 50.0572 28.3645L49.2623 35.9455C48.8254 35.905 48.3849 35.9564 47.969 36.0962C47.5531 36.236 47.171 36.4612 46.8472 36.7573L40.0205 42.9665L37.5312 44.0675C36.2344 44.6385 35.1317 45.5745 34.3576 46.7614C33.5836 47.9483 33.1716 49.3348 33.1719 50.7518V58.4641C33.1719 58.6568 33.2484 58.8416 33.3847 58.9778C33.5209 59.1141 33.7057 59.1906 33.8984 59.1906H46.1754C46.3681 59.1906 46.5529 59.1141 46.6892 58.9778C46.8254 58.8416 46.902 58.6568 46.902 58.4641V54.8894C46.9021 54.3666 47.0122 53.8498 47.2249 53.3723C47.4377 52.8948 47.7485 52.4674 48.1371 52.1178L53.8251 46.995C54.6356 46.2641 55.2837 45.3713 55.7276 44.3743C56.1715 43.3772 56.4012 42.2981 56.402 41.2068V28.6949C56.4032 28.2773 56.3215 27.8636 56.1618 27.4777C56.0021 27.0919 55.7675 26.7415 55.4715 26.4469ZM54.9489 41.2068C54.9482 42.0946 54.7612 42.9725 54.4001 43.7836C54.039 44.5948 53.5118 45.3211 52.8525 45.9158L47.1655 51.0371C46.6254 51.5232 46.1936 52.1172 45.8979 52.7809C45.6021 53.4445 45.4492 54.1628 45.4488 54.8894V57.7375H34.625V50.7509C34.6249 49.6159 34.955 48.5053 35.5751 47.5547C36.1952 46.6041 37.0785 45.8544 38.1173 45.3971L40.716 44.2481C40.7815 44.2178 40.8422 44.178 40.8962 44.13C40.9001 44.1271 40.9049 44.1261 40.9088 44.1227L42.7494 42.4487L47.8257 37.8321L47.8373 37.8234C47.9078 37.7615 47.9831 37.7053 48.0625 37.6553C48.0935 37.6359 48.1255 37.618 48.1594 37.6006C48.212 37.572 48.266 37.5462 48.3212 37.5231C48.3595 37.5071 48.3968 37.4901 48.436 37.4771C48.5078 37.4533 48.5811 37.4342 48.6554 37.4199C48.7087 37.4097 48.7629 37.4039 48.8172 37.3986C48.8714 37.3933 48.9141 37.3899 48.9625 37.3894C49.0109 37.3889 49.056 37.3894 49.103 37.3942C49.15 37.3991 49.2037 37.4044 49.2536 37.4126C49.2962 37.4194 49.3393 37.4248 49.3815 37.4349C49.6787 37.5063 49.9513 37.656 50.171 37.8685C50.3907 38.0809 50.5495 38.3484 50.6308 38.643C50.7121 38.9377 50.7129 39.2487 50.6333 39.5437C50.5536 39.8388 50.3963 40.1072 50.1778 40.3208L43.8615 46.5044C43.7918 46.5708 43.736 46.6504 43.6973 46.7386C43.6587 46.8268 43.6379 46.9217 43.6363 47.018C43.6346 47.1143 43.6521 47.2099 43.6878 47.2994C43.7234 47.3888 43.7765 47.4703 43.8439 47.539C43.9113 47.6078 43.9917 47.6625 44.0804 47.6999C44.1692 47.7373 44.2644 47.7567 44.3607 47.757C44.457 47.7572 44.5524 47.7383 44.6413 47.7014C44.7302 47.6645 44.8109 47.6103 44.8787 47.5419L51.1921 41.3593C51.4893 41.0687 51.7263 40.7224 51.8897 40.3402C52.053 39.9579 52.1393 39.5472 52.1438 39.1316C52.1483 38.7159 52.0709 38.3034 51.9159 37.9177C51.7609 37.532 51.5314 37.1807 51.2405 36.8837C51.0704 36.7113 50.8812 36.5587 50.6767 36.4289L51.505 28.5137C51.5506 28.073 51.7639 27.6667 52.1006 27.3787C52.4373 27.0907 52.8718 26.9431 53.3142 26.9664C53.7567 26.9896 54.1733 27.182 54.478 27.5037C54.7827 27.8254 54.9521 28.2518 54.9513 28.6949L54.9489 41.2068Z" fill="#002661"/>
</svg>
