<svg width="64" height="64" viewBox="0 0 64 64" fill="none" xmlns="http://www.w3.org/2000/svg">
<g clip-path="url(#clip0_66_87)">
<path d="M56.6656 24.3386H40.5004C39.9826 24.3386 39.563 24.7584 39.563 25.276C39.563 25.7936 39.9827 26.2134 40.5004 26.2134H56.6657C57.1835 26.2134 57.6031 25.7936 57.6031 25.276C57.6031 24.7584 57.1834 24.3386 56.6656 24.3386Z" fill="#002661"/>
<path d="M56.6656 29.9902H40.5004C39.9826 29.9902 39.563 30.41 39.563 30.9276C39.563 31.4452 39.9827 31.865 40.5004 31.865H56.6657C57.1835 31.865 57.6031 31.4452 57.6031 30.9276C57.6031 30.41 57.1834 29.9902 56.6656 29.9902Z" fill="#002661"/>
<path d="M57.6031 36.5792C57.6031 36.0615 57.1834 35.6418 56.6657 35.6418H40.5004C39.9826 35.6418 39.563 36.0616 39.563 36.5792C39.563 37.0968 39.9827 37.5166 40.5004 37.5166H56.6657C57.1834 37.5167 57.6031 37.097 57.6031 36.5792Z" fill="#002661"/>
<path d="M40.5004 41.2935C39.9826 41.2935 39.563 41.7132 39.563 42.2308C39.563 42.7485 39.9827 43.1682 40.5004 43.1682H48.583C49.1007 43.1682 49.5204 42.7485 49.5204 42.2308C49.5204 41.7132 49.1006 41.2935 48.583 41.2935H40.5004Z" fill="#002661"/>
<path d="M62.3273 11.0239L52.6622 1.35875C51.8035 0.499375 50.6268 0 49.3822 0H17.5773C15.0198 0 12.9392 2.08075 12.9392 4.63825V14.2359C12.9392 14.7536 13.359 15.1733 13.8766 15.1733C14.3942 15.1733 14.814 14.7535 14.814 14.2359V4.63825C14.814 3.1145 16.0536 1.87487 17.5773 1.87487H49.3822C49.5845 1.87487 49.7833 1.8965 49.9777 1.93938V10.4764C49.9777 12.2584 51.4275 13.7081 53.2095 13.7081H61.7455C61.7887 13.9038 61.8108 14.1041 61.8108 14.3036V59.3619C61.8108 60.8855 60.5712 62.1253 59.0475 62.1253H46.454C47.5501 60.4864 47.3756 58.2434 45.9296 56.7974L37.4065 48.2743C36.7857 47.6535 35.8821 47.4868 35.107 47.7695L33.272 45.9345C38.449 38.7455 37.6856 28.7987 31.3543 22.4674C24.3277 15.4409 12.799 15.3009 5.63259 22.4674C-1.45891 29.5589 -1.45891 41.0976 5.63259 48.1891C11.9583 54.515 21.9146 55.2669 29.0991 50.1061L30.9347 51.9417C30.652 52.7169 30.8187 53.6205 31.4396 54.2412L39.3236 62.1253H17.5773C16.0537 62.1253 14.814 60.8856 14.814 59.3619V56.3575C14.814 55.8397 14.3942 55.4201 13.8766 55.4201C13.359 55.4201 12.9392 55.8399 12.9392 56.3575V59.3619C12.9392 61.9194 15.02 64 17.5773 64H59.0476C61.6051 64 63.6858 61.9193 63.6858 59.3619V14.3036C63.6858 13.0871 63.2031 11.899 62.3273 11.0239ZM6.95846 46.8634C0.597965 40.5029 0.597965 30.1536 6.95846 23.793C13.4 17.3515 23.7385 17.5028 30.0288 23.793C35.8856 29.6499 36.4312 38.9555 31.2978 45.4388C30.5098 46.4339 29.6005 47.3436 28.6042 48.1324C22.1623 53.2327 12.8338 52.7388 6.95846 46.8634ZM30.5755 48.9239C31.1056 48.452 31.6112 47.9474 32.0926 47.4065L33.6363 48.9502L32.1155 50.4711L30.5718 48.9274C30.5731 48.9261 30.5742 48.9249 30.5755 48.9239ZM41.2883 61.4385L32.7653 52.9155C32.6432 52.7934 32.643 52.595 32.7653 52.4725L32.7777 52.4601C32.778 52.4599 32.7782 52.4598 32.7783 52.4595L35.638 49.5999C35.76 49.4778 35.9588 49.4778 36.081 49.5999L44.604 58.123C45.518 59.0371 45.518 60.5244 44.604 61.4385C43.6876 62.3547 42.2047 62.3547 41.2883 61.4385ZM51.8526 10.4764V3.2005L60.4853 11.8333H53.2096C52.4612 11.8333 51.8526 11.2245 51.8526 10.4764Z" fill="#002661"/>
<path d="M39.4213 6.08276H20.8229C19.7111 6.08276 18.8066 6.98726 18.8066 8.09901V11.6919C18.8066 12.8036 19.7111 13.7081 20.8229 13.7081H39.4213C40.533 13.7081 41.4375 12.8036 41.4375 11.6919V8.09901C41.4374 6.98726 40.5329 6.08276 39.4213 6.08276ZM39.5625 11.6918C39.5625 11.7696 39.4991 11.8331 39.4211 11.8331H20.8229C20.745 11.8331 20.6815 11.7698 20.6815 11.6918V8.09901C20.6815 8.02114 20.7449 7.95764 20.8229 7.95764H39.4213C39.4993 7.95764 39.5626 8.02101 39.5626 8.09901L39.5625 11.6918Z" fill="#002661"/>
<path d="M28.7107 45.5456C34.3447 39.9118 34.3447 30.7446 28.7107 25.1108C23.0767 19.4768 13.9099 19.4768 8.27586 25.1108C6.08386 27.3029 4.67811 30.0765 4.21061 33.132C4.13236 33.6438 4.48361 34.1221 4.99549 34.2004C5.50749 34.279 5.98561 33.9274 6.06386 33.4155C6.47061 30.7575 7.69386 28.3441 9.60149 26.4364C14.5044 21.5335 22.482 21.5335 27.385 26.4364C32.0892 31.1406 32.279 38.6751 27.9559 43.6088C27.5441 42.7709 26.8437 42.0886 25.9277 41.6854C24.8172 41.1965 22.9027 40.8858 21.7251 40.7305L21.7201 39.5468C22.8581 38.7089 23.6659 37.4444 23.898 35.9814C24.0981 35.8983 24.2817 35.7754 24.439 35.617C24.7529 35.301 24.924 34.8819 24.9211 34.4368C24.9127 33.1944 24.9139 31.1353 24.9139 29.9358C24.9139 28.8014 24.0874 27.8563 23.005 27.6709C22.7972 26.6161 21.8654 25.8181 20.7505 25.8181H16.2251C13.8922 25.8181 11.9942 27.716 11.9942 30.0489V34.4543C11.9942 35.1381 12.4116 35.7264 13.005 35.9778C13.2319 37.3961 13.9995 38.6286 15.0834 39.4668L15.0889 40.7584C13.9126 40.9235 12.0009 41.2504 10.8942 41.7486C10.0527 42.1278 9.39511 42.7706 8.99036 43.5623C7.49161 41.837 6.49924 39.7571 6.10574 37.4954C6.01699 36.9854 5.53149 36.6438 5.02149 36.7325C4.51136 36.8213 4.16986 37.3068 4.25861 37.8168C4.77011 40.756 6.15924 43.4285 8.27599 45.5454C13.9346 51.2044 23.1017 51.1549 28.7107 45.5456ZM16.2251 27.6931H20.7505C20.9837 27.6931 21.1735 27.8829 21.1735 28.1161C21.1735 28.8864 21.8001 29.513 22.5704 29.513H22.6162C22.8495 29.513 23.0392 29.7028 23.0392 29.936V30.4391L21.9061 30.3329C20.7961 30.229 19.6609 30.4923 18.7099 31.0746C18.1882 31.394 17.5892 31.5629 16.9776 31.5629H13.8692V30.0493C13.8691 28.75 14.926 27.6931 16.2251 27.6931ZM13.8691 34.2541V33.4375H16.9775C17.935 33.4375 18.8725 33.1731 19.689 32.6731C20.2965 32.301 21.0217 32.1328 21.7309 32.1993L23.0396 32.322C23.0404 32.8994 23.0419 33.6611 23.0451 34.2506C22.5232 34.3423 22.1171 34.7821 22.0852 35.3271C21.9736 37.2439 20.3786 38.7453 18.4541 38.7453C16.5336 38.7453 14.9362 37.2451 14.8174 35.3299C14.7839 34.7901 14.384 34.353 13.8691 34.2541ZM18.4541 40.6201C18.9355 40.6201 19.4029 40.5569 19.8491 40.4403L19.8514 40.963C19.8524 41.2055 19.908 41.4369 20.0065 41.6449C19.5404 41.9594 18.9882 42.1329 18.4094 42.1346C18.4065 42.1346 18.4036 42.1346 18.4007 42.1346C17.8272 42.1346 17.2792 41.9658 16.8147 41.6579C16.9115 41.449 16.9657 41.2175 16.9647 40.975L16.9624 40.4145C17.4376 40.5484 17.9381 40.6201 18.4541 40.6201ZM10.4582 45.0005C10.5944 44.3146 11.0322 43.743 11.664 43.4583C12.3017 43.1711 13.5301 42.8828 15.0771 42.6543C15.9609 43.5216 17.1442 44.0094 18.4004 44.0094H18.4146C19.6801 44.0056 20.8699 43.5074 21.7526 42.6261C23.3016 42.8416 24.5324 43.1195 25.1725 43.4014C25.8899 43.7171 26.3536 44.3186 26.4672 45.0516C21.8281 48.8619 15.0786 48.8445 10.4582 45.0005Z" fill="#002661"/>
</g>
<defs>
<clipPath id="clip0_66_87">
<rect width="64" height="64" fill="white"/>
</clipPath>
</defs>
</svg>
