<svg width="56" height="64" viewBox="0 0 56 64" fill="none" xmlns="http://www.w3.org/2000/svg">
<path d="M54.2991 11.0514C45.4935 8.63864 36.6361 4.88177 28.6845 0.187031C28.2622 -0.0623436 27.738 -0.0623436 27.3158 0.187031C19.1348 5.01665 10.7561 8.57027 1.70046 11.0514C1.11546 11.2115 0.709961 11.7433 0.709961 12.3499V26.1056C0.709961 40.271 7.24482 49.6474 12.7271 55.0188C18.6291 60.8019 25.504 64 28.0002 64C30.496 64 37.371 60.8019 43.273 55.0188C48.7551 49.6476 55.2896 40.2711 55.2896 26.1056V12.3498C55.2896 11.7433 54.8841 11.2115 54.2991 11.0514ZM52.5971 26.1055C52.5971 39.3358 46.502 48.0852 41.3885 53.0954C35.5846 58.7823 29.3793 61.3073 28.0002 61.3073C26.621 61.3073 20.4153 58.7823 14.6113 53.0954C9.49794 48.0851 3.40258 39.3358 3.40258 26.1055V13.3718C12.0623 10.913 20.1271 7.48164 28.0004 2.90628C35.6771 7.36027 44.1443 10.9623 52.5971 13.3713V26.1055Z" fill="#002661"/>
<path d="M16.0669 13.2211C15.7944 12.5293 15.0128 12.1894 14.3208 12.462C11.9158 13.4096 9.44727 14.2819 6.9839 15.0546C6.42253 15.2309 6.04053 15.7509 6.04053 16.3391V21.538C6.04053 22.2815 6.6434 22.8843 7.38677 22.8843C8.13015 22.8843 8.73302 22.2815 8.73302 21.538V17.323C10.9429 16.608 13.1504 15.8171 15.3078 14.967C15.9996 14.6946 16.3395 13.913 16.0669 13.2211Z" fill="#002661"/>
<path d="M18.6242 13.4765C18.8049 13.4765 18.9882 13.4401 19.1641 13.3634L19.1889 13.3526C19.87 13.0541 20.1767 12.2613 19.8782 11.5804C19.5795 10.8993 18.7821 10.5912 18.1017 10.8894L18.08 10.8988C17.3985 11.1964 17.0907 11.9886 17.3884 12.6699C17.6092 13.1756 18.1049 13.4765 18.6242 13.4765Z" fill="#002661"/>
<path d="M44.0399 43.4103C43.4178 43.0037 42.5835 43.1785 42.1764 43.8009C41.067 45.4989 39.7655 47.1249 38.3075 48.6333C37.1085 49.8735 35.8093 51.0295 34.4459 52.0689C33.8548 52.5196 33.7411 53.3644 34.1917 53.9558C34.4568 54.3031 34.8577 54.4859 35.2632 54.4859C35.5479 54.4859 35.8348 54.396 36.0785 54.21C37.5492 53.0886 38.9504 51.842 40.2432 50.5048C41.8195 48.8743 43.2283 47.1143 44.4305 45.2736C44.8374 44.6512 44.6623 43.8169 44.0399 43.4103Z" fill="#002661"/>
<path d="M31.3196 54.1802L31.2424 54.2257C30.599 54.5984 30.3791 55.4219 30.7516 56.0652C31.0013 56.4965 31.4531 56.7372 31.918 56.7372C32.1467 56.7372 32.379 56.6789 32.5911 56.5557L32.6802 56.5034C33.3219 56.1276 33.5374 55.303 33.1616 54.6614C32.7856 54.02 31.9609 53.8049 31.3196 54.1802Z" fill="#002661"/>
<path d="M18.8235 29.2524C17.9969 28.4257 16.8975 27.9707 15.7282 27.9707C14.559 27.9707 13.4595 28.4258 12.6325 29.2524C10.9259 30.9594 10.9259 33.7369 12.6325 35.4438L20.582 43.393C21.4087 44.2195 22.5081 44.6747 23.6775 44.6747C24.8469 44.6747 25.9462 44.2195 26.7731 43.3928L43.3682 26.7976C45.0747 25.0902 45.0747 22.3131 43.3679 20.6067C42.5412 19.78 41.4418 19.325 40.2723 19.325C39.103 19.325 38.0036 19.7801 37.1767 20.6067L23.6774 34.106L18.8235 29.2524ZM39.0807 22.5107C39.3988 22.1926 39.8222 22.0174 40.2724 22.0174C40.7229 22.0174 41.1459 22.1926 41.4643 22.5107C42.1212 23.1676 42.1212 24.2368 41.4641 24.8939L24.8692 41.4889C24.5511 41.807 24.1277 41.9822 23.6775 41.9822C23.2272 41.9822 22.8039 41.807 22.4856 41.4889L14.5364 33.5399C13.8793 32.8828 13.8793 31.8136 14.5361 31.1567C14.8544 30.8386 15.2778 30.6632 15.7281 30.6632C16.1785 30.6632 16.6016 30.8383 16.9197 31.1564L22.7254 36.9622C22.978 37.2145 23.3202 37.3564 23.6774 37.3564C24.0345 37.3564 24.3767 37.2147 24.6291 36.9622L39.0807 22.5107Z" fill="#002661"/>
</svg>
