<svg width="62" height="62" viewBox="0 0 62 62" fill="none" xmlns="http://www.w3.org/2000/svg">
<g clip-path="url(#clip0_66_1490)">
<path d="M9.64079 59.8941C9.81059 60.4391 10.1276 60.9267 10.5569 61.3031C10.9861 61.6794 11.511 61.9299 12.0735 62.0269C12.6361 62.124 13.2146 62.0638 13.7451 61.853C14.2756 61.6422 14.7377 61.289 15.0803 60.8324L17.615 57.4534C17.89 57.0199 18.2528 56.6488 18.6799 56.364C19.1071 56.0793 19.5891 55.8871 20.095 55.8H38.7271C40.0299 55.7617 41.2675 55.2216 42.1815 54.2924L55.0775 41.1639C55.8234 40.4027 56.2482 39.384 56.2641 38.3183C56.2799 37.2527 55.8856 36.2218 55.1627 35.4387C54.4398 34.6557 53.4435 34.1804 52.38 34.1113C51.3166 34.0422 50.2672 34.3844 49.4489 35.0672L41.049 42.0991C40.6423 41.5376 40.1073 41.0814 39.4886 40.7685C38.87 40.4556 38.1855 40.295 37.4922 40.3H26.9646C26.7505 40.3078 26.5402 40.2414 26.3694 40.112C24.893 38.8971 23.0403 38.233 21.1284 38.2334C12.407 38.2334 8.95259 43.1128 7.70226 44.0004C7.04084 44.6648 6.57293 45.4968 6.34882 46.4071C6.1247 47.3174 6.15285 48.2716 6.43022 49.1671L9.64079 59.8941ZM9.17372 45.4543C10.2071 44.7186 13.3505 40.3031 21.1284 40.3031C22.5618 40.2954 23.952 40.793 25.055 41.7085C25.5963 42.1438 26.2721 42.3776 26.9667 42.3698H37.4922C37.7636 42.3587 38.0346 42.4011 38.2896 42.4947C38.5446 42.5883 38.7786 42.7312 38.9784 42.9152C39.1782 43.0992 39.3398 43.3208 39.4539 43.5673C39.568 43.8138 39.6325 44.0803 39.6436 44.3517C39.6548 44.6231 39.6123 44.8941 39.5187 45.1491C39.4252 45.4041 39.2823 45.6381 39.0982 45.8379C38.9142 46.0377 38.6926 46.1993 38.4461 46.3134C38.1996 46.4275 37.9331 46.492 37.6617 46.5031H26.295C26.021 46.5031 25.7581 46.612 25.5644 46.8058C25.3706 46.9996 25.2617 47.2624 25.2617 47.5365C25.2617 47.8105 25.3706 48.0734 25.5644 48.2671C25.7581 48.4609 26.021 48.5698 26.295 48.5698H37.6617C38.2226 48.5714 38.7779 48.4586 39.2938 48.2384C39.8096 48.0182 40.2752 47.6951 40.662 47.289C41.0488 46.8828 41.3488 46.4021 41.5436 45.8761C41.7384 45.3501 41.824 44.79 41.795 44.2298V44.1833L50.785 36.6586C50.9945 36.4823 51.2368 36.3491 51.498 36.2668C51.7592 36.1844 52.034 36.1546 52.3068 36.1789C52.5795 36.2032 52.8447 36.2812 53.0872 36.4083C53.3297 36.5355 53.5447 36.7094 53.7197 36.92C54.048 37.3191 54.2183 37.8249 54.1983 38.3413C54.1783 38.8577 53.9694 39.3488 53.6112 39.7214L40.7142 52.8447C40.1796 53.3883 39.457 53.7063 38.695 53.7334H20.095C18.0428 53.7334 16.5207 55.4652 15.9617 56.2134L13.4269 59.5934C13.3132 59.7447 13.1601 59.8619 12.9844 59.9322C12.8086 60.0025 12.6169 60.0231 12.4302 59.9919C12.2435 59.9606 12.069 59.8787 11.9257 59.7551C11.7824 59.6314 11.6758 59.4707 11.6176 59.2906L8.40699 48.5667C8.23906 48.0273 8.22172 47.4523 8.35686 46.9037C8.49199 46.3552 8.77445 45.854 9.17372 45.4543Z" fill="#002661"/>
<path d="M29.4656 35.65C30.0362 36.173 30.7821 36.4631 31.556 36.4631C32.33 36.4631 33.0759 36.173 33.6465 35.65C34.8772 34.5299 36.0614 33.4676 37.1939 32.4518C45.909 24.6419 51.6657 19.4783 51.6657 12.0342C51.6657 5.1739 47.1191 0 41.0947 0C39.4031 0.019942 37.7375 0.419308 36.2207 1.16866C34.704 1.918 33.3747 2.99822 32.331 4.32967C32.2369 4.4439 32.1185 4.53573 31.9845 4.59847C31.8504 4.66121 31.7041 4.69329 31.556 4.69237C31.4079 4.69322 31.2614 4.66112 31.1272 4.59839C30.993 4.53566 30.8744 4.44387 30.78 4.32967C29.7365 2.9983 28.4074 1.91812 26.8908 1.16878C25.3743 0.41943 23.7088 0.020022 22.0173 0C15.9909 0 11.4453 5.1739 11.4453 12.0342C11.4453 19.4742 17.202 24.6409 25.9171 32.456C27.0497 33.4717 28.2339 34.534 29.4656 35.65ZM47.5913 18.63C47.3701 17.4636 46.9955 16.3315 46.4774 15.2634C46.0123 14.3283 45.6788 13.3334 45.4864 12.307C45.4516 12.1509 45.4532 11.989 45.491 11.8336C45.5288 11.6783 45.6018 11.5337 45.7044 11.4111C46.2356 10.7787 47.6099 10.3395 49.4596 10.1938C49.5511 10.803 49.5977 11.4182 49.5991 12.0342C49.5649 14.3781 48.8689 16.6646 47.5913 18.63ZM48.9791 8.16333C47.1511 8.34107 45.165 8.835 44.1224 10.0822C43.8317 10.4295 43.6205 10.8361 43.5034 11.2736C43.3863 11.7111 43.3662 12.1689 43.4445 12.6149C43.6617 13.8235 44.0471 14.9956 44.5895 16.0973C45.4838 17.7286 45.8212 19.6073 45.5505 21.4479C44.8919 22.2394 44.1637 23.0437 43.366 23.8607C43.2338 22.3636 42.6512 20.9417 41.6951 19.7821C38.8297 16.2698 33.3385 15.5 31.4641 15.5C29.7074 15.5 28.8632 16.679 28.1181 17.7175C27.0786 19.1673 26.005 20.6667 22.1641 20.6667C20.6938 20.6475 19.273 21.1968 18.1981 22.2001C17.547 21.4657 16.9331 20.699 16.3588 19.903C16.4684 19.129 16.5264 18.3484 16.5324 17.5667C16.5324 14.4419 17.1348 14.3468 18.5887 14.1174C19.6337 14.0443 20.6432 13.7076 21.5228 13.1388C22.4025 12.5699 23.1236 11.7875 23.619 10.8645C24.8414 8.82157 25.3312 6.05947 25.0832 2.64017C25.9177 2.95846 26.7013 3.39673 27.4093 3.94113C26.4059 8.1964 26.8213 10.9936 28.6792 12.2264C29.2908 12.6823 30.0243 12.9456 30.7862 12.9828C31.3333 12.9243 31.8584 12.7358 32.3179 12.4331C32.7773 12.1304 33.1577 11.7222 33.4274 11.2427C33.8511 10.6764 34.129 10.3333 34.4194 10.3333C36.3128 10.1218 38.046 9.17104 39.242 7.688C40.6118 6.14215 41.3654 4.14657 41.3593 2.08113C43.1036 2.1786 44.7743 2.81651 46.1397 3.90638C47.5051 4.99624 48.4974 6.48402 48.9791 8.16333ZM31.555 6.75903C32.0055 6.75929 32.4505 6.66047 32.8586 6.46957C33.2666 6.27868 33.6277 6.00038 33.9162 5.6544C35.2779 3.95695 37.1701 2.76593 39.2895 2.2723C39.2512 3.76952 38.6842 5.20486 37.6889 6.324C36.8788 7.35592 35.713 8.04862 34.4194 8.26667C33.87 8.31728 33.3415 8.50206 32.8802 8.80476C32.419 9.10745 32.0391 9.51881 31.7741 10.0027C31.028 10.9967 30.874 11.2044 29.8231 10.5059C28.9479 9.92413 28.7309 8.14267 29.168 5.6265L29.1928 5.6544C29.4813 6.00068 29.8425 6.27917 30.2508 6.47009C30.659 6.661 31.1043 6.75965 31.555 6.75903ZM22.0173 2.06667C22.3331 2.07155 22.6484 2.09363 22.9618 2.1328C23.2026 4.56837 23.1457 7.63117 21.8468 9.80116C21.5034 10.4616 20.9916 11.0197 20.3632 11.4188C19.7349 11.818 19.0122 12.0442 18.2684 12.0745C16.2648 12.3897 14.7024 12.9518 14.4916 16.6697C13.8492 15.2078 13.5157 13.629 13.512 12.0321C13.512 6.3519 17.1679 2.06667 22.0173 2.06667ZM19.6035 23.715C20.295 23.0643 21.2148 22.7117 22.1641 22.7333C27.0662 22.7333 28.7102 20.4393 29.7983 18.9224C30.5217 17.918 30.8255 17.5667 31.4641 17.5667C33.3427 17.5667 37.9224 18.4274 40.0914 21.0893C40.6341 21.7701 41.0162 22.5645 41.2093 23.4134C41.4023 24.2624 41.4013 25.144 41.2063 25.9925C39.5892 27.5301 37.785 29.1514 35.8144 30.9184C34.6791 31.9359 33.4929 33.0036 32.2556 34.1217C32.0648 34.2974 31.8149 34.395 31.5555 34.395C31.2961 34.395 31.0462 34.2974 30.8554 34.1217C29.6203 32.9988 28.434 31.931 27.2966 30.9184C24.3279 28.2565 21.729 25.9201 19.6035 23.715Z" fill="#002661"/>
</g>
<defs>
<clipPath id="clip0_66_1490">
<rect width="62" height="62" fill="white"/>
</clipPath>
</defs>
</svg>
