<svg width="68" height="68" viewBox="0 0 68 68" fill="none" xmlns="http://www.w3.org/2000/svg">
<path d="M67.3315 33.554L56.4966 7.62114L46.0421 11.9892C46.1733 10.7562 46.1733 9.01157 45.5043 7.75231C44.0089 4.95833 40.5197 3.89583 37.7257 5.3912C34.9318 6.88657 33.8693 10.3758 35.3646 13.1697C35.8893 14.1535 36.6764 14.9537 37.647 15.4915L26.4711 20.1481C26.2219 19.3611 25.8415 18.6134 25.3561 17.9444C25.5004 17.8657 25.6185 17.7739 25.7365 17.6559C26.012 17.3804 26.1825 17.0131 26.1825 16.6196L26.1301 12.2909H27.022C27.2319 12.2909 27.4287 12.1991 27.573 12.0548C27.7304 11.9105 27.8091 11.7006 27.8091 11.4907L27.6517 0L26.0776 0.0262346L26.2219 10.7168L5.19486 10.8742L5.05057 0L3.4765 0.0262346L3.62079 11.6875C3.63391 12.1204 3.97496 12.4483 4.40783 12.4614H5.32604C5.32604 12.5008 5.37851 16.7901 5.37851 16.7901C5.39162 17.2623 5.62773 17.6952 6.00814 17.9707L5.43098 18.8889C5.20798 19.243 4.90628 20.1219 4.90628 20.1219H4.89317L2.59764 28.6875L3.20104 30.5501L2.34841 30.9305C1.56137 31.2847 0.931744 31.9275 0.630046 32.7407C0.328349 33.554 0.354583 34.446 0.70875 35.233L12.37 61.2839L23.2967 56.3912C23.6902 56.2207 23.9657 55.8534 24.0051 55.4205C24.0444 54.9876 23.8477 54.5679 23.4935 54.3318C22.0899 53.348 21.1193 52.2855 20.8307 51.4197C20.0961 49.2423 21.2635 46.868 23.4541 46.1335C25.6316 45.3989 28.0058 46.5663 28.7404 48.7569C29.0946 49.7932 29.0159 50.9344 28.5305 51.9182C28.3207 52.3379 28.3994 52.8364 28.7273 53.1643C29.0421 53.5054 29.5406 53.6103 29.9603 53.4136L39.0375 49.3472C39.4703 49.1636 39.8376 48.8487 40.1 48.4552L41.4773 47.8912C41.6347 49.1898 42.12 50.4228 42.894 51.4853C42.7497 51.564 42.6316 51.669 42.5136 51.787C42.225 52.0625 42.0676 52.4429 42.0676 52.8364L42.1332 57.152H41.2412C41.0313 57.152 40.8345 57.2438 40.6903 57.3881C40.5328 57.5324 40.4541 57.7423 40.4673 57.9521L40.6116 67.8557H42.1856L42.0413 58.7392L63.0684 58.5687L63.2127 67.8688H64.7867L64.6424 57.7816C64.6293 57.3487 64.2883 57.0077 63.8554 56.9946H62.9372C62.9372 56.9683 62.9503 56.929 62.9503 56.9028L62.8847 52.679C62.8847 52.2068 62.6486 51.7608 62.2551 51.4984C62.5568 51.0131 62.7929 50.6458 62.8322 50.5671C63.0552 50.2261 63.2258 49.8457 63.3307 49.439L63.3569 49.3472H63.3701L65.6656 40.7685L64.8261 38.1188L65.5869 37.804C67.2397 37.1219 68.0267 35.2461 67.3446 33.5934C67.3446 33.5802 67.3315 33.5671 67.3315 33.554ZM12.3831 26.4444L12.252 26.6674C11.36 28.2415 9.74656 28.9367 9.73345 28.9367L9.15629 29.1728C9.15629 29.1728 10.0614 34.6427 10.3106 36.2299C10.4549 37.1744 10.2844 38.1451 9.81215 38.9714C9.4711 39.4568 8.92018 39.7454 8.3299 39.7454C7.92326 39.7322 7.75274 39.5224 7.68715 39.4043L5.12928 31.4159L4.64394 29.9074L4.2373 28.6481L6.45412 20.3974C6.51971 20.1613 6.62465 19.9383 6.75582 19.7284C6.75582 19.7284 7.16246 19.0725 7.62156 18.3642L23.5722 18.233C24.2543 18.9545 24.7527 19.8333 25.0282 20.7909L12.3831 26.4444ZM24.3199 16.6721H24.2936V16.6458L7.28051 16.777C7.16246 16.7901 7.05752 16.7508 6.9657 16.6852V16.5278L6.91323 12.5664C7.00505 12.5139 7.10999 12.4745 7.21493 12.4745L24.2543 12.3434C24.3723 12.3302 24.4773 12.3696 24.5691 12.4352L24.6347 16.5802C24.5429 16.6327 24.4248 16.6721 24.3199 16.6721ZM38.3947 47.9043L30.3538 51.5116C31.1278 48.429 29.2651 45.3071 26.1825 44.5332C23.1 43.7592 19.9781 45.6219 19.2041 48.7045C18.9287 49.767 18.9811 50.895 19.3222 51.9313C19.7682 53.2299 20.9618 54.3842 22.0506 55.2237L13.1439 59.2114L2.12542 34.5903C1.94178 34.1836 1.92866 33.7245 2.09918 33.3048C2.25659 32.885 2.57141 32.5571 2.97804 32.3734L3.67326 32.0586L6.24425 40.0733C6.63777 40.821 7.39857 41.3063 8.25119 41.3194C8.25119 41.3194 10.2975 41.3588 11.137 39.7978V39.7716C11.7929 38.6173 12.0421 37.2793 11.8322 35.9676C11.6355 34.7083 11.0976 31.4159 10.8747 30.091C11.924 29.5139 12.816 28.6744 13.4719 27.6775L26.7859 21.7091C26.7859 21.7091 27.1532 21.4992 27.4418 21.5648C27.6123 21.6304 27.7697 21.8272 27.8484 21.9977L31.9673 31.4159C32.1378 31.8488 32.5707 32.1111 33.0298 32.0849C33.4889 32.0586 33.8824 31.7438 34.0267 31.3109C34.3808 30.1173 35.2466 29.1597 36.4009 28.6875C38.4472 27.7693 40.8608 28.6744 41.779 30.7207C42.6316 32.6096 41.9364 34.8264 40.1524 35.8889C39.0112 36.5316 37.0174 36.3742 36.2173 36.2824C35.7975 36.2299 35.3778 36.4136 35.1154 36.7546C35.1154 36.7677 34.735 37.2006 34.9842 37.9483L38.8801 46.6319C39.0244 46.9599 38.9719 47.3534 38.7489 47.6288C38.6702 47.7469 38.539 47.8518 38.3947 47.9043ZM61.3106 52.902L61.3762 56.8634C61.2844 56.929 61.1795 56.9683 61.0614 56.9552L44.022 57.0864C43.904 57.0995 43.7991 57.0602 43.7072 56.9946L43.6416 52.9151L61.3106 52.902ZM61.8091 49.0324C61.7435 49.2685 61.6386 49.4915 61.5074 49.7014V49.7276C61.5074 49.7276 61.1139 50.3703 60.6548 51.0787L60.4974 51.3279H44.8222L44.691 51.1967C43.681 50.1211 43.0776 48.7176 42.9989 47.2353L54.3585 42.5C54.1092 42.946 53.8731 43.4182 53.6501 43.8904L55.0799 44.5594C55.3685 43.9429 55.6833 43.3395 56.0113 42.7623C56.3392 42.1852 56.7852 41.6867 57.2967 41.267C57.6772 40.9521 58.0838 40.7029 58.5298 40.493L59.1069 40.2569L59.0151 39.6404C59.002 39.6273 58.9626 39.3387 58.8839 38.9058C58.6478 37.4892 58.1494 34.4197 57.9526 33.213C57.8083 32.2685 57.9788 31.2978 58.4511 30.4714C58.7921 29.9861 59.343 29.6844 59.9333 29.6844C60.34 29.6975 60.5105 29.9074 60.5761 30.0386L62.8847 37.2268L63.3701 38.7353L64.0259 40.7947L61.8091 49.0324ZM65.8886 35.4429C65.7181 35.8495 65.3901 36.1775 64.9835 36.348L64.3407 36.6234L62.0059 29.3565C61.6123 28.6088 60.8515 28.1366 60.012 28.1103C57.992 28.1628 57.1131 29.6451 57.1131 29.6451C56.4572 30.7994 56.208 32.1373 56.4179 33.4491C56.6147 34.7214 57.1525 38.0008 57.3755 39.3256C57.0738 39.4961 56.7852 39.6929 56.5097 39.9028L40.5066 46.5926C40.4673 46.3827 36.8207 38.1713 36.8207 38.1713C38.1193 38.2631 39.6146 38.1975 40.7296 37.6072L41.2281 37.3055C41.8315 36.8989 42.3562 36.3873 42.7628 35.7839L42.9333 35.5216C43.235 35.0231 43.458 34.4853 43.6023 33.9213C43.6154 33.8951 43.6154 33.8688 43.6154 33.8426H43.6285C43.7728 33.331 43.8384 32.8063 43.8384 32.2685C43.8384 31.6913 43.7466 31.1011 43.5761 30.5501C42.6316 27.5201 39.4048 25.841 36.3747 26.7855C34.9187 27.2446 33.6987 28.2677 32.9904 29.6319L32.0591 27.5463C31.7574 26.7986 29.7504 22.3912 29.3044 21.368C29.1995 21.1713 29.0815 20.9745 28.9372 20.804L39.3129 16.5278C39.7458 16.3441 40.0082 15.9113 39.9819 15.4522C39.9688 14.9931 39.654 14.5995 39.2211 14.4684C37.0174 13.7994 35.7713 11.4776 36.4403 9.2608C36.5058 9.05092 36.5845 8.85416 36.6764 8.6574C37.1879 7.58179 38.1324 6.76852 39.2867 6.4537C41.1756 5.91589 43.1825 6.7554 44.1139 8.48688C44.7304 9.6412 44.5205 11.6219 44.4025 12.4221C44.35 12.8549 44.5205 13.2747 44.8616 13.537C45.2026 13.7994 45.6486 13.865 46.0421 13.6944L55.644 9.68055L65.8755 34.1574C66.0591 34.564 66.0591 35.0363 65.8886 35.4429Z" fill="#002661"/>
<path d="M18.0335 61.6388L16.6348 62.3607L18.4515 65.8808L19.8502 65.159L18.0335 61.6388Z" fill="#002661"/>
<path d="M7.09796 61.7021L5.28125 65.2222L6.67997 65.9441L8.49668 62.424L7.09796 61.7021Z" fill="#002661"/>
<path d="M11.796 63.9566L11.6992 67.9169L13.2728 67.9553L13.3696 63.9951L11.796 63.9566Z" fill="#002661"/>
<path d="M51.3147 2.22173L49.916 2.9436L51.7327 6.46372L53.1314 5.74185L51.3147 2.22173Z" fill="#002661"/>
<path d="M63.0901 2.27456L61.2734 5.79468L62.6722 6.51655L64.4889 2.99643L63.0901 2.27456Z" fill="#002661"/>
<path d="M56.4054 0.170258L56.3086 4.13049L57.8822 4.16895L57.979 0.208716L56.4054 0.170258Z" fill="#002661"/>
</svg>
