<svg width="68" height="68" viewBox="0 0 68 68" fill="none" xmlns="http://www.w3.org/2000/svg">
<g clip-path="url(#clip0_66_1854)">
<path d="M23.6091 15.9669C23.4137 16.5681 23.606 17.2125 24.0987 17.6087L28.4862 21.1351L27.0095 26.567C26.8437 27.1769 27.067 27.8112 27.5787 28.1833C28.0905 28.5547 28.7624 28.571 29.2914 28.2249L34.0011 25.1419L38.7109 28.225C38.9648 28.3912 39.2516 28.4738 39.5378 28.4738C39.848 28.4738 40.1576 28.3767 40.4234 28.1833C40.9354 27.8116 41.1588 27.1769 40.9926 26.567L39.5159 21.1353L43.9031 17.6089C44.3962 17.2129 44.5885 16.5684 44.393 15.9669C44.1976 15.3652 43.6632 14.9568 43.0317 14.9263L37.4093 14.6521L35.4113 9.38984C35.187 8.79869 34.6333 8.41659 34.001 8.41659C33.3686 8.41659 32.815 8.79856 32.5908 9.38971L30.5926 14.6523L24.9706 14.9263C24.3389 14.9568 23.8044 15.3652 23.6091 15.9669ZM31.0991 16.755C31.6984 16.7257 32.2231 16.3444 32.4358 15.7837L34.0008 11.6619L35.5659 15.7841C35.7789 16.3447 36.3038 16.7257 36.9025 16.755L41.3062 16.9697L37.8695 19.7318C37.4019 20.1078 37.2016 20.7247 37.359 21.3033L38.5157 25.5578L34.8267 23.1428C34.5758 22.9787 34.2882 22.8966 34.0007 22.8966C33.7132 22.8966 33.4254 22.9788 33.1743 23.143L29.4856 25.5578L30.6423 21.3035C30.7998 20.7246 30.5994 20.1075 30.1316 19.7318L26.6951 16.9699L31.0991 16.755ZM32.9383 4.96161V1.0625C32.9383 0.475734 33.4141 0 34.0008 0C34.5876 0 35.0633 0.475734 35.0633 1.0625V4.96161C35.0633 5.54838 34.5876 6.02411 34.0008 6.02411C33.4141 6.02411 32.9383 5.54838 32.9383 4.96161ZM39.4088 11.2567C39.0162 10.8206 39.0514 10.1487 39.4875 9.75614L43.8324 5.84375C44.2686 5.45102 44.9403 5.48622 45.3331 5.92237C45.7257 6.3584 45.6905 7.0303 45.2544 7.42289L40.9093 11.3353C40.7063 11.5182 40.4521 11.6082 40.1987 11.6082C39.9082 11.6082 39.6187 11.4897 39.4088 11.2567ZM22.6686 5.92237C23.0612 5.48622 23.733 5.45102 24.1693 5.84375L28.5144 9.75614C28.9504 10.1487 28.9856 10.8206 28.593 11.2567C28.3831 11.4896 28.0936 11.6082 27.803 11.6082C27.5497 11.6082 27.2955 11.5182 27.0923 11.3353L22.7472 7.42289C22.3111 7.0303 22.276 6.3584 22.6686 5.92237ZM47.6319 17.6087L52.0194 21.1351L50.5426 26.567C50.3769 27.1769 50.6001 27.8112 51.1119 28.1833C51.6233 28.5547 52.2954 28.5709 52.8246 28.2249L57.5343 25.1419L62.2441 28.225C62.498 28.3912 62.7848 28.4738 63.071 28.4738C63.3812 28.4738 63.6908 28.3767 63.9566 28.1833C64.4683 27.8119 64.6917 27.1774 64.5258 26.567L63.0491 21.1353L67.4362 17.6089C67.9292 17.213 68.1216 16.5685 67.9261 15.9669C67.7307 15.3652 67.1963 14.9568 66.5649 14.9263L60.9425 14.6521L58.9446 9.38984C58.7203 8.79869 58.1666 8.41659 57.5343 8.41659C56.9018 8.41659 56.3481 8.79856 56.1238 9.38971L54.1259 14.6521L48.504 14.9261C47.872 14.9567 47.3376 15.3652 47.1422 15.9669C46.9467 16.5684 47.139 17.2129 47.6319 17.6087ZM54.6322 16.755C55.2316 16.7257 55.7565 16.3444 55.9692 15.7836L57.5341 11.6617L59.0989 15.7834C59.3118 16.3444 59.8367 16.7257 60.4358 16.7548L64.8395 16.9696L61.4032 19.7314C60.9353 20.1073 60.7348 20.7243 60.8923 21.3031L62.049 25.5576L58.36 23.1427C58.109 22.9786 57.8214 22.8965 57.5339 22.8965C57.2462 22.8965 56.9585 22.9787 56.7077 23.1428L53.0189 25.5576L54.1756 21.3034C54.333 20.7247 54.1327 20.1078 53.6649 19.7317L50.2284 16.9696L54.6322 16.755ZM0.56529 17.6087L4.95275 21.1351L3.47601 26.567C3.31026 27.1769 3.53352 27.8112 4.04524 28.1833C4.5571 28.5547 5.229 28.571 5.75799 28.2249L10.4677 25.1419L15.1775 28.225C15.4314 28.3912 15.7181 28.4738 16.0043 28.4738C16.3146 28.4738 16.6242 28.3767 16.8899 28.1833C17.4017 27.8119 17.6251 27.1774 17.4592 26.567L15.9824 21.1353L20.3696 17.6089C20.8624 17.2133 21.0548 16.5689 20.8594 15.9662C20.6637 15.3649 20.1292 14.9567 19.4982 14.9261L13.8759 14.652L11.878 9.38984C11.6537 8.79869 11.1 8.41659 10.4677 8.41659C9.8352 8.41659 9.28151 8.79856 9.05719 9.38971L7.05929 14.6521L1.43734 14.9261C0.805547 14.9567 0.27111 15.3652 0.0758755 15.9662C-0.120023 16.568 0.0721568 17.2128 0.56529 17.6087ZM7.56557 16.755C8.16495 16.7257 8.68983 16.3444 8.90259 15.7836L10.4675 11.6617L12.0323 15.7834C12.2452 16.3444 12.7701 16.7257 13.3692 16.7548L17.7729 16.9696L14.3366 19.7314C13.8687 20.1073 13.6682 20.7243 13.8257 21.3031L14.9824 25.5576L11.2934 23.1427C11.0423 22.9786 10.7548 22.8965 10.4673 22.8965C10.1796 22.8965 9.89192 22.9787 9.64103 23.1428L5.9523 25.5576L7.10896 21.3034C7.26634 20.7247 7.06606 20.1078 6.5983 19.7317L3.16177 16.9696L7.56557 16.755ZM67.8336 56.4364C67.086 54.0222 65.5548 51.8544 63.5219 50.3321C62.5486 49.6033 61.4888 49.0357 60.3708 48.6338C61.9208 47.4172 62.9196 45.5287 62.9196 43.4099C62.9196 39.7488 59.941 36.7703 56.28 36.7703C52.6189 36.7703 49.6403 39.7488 49.6403 43.4099C49.6403 45.5261 50.6367 47.4129 52.1837 48.6296C50.1103 49.3696 48.2735 50.6698 46.8669 52.4219C46.2095 51.5022 45.4511 50.6479 44.5986 49.8769C42.8808 48.3234 40.8648 47.1826 38.6938 46.5083C40.9961 44.982 42.5181 42.3686 42.5181 39.4055C42.5181 34.7092 38.6972 30.8885 34.001 30.8885C29.3047 30.8885 25.4838 34.7092 25.4838 39.4055C25.4838 42.3686 27.0057 44.982 29.308 46.5083C27.1368 47.1824 25.1209 48.3234 23.4031 49.8769C22.5505 50.6479 21.7922 51.5022 21.1349 52.4218C19.7284 50.6696 17.8916 49.3693 15.8181 48.6292C17.365 47.4125 18.3615 45.5257 18.3615 43.4095C18.3615 39.7484 15.3829 36.7699 11.7219 36.7699C8.06083 36.7699 5.08224 39.7484 5.08224 43.4095C5.08224 45.5281 6.08099 47.4169 7.63091 48.6334C6.5129 49.0353 5.45306 49.6029 4.47967 50.3317C2.44671 51.8539 0.915516 54.0217 0.167915 56.4359C-0.177531 57.551 0.0138521 58.6827 0.706735 59.6227C1.39948 60.5625 2.424 61.0799 3.59142 61.0799H18.2796V62.9975C18.2796 65.756 20.5237 68.0001 23.2822 68.0001H44.7195C47.4778 68.0001 49.7221 65.756 49.7222 62.9975V61.0805H64.4102C65.5778 61.0805 66.6023 60.5629 67.2949 59.6233C67.9877 58.6832 68.1791 57.5514 67.8336 56.4364ZM56.28 38.8953C58.7693 38.8953 60.7946 40.9206 60.7946 43.4099C60.7946 45.8993 58.7693 47.9246 56.28 47.9246C53.7906 47.9246 51.7653 45.8993 51.7653 43.4099C51.7653 40.9206 53.7906 38.8953 56.28 38.8953ZM27.6088 39.4055C27.6088 35.8809 30.4764 33.0135 34.001 33.0135C37.5255 33.0135 40.3931 35.8809 40.3931 39.4055C40.3931 42.929 37.5274 45.7956 34.0044 45.7975C34.0032 45.7975 34.0019 45.7975 34.0008 45.7975C33.9998 45.7975 33.9986 45.7975 33.9974 45.7975C30.4744 45.7955 27.6088 42.9289 27.6088 39.4055ZM11.7219 38.8948C14.2112 38.8948 16.2365 40.9201 16.2365 43.4094C16.2365 45.8988 14.2112 47.9241 11.7219 47.9241C9.2325 47.9241 7.20724 45.8988 7.20724 43.4094C7.20724 40.9201 9.2325 38.8948 11.7219 38.8948ZM18.4175 58.9548H3.59156C3.10254 58.9548 2.70756 58.7553 2.41736 58.3617C2.12703 57.968 2.05332 57.5316 2.19795 57.0645C3.49739 52.8683 7.32491 50.0491 11.7219 50.0491C15.048 50.0491 18.0778 51.6561 19.9413 54.3765C19.2046 55.8077 18.6886 57.3503 18.4175 58.9548ZM47.5972 62.9974C47.5971 64.5841 46.3062 65.875 44.7195 65.875H23.2822C21.6955 65.875 20.4046 64.5841 20.4046 62.9974V60.0751C21.1738 53.1439 27.0075 47.9242 33.9974 47.9225C33.9986 47.9225 33.9998 47.9226 34.001 47.9226C34.0022 47.9226 34.0034 47.9225 34.0044 47.9225C40.9942 47.9243 46.8277 53.1439 47.5972 60.0751V62.9974ZM65.5844 58.3623C65.2943 58.7559 64.8994 58.9553 64.4102 58.9553H49.5844C49.3132 57.3507 48.7972 55.8081 48.0606 54.3768C49.9243 51.6565 52.954 50.0496 56.2799 50.0496C60.6769 50.0496 64.5044 52.8689 65.8038 57.0651C65.9485 57.532 65.8746 57.9684 65.5844 58.3623Z" fill="#002661"/>
</g>
<defs>
<clipPath id="clip0_66_1854">
<rect width="68" height="68" fill="white"/>
</clipPath>
</defs>
</svg>
