<svg width="64" height="64" viewBox="0 0 64 64" fill="none" xmlns="http://www.w3.org/2000/svg">
<g clip-path="url(#clip0_66_104)">
<path d="M55.4943 47.74C55.0653 47.4503 54.4823 47.5631 54.1925 47.992C48.8577 55.8875 39.992 60.6012 30.4764 60.6012C22.8368 60.6012 15.6542 57.6261 10.2521 52.2241C4.85012 46.8221 1.875 39.6396 1.875 32C1.875 26.2444 3.577 20.6955 6.79688 15.9535C9.94088 11.3234 14.323 7.74075 19.4695 5.59313C19.9473 5.39363 20.173 4.84475 19.9736 4.36675C19.774 3.88888 19.2255 3.66375 18.7472 3.86263C13.2636 6.15113 8.595 9.96775 5.24575 14.9003C1.814 19.9543 0 25.8673 0 32C0 40.1405 3.17 47.7939 8.92625 53.55C14.6825 59.3061 22.3358 62.4762 30.4762 62.4762C40.6155 62.4762 50.0622 57.454 55.7461 49.0418C56.036 48.6128 55.9233 48.03 55.4943 47.74Z" fill="black"/>
<path d="M5.98193 31.9997C5.98193 38.5428 8.52981 44.694 13.1561 49.32C17.7823 53.9462 23.9336 56.494 30.4766 56.4938C34.9334 56.4938 39.2981 55.2833 43.0984 52.9935C43.5576 52.7168 43.8581 52.2535 43.9231 51.722C43.9878 51.1921 43.8084 50.6717 43.4309 50.2941L12.1819 19.0453C11.8043 18.6678 11.2844 18.4878 10.7541 18.5532C10.2227 18.6181 9.75931 18.9186 9.48281 19.3777C7.27631 23.0408 5.98193 27.4046 5.98193 31.9997ZM8.77106 25.6372H16.1222L31.8912 41.4061H9.89406C8.56068 38.4921 7.85706 35.3002 7.85706 31.9996C7.85693 29.8338 8.16956 27.6925 8.77106 25.6372ZM30.4766 54.6188C24.4343 54.6188 18.7539 52.2662 14.4818 47.9942C13.0551 46.5675 11.8437 44.9831 10.8612 43.2812H33.7661L41.9689 51.4841C38.4989 53.5355 34.5294 54.6188 30.4766 54.6188ZM10.9922 20.5072L14.2472 23.7622H9.40918C9.84793 22.64 10.3753 21.5507 10.9922 20.5072Z" fill="black"/>
<path d="M64 36.0924V13.1786C64 11.8008 62.879 10.6799 61.5013 10.6799H52.2508C49.4957 7.86506 46.278 5.63931 42.6782 4.06481C38.823 2.37868 34.7177 1.52368 30.4763 1.52368C27.9483 1.52368 25.4362 1.83393 23.0097 2.44581C22.5075 2.57243 22.2033 3.08206 22.3299 3.58406C22.4565 4.08606 22.9667 4.39006 23.4682 4.26381C25.7449 3.68968 28.1028 3.39856 30.4763 3.39856C34.4577 3.39856 38.31 4.20068 41.9268 5.78256C44.7253 7.00656 47.278 8.65006 49.5422 10.6798H47.1275C46.1114 10.6798 45.2367 11.2904 44.8465 12.1632C40.6864 9.14993 35.6453 7.50606 30.4763 7.50606C24.5178 7.50606 18.775 9.67143 14.3065 13.6029C13.952 13.9143 13.7399 14.3642 13.7245 14.8371C13.709 15.3127 13.8933 15.7786 14.2297 16.1153L46.3609 48.2464C47.0633 48.9488 48.2168 48.9169 48.8727 48.1706C50.2595 46.5951 51.4328 44.8509 52.3714 42.9824H56.8922C56.6942 43.4582 56.4829 43.9319 56.2579 44.3998C56.0334 44.8663 56.2297 45.4266 56.6964 45.6511C57.1634 45.8756 57.7234 45.6789 57.9477 45.2126C58.3005 44.4789 58.623 43.7312 58.9122 42.9824H61.5015C62.8793 42.9824 64.0003 41.8614 64.0003 40.4837C64 40.4837 64 36.0944 64 36.0924ZM55.7335 41.1074H52.895C53.335 37.4124 50.1393 34.3507 46.5037 34.8864V31.4938C47.937 30.4879 48.9624 28.9282 49.2637 27.0811C49.2774 26.9964 49.3653 26.9302 49.4639 26.9302H49.4729C49.5368 29.0983 51.6828 30.8461 54.3137 30.8461C56.9852 30.8461 59.1587 29.0451 59.1587 26.8312C59.1587 25.7847 58.6693 24.7932 57.8193 24.0551C58.0219 23.5413 58.1345 22.9824 58.1345 22.3976V22.3702C58.1345 21.2858 57.2524 20.4038 56.1682 20.4038H46.5038V18.7754C50.1492 19.3126 53.3338 16.2399 52.8952 12.5549H55.7335C55.2947 16.2417 58.4829 19.3128 62.125 18.7754V34.8866C58.482 34.3489 55.2947 37.4209 55.7335 41.1074ZM40.1113 38.9249H39.6909L36.75 35.9841V26.9299H38.2538C39.195 26.9299 40.1205 26.6076 40.8603 26.0217L45.1218 22.6398C45.4152 22.4071 45.783 22.2787 46.1578 22.2787H56.1682C56.2185 22.2787 56.2595 22.3197 56.2595 22.3701V22.3974C56.2595 23.8629 55.0673 25.0551 53.6018 25.0551H49.4639C48.4385 25.0551 47.5759 25.7802 47.4132 26.7792C47.0283 29.1393 45.0059 30.8346 42.6345 30.8346C42.1167 30.8346 41.697 31.2542 41.697 31.7721C41.697 32.2899 42.1167 32.7096 42.6345 32.7096C43.3277 32.7096 43.9973 32.6044 44.6287 32.4103V40.2718C43.9227 40.2083 43.2368 40.0309 42.5834 39.7386L41.3573 39.1912C40.9673 39.0171 40.5364 38.9249 40.1113 38.9249ZM34.875 34.1091L26.4033 25.6373H34.8314C34.8554 25.6373 34.8752 25.6569 34.8752 25.6812V34.1091H34.875ZM53.6018 26.9302C54.8329 26.9302 55.9504 26.4362 56.768 25.6368C57.1009 25.9872 57.2837 26.4003 57.2837 26.8312C57.2837 27.9911 55.9235 28.9711 54.3137 28.9711C52.7504 28.9711 51.4232 28.0463 51.3485 26.9302H53.6018ZM46.5038 40.4837V36.7933C49.1105 36.2059 51.4768 38.4746 51.0008 41.1076H47.1275C46.7837 41.1074 46.5038 40.8277 46.5038 40.4837ZM62.125 13.1786V16.8686C59.5237 17.4552 57.1509 15.1931 57.6279 12.5549H61.5013C61.8453 12.5549 62.125 12.8347 62.125 13.1786ZM47.1275 12.5549H51.0009C51.4784 15.1961 49.1024 17.4542 46.5039 16.8687V13.1786C46.5038 12.8347 46.7837 12.5549 47.1275 12.5549ZM30.4763 9.38106C35.6217 9.38106 40.6298 11.1444 44.6289 14.3547V20.7544C44.391 20.8682 44.1642 21.0061 43.9562 21.1712L39.6955 24.5523C39.2864 24.8764 38.7744 25.0549 38.2539 25.0549H36.643C36.3827 24.3039 35.6699 23.7623 34.8314 23.7623H24.5283L15.6687 14.9027C19.7772 11.3407 25.0289 9.38106 30.4763 9.38106ZM47.5735 46.8076L42.475 41.7091C43.3543 42.0167 44.2722 42.1749 45.2138 42.1749H45.2935C45.7504 42.6699 46.4023 42.9824 47.1275 42.9824H50.2534C49.496 44.3436 48.5989 45.6253 47.5735 46.8076ZM61.5013 41.1074H57.628C57.1512 38.4697 59.5227 36.2064 62.1252 36.7933V40.4837C62.125 40.8277 61.8453 41.1074 61.5013 41.1074Z" fill="black"/>
</g>
<defs>
<clipPath id="clip0_66_104">
<rect width="64" height="64" fill="white"/>
</clipPath>
</defs>
</svg>
