<svg width="68" height="68" viewBox="0 0 68 68" fill="none" xmlns="http://www.w3.org/2000/svg">
<g clip-path="url(#clip0_66_1856)">
<path d="M13.4355 23.1992C13.9857 23.1992 14.4316 22.7533 14.4316 22.2031C14.4316 21.653 13.9857 21.207 13.4355 21.207C12.8854 21.207 12.4395 21.653 12.4395 22.2031C12.4395 22.7533 12.8854 23.1992 13.4355 23.1992Z" fill="#002661"/>
<path d="M67.8422 34.7019C67.8422 34.7019 67.842 34.7017 67.842 34.7016L57.4221 16.6539C57.2642 16.3801 57.0089 16.1843 56.7036 16.1025C56.3983 16.0208 56.0792 16.0628 55.806 16.2207L48.7643 20.2862C48.1994 20.6123 48.0052 21.3372 48.3313 21.9021L48.6326 22.424L46.4904 23.6581C45.103 24.4589 43.3795 24.4587 41.9922 23.6579L41.9278 23.6207C41.4517 23.3455 40.8423 23.5087 40.5671 23.9851C40.2919 24.4615 40.4552 25.0707 40.9316 25.3459L40.9961 25.3831C42.9962 26.5378 45.4832 26.5398 47.4855 25.384L49.6287 24.1494L57.399 37.608L55.9907 38.4229L40.5019 29.4804C40.6497 29.1687 40.7663 28.8424 40.8505 28.5032C40.9832 27.9693 40.6578 27.429 40.1238 27.2964C39.59 27.1637 39.0496 27.4891 38.917 28.0232C38.8085 28.4599 38.613 28.8628 38.336 29.2208C37.7171 30.0202 36.7822 30.4808 35.77 30.4808C34.8618 30.4808 34.0201 30.115 33.3998 29.4509C32.6028 28.5979 31.3309 28.4146 30.3066 29.0057L28.883 29.8276C27.0001 30.9144 24.5842 30.2672 23.4975 28.3847L23.1725 27.822C23.1698 27.8173 23.1721 27.8091 23.1768 27.8063L31.894 22.7733C33.3071 21.9574 35.0628 21.9576 36.4759 22.7733L36.6226 22.8581C37.0988 23.1331 37.7082 22.9699 37.9832 22.4935C38.2583 22.0171 38.0951 21.4079 37.6187 21.1328L37.472 21.0481C35.4446 19.8777 32.9257 19.8774 30.8979 21.0481L24.6952 24.6293C23.6326 24.5605 22.5883 24.2442 21.6586 23.7078L19.3833 22.3967L19.6687 21.9022C19.8267 21.6285 19.8686 21.3097 19.7869 21.0045C19.7051 20.6993 19.5092 20.4442 19.2358 20.2864L17.701 19.4002C17.2244 19.1252 16.6152 19.2883 16.3403 19.7648C16.0652 20.2412 16.2285 20.8504 16.7049 21.1255L17.5388 21.6069C17.1878 22.215 8.56962 37.1422 7.92813 38.253L2.2882 34.9968L11.8989 18.3506L12.6657 18.7933C13.142 19.0683 13.7514 18.905 14.0264 18.4287C14.3015 17.9523 14.1382 17.3431 13.6618 17.068L12.1942 16.2208C11.9205 16.0626 11.6016 16.0205 11.2964 16.1025C10.9914 16.1843 10.7362 16.3799 10.5782 16.6537L0.158394 34.7013C-0.167929 35.2661 0.0262445 35.9909 0.591234 36.3174L7.63315 40.3831C8.20014 40.7101 8.92384 40.5122 9.24883 39.95L9.56121 39.409L10.3214 39.8472C9.91888 40.7947 9.94969 41.9135 10.5029 42.8718L11.406 44.436C11.9525 45.3827 12.8797 45.9647 13.8939 46.1022C13.786 46.8321 13.9141 47.6019 14.3109 48.2892L15.214 49.8534C15.6669 50.6378 16.3981 51.1989 17.2729 51.4333C17.8352 51.5841 18.4184 51.5893 18.9769 51.4482C19.0061 51.9714 19.1578 52.4843 19.4274 52.9513L20.3306 54.5156C21.2017 56.0243 23.0706 56.6153 24.6376 55.9217C24.6819 56.403 24.8303 56.8731 25.0792 57.3041L25.9823 58.8684C26.9145 60.4827 28.9905 61.0468 30.6142 60.1095L32.288 59.1432C32.735 58.8851 33.1246 58.5557 33.4451 58.1705L36.9762 60.2091C37.7721 60.6687 38.6968 60.7852 39.5802 60.5395C40.4645 60.2935 41.196 59.7156 41.6397 58.9121L42.5132 57.3307C42.7426 56.9155 42.8745 56.4703 42.9166 56.0227L43.424 56.3157C44.2188 56.7747 45.1436 56.892 46.0278 56.646C46.9122 56.4 47.6436 55.8222 48.0873 55.0188L48.9608 53.4375C49.2283 52.9533 49.3631 52.4285 49.3776 51.9064C50.7449 52.1512 52.1821 51.5351 52.9156 50.2647L53.8188 48.7004C54.1855 48.0654 54.3225 47.3598 54.2561 46.6802C54.4923 46.6641 54.7287 46.6232 54.962 46.5569C55.8519 46.3042 56.5834 45.7164 57.0216 44.9018L57.8777 43.3107C58.5092 42.1369 58.3886 40.7696 57.6705 39.753L58.3953 39.3336L58.7513 39.9504C59.0758 40.5125 59.7996 40.7109 60.3671 40.3834L67.4093 36.3175C67.9736 35.9909 68.1678 35.2663 67.8422 34.7019ZM17.7885 49.5089C17.4276 49.4122 17.126 49.1807 16.9393 48.8572L16.0361 47.2929C15.6506 46.6251 15.8802 45.768 16.548 45.3825C18.0435 44.5191 18.094 44.49 19.0727 43.9248C20.1762 43.2884 21.584 43.6734 22.216 44.7678C22.8506 45.867 22.4726 47.2775 21.3735 47.9119L18.8497 49.369C18.5261 49.556 18.1492 49.6053 17.7885 49.5089ZM22.0557 53.5192L21.1525 51.9549C20.767 51.2871 20.9966 50.4301 21.6644 50.0444L24.0183 48.6853C24.3799 48.4765 24.7749 48.3774 25.1652 48.3774C25.9613 48.3774 26.7367 48.7902 27.1625 49.5279C27.7971 50.627 27.4191 52.0375 26.3201 52.672L23.9662 54.0309C23.2984 54.4167 22.4414 54.1871 22.0557 53.5192ZM31.2918 57.4175L29.6181 58.3839C28.9503 58.7696 28.0931 58.5398 27.7076 57.872L26.8044 56.3077C26.6177 55.9842 26.568 55.6073 26.6647 55.2464C26.7614 54.8856 26.9929 54.5841 27.3164 54.3972L28.9903 53.4309C29.5238 53.1229 30.1439 53.0421 30.7368 53.201C31.3306 53.3601 31.8269 53.7408 32.1344 54.2734C32.5205 54.9319 32.544 55.7592 32.2062 56.4421C32.007 56.8483 31.6922 57.1864 31.2918 57.4175ZM56.1233 42.3663L55.2672 43.9574C55.0865 44.2934 54.7848 44.5359 54.4177 44.6402C54.0508 44.7444 53.6667 44.6966 53.3362 44.5059C46.6654 40.6535 52.7535 44.1698 45.3023 39.8679C44.8258 39.5927 44.2167 39.756 43.9417 40.2325C43.6666 40.7089 43.8298 41.3181 44.3062 41.5932L51.587 45.7967C52.2505 46.1839 52.4779 47.038 52.0934 47.7039L51.1902 49.2682C50.8047 49.936 49.9475 50.1656 49.2797 49.7801C44.8447 47.2194 50.3493 50.3975 42.0046 45.5797C41.528 45.3045 40.9188 45.4679 40.6439 45.9443C40.3688 46.4207 40.5321 47.0299 41.0085 47.305C45.1311 49.6852 43.795 48.9137 46.6918 50.5864C47.3471 50.9648 47.5826 51.8115 47.2168 52.4737L46.3433 54.0552C46.1603 54.3867 45.8586 54.625 45.4939 54.7265C45.129 54.8281 44.7477 54.7795 44.4199 54.5902C40.7232 52.4559 42.3814 53.4132 38.6877 51.2807C38.2113 51.0054 37.6021 51.1689 37.327 51.6453C37.0519 52.1217 37.2152 52.7309 37.6916 53.006L40.2444 54.48C40.8997 54.8583 41.1352 55.7049 40.7693 56.3672L39.8958 57.9487C39.7127 58.28 39.411 58.5184 39.0463 58.6199C38.6814 58.7214 38.3001 58.6728 37.9722 58.4836L34.3274 56.3793C34.5702 55.3196 34.4062 54.224 33.8595 53.2775C33.2861 52.2841 32.3602 51.5736 31.2522 51.2769C30.6483 51.115 30.0299 51.0867 29.4314 51.1872C29.5387 50.2971 29.3697 49.3665 28.8879 48.532C27.9729 46.9473 26.1935 46.1662 24.4856 46.4397C24.6001 45.5187 24.4135 44.5898 23.9414 43.772C23.3657 42.7751 22.4481 42.0964 21.4215 41.798C22.0558 40.5826 22.0895 39.0896 21.3895 37.7854C21.1293 37.3006 20.5254 37.1188 20.0408 37.3787C19.556 37.6389 19.3739 38.2428 19.6341 38.7274C20.2254 39.829 19.8397 41.1818 18.756 41.8075C17.0973 42.7652 17.4991 42.5332 15.0419 43.9519C14.7184 44.1388 14.3416 44.1881 13.9807 44.0917C13.6199 43.995 13.3184 43.7635 13.1315 43.4399L12.2284 41.8757C11.8428 41.2079 12.0725 40.3508 12.7402 39.9651L16.4542 37.8209C16.5873 37.744 16.7277 37.6805 16.8714 37.6319C17.3926 37.4557 17.6723 36.8905 17.4963 36.3693C17.3202 35.8482 16.7548 35.569 16.2338 35.7444C15.9659 35.835 15.705 35.9531 15.4583 36.0955L11.7439 38.2398C11.7072 38.2609 11.6711 38.2828 11.6355 38.3051L10.5573 37.6837L18.3874 24.1218L20.6635 25.4334C21.1318 25.7037 21.623 25.9304 22.1296 26.1116C21.693 26.3809 21.3807 26.7998 21.2474 27.2976C21.1088 27.8145 21.1799 28.3546 21.4475 28.8181L21.7725 29.3808C23.4085 32.2144 27.0451 33.1887 29.8793 31.553L31.303 30.7311C31.5167 30.608 31.7863 30.6415 31.9443 30.8108C32.931 31.8672 34.3255 32.4731 35.7704 32.4731C37.1028 32.4731 38.354 31.9789 39.3127 31.0942C44.8522 34.2925 55.5726 40.4818 55.5912 40.4927C56.25 40.873 56.4839 41.6961 56.1233 42.3663ZM60.072 38.253L50.4614 21.6069L56.1013 18.3507L65.712 34.9968L60.072 38.253Z" fill="#002661"/>
<path d="M54.5664 23.1992C55.1165 23.1992 55.5625 22.7533 55.5625 22.2031C55.5625 21.653 55.1165 21.207 54.5664 21.207C54.0163 21.207 53.5703 21.653 53.5703 22.2031C53.5703 22.7533 54.0163 23.1992 54.5664 23.1992Z" fill="#002661"/>
<path d="M33.9311 16.661C35.4913 16.661 36.7606 15.3917 36.7606 13.8315V10.1646C36.7606 8.60431 35.4913 7.33502 33.931 7.33502C32.3709 7.33502 31.1016 8.60431 31.1016 10.1646V13.8314C31.1016 15.3917 32.3709 16.661 33.9311 16.661ZM33.0938 10.1646C33.0938 9.7028 33.4693 9.32721 33.9311 9.32721C34.3928 9.32721 34.7684 9.7028 34.7684 10.1646V13.8314C34.7684 14.2931 34.3928 14.6687 33.9311 14.6687C33.4697 14.6687 33.0938 14.2933 33.0938 13.8314V10.1646Z" fill="#002661"/>
<path d="M41.6836 18.115C42.1281 18.3717 42.6138 18.4935 43.0937 18.4935C44.0722 18.4935 45.0253 17.986 45.5488 17.0793L47.3822 13.9036C48.1623 12.5525 47.6976 10.8185 46.3465 10.0385C44.9954 9.25826 43.2614 9.72297 42.4813 11.0742L40.6479 14.2498C40.2699 14.9043 40.1695 15.6669 40.3653 16.3969C40.5608 17.127 41.0291 17.7371 41.6836 18.115ZM42.3732 15.2458L44.2065 12.0703C44.4367 11.6716 44.9496 11.5324 45.3503 11.7638C45.7501 11.9946 45.8875 12.5078 45.6568 12.9075L43.8235 16.0832C43.5927 16.4831 43.0796 16.6205 42.6797 16.3898C42.4861 16.2779 42.3475 16.0973 42.2895 15.8814C42.2316 15.6653 42.2613 15.4396 42.3732 15.2458Z" fill="#002661"/>
<path d="M22.3134 17.0794C22.8369 17.9861 23.7898 18.4936 24.7685 18.4936C25.2482 18.4936 25.7342 18.3717 26.1786 18.1151C27.5297 17.3349 27.9944 15.601 27.2143 14.2498L25.3809 11.0743C24.6008 9.72304 22.8668 9.25859 21.5157 10.0386C20.8612 10.4164 20.3929 11.0266 20.1973 11.7567C20.0016 12.4867 20.102 13.2492 20.4799 13.9037L22.3134 17.0794ZM22.1216 12.2724C22.2228 11.8951 22.5625 11.652 22.9291 11.652C23.2187 11.652 23.5007 11.8022 23.6557 12.0705L25.489 15.246C25.7199 15.6459 25.5824 16.159 25.1825 16.3898C24.7826 16.6207 24.2695 16.4831 24.0387 16.0833L22.2052 12.9076C22.0934 12.714 22.0638 12.4883 22.1216 12.2724Z" fill="#002661"/>
</g>
<defs>
<clipPath id="clip0_66_1856">
<rect width="68" height="68" fill="white"/>
</clipPath>
</defs>
</svg>
