<svg width="92" height="92" viewBox="0 0 92 92" fill="none" xmlns="http://www.w3.org/2000/svg">
<path fill-rule="evenodd" clip-rule="evenodd" d="M79.7714 44.5822C78.9895 44.7141 78.4617 45.4553 78.5936 46.2386C78.9053 48.0804 79.0625 49.9335 79.0625 51.75C79.0625 61.8822 74.5464 71.0278 67.2702 77.1173C65.9994 68.8663 60.1413 62.2486 52.3622 59.8803C55.455 57.8173 57.5 54.3021 57.5 50.3125C57.5 43.9701 52.341 38.8125 46 38.8125C39.659 38.8125 34.5 43.9701 34.5 50.3125C34.5 54.3021 36.545 57.8173 39.6378 59.8803C31.8587 62.2486 26.0006 68.8663 24.7298 77.1173C17.4536 71.0278 12.9375 61.8822 12.9375 51.75C12.9375 49.9335 13.0947 48.0804 13.4064 46.2386C13.5383 45.4553 13.0105 44.7141 12.2286 44.5822C11.4284 44.4474 10.704 44.978 10.5707 45.7614C10.2338 47.7576 10.0625 49.7734 10.0625 51.75C10.0625 69.4043 22.6715 84.3043 40.0436 87.1793C40.1223 87.1934 40.2023 87.199 40.2795 87.199C40.9702 87.199 41.5794 86.6992 41.6959 85.9973C41.8265 85.214 41.2958 84.4728 40.5125 84.3436C35.6685 83.5419 31.237 81.7104 27.3994 79.1125C28.0928 69.3571 36.1103 61.8125 46 61.8125C55.8897 61.8125 63.9072 69.3571 64.6006 79.1125C60.763 81.7104 56.3315 83.5419 51.4875 84.3436C50.7042 84.4728 50.1735 85.214 50.3041 85.9973C50.4206 86.6992 51.0298 87.199 51.7205 87.199C51.7977 87.199 51.8777 87.1934 51.9564 87.1793C69.3285 84.3043 81.9375 69.4043 81.9375 51.75C81.9375 49.7734 81.7662 47.7576 81.4293 45.7614C81.296 44.978 80.5632 44.4446 79.7714 44.5822ZM37.375 50.3125C37.375 45.5564 41.2439 41.6875 46 41.6875C50.7561 41.6875 54.625 45.5564 54.625 50.3125C54.625 55.0686 50.7561 58.9375 46 58.9375C41.2439 58.9375 37.375 55.0686 37.375 50.3125Z" fill="#002661"/>
<path fill-rule="evenodd" clip-rule="evenodd" d="M61.7422 15.7507C61.5724 15.2285 61.1232 14.8495 60.5813 14.7709L51.3962 13.4373L47.2886 5.11267C46.8057 4.13562 45.1942 4.13562 44.7112 5.11267L40.6037 13.4373L31.4186 14.7709C30.8767 14.8495 30.4275 15.2285 30.2576 15.7507C30.0892 16.2701 30.2296 16.8429 30.6212 17.2247L37.2682 23.7019L35.6988 32.8491C35.6061 33.391 35.8279 33.9357 36.2701 34.2557C36.7151 34.5786 37.3005 34.6263 37.7849 34.3652L45.9999 30.0443L54.215 34.3652C54.4256 34.4775 54.6558 34.5309 54.8846 34.5309C55.1822 34.5309 55.4785 34.4382 55.7297 34.2557C56.1719 33.9357 56.3937 33.391 56.3011 32.8491L54.7316 23.7019L61.3787 17.2247C61.7703 16.8429 61.9107 16.2701 61.7422 15.7507ZM52.1837 22.1689C51.8454 22.5002 51.691 22.9747 51.771 23.4436L52.9755 30.4655L46.6696 27.1497C46.459 27.0402 46.2302 26.984 45.9999 26.984C45.7697 26.984 45.5409 27.0402 45.3303 27.1497L39.0244 30.4655L40.2289 23.4436C40.3089 22.9747 40.1545 22.5002 39.8162 22.1689L34.7147 17.1995L41.7646 16.1747C42.2335 16.1045 42.6378 15.8125 42.847 15.3886L45.9999 8.99841L49.1529 15.3886C49.3621 15.8125 49.7664 16.1045 50.2352 16.1747L57.2852 17.1995L52.1837 22.1689Z" fill="#002661"/>
<path fill-rule="evenodd" clip-rule="evenodd" d="M11.601 38.8799C11.5084 39.4218 11.7302 39.9664 12.1724 40.2865C12.6188 40.6094 13.2056 40.6543 13.6871 40.396L20.1249 37.01L26.5628 40.396C26.7734 40.5083 27.0036 40.5616 27.2324 40.5616C27.53 40.5616 27.8262 40.469 28.0775 40.2865C28.5197 39.9664 28.7415 39.4218 28.6489 38.8799L27.4191 31.712L32.6287 26.6359C33.0203 26.254 33.1607 25.6813 32.9922 25.1619C32.8224 24.6396 32.3732 24.2606 31.8313 24.182L24.6326 23.1376L21.4136 16.6127C20.9307 15.6356 19.3192 15.6356 18.8362 16.6127L15.6173 23.1376L8.41858 24.182C7.87671 24.2606 7.42749 24.6396 7.25763 25.1619C7.08917 25.6813 7.22955 26.254 7.62122 26.6359L12.8307 31.712L11.601 38.8799ZM11.7147 26.6106L16.7783 25.875C17.2471 25.8048 17.6514 25.5128 17.8606 25.0889L20.1249 20.4984L22.3893 25.0889C22.5984 25.5128 23.0027 25.8048 23.4716 25.875L28.5352 26.6106L24.8712 30.1791C24.5329 30.5104 24.3785 30.9849 24.4585 31.4537L25.3232 36.4962L20.7946 34.1154C20.584 34.0059 20.3552 33.9497 20.1249 33.9497C19.8947 33.9497 19.6659 34.0059 19.4553 34.1154L14.9266 36.4962L15.7914 31.4537C15.8714 30.9849 15.717 30.5104 15.3787 30.1791L11.7147 26.6106Z" fill="#002661"/>
<path fill-rule="evenodd" clip-rule="evenodd" d="M83.5813 24.182L76.3826 23.1376L73.1636 16.6127C72.6807 15.6356 71.0692 15.6356 70.5862 16.6127L67.3673 23.1376L60.1686 24.182C59.6267 24.2606 59.1775 24.6396 59.0076 25.1619C58.8392 25.6813 58.9796 26.254 59.3712 26.6359L64.5807 31.712L63.351 38.8799C63.2584 39.4218 63.4802 39.9664 63.9224 40.2865C64.3674 40.6094 64.9528 40.6543 65.4371 40.396L71.8749 37.01L78.3128 40.396C78.5234 40.5083 78.7536 40.5616 78.9824 40.5616C79.28 40.5616 79.5762 40.469 79.8275 40.2865C80.2697 39.9664 80.4915 39.4218 80.3989 38.8799L79.1691 31.712L84.3787 26.6359C84.7703 26.254 84.9107 25.6813 84.7422 25.1619C84.5724 24.6396 84.1232 24.2606 83.5813 24.182ZM76.6212 30.1791C76.2829 30.5104 76.1285 30.9849 76.2085 31.4537L77.0732 36.4962L72.5446 34.1154C72.334 34.0059 72.1052 33.9497 71.8749 33.9497C71.6447 33.9497 71.4159 34.0059 71.2053 34.1154L66.6766 36.4962L67.5414 31.4537C67.6214 30.9849 67.467 30.5104 67.1287 30.1791L63.4647 26.6106L68.5283 25.875C68.9971 25.8048 69.4014 25.5128 69.6106 25.0889L71.8749 20.4984L74.1393 25.0889C74.3484 25.5128 74.7527 25.8048 75.2216 25.875L80.2852 26.6106L76.6212 30.1791Z" fill="#002661"/>
<path d="M46 87.6875C46.7939 87.6875 47.4375 87.0439 47.4375 86.25C47.4375 85.4561 46.7939 84.8125 46 84.8125C45.2061 84.8125 44.5625 85.4561 44.5625 86.25C44.5625 87.0439 45.2061 87.6875 46 87.6875Z" fill="#002661"/>
</svg>
