<svg width="68" height="68" viewBox="0 0 68 68" fill="none" xmlns="http://www.w3.org/2000/svg">
<g clip-path="url(#clip0_66_1872)">
<path d="M33.7732 66.5001C31.4044 66.5001 29.0369 66.0227 26.8443 65.069L16.3603 60.5115C12.5675 58.8617 8.55711 57.8168 4.44087 57.4053L0.997992 57.061C0.431153 57.0046 0 56.5278 0 55.9584V45.1587C0 44.919 0.0779879 44.6857 0.221917 44.4942C0.47934 44.1499 6.6499 36.0886 16.0757 38.186C21.3769 39.3641 25.6453 41.5687 28.2925 43.2109C30.2143 44.4029 32.4671 45.0325 34.8073 45.0325H45.2913C47.0984 45.0325 48.6866 45.9886 49.5749 47.4229L58.6044 37.02C60.355 34.6823 63.219 33.2506 66.2174 33.2506H66.8921C67.2668 33.2506 67.6155 33.4396 67.8197 33.7528C68.0245 34.066 68.0568 34.4623 67.9065 34.8047L59.74 53.3645C57.9545 57.4237 54.3189 60.4899 50.0156 61.5659L48.5789 61.9248L40.2208 65.2681C38.164 66.0905 35.9683 66.5001 33.7732 66.5001ZM2.21663 54.9553L4.66152 55.2001C9.00665 55.6344 13.2402 56.7383 17.2448 58.4794L27.7282 63.0369C31.4145 64.6398 35.6658 64.7026 39.3985 63.2094L47.825 59.8388C47.8719 59.8204 47.9194 59.8052 47.9683 59.7931L49.4779 59.4152C53.1218 58.5041 56.2001 55.9083 57.7111 52.4718L65.1598 35.5433C63.2526 35.8242 61.4976 36.852 60.3284 38.4105L50.3257 49.9388C50.3269 49.9819 50.3276 50.0244 50.3276 50.0681C50.3276 52.8446 48.0684 55.1037 45.292 55.1037H30.6645C28.763 55.1037 26.8836 55.4087 25.0798 56.0098L24.6727 54.9763L24.3284 53.9231L24.3849 53.9047C26.4094 53.2301 28.5239 52.8871 30.6645 52.8871H45.292C46.846 52.8871 48.1116 51.6222 48.1116 50.0675C48.1116 48.5128 46.8466 47.2479 45.292 47.2479H34.808C32.0543 47.2479 29.3976 46.5028 27.1252 45.0934C24.6245 43.5418 20.5932 41.4603 15.5963 40.3488C8.4582 38.7656 3.32178 44.2437 2.21727 45.5505V54.9553H2.21663Z" fill="#002661"/>
<path d="M43.6417 33.0001C41.9374 33.0001 40.0263 32.4739 37.9226 31.422C37.6677 31.2939 37.4711 31.072 37.3748 30.8038C37.2892 30.5635 35.309 24.8678 38.4558 20.6558C40.7428 17.594 45.0429 16.215 51.2439 16.5605C51.8095 16.5916 52.2603 17.0449 52.2882 17.6118C52.3104 18.0518 52.7675 28.4381 47.4713 31.8962C46.3453 32.6324 45.0658 33.0001 43.6417 33.0001ZM39.3359 29.6435C42.2468 31.0086 44.5737 31.1424 46.2603 30.041C49.4007 27.9899 50.0798 21.9011 50.0963 18.7321C45.2376 18.6136 41.9298 19.7086 40.2311 21.9816C38.2098 24.6884 38.9954 28.4115 39.3359 29.6435Z" fill="#002661"/>
<path d="M26.695 18.4811C24.7301 18.4811 22.4634 18.0601 20.4852 16.6113C17.1298 14.1524 15.5878 9.47125 15.901 2.69835C15.9276 2.13215 16.3766 1.6769 16.9428 1.6433C17.4221 1.61603 28.7678 1.01052 32.5854 6.74104C34.3632 9.40848 34.2174 12.9021 32.1536 17.1267C32.028 17.3835 31.8086 17.582 31.5404 17.6803C31.3914 17.7354 29.3111 18.4811 26.695 18.4811ZM18.0821 3.82379C17.9864 9.2487 19.2336 12.9465 21.7945 14.8233C24.8607 17.0697 29.0474 16.1148 30.3637 15.7312C31.8695 12.4633 31.997 9.85422 30.7415 7.96983C28.4082 4.46735 21.5656 3.78257 18.0821 3.82379Z" fill="#002661"/>
<path d="M35.3485 46.8584C35.3137 46.8584 35.2788 46.8565 35.2433 46.8533C34.653 46.7975 34.2111 46.2871 34.2409 45.6943C34.3062 44.3907 34.4178 43.1543 34.5693 41.9826C35.0302 34.1407 34.7925 15.8788 23.2465 10.8267C22.686 10.5814 22.4298 9.92829 22.6752 9.36715C22.9199 8.80729 23.5749 8.55177 24.1348 8.79651C30.9387 11.7734 35.2192 19.1848 36.5107 30.2292C36.6268 31.219 36.7136 32.1948 36.7783 33.1452C39.8192 25.4612 44.4712 22.7462 44.7483 22.5909C45.2809 22.2897 45.9568 22.4812 46.2573 23.0131C46.556 23.5457 46.3683 24.2197 45.8376 24.5203C45.7203 24.5887 38.5866 28.8698 36.7961 42.072C36.6597 44.3305 36.4632 45.7704 36.4448 45.9023C36.3681 46.4552 35.8957 46.8584 35.3485 46.8584Z" fill="#002661"/>
</g>
<defs>
<clipPath id="clip0_66_1872">
<rect width="68" height="68" fill="white"/>
</clipPath>
</defs>
</svg>
