<svg width="92" height="92" viewBox="0 0 92 92" fill="none" xmlns="http://www.w3.org/2000/svg">
<path d="M9.4875 85.675H3.7375C2.44375 85.675 1.4375 84.6687 1.4375 83.375V62.675C1.4375 61.3812 2.44375 60.375 3.7375 60.375H9.4875C10.7812 60.375 11.7875 61.3812 11.7875 62.675V83.375C11.9312 84.6687 10.7812 85.675 9.4875 85.675Z" stroke="#002661" stroke-width="2.1992" stroke-miterlimit="10" stroke-linecap="round" stroke-linejoin="round"/>
<path d="M16.0996 61.6687C19.2621 58.5062 21.4184 53.9062 23.2871 48.4437C26.1621 48.4437 28.6059 50.8875 28.6059 53.7625V54.625L27.1684 64.4L35.0746 64.1125C38.8121 63.9687 41.5434 67.275 40.9684 71.0125L39.2434 79.925C38.6684 82.6562 36.3684 84.6687 33.6371 84.6687H24.0059C22.2809 84.6687 20.5559 84.525 18.9746 84.0937L16.5309 83.5187" stroke="#002661" stroke-width="2.1992" stroke-miterlimit="10" stroke-linecap="round" stroke-linejoin="round"/>
<path d="M75.7564 83.2313L73.3127 83.9501C71.5877 84.3813 70.0064 84.525 68.2814 84.525H58.6502C55.9189 84.525 53.4752 82.5126 52.9002 79.7813L51.1752 70.8688C50.4564 67.275 53.3314 63.9688 57.0689 63.9688L64.9752 64.2563L63.5377 54.4813C63.5377 54.1938 63.5377 53.9063 63.5377 53.6188C63.5377 50.7438 65.8377 48.3 68.8564 48.3C70.5814 53.7625 72.8814 58.3625 76.0439 61.525" stroke="#002661" stroke-width="2.1992" stroke-miterlimit="10" stroke-linecap="round" stroke-linejoin="round"/>
<path d="M82.5134 85.675H88.2634C89.5571 85.675 90.5634 84.6687 90.5634 83.375V62.675C90.5634 61.3812 89.5571 60.375 88.2634 60.375H82.5134C81.2196 60.375 80.2134 61.3812 80.2134 62.675V83.375C80.0696 84.6687 81.2196 85.675 82.5134 85.675Z" stroke="#002661" stroke-width="2.1992" stroke-miterlimit="10" stroke-linecap="round" stroke-linejoin="round"/>
<path d="M46.0008 50.4563C55.4483 50.4563 63.107 42.7975 63.107 33.35C63.107 23.9025 55.4483 16.2438 46.0008 16.2438C36.5533 16.2438 28.8945 23.9025 28.8945 33.35C28.8945 42.7975 36.5533 50.4563 46.0008 50.4563Z" stroke="#002661" stroke-width="2.1992" stroke-miterlimit="10" stroke-linecap="round" stroke-linejoin="round"/>
<path d="M42.407 41.4C41.6883 41.4 40.9695 41.1125 40.3945 40.5375L36.9445 37.0875C35.7945 35.9375 35.7945 34.2125 36.9445 33.0625C38.0945 31.9125 39.8195 31.9125 40.9695 33.0625L42.407 34.5L50.8883 26.0188C52.0383 24.8687 53.7633 24.8687 54.9133 26.0188C56.0633 27.1688 56.0633 28.8937 54.9133 30.0437L44.4195 40.5375C43.9883 41.1125 43.1258 41.4 42.407 41.4Z" stroke="#002661" stroke-width="2.1992" stroke-miterlimit="10" stroke-linecap="round" stroke-linejoin="round"/>
<path d="M46 10.2062V6.32495" stroke="#002661" stroke-width="2.1992" stroke-miterlimit="10" stroke-linecap="round" stroke-linejoin="round"/>
<path d="M69.1445 33.35H73.0258" stroke="#002661" stroke-width="2.1992" stroke-miterlimit="10" stroke-linecap="round" stroke-linejoin="round"/>
<path d="M18.9746 33.35H22.8559" stroke="#002661" stroke-width="2.1992" stroke-miterlimit="10" stroke-linecap="round" stroke-linejoin="round"/>
<path d="M62.3867 16.9625L65.118 14.2312" stroke="#002661" stroke-width="2.1992" stroke-miterlimit="10" stroke-linecap="round" stroke-linejoin="round"/>
<path d="M26.8809 14.2312L29.6121 16.9625" stroke="#002661" stroke-width="2.1992" stroke-miterlimit="10" stroke-linecap="round" stroke-linejoin="round"/>
</svg>
