<svg width="64" height="64" viewBox="0 0 64 64" fill="none" xmlns="http://www.w3.org/2000/svg">
<g clip-path="url(#clip0_66_69)">
<path d="M62.8214 30.5704C62.1622 29.8552 61.2605 29.4107 60.2918 29.3235C59.3231 29.2363 58.3566 29.5125 57.5802 30.0984L45.1152 39.4609C44.8141 39.2996 44.4926 39.1797 44.1595 39.1042L27.1601 35.2396C25.8117 34.9173 24.4096 34.8887 23.0492 35.1557C21.6887 35.4228 20.4015 35.9793 19.275 36.7875L11.0375 42.5597L10.41 41.6151C10.2633 41.3942 10.0348 41.2406 9.7748 41.1881C9.51483 41.1357 9.24466 41.1886 9.02374 41.3354L0.446736 47.032C0.225814 47.1787 0.0722279 47.4072 0.0197648 47.6672C-0.0326983 47.9272 0.0202587 48.1973 0.166986 48.4182L10.1125 63.392C10.2592 63.6129 10.4877 63.7665 10.7477 63.819C11.0076 63.8714 11.2778 63.8185 11.4987 63.6717L20.075 57.975C20.2959 57.8283 20.4495 57.5998 20.502 57.3398C20.5544 57.0798 20.5015 56.8097 20.3547 56.5887L19.72 55.633L23.8325 52.4976L40.955 54.8822C41.7881 55.0071 42.6388 54.9332 43.4379 54.6667C44.237 54.4002 44.9618 53.9485 45.5531 53.3486L62.8406 36.1686C63.5658 35.453 63.9833 34.4829 64.0044 33.4643C64.0256 32.4458 63.6488 31.4591 62.954 30.714L62.8214 30.5704ZM11.225 61.4525L2.38624 48.1447L9.29686 43.5546L18.136 56.8625L11.225 61.4525ZM61.4314 34.75L44.144 51.93C43.7715 52.3129 43.3127 52.601 42.8059 52.77C42.2991 52.939 41.7593 52.9841 41.2315 52.9015L23.6964 50.4595C23.5656 50.4413 23.4325 50.4491 23.3047 50.4826C23.177 50.5161 23.0571 50.5746 22.9521 50.6546L18.6115 53.9636L12.1439 44.2261L20.423 38.425C22.3294 37.0891 24.447 36.6736 26.7166 37.1896L43.7166 41.0549C44.1815 41.162 44.5852 41.4488 44.8394 41.8526C45.0935 42.2564 45.1776 42.7443 45.0732 43.2099L45.0532 43.2974C44.9467 43.7577 44.6643 44.158 44.2663 44.4126C43.8684 44.6673 43.3866 44.756 42.924 44.6599L30.8137 42.0915C30.5543 42.0365 30.2836 42.0868 30.0613 42.2313C29.8389 42.3759 29.6831 42.6029 29.628 42.8623C29.573 43.1218 29.6233 43.3924 29.7679 43.6148C29.9124 43.8372 30.1394 43.993 30.3989 44.048L42.5085 46.6161C43.4847 46.8191 44.5017 46.6319 45.3416 46.0946C46.1816 45.5572 46.7779 44.7125 47.003 43.7411L47.0229 43.6536C47.2416 42.7012 47.0822 41.7011 46.5782 40.8639L58.7814 31.6976C59.1624 31.41 59.6368 31.2745 60.1123 31.3173C60.5878 31.3601 61.0303 31.5783 61.3539 31.9294L61.487 32.0731C61.8279 32.4388 62.0127 32.923 62.0024 33.4228C61.992 33.9227 61.7871 34.3988 61.4314 34.75ZM32.6959 13.9709C32.5459 14.2905 32.4101 14.6172 32.2901 14.9487L29.452 15.6724C29.2366 15.7273 29.0457 15.8523 28.9094 16.0278C28.773 16.2033 28.699 16.4191 28.699 16.6414V21.0712C28.699 21.2935 28.773 21.5093 28.9093 21.6848C29.0457 21.8603 29.2365 21.9853 29.4519 22.0402L32.287 22.7632C32.4057 23.0917 32.539 23.4145 32.687 23.7315L31.187 26.258C31.0736 26.4491 31.0271 26.6725 31.0547 26.893C31.0824 27.1134 31.1827 27.3184 31.3399 27.4755L34.4722 30.608C34.6294 30.7651 34.8343 30.8654 35.0548 30.8931C35.2753 30.9207 35.4987 30.8742 35.6897 30.7607L38.2055 29.2674C38.5222 29.4174 38.845 29.5522 39.1741 29.6717L39.8991 32.5159C39.954 32.7312 40.0791 32.9221 40.2545 33.0585C40.43 33.1948 40.6459 33.2689 40.8681 33.2689H45.2987C45.5209 33.2689 45.7368 33.1949 45.9123 33.0585C46.0878 32.9222 46.2128 32.7313 46.2677 32.516L46.9872 29.6941C47.3216 29.5745 47.6501 29.4395 47.9727 29.2889L50.4852 30.7805C50.6763 30.8939 50.8997 30.9404 51.1202 30.9127C51.3407 30.8851 51.5456 30.7847 51.7027 30.6276L54.8351 27.4952C54.9923 27.3381 55.0926 27.1331 55.1203 26.9126C55.148 26.6921 55.1014 26.4687 54.988 26.2776L53.509 23.7864C53.6641 23.4595 53.8039 23.1252 53.9271 22.7864L56.7431 22.0682C56.9584 22.0133 57.1493 21.8883 57.2856 21.7129C57.4219 21.5374 57.496 21.3216 57.496 21.0994V16.6691C57.496 16.4469 57.422 16.231 57.2856 16.0556C57.1493 15.8801 56.9584 15.755 56.7431 15.7001L53.9469 14.9876C53.8237 14.6437 53.6843 14.3059 53.5286 13.9741L55.0075 11.483C55.1209 11.2919 55.1674 11.0685 55.1397 10.848C55.1121 10.6276 55.0117 10.4226 54.8546 10.2655L51.7225 7.1325C51.5654 6.97537 51.3604 6.87505 51.1399 6.84737C50.9195 6.81969 50.6961 6.86622 50.505 6.97962L48.0214 8.45462C47.6915 8.29875 47.3541 8.1585 47.0119 8.035L46.2954 5.225C46.2404 5.00968 46.1154 4.81879 45.9399 4.68246C45.7644 4.54612 45.5486 4.47212 45.3264 4.47212H40.8965C40.6743 4.47212 40.4584 4.54612 40.2829 4.68246C40.1075 4.81879 39.9824 5.00968 39.9275 5.225L39.211 8.03487C38.8734 8.1567 38.5415 8.2942 38.2154 8.44737L35.7097 6.95987C35.5187 6.84647 35.2952 6.79994 35.0748 6.82762C34.8543 6.8553 34.6493 6.95562 34.4922 7.11275L31.3599 10.2452C31.2028 10.4024 31.1025 10.6073 31.0748 10.8278C31.0471 11.0483 31.0937 11.2717 31.2071 11.4627L32.6959 13.9709ZM34.6945 13.4195L33.3235 11.11L35.357 9.0765L37.6644 10.4461C37.8122 10.5339 37.9801 10.5821 38.152 10.586C38.3238 10.5899 38.4938 10.5495 38.6455 10.4686C39.1852 10.1807 39.7516 9.94575 40.3366 9.76712C40.501 9.71703 40.6497 9.62543 40.7683 9.50116C40.887 9.37688 40.9717 9.22413 41.0141 9.05762L41.6735 6.47162H44.55L45.2092 9.05762C45.2517 9.22413 45.3363 9.37688 45.455 9.50116C45.5737 9.62543 45.7224 9.71703 45.8867 9.76712C46.4759 9.94705 47.0462 10.1841 47.5892 10.475C47.741 10.5562 47.9112 10.5969 48.0833 10.593C48.2554 10.5892 48.4236 10.541 48.5716 10.4531L50.8577 9.09612L52.8912 11.1296L51.5306 13.4219C51.4429 13.5695 51.3948 13.7373 51.3908 13.909C51.3868 14.0807 51.4271 14.2505 51.5077 14.4021C51.7975 14.947 52.0334 15.5189 52.2119 16.1096C52.2616 16.2745 52.3532 16.4238 52.4776 16.5429C52.6021 16.6621 52.7552 16.7471 52.9221 16.7896L55.4962 17.4461V20.322L52.9059 20.9825C52.7398 21.0248 52.5874 21.1092 52.4633 21.2274C52.3391 21.3456 52.2475 21.4937 52.1971 21.6575C52.0164 22.2439 51.7791 22.8113 51.4886 23.3517C51.407 23.5036 51.366 23.674 51.3696 23.8464C51.3733 24.0188 51.4215 24.1873 51.5095 24.3356L52.872 26.6302L50.8385 28.6639L48.526 27.2911C48.3787 27.2037 48.2114 27.1556 48.0401 27.1514C47.8689 27.1472 47.6994 27.187 47.548 27.2671C47.0104 27.5513 46.4467 27.783 45.8646 27.9591C45.6997 28.0089 45.5505 28.1005 45.4315 28.2249C45.3124 28.3493 45.2274 28.5024 45.1849 28.6692L44.5224 31.2692H41.6459L40.9784 28.6511C40.936 28.4852 40.8518 28.3329 40.7338 28.2089C40.6158 28.0849 40.4678 27.9932 40.3042 27.9427C39.7278 27.7644 39.1697 27.5314 38.6376 27.2467C38.4859 27.1656 38.3158 27.125 38.1437 27.1288C37.9717 27.1326 37.8036 27.1808 37.6556 27.2686L35.3375 28.6444L33.304 26.6107L34.6852 24.2839C34.7727 24.1364 34.8209 23.9689 34.825 23.7975C34.8291 23.6261 34.7891 23.4565 34.7087 23.305C34.4264 22.7723 34.1956 22.2138 34.0194 21.6372C33.9692 21.473 33.8777 21.3244 33.7534 21.2058C33.6292 21.0872 33.4765 21.0026 33.3101 20.9601L30.699 20.2942V17.4184L33.3126 16.752C33.479 16.7096 33.6316 16.6251 33.7558 16.5066C33.88 16.3881 33.9716 16.2397 34.0219 16.0755C34.1994 15.4962 34.4322 14.9353 34.7171 14.4005C34.798 14.2488 34.8384 14.0789 34.8344 13.907C34.8304 13.7352 34.7822 13.5673 34.6945 13.4195ZM43.0976 24.9284C44.2958 24.9284 45.4671 24.5731 46.4633 23.9074C47.4596 23.2417 48.2361 22.2956 48.6946 21.1886C49.1531 20.0816 49.2731 18.8635 49.0393 17.6884C48.8056 16.5132 48.2286 15.4337 47.3814 14.5865C46.5341 13.7393 45.4547 13.1623 44.2795 12.9285C43.1043 12.6948 41.8862 12.8147 40.7793 13.2733C39.6723 13.7318 38.7261 14.5083 38.0605 15.5045C37.3948 16.5008 37.0395 17.6721 37.0395 18.8702C37.0413 20.4764 37.6802 22.0163 38.8159 23.152C39.9516 24.2877 41.4915 24.9266 43.0976 24.9284ZM43.0976 14.8121C43.9002 14.8121 44.6848 15.0501 45.3522 15.496C46.0195 15.942 46.5397 16.5757 46.8468 17.3173C47.154 18.0588 47.2343 18.8747 47.0778 19.6619C46.9212 20.4491 46.5347 21.1722 45.9671 21.7398C45.3996 22.3073 44.6765 22.6938 43.8893 22.8504C43.1021 23.007 42.2862 22.9266 41.5446 22.6195C40.8031 22.3123 40.1693 21.7922 39.7234 21.1248C39.2775 20.4575 39.0395 19.6729 39.0395 18.8702C39.0407 17.7944 39.4687 16.763 40.2295 16.0022C40.9903 15.2415 42.0217 14.8137 43.0976 14.8125V14.8121ZM8.23749 27.3817L9.93886 27.8155C9.98228 27.9279 10.0281 28.0392 10.0764 28.1495L9.17636 29.6664C9.06291 29.8575 9.01634 30.0809 9.044 30.3014C9.07166 30.5219 9.17198 30.7269 9.32911 30.884L11.3989 32.9536C11.556 33.1107 11.761 33.211 11.9814 33.2387C12.2019 33.2663 12.4253 33.2198 12.6164 33.1064L14.125 32.2105C14.2356 32.2596 14.3471 32.3061 14.4596 32.3501L14.8951 34.0581C14.95 34.2735 15.0751 34.4644 15.2505 34.6007C15.426 34.7371 15.6419 34.8111 15.8641 34.8111H18.791C19.0132 34.8111 19.2291 34.7371 19.4045 34.6008C19.58 34.4645 19.7051 34.2736 19.76 34.0582L20.1914 32.3661C20.3074 32.3216 20.4225 32.2743 20.5365 32.2241L22.0446 33.1195C22.2357 33.2329 22.4591 33.2795 22.6796 33.2518C22.9001 33.2241 23.1051 33.1238 23.2622 32.9666L25.3317 30.897C25.4889 30.7399 25.5892 30.5349 25.6169 30.3145C25.6445 30.094 25.598 29.8706 25.4846 29.6795L24.5985 28.1866C24.6509 28.0693 24.7005 27.9507 24.7472 27.8309L26.4364 27.4001C26.6517 27.3452 26.8426 27.2201 26.9789 27.0447C27.1152 26.8692 27.1892 26.6533 27.1892 26.4311V23.5041C27.1892 23.2819 27.1152 23.0661 26.9789 22.8906C26.8425 22.7152 26.6517 22.5902 26.4364 22.5352L24.7614 22.108C24.7142 21.9855 24.6642 21.8641 24.6114 21.7439L25.4976 20.25C25.611 20.0589 25.6576 19.8355 25.6299 19.6151C25.6023 19.3946 25.502 19.1896 25.3449 19.0325L23.275 16.9634C23.1179 16.8062 22.9128 16.7058 22.6923 16.6781C22.4718 16.6505 22.2483 16.697 22.0572 16.8105L20.5697 17.6939C20.4502 17.6408 20.3297 17.5908 20.208 17.5439L19.7784 15.8592C19.7235 15.6439 19.5984 15.453 19.4229 15.3166C19.2475 15.1803 19.0316 15.1062 18.8094 15.1062H15.8825C15.6603 15.1062 15.4444 15.1802 15.2689 15.3166C15.0935 15.4529 14.9684 15.6438 14.9135 15.8591L14.4839 17.5439C14.3654 17.5897 14.2479 17.6384 14.1315 17.69L12.6289 16.7979C12.4378 16.6843 12.2145 16.6377 11.994 16.6652C11.7735 16.6928 11.5684 16.793 11.4112 16.95L9.34161 19.02C9.18451 19.1771 9.08421 19.3821 9.05655 19.6026C9.02889 19.823 9.07544 20.0464 9.18886 20.2375L10.082 21.7421C10.032 21.8545 9.98486 21.968 9.94061 22.0825L8.23749 22.5169C8.02217 22.5718 7.83128 22.6968 7.69495 22.8723C7.55861 23.0478 7.48461 23.2637 7.48461 23.4859V26.4125C7.48455 26.6347 7.55853 26.8507 7.69487 27.0262C7.83121 27.2017 8.02213 27.3268 8.23749 27.3817ZM9.48424 24.2625L10.9556 23.8875C11.1219 23.8451 11.2745 23.7606 11.3987 23.6421C11.5229 23.5237 11.6145 23.3752 11.6647 23.2111C11.7757 22.8491 11.9212 22.4986 12.0991 22.1644C12.1799 22.0127 12.2203 21.8429 12.2163 21.6711C12.2123 21.4993 12.1642 21.3315 12.0765 21.1837L11.3052 19.8846L12.276 18.9139L13.5737 19.6842C13.7215 19.772 13.8895 19.8202 14.0613 19.8241C14.2331 19.828 14.4031 19.7876 14.5547 19.7067C14.8919 19.5268 15.2458 19.38 15.6114 19.2684C15.7758 19.2183 15.9245 19.1267 16.0432 19.0024C16.1619 18.8782 16.2465 18.7254 16.289 18.5589L16.6595 17.1057H18.0324L18.4029 18.5589C18.4453 18.7254 18.53 18.8781 18.6486 19.0024C18.7673 19.1267 18.916 19.2183 19.0804 19.2684C19.4485 19.3808 19.8049 19.5289 20.1442 19.7106C20.296 19.7919 20.4662 19.8325 20.6383 19.8287C20.8104 19.8249 20.9786 19.7767 21.1266 19.6889L22.4105 18.9264L23.3812 19.8971L22.6167 21.1846C22.5291 21.3323 22.4809 21.5001 22.4769 21.6718C22.4729 21.8434 22.5132 22.0133 22.5939 22.1649C22.7749 22.5053 22.9223 22.8626 23.0339 23.2317C23.0836 23.3967 23.1752 23.5459 23.2996 23.6651C23.4241 23.7842 23.5772 23.8692 23.7441 23.9117L25.1894 24.2802V25.6531L23.7332 26.025C23.5672 26.0674 23.4148 26.1517 23.2907 26.2699C23.1666 26.3881 23.075 26.5362 23.0246 26.7C22.9117 27.0664 22.7634 27.4209 22.5819 27.7586C22.5003 27.9105 22.4593 28.0809 22.463 28.2533C22.4667 28.4256 22.5149 28.5941 22.6029 28.7424L23.3682 30.0319L22.3976 31.0026L21.0964 30.2302C20.9491 30.1428 20.7817 30.0947 20.6105 30.0905C20.4392 30.0863 20.2698 30.1261 20.1184 30.2062C19.7825 30.3838 19.4303 30.5286 19.0666 30.6386C18.9018 30.6884 18.7525 30.78 18.6335 30.9044C18.5144 31.0288 18.4294 31.1819 18.3869 31.3487L18.0141 32.8112H16.6412L16.2654 31.3369C16.223 31.1709 16.1388 31.0186 16.0208 30.8946C15.9027 30.7705 15.7548 30.6788 15.5911 30.6284C15.231 30.517 14.8823 30.3714 14.5499 30.1936C14.3981 30.1125 14.2281 30.0719 14.0561 30.0757C13.884 30.0795 13.7159 30.1277 13.568 30.2155L12.2631 30.9905L11.2922 30.0197L12.0704 28.7091C12.1579 28.5616 12.2061 28.3941 12.2102 28.2226C12.2143 28.0512 12.1742 27.8815 12.0939 27.73C11.9175 27.3972 11.7733 27.0483 11.6632 26.6881C11.6131 26.5238 11.5215 26.3752 11.3973 26.2566C11.273 26.138 11.1203 26.0534 10.9539 26.011L9.48424 25.636V24.2625ZM17.3367 29.3C18.1955 29.3 19.035 29.0453 19.749 28.5682C20.4631 28.0911 21.0196 27.413 21.3482 26.6196C21.6769 25.8262 21.7628 24.9531 21.5953 24.1109C21.4277 23.2686 21.0142 22.4949 20.4069 21.8877C19.7997 21.2805 19.026 20.8669 18.1837 20.6994C17.3415 20.5319 16.4684 20.6179 15.675 20.9465C14.8816 21.2752 14.2035 21.8317 13.7264 22.5458C13.2493 23.2599 12.9947 24.0993 12.9947 24.9581C12.996 26.1093 13.4539 27.2129 14.2679 28.0269C15.0819 28.8409 16.1856 29.2987 17.3367 29.3ZM17.3367 22.6161C17.7999 22.6161 18.2527 22.7535 18.6379 23.0108C19.023 23.2682 19.3232 23.6339 19.5005 24.0619C19.6777 24.4898 19.7241 24.9607 19.6337 25.415C19.5434 25.8693 19.3203 26.2866 18.9928 26.6142C18.6652 26.9417 18.2479 27.1648 17.7936 27.2551C17.3393 27.3455 16.8684 27.2991 16.4405 27.1218C16.0125 26.9446 15.6468 26.6444 15.3894 26.2593C15.1321 25.8741 14.9947 25.4213 14.9947 24.9581C14.9955 24.3373 15.2425 23.7421 15.6816 23.3031C16.1206 22.8641 16.7159 22.6172 17.3367 22.6165V22.6161ZM16.6536 9.48237L17.7036 9.75025L17.147 10.6877C17.0335 10.8788 16.987 11.1023 17.0146 11.3227C17.0423 11.5432 17.1426 11.7482 17.2997 11.9054L18.776 13.3816C18.9331 13.5388 19.1381 13.6391 19.3586 13.6668C19.5791 13.6945 19.8025 13.6479 19.9936 13.5345L20.926 12.981L21.1954 14.0377C21.2503 14.2531 21.3754 14.444 21.5509 14.5803C21.7264 14.7167 21.9423 14.7907 22.1645 14.7906H24.252C24.4742 14.7906 24.6901 14.7166 24.8656 14.5802C25.041 14.4439 25.1661 14.253 25.221 14.0376L25.4889 12.987L26.4264 13.5437C26.6175 13.6572 26.8409 13.7037 27.0614 13.676C27.2819 13.6484 27.4869 13.548 27.644 13.3909L29.1204 11.9146C29.2775 11.7575 29.3778 11.5525 29.4055 11.332C29.4331 11.1115 29.3866 10.8881 29.2731 10.697L28.7196 9.76462L29.7764 9.49525C29.9917 9.44033 30.1826 9.31527 30.3189 9.1398C30.4552 8.96433 30.5292 8.74845 30.5292 8.52625V6.43875C30.5292 6.21654 30.4552 6.00066 30.3189 5.82519C30.1826 5.64972 29.9917 5.52466 29.7764 5.46975L28.7256 5.20187L29.2824 4.26437C29.3958 4.07329 29.4423 3.84988 29.4146 3.62942C29.3869 3.40895 29.2866 3.20398 29.1295 3.04687L27.6532 1.5705C27.4961 1.41339 27.2911 1.31309 27.0707 1.28543C26.8502 1.25777 26.6268 1.30433 26.4357 1.41775L25.5034 1.97112L25.2339 0.914496C25.1789 0.699181 25.0539 0.508289 24.8784 0.371956C24.7029 0.235624 24.4871 0.161617 24.2649 0.161621H22.1774C21.9552 0.161617 21.7393 0.235624 21.5638 0.371956C21.3883 0.508289 21.2633 0.699181 21.2084 0.914496L20.9405 1.96512L20.003 1.4085C19.8119 1.29508 19.5885 1.24852 19.3681 1.27618C19.1476 1.30384 18.9426 1.40414 18.7855 1.56125L17.3096 3.0375C17.1525 3.19461 17.0522 3.39958 17.0245 3.62004C16.9968 3.84051 17.0433 4.06392 17.1567 4.255L17.7102 5.18737L16.6536 5.45687C16.4383 5.51176 16.2474 5.63681 16.111 5.81228C15.9746 5.98776 15.9006 6.20365 15.9006 6.42587V8.51337C15.9006 8.73559 15.9746 8.95149 16.111 9.12696C16.2474 9.30243 16.4383 9.42748 16.6536 9.48237ZM17.9006 7.20262L18.7344 6.99012C18.9007 6.9477 19.0533 6.86318 19.1775 6.7447C19.3017 6.62622 19.3933 6.47776 19.4435 6.31362C19.5173 6.073 19.614 5.84001 19.7324 5.61787C19.8131 5.46623 19.8535 5.29634 19.8495 5.12458C19.8455 4.95282 19.7973 4.78498 19.7096 4.63725L19.2732 3.90212L19.6507 3.52462L20.3849 3.9605C20.5327 4.04822 20.7006 4.09636 20.8724 4.10028C21.0443 4.1042 21.2142 4.06376 21.3659 3.98287C21.59 3.86331 21.8253 3.76573 22.0682 3.6915C22.2326 3.64141 22.3813 3.54981 22.5 3.42553C22.6186 3.30126 22.7033 3.1485 22.7457 2.982L22.955 2.16137H23.4889L23.6981 2.982C23.7405 3.14841 23.8251 3.30109 23.9436 3.42533C24.0622 3.54958 24.2107 3.6412 24.375 3.69137C24.6198 3.76614 24.8567 3.8646 25.0824 3.98537C25.2341 4.06658 25.4043 4.10725 25.5763 4.10344C25.7484 4.09963 25.9166 4.05147 26.0646 3.96362L26.7889 3.53375L27.1664 3.91125L26.7347 4.63837C26.6471 4.78607 26.5989 4.95387 26.5949 5.12558C26.591 5.29729 26.6313 5.46714 26.712 5.61875C26.8324 5.84498 26.9303 6.08244 27.0045 6.32775C27.0543 6.49267 27.1458 6.64193 27.2703 6.76107C27.3947 6.88021 27.5478 6.96518 27.7147 7.00775L28.5297 7.21562V7.75L27.707 7.95975C27.5409 8.00209 27.3885 8.08641 27.2644 8.20461C27.1403 8.32281 27.0486 8.47093 26.9982 8.63475C26.9232 8.87819 26.8246 9.11375 26.704 9.33812C26.6223 9.49002 26.5813 9.66045 26.585 9.83287C26.5886 10.0053 26.6368 10.1738 26.7249 10.3221L27.1572 11.0504L26.7797 11.4279L26.0432 10.9904C25.8959 10.9029 25.7286 10.8547 25.5573 10.8505C25.386 10.8463 25.2166 10.8861 25.0651 10.9662C24.8418 11.0843 24.6077 11.1806 24.366 11.2537C24.2011 11.3036 24.0519 11.3951 23.9328 11.5195C23.8137 11.6439 23.7288 11.797 23.6862 11.9639L23.4754 12.791H22.9415L22.7284 11.9551C22.686 11.7892 22.6018 11.6369 22.4838 11.5129C22.3658 11.3889 22.2178 11.2972 22.0542 11.2467C21.815 11.1725 21.5834 11.0757 21.3625 10.9575C21.2107 10.8764 21.0406 10.8358 20.8686 10.8396C20.6966 10.8435 20.5284 10.8917 20.3805 10.9795L19.6412 11.4182L19.2639 11.0409L19.7051 10.2975C19.7927 10.15 19.8409 9.98249 19.845 9.81102C19.8491 9.63955 19.8091 9.4699 19.7287 9.31837C19.6114 9.09716 19.5155 8.86522 19.4424 8.62575C19.3922 8.46148 19.3006 8.31291 19.1764 8.19433C19.0521 8.07575 18.8994 7.99118 18.733 7.94875L17.9005 7.73625L17.9006 7.20262ZM23.2155 10.8599C23.8847 10.8598 24.539 10.6614 25.0954 10.2895C25.6519 9.91768 26.0856 9.38919 26.3417 8.77086C26.5978 8.15254 26.6648 7.47216 26.5342 6.81576C26.4036 6.15936 26.0813 5.55642 25.6081 5.08319C25.1348 4.60996 24.5319 4.28769 23.8755 4.15713C23.2191 4.02657 22.5387 4.09359 21.9204 4.34972C21.3021 4.60584 20.7736 5.03956 20.4018 5.59603C20.0299 6.1525 19.8315 6.80673 19.8315 7.476C19.8324 8.37318 20.1893 9.23335 20.8237 9.86774C21.4581 10.5021 22.3183 10.8589 23.2155 10.8599ZM23.2155 6.09212C23.4892 6.09215 23.7567 6.17333 23.9843 6.32541C24.2119 6.47748 24.3892 6.69362 24.4939 6.9465C24.5987 7.19937 24.626 7.47762 24.5726 7.74605C24.5192 8.01449 24.3874 8.26106 24.1939 8.45459C24.0003 8.64811 23.7537 8.7799 23.4853 8.83329C23.2169 8.88668 22.9386 8.85926 22.6857 8.75452C22.4329 8.64977 22.2168 8.4724 22.0647 8.24482C21.9126 8.01725 21.8315 7.7497 21.8315 7.476C21.8319 7.10908 21.9779 6.75732 22.2373 6.49788C22.4968 6.23844 22.8486 6.09252 23.2155 6.09212Z" fill="#002661"/>
</g>
<defs>
<clipPath id="clip0_66_69">
<rect width="64" height="64" fill="white"/>
</clipPath>
</defs>
</svg>
