<svg width="68" height="68" viewBox="0 0 68 68" fill="none" xmlns="http://www.w3.org/2000/svg">
<path fill-rule="evenodd" clip-rule="evenodd" d="M52.2621 5.47501C52.1078 5.05806 51.7102 4.78125 51.2656 4.78125C50.821 4.78125 50.4234 5.05806 50.2692 5.47501L48.5016 10.2516L43.725 12.0192C43.3081 12.1734 43.0312 12.571 43.0312 13.0156C43.0312 13.4602 43.3081 13.8578 43.725 14.0121L48.5016 15.7796L50.2692 20.5562C50.4234 20.9732 50.821 21.25 51.2656 21.25C51.7102 21.25 52.1078 20.9732 52.2621 20.5562L54.0297 15.7796L58.8062 14.0121C59.2232 13.8578 59.5 13.4602 59.5 13.0156C59.5 12.571 59.2232 12.1734 58.8062 12.0192L54.0297 10.2516L52.2621 5.47501ZM50.325 11.4473L51.2656 8.9054L52.2062 11.4473C52.3138 11.7381 52.5431 11.9674 52.8339 12.075L55.3759 13.0156L52.8339 13.9562C52.5431 14.0638 52.3138 14.2931 52.2062 14.584L51.2656 17.1259L50.325 14.584C50.2174 14.2931 49.9881 14.0638 49.6973 13.9562L47.1554 13.0156L49.6973 12.075C49.9881 11.9674 50.2174 11.7381 50.325 11.4473Z" fill="#002661"/>
<path fill-rule="evenodd" clip-rule="evenodd" d="M33.91 16.5671C34.1036 16.9552 34.0419 17.4222 33.754 17.7466C31.9231 19.8104 30.8125 22.5241 30.8125 25.4996C30.8125 31.9545 36.0452 37.1871 42.5 37.1871C42.8218 37.1871 43.1404 37.1742 43.4552 37.1487C43.8876 37.1138 44.2977 37.3452 44.4914 37.7334C44.6851 38.1215 44.6235 38.5884 44.3356 38.9129C41.8068 41.7633 38.1128 43.5621 34 43.5621C26.3716 43.5621 20.1875 37.3781 20.1875 29.7496C20.1875 22.5003 25.7715 16.5562 32.8737 15.9825C33.3061 15.9476 33.7163 16.179 33.91 16.5671ZM30.5423 18.5819C25.7758 20.0559 22.3125 24.4987 22.3125 29.7496C22.3125 36.2045 27.5452 41.4371 34 41.4371C36.5618 41.4371 38.9306 40.6136 40.8571 39.2155C34.0031 38.4031 28.6875 32.5722 28.6875 25.4996C28.6875 22.9797 29.363 20.6162 30.5423 18.5819Z" fill="#002661"/>
<path fill-rule="evenodd" clip-rule="evenodd" d="M48.875 58.1719C48.875 55.0912 51.3724 52.5938 54.4531 52.5938C57.5338 52.5938 60.0312 55.0912 60.0312 58.1719C60.0312 61.2526 57.5338 63.75 54.4531 63.75C51.3724 63.75 48.875 61.2526 48.875 58.1719ZM54.4531 54.7188C52.546 54.7188 51 56.2647 51 58.1719C51 60.0791 52.546 61.625 54.4531 61.625C56.3603 61.625 57.9062 60.0791 57.9062 58.1719C57.9062 56.2647 56.3603 54.7188 54.4531 54.7188Z" fill="#002661"/>
<path fill-rule="evenodd" clip-rule="evenodd" d="M42.5 18.5938C42.9446 18.5938 43.3422 18.8706 43.4965 19.2875L44.9053 23.0947L48.7125 24.5035C49.1294 24.6578 49.4062 25.0554 49.4062 25.5C49.4062 25.9446 49.1294 26.3422 48.7125 26.4965L44.9053 27.9053L43.4965 31.7125C43.3422 32.1294 42.9446 32.4062 42.5 32.4062C42.0554 32.4062 41.6578 32.1294 41.5035 31.7125L40.0947 27.9053L36.2875 26.4965C35.8706 26.3422 35.5938 25.9446 35.5938 25.5C35.5938 25.0554 35.8706 24.6578 36.2875 24.5035L40.0947 23.0947L41.5035 19.2875C41.6578 18.8706 42.0554 18.5938 42.5 18.5938ZM42.5 22.7179L41.9181 24.2904C41.8105 24.5812 41.5812 24.8105 41.2904 24.9181L39.7179 25.5L41.2904 26.0819C41.5812 26.1895 41.8105 26.4188 41.9181 26.7096L42.5 28.2821L43.0819 26.7096C43.1895 26.4188 43.4188 26.1895 43.7096 26.0819L45.2821 25.5L43.7096 24.9181C43.4188 24.8105 43.1895 24.5812 43.0819 24.2904L42.5 22.7179Z" fill="#002661"/>
<path d="M18.0187 21.2864C18.9756 18.0568 21.9738 14.8108 25.9506 12.9487C29.8975 11.1005 34.6646 10.6845 39.103 12.9036C39.6278 13.166 40.266 12.9533 40.5285 12.4284C40.7909 11.9036 40.5782 11.2654 40.0533 11.0029C34.9291 8.44083 29.4697 8.95445 25.0494 11.0242C20.934 12.9513 17.5926 16.288 16.228 19.9454C9.8728 20.331 4.25 25.4498 4.25 32.9376C4.25 36.8856 6.2211 40.4206 9.04129 42.8124C11.5798 44.9654 14.8831 46.2567 18.2046 46.0589C18.9309 49.4443 22.2412 51.6101 25.5881 52.3995C28.7645 53.1484 32.5226 52.8022 35.0185 50.7294C36.6821 53.3513 40.1282 54.442 43.3593 54.3533C47.0033 54.2529 50.9936 52.6653 52.963 49.3928C55.7414 49.2727 57.9339 48.3615 59.5467 46.9253C61.2701 45.3908 62.2551 43.3264 62.6376 41.1937C63.0195 39.0651 62.8113 36.8256 62.1053 34.8717C61.4938 33.1791 60.486 31.6433 59.1 30.6007C60.0977 25.4324 57.7299 21.5975 56.2408 20.2078C55.8115 19.8074 55.1395 19.8306 54.7389 20.2596C54.3384 20.6885 54.3618 21.3609 54.7905 21.7612C55.888 22.7855 58.0407 26.1593 56.8756 30.8206C56.7614 31.2768 56.9606 31.7537 57.366 31.993C58.5613 32.6996 59.5239 33.9809 60.1067 35.5939C60.6879 37.2011 60.8611 39.0622 60.546 40.8183C60.2315 42.5704 59.44 44.1749 58.1336 45.3382C56.8379 46.492 54.9578 47.2814 52.3281 47.2814C51.9257 47.2814 51.5578 47.5087 51.3778 47.8687C50.0209 50.5826 46.6883 52.1358 43.3009 52.2291C39.8679 52.3235 37.0652 50.9333 36.3446 48.5658C36.2281 48.1829 35.9063 47.898 35.5121 47.8287C35.1179 47.7594 34.7183 47.9175 34.4781 48.2376C32.8481 50.411 29.3959 51.1142 26.0759 50.3312C22.7412 49.5448 20.2909 47.4559 20.1867 44.8483C20.1745 44.5449 20.0331 44.2611 19.7981 44.0687C19.5631 43.8763 19.257 43.7936 18.9571 43.8416C15.9954 44.3155 12.8459 43.2528 10.4157 41.1918C7.98984 39.1343 6.375 36.1616 6.375 32.9376C6.375 26.3836 11.4459 22.047 17 22.047C17.4705 22.047 17.8851 21.7375 18.0187 21.2864Z" fill="#002661"/>
</svg>
