<svg width="69" height="69" viewBox="0 0 69 69" fill="none" xmlns="http://www.w3.org/2000/svg">
<g clip-path="url(#clip0_66_772)">
<path d="M40.0674 66.8438H2.15625V10.7812H9.70312C10.2985 10.7812 10.7812 10.2985 10.7812 9.70312V2.15625H51.75V22.6397C51.75 23.2351 52.2327 23.7178 52.8281 23.7178C53.4235 23.7178 53.9062 23.2351 53.9062 22.6397V1.07812C53.9062 0.48273 53.4235 0 52.8281 0H9.70312C9.41715 0 9.14304 0.113607 8.94076 0.315756L0.315756 8.94076C0.113607 9.1429 0 9.41715 0 9.70312V67.9219C0 68.5173 0.48273 69 1.07812 69H40.0674C40.6628 69 41.1456 68.5173 41.1456 67.9219C41.1456 67.3265 40.6628 66.8438 40.0674 66.8438ZM3.68085 8.625L8.625 3.68085V8.625H3.68085Z" fill="#002661"/>
<path d="M65.0286 24.7833C63.1908 23.7224 61.05 23.4405 59.0005 23.9896C56.9509 24.5388 55.2377 25.8533 54.1769 27.691C53.5626 28.7547 53.21 29.9115 53.1289 31.1294C53.1284 31.1383 53.1278 31.1481 53.1274 31.157C53.1253 31.2069 52.8916 36.1812 50.4716 40.3728C48.6761 43.4825 45.6031 45.2642 44.5499 45.807C43.6572 45.4916 42.7979 45.2352 41.99 45.0468C39.8138 44.5388 37.0041 44.307 35.978 46.0839L31.9156 53.1203C30.8898 54.8972 32.4955 57.2145 34.0233 58.8454C35.9009 60.8501 38.6903 62.9675 41.8776 64.8076C45.0649 66.648 48.2934 68.0049 50.9682 68.6287C51.8497 68.8343 52.8351 68.9946 53.7638 68.9946C55.0597 68.9946 56.244 68.6812 56.8825 67.7437C56.9068 67.711 56.9304 67.6774 56.9513 67.6413L56.9798 67.5919L56.9801 67.5914L56.9804 67.5909L61.0426 60.5551C62.0685 58.7782 60.4627 56.461 58.9349 54.83C58.3852 54.243 57.7553 53.6464 57.0621 53.05C57.0045 51.8846 57.0011 48.3115 58.8061 45.1849C61.2263 40.9932 65.4185 38.3028 65.4598 38.2766C65.4681 38.2714 65.476 38.2662 65.4842 38.2608C66.4977 37.5817 67.3226 36.6983 67.9362 35.6353C70.1265 31.8419 68.8221 26.9736 65.0286 24.7833ZM55.1128 66.5133C54.998 66.7118 54.0812 67.1403 51.4578 66.5288C48.9839 65.9519 45.9644 64.6775 42.9556 62.9404C39.9468 61.2032 37.3334 59.2256 35.5969 57.3715C33.7555 55.4057 33.6681 54.3969 33.7826 54.1984C33.8533 54.0762 34.2283 53.8666 35.1192 53.8666C35.6746 53.8666 36.4304 53.948 37.4376 54.1831C39.9115 54.7599 42.9311 56.0342 45.9398 57.7713C48.9486 59.5086 51.5621 61.4863 53.2986 63.3403C55.1399 65.3061 55.2274 66.3148 55.1128 66.5133ZM59.1753 59.4769L56.5448 64.0331C56.0847 63.2546 55.4729 62.5073 54.8725 61.8662C52.995 59.8617 50.2056 57.7443 47.0182 55.904C43.8309 54.0638 40.6025 52.7067 37.9276 52.083C37.0721 51.8836 36.1191 51.7274 35.2148 51.7182L37.8453 47.1619C37.9601 46.9634 38.8768 46.5346 41.5003 47.1466C43.974 47.7234 46.9936 48.9977 50.0025 50.7348C53.0113 52.4721 55.6248 54.4498 57.3612 56.3037C59.2025 58.2696 59.29 59.2783 59.1754 59.4768L59.1753 59.4769ZM66.0688 34.557C65.6236 35.3284 65.0266 35.9695 64.2941 36.4625C63.9612 36.6749 59.5846 39.5242 56.9387 44.1066C55.4484 46.6882 55.0128 49.457 54.912 51.3515C53.7343 50.4932 52.4443 49.655 51.0806 48.8675C49.7413 48.0944 48.3953 47.4079 47.0858 46.8238C48.6756 45.7885 50.851 44.0284 52.3391 41.4508C54.9852 36.8674 55.2639 31.6528 55.2813 31.2601C55.3419 30.3789 55.5985 29.5409 56.0443 28.769C56.8172 27.4301 58.0652 26.4724 59.5586 26.0723C61.0519 25.6721 62.6117 25.8774 63.9506 26.6506C66.7145 28.2464 67.6649 31.7931 66.069 34.557H66.0688Z" fill="#002661"/>
<path d="M47.6448 38.1755C47.6448 37.5801 47.1621 37.0974 46.5667 37.0974H7.8457C7.25031 37.0974 6.76758 37.5801 6.76758 38.1755C6.76758 38.7709 7.25031 39.2537 7.8457 39.2537H46.5667C47.1621 39.2537 47.6448 38.7709 47.6448 38.1755Z" fill="#002661"/>
<path d="M31.6713 45.2889C31.6713 44.6935 31.1886 44.2108 30.5932 44.2108H7.8457C7.25031 44.2108 6.76758 44.6935 6.76758 45.2889C6.76758 45.8843 7.25031 46.3671 7.8457 46.3671H30.5932C31.1886 46.3671 31.6713 45.8843 31.6713 45.2889Z" fill="#002661"/>
<path d="M7.8457 53.4802H27.2063C27.8017 53.4802 28.2844 52.9975 28.2844 52.4021C28.2844 51.8067 27.8017 51.324 27.2063 51.324H7.8457C7.25031 51.324 6.76758 51.8067 6.76758 52.4021C6.76758 52.9975 7.25031 53.4802 7.8457 53.4802Z" fill="#002661"/>
<path d="M7.8457 60.8365H29.2838C29.8792 60.8365 30.3619 60.3538 30.3619 59.7584C30.3619 59.163 29.8792 58.6803 29.2838 58.6803H7.8457C7.25031 58.6803 6.76758 59.163 6.76758 59.7584C6.76758 60.3538 7.25031 60.8365 7.8457 60.8365Z" fill="#002661"/>
<path d="M38.9548 20.3927C38.9548 13.9149 33.6848 8.64478 27.2069 8.64478C20.729 8.64478 15.459 13.9148 15.459 20.3927C15.459 26.8706 20.729 32.1406 27.2069 32.1406C33.6848 32.1406 38.9548 26.8706 38.9548 20.3927ZM17.6152 20.3927C17.6152 15.1038 21.918 10.801 27.2069 10.801C32.4958 10.801 36.7986 15.1038 36.7986 20.3927C36.7986 25.6816 32.4958 29.9844 27.2069 29.9844C21.918 29.9844 17.6152 25.6816 17.6152 20.3927Z" fill="#002661"/>
<path d="M32.879 17.2486C32.4281 16.86 31.7474 16.9105 31.3586 17.3612L25.8927 23.7008L23.3068 21.878C22.82 21.5347 22.1474 21.6513 21.8044 22.1379C21.4614 22.6246 21.5777 23.2973 22.0645 23.6403L25.4497 26.0266C25.6378 26.1592 25.8548 26.2236 26.0703 26.2236C26.3743 26.2236 26.6752 26.0953 26.8872 25.8495L32.9916 18.7693C33.3805 18.3183 33.3301 17.6374 32.879 17.2486Z" fill="#002661"/>
</g>
<defs>
<clipPath id="clip0_66_772">
<rect width="69" height="69" fill="white"/>
</clipPath>
</defs>
</svg>
